<svg width="79" height="79" viewBox="0 0 79 79" fill="none" xmlns="http://www.w3.org/2000/svg">
<path d="M38.4976 1.94515V3.16797H39.7204H40.9432V1.94515V0.722328H39.7204H38.4976V1.94515Z" fill="url(#paint0_linear_525_682)"/>
<path d="M57.6501 1.08912C54.0887 2.41893 51.9335 5.41484 51.9182 9.05273C51.9029 11.2385 52.713 13.2715 54.8988 16.5425C55.9688 18.1475 57.9711 20.7459 59.0411 21.9229C59.7289 22.6872 59.8207 22.733 60.4932 22.733C61.1352 22.733 61.2728 22.6719 61.8383 22.0758C63.6114 20.2263 66.592 16.0687 67.769 13.7606C68.7167 11.9111 69.0835 10.6883 69.0988 9.20558C69.1599 5.49127 66.9589 2.40365 63.321 1.08912C62.4803 0.768126 62.0523 0.722269 60.4626 0.737555C58.9035 0.737555 58.445 0.798697 57.6501 1.08912ZM63.0153 3.91689C63.9782 4.39073 65.3998 5.79697 65.8736 6.77523C66.1487 7.34078 66.2557 7.82991 66.2863 8.83874C66.3627 10.4284 66.1029 11.1468 64.6355 13.6077C63.5961 15.335 60.8601 19.0799 60.5543 19.1716C60.3251 19.248 57.5432 15.5337 56.3662 13.5466C55.0058 11.2691 54.7001 10.4437 54.7001 9.0833C54.7001 8.47189 54.8071 7.66177 54.9294 7.27964C55.4032 5.90397 57.054 4.22259 58.445 3.70289C58.873 3.55004 59.5455 3.4889 60.6613 3.51947C61.9912 3.55004 62.3886 3.61118 63.0153 3.91689Z" fill="url(#paint1_linear_525_682)"/>
<path d="M58.7046 5.93457C57.436 6.57655 56.8398 7.69238 56.8398 9.41961C56.8398 10.9634 57.4818 12.0334 58.7811 12.6448C59.3772 12.9199 59.6982 12.9658 60.7376 12.9199C61.7923 12.8894 62.0827 12.8129 62.6177 12.4461C62.9692 12.2168 63.4431 11.743 63.6724 11.3914C64.0698 10.8106 64.1003 10.6424 64.1003 9.28204C64.1003 7.92166 64.0698 7.75352 63.6724 7.17268C63.4431 6.82112 62.9692 6.34728 62.6177 6.118C62.0674 5.75115 61.8076 5.69001 60.6764 5.64415C59.5759 5.5983 59.2549 5.65944 58.7046 5.93457ZM60.8599 8.38021C61.67 8.74706 61.6853 9.81703 60.8751 10.1839C60.1109 10.5201 59.2702 9.67946 59.6065 8.9152C59.744 8.62478 60.0803 8.34964 60.4624 8.22736C60.4777 8.21208 60.6612 8.2885 60.8599 8.38021Z" fill="url(#paint2_linear_525_682)"/>
<path d="M29.3721 1.96035C28.455 2.25077 28.4092 2.28134 28.4244 2.75518C28.4244 3.03031 28.562 3.58058 28.6996 4.00857C29.0206 4.87983 29.1276 4.9104 30.6408 4.46713C31.6038 4.19199 31.6191 4.10028 31.1911 2.6329C30.8701 1.54765 30.7478 1.51707 29.3721 1.96035Z" fill="url(#paint3_linear_525_682)"/>
<path d="M19.972 5.8582C19.4829 6.16391 19.0854 6.51547 19.0854 6.63775C19.0854 7.00459 20.1401 8.82354 20.3541 8.80825C20.7515 8.79297 22.3718 7.66186 22.4176 7.37144C22.4788 6.95874 21.4241 5.30793 21.1031 5.30793C20.9655 5.30793 20.4458 5.56778 19.972 5.8582Z" fill="url(#paint4_linear_525_682)"/>
<path d="M34.4472 8.34966C28.3025 9.45019 22.9221 12.0487 18.3518 16.1451C11.9778 21.8618 7.92725 30.5897 7.92725 38.5839C7.92725 40.892 8.01896 41.0754 9.18064 41.0754C10.2353 41.0754 10.4035 40.8002 10.541 38.7367C10.7244 36.3217 10.9384 34.9307 11.4429 32.8213C13.9344 22.6567 22.1731 14.2956 32.3072 11.6818C34.4777 11.1163 35.3643 10.9787 38.0086 10.7342C40.76 10.4896 40.9434 10.3979 40.9434 9.28205C40.9434 8.12038 40.7753 8.05923 38.1768 8.07452C36.8011 8.07452 35.4101 8.18152 34.4472 8.34966Z" fill="url(#paint5_linear_525_682)"/>
<path d="M11.8248 12.1862L10.9077 13.1186L11.779 13.944C12.2528 14.4026 12.7572 14.7847 12.9101 14.7847C13.2311 14.7847 14.6526 13.3479 14.6526 13.0269C14.6526 12.6906 13.2922 11.2691 12.9865 11.2691C12.8489 11.2691 12.3292 11.6818 11.8248 12.1862Z" fill="url(#paint6_linear_525_682)"/>
<path d="M36.5108 15.4726C36.3885 15.5032 35.7618 15.6102 35.1351 15.7019C33.5302 15.9617 30.9011 16.8177 29.0975 17.689C22.9375 20.6543 18.3978 25.8819 16.2731 32.5004C15.4172 35.1447 15.2337 36.7497 15.3102 40.6168C15.3866 44.1019 15.5089 44.8661 16.426 47.7245C18.7341 54.8321 24.68 60.7475 31.9252 63.1473C34.8447 64.1103 35.716 64.2325 39.7971 64.2325C43.7866 64.2325 44.4591 64.1408 47.3633 63.2237C55.6021 60.5794 61.8385 53.6399 63.795 44.8967C64.1313 43.4293 64.2688 38.2629 64.0396 36.2911C63.6116 32.6532 61.9149 28.5109 59.4693 25.1787C58.4604 23.7878 55.7397 21.0823 54.4251 20.1346C51.1388 17.7654 47.5009 16.2216 43.7713 15.6254C42.5791 15.4267 37.3056 15.3197 36.5108 15.4726ZM43.8477 18.4379C46.5685 18.9729 49.1517 20.0123 51.4751 21.5103L52.7285 22.3204L51.9336 23.1305L51.1235 23.9559H49.274H47.4398L45.8195 25.5914C42.7472 28.7249 42.7778 28.6179 44.8107 31.675C46.1252 33.6468 46.2169 33.7385 47.0423 33.7385C47.6538 33.7385 49.8243 33.2799 52.1782 32.6532C52.5909 32.5309 53.1106 32.1641 53.8749 31.4151L54.9907 30.3451L56.9472 30.7426C59.8972 31.354 59.8361 31.3234 60.1877 32.2864C60.7991 33.9066 60.8755 33.7538 59.1483 34.3193C57.849 34.7473 57.2988 34.839 55.6632 34.9154C53.829 34.9919 53.6456 35.0377 52.6368 35.5421C50.8025 36.4592 50.8025 36.444 50.1147 38.5533C49.7784 39.5927 49.5033 40.7544 49.5033 41.1212C49.5033 41.9008 49.6408 42.0536 51.3069 43.1389L52.4075 43.8726L52.1171 44.3464C51.9642 44.6063 51.5821 45.233 51.2764 45.7221C50.5427 46.9449 50.558 47.4035 51.4139 49.146C52.1935 50.7662 52.4228 50.9497 54.257 51.4694C55.6021 51.8515 55.4951 51.7292 55.7549 53.487L55.9078 54.5264L54.9754 55.3977C53.615 56.7122 51.3681 58.3477 49.8243 59.1578C49.0753 59.5553 48.4333 59.8762 48.3722 59.8762C48.3263 59.8762 48.2805 59.3413 48.2805 58.684V57.507L46.9812 55.5658C46.2628 54.4958 45.5138 53.5023 45.3151 53.38C44.7801 53.0285 44.0617 53.2577 42.3498 54.3736C41.5702 54.878 40.8365 55.2907 40.7448 55.2754C40.6378 55.2754 39.7819 54.878 38.8189 54.3888L37.0917 53.5176L35.8383 51.0719C34.4626 48.3817 34.2486 48.1525 33.2703 48.4123C32.9646 48.504 32.1545 48.9473 31.4514 49.4059L30.1674 50.2313L27.8594 47.9232L25.536 45.6151L26.5143 43.6127C27.2327 42.1301 27.4925 41.4422 27.4925 40.9684C27.4925 40.2653 27.3397 40.1124 25.3984 38.7979C24.8635 38.4463 24.4355 38.1101 24.4355 38.0489C24.4507 37.6515 24.8023 37.5139 25.8723 37.4375L27.034 37.3611L30.1369 35.4963C31.8335 34.4722 33.3468 33.448 33.4996 33.2493C33.897 32.7144 33.683 32.0112 32.5366 30.2534C32.0322 29.4739 31.6195 28.7555 31.6195 28.6791C31.6195 28.6026 31.7724 28.2358 31.9405 27.8842C32.4602 26.8754 32.5519 26.4168 32.3227 25.8819C32.2157 25.6067 31.2374 24.4756 30.1674 23.3598L28.2109 21.3268L29.1586 20.7919C31.3903 19.5385 34.6154 18.4685 37.1222 18.1475C38.7425 17.9488 42.1358 18.1017 43.8477 18.4379ZM27.6759 24.98L29.4643 26.7531L29.0822 27.4868C28.5625 28.5415 28.6083 29.214 29.2656 30.3146C30.2286 31.889 30.3203 32.0418 30.2439 32.1029C30.198 32.1488 29.1433 32.8061 27.8899 33.5703L25.5971 34.9613H24.359C22.8611 34.9613 22.8611 34.9613 21.9898 36.8261C21.2714 38.3699 21.195 39.18 21.73 39.6539C21.9134 39.822 22.6012 40.3111 23.2585 40.7544C23.9005 41.1824 24.4355 41.5798 24.4355 41.6104C24.4355 41.6562 24.0228 42.5122 23.5183 43.521C22.5095 45.5234 22.4178 46.0431 22.9222 46.8838C23.3961 47.6939 28.7 52.8909 29.3726 53.1966C30.091 53.5329 30.3203 53.4717 31.803 52.5088C32.4449 52.0961 33.0411 51.7751 33.1022 51.8209C33.1633 51.8668 33.6372 52.7227 34.1263 53.7316L35.0281 55.5658L37.7336 56.8803C39.415 57.7057 40.6225 58.1949 40.9282 58.1949C41.4938 58.1949 42.0288 57.9503 43.2975 57.079L44.1993 56.4676L44.4744 56.8345C45.4374 58.1032 45.7278 58.8216 45.7431 59.8457L45.7584 60.8545L44.612 61.1602C43.6185 61.4201 42.9459 61.4659 39.7207 61.4659C35.6548 61.4659 35.1504 61.4048 32.3532 60.3959C27.0645 58.4853 22.3567 54.1748 19.9416 49.0084C18.4742 45.8597 17.9698 43.5057 17.9698 39.929C17.9851 35.1447 19.0551 31.5832 21.6688 27.6702C22.6012 26.2793 25.3831 23.1916 25.7041 23.1916C25.8111 23.1916 26.6824 24.0018 27.6759 24.98ZM56.1676 25.5914C56.7179 26.2487 57.3752 27.0741 57.635 27.4257C58.0783 28.0829 58.0783 28.0829 57.7267 28.0829C57.528 28.0676 56.9319 27.9759 56.3816 27.8536C55.8314 27.7314 55.0365 27.6397 54.6085 27.6244C53.722 27.6244 53.4774 27.7772 52.0101 29.1835C51.1388 30.0394 51.0012 30.1159 49.6408 30.4521C48.846 30.6661 48.0665 30.8343 47.8983 30.8343C47.6996 30.8343 47.4092 30.5438 47.0271 29.9477L46.4462 29.0765L47.7913 27.7314L49.1211 26.4016H50.9554H52.8049L53.7831 25.408C54.3181 24.8577 54.8531 24.4145 54.9601 24.4145C55.0671 24.4145 55.6021 24.9495 56.1676 25.5914ZM61.4563 37.7126C61.6092 39.0272 61.4563 42.2218 61.1812 43.7656C61.0589 44.4381 60.7532 45.6457 60.4934 46.4405C60.0042 47.9079 58.7509 50.6898 58.3229 51.2401C58.0783 51.5305 58.0783 51.5152 58.063 50.8274C58.063 49.9408 57.9254 49.8338 55.7397 49.0084C53.5233 48.1677 53.2634 47.7245 54.1958 46.3182C55.327 44.6674 55.6174 44.056 55.6174 43.414C55.6174 42.6803 55.4492 42.5122 53.5844 41.3047C52.2699 40.4487 52.2699 40.4945 52.8966 39.0577C53.1564 38.4463 53.3399 38.2629 54.0124 37.9266C54.7155 37.5904 55.113 37.5139 57.0236 37.4222C58.6286 37.3305 59.4387 37.2082 60.0501 36.9789C61.2576 36.5204 61.3341 36.551 61.4563 37.7126Z" fill="url(#paint7_linear_525_682)"/>
<path d="M38.3907 20.8836C37.9933 21.2046 37.3819 21.7548 37.0456 22.1064L36.4495 22.7331H35.2725C33.6064 22.7331 33.6064 22.7331 33.6064 25.8971V28.3733L34.065 28.6943C34.921 29.3057 36.7858 30.07 37.3972 30.07C37.9016 30.07 39.9651 29.4586 41.4478 28.8625C41.9828 28.6485 42.1815 28.1746 42.8693 25.5456C43.4501 23.2222 43.5266 22.137 43.1292 21.7701C42.9763 21.6478 42.2732 21.2504 41.5701 20.9141C39.8887 20.104 39.3843 20.0887 38.3907 20.8836ZM40.4848 23.6043C40.4848 23.9559 39.8581 26.2946 39.7205 26.4474C39.6594 26.5085 39.1091 26.7378 38.4824 26.9518C37.3972 27.3187 37.336 27.3187 36.8011 27.0741C36.2049 26.8142 36.0521 26.5238 36.0521 25.6679V25.1787H37.0609H38.0697L39.0021 24.2616C39.9498 23.3598 40.4848 23.1152 40.4848 23.6043Z" fill="url(#paint8_linear_525_682)"/>
<path d="M6.06235 19.5537C5.58851 20.2874 5.16052 21.2351 5.22167 21.4185C5.26752 21.5255 5.75665 21.8465 6.3222 22.1369L7.33103 22.6566L7.65202 22.2745C7.92716 21.9229 8.69142 20.5473 8.69142 20.3791C8.69142 20.2415 6.76548 19.2174 6.52091 19.2174C6.38334 19.2174 6.18464 19.3703 6.06235 19.5537Z" fill="url(#paint9_linear_525_682)"/>
<path d="M71.743 19.7371C71.2386 20.0123 70.8106 20.3333 70.7801 20.4556C70.7189 20.7918 71.9265 22.5802 72.2169 22.5802C72.6143 22.5802 74.2651 21.5102 74.2651 21.2504C74.2651 20.8377 73.1951 19.2174 72.92 19.2174C72.7824 19.2174 72.2475 19.4467 71.743 19.7371Z" fill="url(#paint10_linear_525_682)"/>
<path d="M75.9769 28.679C75.4419 28.8318 74.9375 29.0305 74.861 29.1069C74.7541 29.2139 74.7999 29.6114 74.9528 30.2533C75.3349 31.736 75.2737 31.7054 76.6341 31.3844C77.2761 31.2316 77.8417 31.0176 77.8722 30.9106C78.0098 30.5743 77.3984 28.465 77.1538 28.4344C77.0316 28.4191 76.5119 28.5261 75.9769 28.679Z" fill="url(#paint11_linear_525_682)"/>
<path d="M1.79774 29.6115C1.6296 30.2076 1.50732 30.7884 1.55317 30.8954C1.59903 31.0177 2.16458 31.2317 2.80656 31.3846C3.78482 31.6138 3.99881 31.6291 4.10581 31.4457C4.33509 31.0636 4.7325 29.2599 4.61022 29.1529C4.39623 28.9542 2.98999 28.5415 2.562 28.5415C2.16458 28.5415 2.10344 28.6179 1.79774 29.6115Z" fill="url(#paint12_linear_525_682)"/>
<path d="M0.590332 39.8526V41.0754H1.81315H3.03597V39.8526V38.6297H1.81315H0.590332V39.8526Z" fill="url(#paint13_linear_525_682)"/>
<path d="M69.2973 38.9354C69.0833 39.18 68.9916 39.6386 68.8846 41.0448C68.4872 46.7615 66.9587 51.4388 64.0698 55.8256C58.9645 63.5753 50.6952 68.329 41.1266 69.0168C38.7116 69.1849 38.4976 69.3072 38.4976 70.4231C38.4976 71.5389 38.7116 71.6459 40.8362 71.6459C49.1208 71.6459 57.7264 67.6259 63.5959 61.0226C68.4872 55.5199 71.5137 47.9384 71.5137 41.1671C71.5137 39.394 71.4831 39.1036 71.2386 38.8896C70.8259 38.5075 69.6489 38.538 69.2973 38.9354Z" fill="url(#paint14_linear_525_682)"/>
<path d="M76.4053 39.8526V41.0754H77.6281H78.8509V39.8526V38.6297H77.6281H76.4053V39.8526Z" fill="url(#paint15_linear_525_682)"/>
<path d="M2.883 48.2747C1.99645 48.5193 1.50732 48.7486 1.50732 48.9167C1.50732 48.9931 1.64489 49.5434 1.81303 50.109C2.11873 51.1331 2.1493 51.1636 2.63843 51.1636C3.28041 51.1636 4.56437 50.7204 4.65609 50.4758C4.70194 50.3688 4.59494 49.788 4.41152 49.1918C4.05996 47.9996 4.01411 47.969 2.883 48.2747Z" fill="url(#paint16_linear_525_682)"/>
<path d="M75.0446 49.2988C74.8612 49.9561 74.7236 50.5369 74.7236 50.5828C74.7236 50.7356 76.9553 51.2248 77.2151 51.1178C77.475 51.0108 78.0405 48.9014 77.8418 48.718C77.6584 48.5651 76.0687 48.1066 75.6713 48.1066C75.4268 48.1066 75.3045 48.3206 75.0446 49.2988Z" fill="url(#paint17_linear_525_682)"/>
<path d="M6.09303 57.6293C5.63447 57.9044 5.23705 58.256 5.20648 58.3935C5.13005 58.7604 6.21531 60.4876 6.50573 60.4876C6.88786 60.4876 8.69152 59.4329 8.69152 59.2036C8.69152 58.8215 7.48398 57.1249 7.20885 57.1249C7.056 57.1249 6.55158 57.3541 6.09303 57.6293Z" fill="url(#paint18_linear_525_682)"/>
<path d="M71.6973 57.5376C71.5292 57.7821 71.2541 58.2712 71.0553 58.6381C70.7191 59.2954 70.7191 59.3259 70.9942 59.5399C71.4528 59.8762 72.7062 60.4876 72.9507 60.4876C73.1953 60.4876 74.2652 58.8368 74.2652 58.4547C74.2652 58.1948 72.6144 57.1249 72.2323 57.1249C72.0947 57.1249 71.8655 57.3083 71.6973 57.5376Z" fill="url(#paint19_linear_525_682)"/>
<path d="M11.779 65.761L10.9077 66.5864L11.9471 67.6258L12.9865 68.6652L13.8119 67.794C14.2705 67.3201 14.6526 66.8157 14.6526 66.6629C14.6526 66.3266 13.2158 64.9203 12.8795 64.9203C12.7419 64.9203 12.2528 65.3025 11.779 65.761Z" fill="url(#paint20_linear_525_682)"/>
<path d="M65.4611 65.6999C65.0026 66.1432 64.6357 66.5711 64.6357 66.6629C64.6357 66.7699 65.0484 67.2437 65.5529 67.7481L66.47 68.6652L67.5094 67.6258L68.5335 66.5864L67.6622 65.761C67.1884 65.3025 66.684 64.9203 66.5464 64.9203C66.4088 64.9203 65.9197 65.2719 65.4611 65.6999Z" fill="url(#paint21_linear_525_682)"/>
<path d="M57.9556 71.493C57.4207 71.8293 56.9927 72.1809 56.9927 72.2879C56.9927 72.6394 58.0168 74.3208 58.2461 74.3667C58.6129 74.4431 60.279 73.419 60.3249 73.098C60.3707 72.7159 59.4077 70.9733 59.1173 70.9122C58.995 70.8969 58.4753 71.1568 57.9556 71.493Z" fill="url(#paint22_linear_525_682)"/>
<path d="M19.5746 71.9363C19.3147 72.4254 19.0854 72.9451 19.0854 73.0674C19.0854 73.3272 20.7363 74.3972 21.1184 74.3972C21.4088 74.3972 22.4941 72.6547 22.4176 72.3031C22.3565 71.9821 20.8433 71.0345 20.3847 71.0345C20.1554 71.0345 19.9414 71.2943 19.5746 71.9363Z" fill="url(#paint23_linear_525_682)"/>
<path d="M48.9372 75.1768C47.8214 75.5283 47.8214 75.5436 48.2953 77.0721L48.601 78.0963L49.1207 78.0045C50.1906 77.7905 51.1842 77.439 51.1842 77.2403C51.1842 77.1333 51.123 76.8429 51.0313 76.5983C50.9549 76.3537 50.8173 75.8646 50.7256 75.4978C50.5269 74.7488 50.4046 74.7182 48.9372 75.1768Z" fill="url(#paint24_linear_525_682)"/>
<path d="M28.7153 75.5742C28.6236 75.8952 28.5166 76.4454 28.4708 76.797L28.3638 77.439L29.4643 77.76C30.0604 77.9434 30.6413 78.0657 30.7483 78.0198C30.947 77.9434 31.4667 76.3384 31.4667 75.7882C31.4667 75.5436 31.2833 75.4213 30.6718 75.2379C30.2439 75.1156 29.663 75.0086 29.3879 75.0086C28.9293 75.0086 28.8682 75.0698 28.7153 75.5742Z" fill="url(#paint25_linear_525_682)"/>
<path d="M38.4976 77.76V78.9828H39.7204H40.9432V77.76V76.5371H39.7204H38.4976V77.76Z" fill="url(#paint26_linear_525_682)"/>
<defs>
<linearGradient id="paint0_linear_525_682" x1="39.7204" y1="3.16797" x2="39.7204" y2="0.722328" gradientUnits="userSpaceOnUse">
<stop stop-color="#FF740F"/>
<stop offset="1" stop-color="#FF9F4B"/>
</linearGradient>
<linearGradient id="paint1_linear_525_682" x1="60.509" y1="22.733" x2="60.509" y2="0.73501" gradientUnits="userSpaceOnUse">
<stop stop-color="#FF740F"/>
<stop offset="1" stop-color="#FF9F4B"/>
</linearGradient>
<linearGradient id="paint2_linear_525_682" x1="60.4701" y1="12.9354" x2="60.4701" y2="5.63033" gradientUnits="userSpaceOnUse">
<stop stop-color="#FF740F"/>
<stop offset="1" stop-color="#FF9F4B"/>
</linearGradient>
<linearGradient id="paint3_linear_525_682" x1="29.941" y1="4.74817" x2="29.941" y2="1.69216" gradientUnits="userSpaceOnUse">
<stop stop-color="#FF740F"/>
<stop offset="1" stop-color="#FF9F4B"/>
</linearGradient>
<linearGradient id="paint4_linear_525_682" x1="20.7528" y1="8.80835" x2="20.7528" y2="5.30793" gradientUnits="userSpaceOnUse">
<stop stop-color="#FF740F"/>
<stop offset="1" stop-color="#FF9F4B"/>
</linearGradient>
<linearGradient id="paint5_linear_525_682" x1="24.4353" y1="41.0754" x2="24.4353" y2="8.07278" gradientUnits="userSpaceOnUse">
<stop stop-color="#FF740F"/>
<stop offset="1" stop-color="#FF9F4B"/>
</linearGradient>
<linearGradient id="paint6_linear_525_682" x1="12.7802" y1="14.7847" x2="12.7802" y2="11.2691" gradientUnits="userSpaceOnUse">
<stop stop-color="#FF740F"/>
<stop offset="1" stop-color="#FF9F4B"/>
</linearGradient>
<linearGradient id="paint7_linear_525_682" x1="39.7236" y1="64.2325" x2="39.7236" y2="15.4001" gradientUnits="userSpaceOnUse">
<stop stop-color="#FF740F"/>
<stop offset="1" stop-color="#FF9F4B"/>
</linearGradient>
<linearGradient id="paint8_linear_525_682" x1="38.4917" y1="30.07" x2="38.4917" y2="20.2969" gradientUnits="userSpaceOnUse">
<stop stop-color="#FF740F"/>
<stop offset="1" stop-color="#FF9F4B"/>
</linearGradient>
<linearGradient id="paint9_linear_525_682" x1="6.95362" y1="22.6566" x2="6.95362" y2="19.2174" gradientUnits="userSpaceOnUse">
<stop stop-color="#FF740F"/>
<stop offset="1" stop-color="#FF9F4B"/>
</linearGradient>
<linearGradient id="paint10_linear_525_682" x1="72.5215" y1="22.5802" x2="72.5215" y2="19.2174" gradientUnits="userSpaceOnUse">
<stop stop-color="#FF740F"/>
<stop offset="1" stop-color="#FF9F4B"/>
</linearGradient>
<linearGradient id="paint11_linear_525_682" x1="76.3474" y1="31.5634" x2="76.3474" y2="28.4329" gradientUnits="userSpaceOnUse">
<stop stop-color="#FF740F"/>
<stop offset="1" stop-color="#FF9F4B"/>
</linearGradient>
<linearGradient id="paint12_linear_525_682" x1="3.08827" y1="31.5712" x2="3.08827" y2="28.5415" gradientUnits="userSpaceOnUse">
<stop stop-color="#FF740F"/>
<stop offset="1" stop-color="#FF9F4B"/>
</linearGradient>
<linearGradient id="paint13_linear_525_682" x1="1.81315" y1="41.0754" x2="1.81315" y2="38.6297" gradientUnits="userSpaceOnUse">
<stop stop-color="#FF740F"/>
<stop offset="1" stop-color="#FF9F4B"/>
</linearGradient>
<linearGradient id="paint14_linear_525_682" x1="55.0056" y1="71.6459" x2="55.0056" y2="38.6195" gradientUnits="userSpaceOnUse">
<stop stop-color="#FF740F"/>
<stop offset="1" stop-color="#FF9F4B"/>
</linearGradient>
<linearGradient id="paint15_linear_525_682" x1="77.6281" y1="41.0754" x2="77.6281" y2="38.6297" gradientUnits="userSpaceOnUse">
<stop stop-color="#FF740F"/>
<stop offset="1" stop-color="#FF9F4B"/>
</linearGradient>
<linearGradient id="paint16_linear_525_682" x1="3.087" y1="51.1636" x2="3.087" y2="48.1116" gradientUnits="userSpaceOnUse">
<stop stop-color="#FF740F"/>
<stop offset="1" stop-color="#FF9F4B"/>
</linearGradient>
<linearGradient id="paint17_linear_525_682" x1="76.3035" y1="51.1329" x2="76.3035" y2="48.1066" gradientUnits="userSpaceOnUse">
<stop stop-color="#FF740F"/>
<stop offset="1" stop-color="#FF9F4B"/>
</linearGradient>
<linearGradient id="paint18_linear_525_682" x1="6.94708" y1="60.4876" x2="6.94708" y2="57.1249" gradientUnits="userSpaceOnUse">
<stop stop-color="#FF740F"/>
<stop offset="1" stop-color="#FF9F4B"/>
</linearGradient>
<linearGradient id="paint19_linear_525_682" x1="72.5301" y1="60.4876" x2="72.5301" y2="57.1249" gradientUnits="userSpaceOnUse">
<stop stop-color="#FF740F"/>
<stop offset="1" stop-color="#FF9F4B"/>
</linearGradient>
<linearGradient id="paint20_linear_525_682" x1="12.7802" y1="68.6652" x2="12.7802" y2="64.9203" gradientUnits="userSpaceOnUse">
<stop stop-color="#FF740F"/>
<stop offset="1" stop-color="#FF9F4B"/>
</linearGradient>
<linearGradient id="paint21_linear_525_682" x1="66.5846" y1="68.6652" x2="66.5846" y2="64.9203" gradientUnits="userSpaceOnUse">
<stop stop-color="#FF740F"/>
<stop offset="1" stop-color="#FF9F4B"/>
</linearGradient>
<linearGradient id="paint22_linear_525_682" x1="58.6596" y1="74.3707" x2="58.6596" y2="70.9116" gradientUnits="userSpaceOnUse">
<stop stop-color="#FF740F"/>
<stop offset="1" stop-color="#FF9F4B"/>
</linearGradient>
<linearGradient id="paint23_linear_525_682" x1="20.7535" y1="74.3972" x2="20.7535" y2="71.0345" gradientUnits="userSpaceOnUse">
<stop stop-color="#FF740F"/>
<stop offset="1" stop-color="#FF9F4B"/>
</linearGradient>
<linearGradient id="paint24_linear_525_682" x1="49.5896" y1="78.0963" x2="49.5896" y2="74.8748" gradientUnits="userSpaceOnUse">
<stop stop-color="#FF740F"/>
<stop offset="1" stop-color="#FF9F4B"/>
</linearGradient>
<linearGradient id="paint25_linear_525_682" x1="29.9152" y1="78.0295" x2="29.9152" y2="75.0086" gradientUnits="userSpaceOnUse">
<stop stop-color="#FF740F"/>
<stop offset="1" stop-color="#FF9F4B"/>
</linearGradient>
<linearGradient id="paint26_linear_525_682" x1="39.7204" y1="78.9828" x2="39.7204" y2="76.5371" gradientUnits="userSpaceOnUse">
<stop stop-color="#FF740F"/>
<stop offset="1" stop-color="#FF9F4B"/>
</linearGradient>
</defs>
</svg>
