<svg width="160" height="150" viewBox="0 0 160 150" fill="none" xmlns="http://www.w3.org/2000/svg">
<path d="M12.6472 123.412V112.052H16.6792C17.5965 112.052 18.3965 112.201 19.0792 112.5C19.7725 112.799 20.3485 113.204 20.8072 113.716C21.2765 114.228 21.6285 114.831 21.8632 115.524C22.0979 116.207 22.2152 116.937 22.2152 117.716C22.2152 118.58 22.0819 119.364 21.8152 120.068C21.5592 120.761 21.1912 121.359 20.7112 121.86C20.2312 122.351 19.6499 122.735 18.9672 123.012C18.2845 123.279 17.5219 123.412 16.6792 123.412H12.6472ZM20.3912 117.716C20.3912 117.119 20.3059 116.569 20.1352 116.068C19.9752 115.567 19.7352 115.14 19.4152 114.788C19.0952 114.425 18.7059 114.143 18.2472 113.94C17.7885 113.737 17.2659 113.636 16.6792 113.636H14.4392V121.828H16.6792C17.2765 121.828 17.8045 121.727 18.2632 121.524C18.7325 121.311 19.1219 121.023 19.4312 120.66C19.7512 120.287 19.9912 119.849 20.1512 119.348C20.3112 118.847 20.3912 118.303 20.3912 117.716ZM24.1003 123.412V112.052H25.8923V123.412H24.1003ZM36.4117 122.004C35.4517 122.996 34.3477 123.492 33.0997 123.492C32.3424 123.492 31.6384 123.337 30.9877 123.028C30.337 122.708 29.7717 122.281 29.2917 121.748C28.8117 121.215 28.433 120.596 28.1557 119.892C27.889 119.188 27.7557 118.452 27.7557 117.684C27.7557 116.916 27.889 116.185 28.1557 115.492C28.433 114.799 28.8117 114.191 29.2917 113.668C29.7717 113.145 30.3424 112.735 31.0037 112.436C31.665 112.127 32.385 111.972 33.1637 111.972C34.2517 111.972 35.1637 112.201 35.8997 112.66C36.6357 113.108 37.1904 113.705 37.5637 114.452L36.1877 115.444C35.8784 114.825 35.4517 114.361 34.9077 114.052C34.3637 113.743 33.7664 113.588 33.1157 113.588C32.5824 113.588 32.097 113.705 31.6597 113.94C31.2224 114.164 30.849 114.468 30.5397 114.852C30.2304 115.225 29.9904 115.663 29.8197 116.164C29.6597 116.665 29.5797 117.188 29.5797 117.732C29.5797 118.308 29.6704 118.847 29.8517 119.348C30.0437 119.849 30.2997 120.287 30.6197 120.66C30.9504 121.033 31.3397 121.332 31.7877 121.556C32.2357 121.769 32.721 121.876 33.2437 121.876C33.8197 121.876 34.369 121.743 34.8917 121.476C35.425 121.209 35.9317 120.788 36.4117 120.212V118.996H34.0277V117.668H37.9157V123.412H36.4117V122.004ZM39.9597 123.412V112.052H41.7517V123.412H39.9597ZM52.6551 113.636H48.8791V123.412H47.0711V113.636H43.2791V112.052H52.6551V113.636ZM56.3974 112.052H57.9654L62.4454 123.412H60.5574L59.3574 120.324H54.9734L53.7894 123.412H51.8854L56.3974 112.052ZM59.0054 118.996L57.1814 114.116L55.2934 118.996H59.0054ZM63.8503 123.412V112.052H65.6423V121.828H71.7383V123.412H63.8503ZM82.4548 115.412V123.412H80.6628V112.052H82.0708L88.5668 120.244V112.068H90.3748V123.412H88.8868L82.4548 115.412ZM97.6484 123.492C96.8378 123.492 96.0964 123.332 95.4244 123.012C94.7631 122.681 94.1924 122.249 93.7124 121.716C93.2324 121.172 92.8591 120.553 92.5924 119.86C92.3364 119.167 92.2084 118.457 92.2084 117.732C92.2084 116.975 92.3471 116.249 92.6244 115.556C92.9018 114.863 93.2804 114.249 93.7604 113.716C94.2511 113.183 94.8271 112.761 95.4884 112.452C96.1604 112.132 96.8911 111.972 97.6804 111.972C98.4911 111.972 99.2271 112.143 99.8884 112.484C100.56 112.815 101.131 113.252 101.6 113.796C102.08 114.34 102.448 114.959 102.704 115.652C102.971 116.335 103.104 117.033 103.104 117.748C103.104 118.505 102.966 119.231 102.688 119.924C102.422 120.617 102.043 121.231 101.552 121.764C101.062 122.287 100.48 122.708 99.8084 123.028C99.1471 123.337 98.4271 123.492 97.6484 123.492ZM94.0324 117.732C94.0324 118.265 94.1178 118.783 94.2884 119.284C94.4591 119.785 94.6991 120.228 95.0084 120.612C95.3284 120.996 95.7124 121.305 96.1604 121.54C96.6084 121.764 97.1098 121.876 97.6644 121.876C98.2404 121.876 98.7471 121.759 99.1844 121.524C99.6324 121.279 100.011 120.959 100.32 120.564C100.63 120.169 100.864 119.727 101.024 119.236C101.184 118.745 101.264 118.244 101.264 117.732C101.264 117.188 101.179 116.671 101.008 116.18C100.838 115.679 100.592 115.241 100.272 114.868C99.9631 114.484 99.5844 114.18 99.1364 113.956C98.6991 113.721 98.2084 113.604 97.6644 113.604C97.0884 113.604 96.5764 113.727 96.1284 113.972C95.6804 114.207 95.3018 114.516 94.9924 114.9C94.6831 115.284 94.4431 115.727 94.2724 116.228C94.1124 116.719 94.0324 117.22 94.0324 117.732ZM114.512 123.412V115.236L111.136 121.428H110.144L106.752 115.236V123.412H104.96V112.052H106.88L110.64 118.996L114.4 112.052H116.32V123.412H114.512ZM122.226 112.052H123.794L128.274 123.412H126.386L125.186 120.324H120.802L119.618 123.412H117.714L122.226 112.052ZM124.834 118.996L123.01 114.116L121.122 118.996H124.834ZM129.678 123.412V112.052H133.71C134.628 112.052 135.428 112.201 136.11 112.5C136.804 112.799 137.38 113.204 137.838 113.716C138.308 114.228 138.66 114.831 138.894 115.524C139.129 116.207 139.246 116.937 139.246 117.716C139.246 118.58 139.113 119.364 138.846 120.068C138.59 120.761 138.222 121.359 137.742 121.86C137.262 122.351 136.681 122.735 135.998 123.012C135.316 123.279 134.553 123.412 133.71 123.412H129.678ZM137.422 117.716C137.422 117.119 137.337 116.569 137.166 116.068C137.006 115.567 136.766 115.14 136.446 114.788C136.126 114.425 135.737 114.143 135.278 113.94C134.82 113.737 134.297 113.636 133.71 113.636H131.47V121.828H133.71C134.308 121.828 134.836 121.727 135.294 121.524C135.764 121.311 136.153 121.023 136.462 120.66C136.782 120.287 137.022 119.849 137.182 119.348C137.342 118.847 137.422 118.303 137.422 117.716ZM147.852 114.724C147.745 114.607 147.59 114.484 147.388 114.356C147.185 114.217 146.945 114.089 146.668 113.972C146.401 113.855 146.102 113.759 145.772 113.684C145.452 113.609 145.121 113.572 144.78 113.572C144.022 113.572 143.462 113.711 143.1 113.988C142.748 114.265 142.572 114.649 142.572 115.14C142.572 115.417 142.625 115.647 142.732 115.828C142.849 115.999 143.025 116.153 143.26 116.292C143.494 116.42 143.788 116.537 144.14 116.644C144.492 116.74 144.902 116.847 145.372 116.964C145.948 117.103 146.465 117.257 146.924 117.428C147.393 117.599 147.788 117.807 148.108 118.052C148.428 118.297 148.673 118.601 148.844 118.964C149.025 119.316 149.116 119.748 149.116 120.26C149.116 120.836 149.004 121.332 148.78 121.748C148.566 122.164 148.268 122.505 147.884 122.772C147.51 123.028 147.073 123.22 146.572 123.348C146.07 123.465 145.532 123.524 144.956 123.524C144.092 123.524 143.254 123.396 142.444 123.14C141.644 122.873 140.918 122.489 140.268 121.988L141.084 120.452C141.222 120.591 141.42 120.745 141.676 120.916C141.942 121.087 142.246 121.247 142.588 121.396C142.94 121.535 143.318 121.657 143.724 121.764C144.129 121.86 144.55 121.908 144.988 121.908C145.692 121.908 146.236 121.785 146.62 121.54C147.004 121.295 147.196 120.932 147.196 120.452C147.196 120.164 147.121 119.924 146.972 119.732C146.833 119.54 146.63 119.375 146.364 119.236C146.097 119.087 145.772 118.953 145.388 118.836C145.004 118.719 144.566 118.596 144.076 118.468C143.51 118.319 143.014 118.164 142.588 118.004C142.172 117.833 141.825 117.631 141.548 117.396C141.27 117.161 141.057 116.889 140.908 116.58C140.769 116.26 140.7 115.876 140.7 115.428C140.7 114.873 140.806 114.383 141.02 113.956C141.233 113.519 141.521 113.156 141.884 112.868C142.257 112.569 142.694 112.345 143.196 112.196C143.697 112.047 144.241 111.972 144.828 111.972C145.596 111.972 146.305 112.095 146.956 112.34C147.606 112.585 148.177 112.889 148.668 113.252L147.852 114.724Z" fill="#5C6A77"/>
<path d="M79.4976 1.94515V3.16797H80.7204H81.9432V1.94515V0.722328H80.7204H79.4976V1.94515Z" fill="url(#paint0_linear_525_678)"/>
<path d="M98.6501 1.08912C95.0887 2.41893 92.9335 5.41484 92.9182 9.05273C92.9029 11.2385 93.713 13.2715 95.8988 16.5425C96.9688 18.1475 98.9711 20.7459 100.041 21.9229C100.729 22.6872 100.821 22.733 101.493 22.733C102.135 22.733 102.273 22.6719 102.838 22.0758C104.611 20.2263 107.592 16.0687 108.769 13.7606C109.717 11.9111 110.084 10.6883 110.099 9.20558C110.16 5.49127 107.959 2.40365 104.321 1.08912C103.48 0.768126 103.052 0.722269 101.463 0.737555C99.9035 0.737555 99.445 0.798697 98.6501 1.08912ZM104.015 3.91689C104.978 4.39073 106.4 5.79697 106.874 6.77523C107.149 7.34078 107.256 7.82991 107.286 8.83874C107.363 10.4284 107.103 11.1468 105.636 13.6077C104.596 15.335 101.86 19.0799 101.554 19.1716C101.325 19.248 98.5432 15.5337 97.3662 13.5466C96.0058 11.2691 95.7001 10.4437 95.7001 9.0833C95.7001 8.47189 95.8071 7.66177 95.9294 7.27964C96.4032 5.90397 98.054 4.22259 99.445 3.70289C99.873 3.55004 100.546 3.4889 101.661 3.51947C102.991 3.55004 103.389 3.61118 104.015 3.91689Z" fill="url(#paint1_linear_525_678)"/>
<path d="M99.7046 5.93457C98.436 6.57655 97.8398 7.69238 97.8398 9.41961C97.8398 10.9634 98.4818 12.0334 99.7811 12.6448C100.377 12.9199 100.698 12.9658 101.738 12.9199C102.792 12.8894 103.083 12.8129 103.618 12.4461C103.969 12.2168 104.443 11.743 104.672 11.3914C105.07 10.8106 105.1 10.6424 105.1 9.28204C105.1 7.92166 105.07 7.75352 104.672 7.17268C104.443 6.82112 103.969 6.34728 103.618 6.118C103.067 5.75115 102.808 5.69001 101.676 5.64415C100.576 5.5983 100.255 5.65944 99.7046 5.93457ZM101.86 8.38021C102.67 8.74706 102.685 9.81703 101.875 10.1839C101.111 10.5201 100.27 9.67946 100.606 8.9152C100.744 8.62478 101.08 8.34964 101.462 8.22736C101.478 8.21208 101.661 8.2885 101.86 8.38021Z" fill="url(#paint2_linear_525_678)"/>
<path d="M70.3721 1.96035C69.455 2.25077 69.4092 2.28134 69.4244 2.75518C69.4244 3.03031 69.562 3.58058 69.6996 4.00857C70.0206 4.87983 70.1276 4.9104 71.6408 4.46713C72.6038 4.19199 72.6191 4.10028 72.1911 2.6329C71.8701 1.54765 71.7478 1.51707 70.3721 1.96035Z" fill="url(#paint3_linear_525_678)"/>
<path d="M60.972 5.8582C60.4829 6.16391 60.0854 6.51547 60.0854 6.63775C60.0854 7.00459 61.1401 8.82354 61.3541 8.80825C61.7515 8.79297 63.3718 7.66186 63.4176 7.37144C63.4788 6.95874 62.4241 5.30793 62.1031 5.30793C61.9655 5.30793 61.4458 5.56778 60.972 5.8582Z" fill="url(#paint4_linear_525_678)"/>
<path d="M75.4472 8.34966C69.3025 9.45019 63.9221 12.0487 59.3518 16.1451C52.9778 21.8618 48.9272 30.5897 48.9272 38.5839C48.9272 40.892 49.019 41.0754 50.1806 41.0754C51.2353 41.0754 51.4035 40.8002 51.541 38.7367C51.7244 36.3217 51.9384 34.9307 52.4429 32.8213C54.9344 22.6567 63.1731 14.2956 73.3072 11.6818C75.4777 11.1163 76.3643 10.9787 79.0086 10.7342C81.76 10.4896 81.9434 10.3979 81.9434 9.28205C81.9434 8.12038 81.7753 8.05923 79.1768 8.07452C77.8011 8.07452 76.4101 8.18152 75.4472 8.34966Z" fill="url(#paint5_linear_525_678)"/>
<path d="M52.8248 12.1862L51.9077 13.1186L52.779 13.944C53.2528 14.4026 53.7572 14.7847 53.9101 14.7847C54.2311 14.7847 55.6526 13.3479 55.6526 13.0269C55.6526 12.6906 54.2922 11.2691 53.9865 11.2691C53.8489 11.2691 53.3292 11.6818 52.8248 12.1862Z" fill="url(#paint6_linear_525_678)"/>
<path d="M77.5108 15.4726C77.3885 15.5032 76.7618 15.6102 76.1351 15.7019C74.5302 15.9617 71.9011 16.8177 70.0975 17.689C63.9375 20.6543 59.3978 25.8819 57.2731 32.5004C56.4172 35.1447 56.2337 36.7497 56.3102 40.6168C56.3866 44.1019 56.5089 44.8661 57.426 47.7245C59.7341 54.8321 65.68 60.7475 72.9252 63.1473C75.8447 64.1103 76.716 64.2325 80.7971 64.2325C84.7866 64.2325 85.4591 64.1408 88.3633 63.2237C96.6021 60.5794 102.838 53.6399 104.795 44.8967C105.131 43.4293 105.269 38.2629 105.04 36.2911C104.612 32.6532 102.915 28.5109 100.469 25.1787C99.4604 23.7878 96.7397 21.0823 95.4251 20.1346C92.1388 17.7654 88.5009 16.2216 84.7713 15.6254C83.5791 15.4267 78.3056 15.3197 77.5108 15.4726ZM84.8477 18.4379C87.5685 18.9729 90.1517 20.0123 92.4751 21.5103L93.7285 22.3204L92.9336 23.1305L92.1235 23.9559H90.274H88.4398L86.8195 25.5914C83.7472 28.7249 83.7778 28.6179 85.8107 31.675C87.1252 33.6468 87.2169 33.7385 88.0423 33.7385C88.6538 33.7385 90.8243 33.2799 93.1782 32.6532C93.5909 32.5309 94.1106 32.1641 94.8749 31.4151L95.9907 30.3451L97.9472 30.7426C100.897 31.354 100.836 31.3234 101.188 32.2864C101.799 33.9066 101.876 33.7538 100.148 34.3193C98.849 34.7473 98.2988 34.839 96.6632 34.9154C94.829 34.9919 94.6456 35.0377 93.6368 35.5421C91.8025 36.4592 91.8025 36.444 91.1147 38.5533C90.7784 39.5927 90.5033 40.7544 90.5033 41.1212C90.5033 41.9008 90.6408 42.0536 92.3069 43.1389L93.4075 43.8726L93.1171 44.3464C92.9642 44.6063 92.5821 45.233 92.2764 45.7221C91.5427 46.9449 91.558 47.4035 92.4139 49.146C93.1935 50.7662 93.4228 50.9497 95.257 51.4694C96.6021 51.8515 96.4951 51.7292 96.7549 53.487L96.9078 54.5264L95.9754 55.3977C94.615 56.7122 92.3681 58.3477 90.8243 59.1578C90.0753 59.5553 89.4333 59.8762 89.3722 59.8762C89.3263 59.8762 89.2805 59.3413 89.2805 58.684V57.507L87.9812 55.5658C87.2628 54.4958 86.5138 53.5023 86.3151 53.38C85.7801 53.0285 85.0617 53.2577 83.3498 54.3736C82.5702 54.878 81.8365 55.2907 81.7448 55.2754C81.6378 55.2754 80.7819 54.878 79.8189 54.3888L78.0917 53.5176L76.8383 51.0719C75.4626 48.3817 75.2486 48.1525 74.2703 48.4123C73.9646 48.504 73.1545 48.9473 72.4514 49.4059L71.1674 50.2313L68.8594 47.9232L66.536 45.6151L67.5143 43.6127C68.2327 42.1301 68.4925 41.4422 68.4925 40.9684C68.4925 40.2653 68.3397 40.1124 66.3984 38.7979C65.8635 38.4463 65.4355 38.1101 65.4355 38.0489C65.4507 37.6515 65.8023 37.5139 66.8723 37.4375L68.034 37.3611L71.1369 35.4963C72.8335 34.4722 74.3468 33.448 74.4996 33.2493C74.897 32.7144 74.683 32.0112 73.5366 30.2534C73.0322 29.4739 72.6195 28.7555 72.6195 28.6791C72.6195 28.6026 72.7724 28.2358 72.9405 27.8842C73.4602 26.8754 73.5519 26.4168 73.3227 25.8819C73.2157 25.6067 72.2374 24.4756 71.1674 23.3598L69.2109 21.3268L70.1586 20.7919C72.3903 19.5385 75.6154 18.4685 78.1222 18.1475C79.7425 17.9488 83.1358 18.1017 84.8477 18.4379ZM68.6759 24.98L70.4643 26.7531L70.0822 27.4868C69.5625 28.5415 69.6083 29.214 70.2656 30.3146C71.2286 31.889 71.3203 32.0418 71.2439 32.1029C71.198 32.1488 70.1433 32.8061 68.8899 33.5703L66.5971 34.9613H65.359C63.8611 34.9613 63.8611 34.9613 62.9898 36.8261C62.2714 38.3699 62.195 39.18 62.73 39.6539C62.9134 39.822 63.6012 40.3111 64.2585 40.7544C64.9005 41.1824 65.4355 41.5798 65.4355 41.6104C65.4355 41.6562 65.0228 42.5122 64.5183 43.521C63.5095 45.5234 63.4178 46.0431 63.9222 46.8838C64.3961 47.6939 69.7 52.8909 70.3726 53.1966C71.091 53.5329 71.3203 53.4717 72.803 52.5088C73.4449 52.0961 74.0411 51.7751 74.1022 51.8209C74.1633 51.8668 74.6372 52.7227 75.1263 53.7316L76.0281 55.5658L78.7336 56.8803C80.415 57.7057 81.6225 58.1949 81.9282 58.1949C82.4938 58.1949 83.0288 57.9503 84.2975 57.079L85.1993 56.4676L85.4744 56.8345C86.4374 58.1032 86.7278 58.8216 86.7431 59.8457L86.7584 60.8545L85.612 61.1602C84.6185 61.4201 83.9459 61.4659 80.7207 61.4659C76.6548 61.4659 76.1504 61.4048 73.3532 60.3959C68.0645 58.4853 63.3567 54.1748 60.9416 49.0084C59.4742 45.8597 58.9698 43.5057 58.9698 39.929C58.9851 35.1447 60.0551 31.5832 62.6688 27.6702C63.6012 26.2793 66.3831 23.1916 66.7041 23.1916C66.8111 23.1916 67.6824 24.0018 68.6759 24.98ZM97.1676 25.5914C97.7179 26.2487 98.3752 27.0741 98.635 27.4257C99.0783 28.0829 99.0783 28.0829 98.7267 28.0829C98.528 28.0676 97.9319 27.9759 97.3816 27.8536C96.8314 27.7314 96.0365 27.6397 95.6085 27.6244C94.722 27.6244 94.4774 27.7772 93.0101 29.1835C92.1388 30.0394 92.0012 30.1159 90.6408 30.4521C89.846 30.6661 89.0665 30.8343 88.8983 30.8343C88.6996 30.8343 88.4092 30.5438 88.0271 29.9477L87.4462 29.0765L88.7913 27.7314L90.1211 26.4016H91.9554H93.8049L94.7831 25.408C95.3181 24.8577 95.8531 24.4145 95.9601 24.4145C96.0671 24.4145 96.6021 24.9495 97.1676 25.5914ZM102.456 37.7126C102.609 39.0272 102.456 42.2218 102.181 43.7656C102.059 44.4381 101.753 45.6457 101.493 46.4405C101.004 47.9079 99.7509 50.6898 99.3229 51.2401C99.0783 51.5305 99.0783 51.5152 99.063 50.8274C99.063 49.9408 98.9254 49.8338 96.7397 49.0084C94.5233 48.1677 94.2634 47.7245 95.1958 46.3182C96.327 44.6674 96.6174 44.056 96.6174 43.414C96.6174 42.6803 96.4492 42.5122 94.5844 41.3047C93.2699 40.4487 93.2699 40.4945 93.8966 39.0577C94.1564 38.4463 94.3399 38.2629 95.0124 37.9266C95.7155 37.5904 96.113 37.5139 98.0236 37.4222C99.6286 37.3305 100.439 37.2082 101.05 36.9789C102.258 36.5204 102.334 36.551 102.456 37.7126Z" fill="url(#paint7_linear_525_678)"/>
<path d="M79.3907 20.8836C78.9933 21.2046 78.3819 21.7548 78.0456 22.1064L77.4495 22.7331H76.2725C74.6064 22.7331 74.6064 22.7331 74.6064 25.8971V28.3733L75.065 28.6943C75.921 29.3057 77.7858 30.07 78.3972 30.07C78.9016 30.07 80.9651 29.4586 82.4478 28.8625C82.9828 28.6485 83.1815 28.1746 83.8693 25.5456C84.4501 23.2222 84.5266 22.137 84.1292 21.7701C83.9763 21.6478 83.2732 21.2504 82.5701 20.9141C80.8887 20.104 80.3843 20.0887 79.3907 20.8836ZM81.4848 23.6043C81.4848 23.9559 80.8581 26.2946 80.7205 26.4474C80.6594 26.5085 80.1091 26.7378 79.4824 26.9518C78.3972 27.3187 78.336 27.3187 77.8011 27.0741C77.2049 26.8142 77.0521 26.5238 77.0521 25.6679V25.1787H78.0609H79.0697L80.0021 24.2616C80.9498 23.3598 81.4848 23.1152 81.4848 23.6043Z" fill="url(#paint8_linear_525_678)"/>
<path d="M47.0624 19.5537C46.5885 20.2874 46.1605 21.2351 46.2217 21.4185C46.2675 21.5255 46.7566 21.8465 47.3222 22.1369L48.331 22.6566L48.652 22.2745C48.9272 21.9229 49.6914 20.5473 49.6914 20.3791C49.6914 20.2415 47.7655 19.2174 47.5209 19.2174C47.3833 19.2174 47.1846 19.3703 47.0624 19.5537Z" fill="url(#paint9_linear_525_678)"/>
<path d="M112.743 19.7371C112.239 20.0123 111.811 20.3333 111.78 20.4556C111.719 20.7918 112.926 22.5802 113.217 22.5802C113.614 22.5802 115.265 21.5102 115.265 21.2504C115.265 20.8377 114.195 19.2174 113.92 19.2174C113.782 19.2174 113.247 19.4467 112.743 19.7371Z" fill="url(#paint10_linear_525_678)"/>
<path d="M116.977 28.679C116.442 28.8318 115.937 29.0305 115.861 29.1069C115.754 29.2139 115.8 29.6114 115.953 30.2533C116.335 31.736 116.274 31.7054 117.634 31.3844C118.276 31.2316 118.842 31.0176 118.872 30.9106C119.01 30.5743 118.398 28.465 118.154 28.4344C118.032 28.4191 117.512 28.5261 116.977 28.679Z" fill="url(#paint11_linear_525_678)"/>
<path d="M42.7977 29.6115C42.6296 30.2076 42.5073 30.7884 42.5532 30.8954C42.599 31.0177 43.1646 31.2317 43.8066 31.3846C44.7848 31.6138 44.9988 31.6291 45.1058 31.4457C45.3351 31.0636 45.7325 29.2599 45.6102 29.1529C45.3962 28.9542 43.99 28.5415 43.562 28.5415C43.1646 28.5415 43.1034 28.6179 42.7977 29.6115Z" fill="url(#paint12_linear_525_678)"/>
<path d="M41.5903 39.8526V41.0754H42.8132H44.036V39.8526V38.6297H42.8132H41.5903V39.8526Z" fill="url(#paint13_linear_525_678)"/>
<path d="M110.297 38.9354C110.083 39.18 109.992 39.6386 109.885 41.0448C109.487 46.7615 107.959 51.4388 105.07 55.8256C99.9645 63.5753 91.6952 68.329 82.1266 69.0168C79.7116 69.1849 79.4976 69.3072 79.4976 70.4231C79.4976 71.5389 79.7116 71.6459 81.8362 71.6459C90.1208 71.6459 98.7264 67.6259 104.596 61.0226C109.487 55.5199 112.514 47.9384 112.514 41.1671C112.514 39.394 112.483 39.1036 112.239 38.8896C111.826 38.5075 110.649 38.538 110.297 38.9354Z" fill="url(#paint14_linear_525_678)"/>
<path d="M117.405 39.8526V41.0754H118.628H119.851V39.8526V38.6297H118.628H117.405V39.8526Z" fill="url(#paint15_linear_525_678)"/>
<path d="M43.883 48.2747C42.9965 48.5193 42.5073 48.7486 42.5073 48.9167C42.5073 48.9931 42.6449 49.5434 42.813 50.109C43.1187 51.1331 43.1493 51.1636 43.6384 51.1636C44.2804 51.1636 45.5644 50.7204 45.6561 50.4758C45.7019 50.3688 45.5949 49.788 45.4115 49.1918C45.06 47.9996 45.0141 47.969 43.883 48.2747Z" fill="url(#paint16_linear_525_678)"/>
<path d="M116.045 49.2988C115.861 49.9561 115.724 50.5369 115.724 50.5828C115.724 50.7356 117.955 51.2248 118.215 51.1178C118.475 51.0108 119.041 48.9014 118.842 48.718C118.658 48.5651 117.069 48.1066 116.671 48.1066C116.427 48.1066 116.304 48.3206 116.045 49.2988Z" fill="url(#paint17_linear_525_678)"/>
<path d="M47.093 57.6293C46.6345 57.9044 46.2371 58.256 46.2065 58.3935C46.1301 58.7604 47.2153 60.4876 47.5057 60.4876C47.8879 60.4876 49.6915 59.4329 49.6915 59.2036C49.6915 58.8215 48.484 57.1249 48.2088 57.1249C48.056 57.1249 47.5516 57.3541 47.093 57.6293Z" fill="url(#paint18_linear_525_678)"/>
<path d="M112.697 57.5376C112.529 57.7821 112.254 58.2712 112.055 58.6381C111.719 59.2954 111.719 59.3259 111.994 59.5399C112.453 59.8762 113.706 60.4876 113.951 60.4876C114.195 60.4876 115.265 58.8368 115.265 58.4547C115.265 58.1948 113.614 57.1249 113.232 57.1249C113.095 57.1249 112.865 57.3083 112.697 57.5376Z" fill="url(#paint19_linear_525_678)"/>
<path d="M52.779 65.761L51.9077 66.5864L52.9471 67.6258L53.9865 68.6652L54.8119 67.794C55.2705 67.3201 55.6526 66.8157 55.6526 66.6629C55.6526 66.3266 54.2158 64.9203 53.8795 64.9203C53.7419 64.9203 53.2528 65.3025 52.779 65.761Z" fill="url(#paint20_linear_525_678)"/>
<path d="M106.461 65.6999C106.003 66.1432 105.636 66.5711 105.636 66.6629C105.636 66.7699 106.048 67.2437 106.553 67.7481L107.47 68.6652L108.509 67.6258L109.533 66.5864L108.662 65.761C108.188 65.3025 107.684 64.9203 107.546 64.9203C107.409 64.9203 106.92 65.2719 106.461 65.6999Z" fill="url(#paint21_linear_525_678)"/>
<path d="M98.9556 71.493C98.4207 71.8293 97.9927 72.1809 97.9927 72.2879C97.9927 72.6394 99.0168 74.3208 99.2461 74.3667C99.6129 74.4431 101.279 73.419 101.325 73.098C101.371 72.7159 100.408 70.9733 100.117 70.9122C99.995 70.8969 99.4753 71.1568 98.9556 71.493Z" fill="url(#paint22_linear_525_678)"/>
<path d="M60.5746 71.9363C60.3147 72.4254 60.0854 72.9451 60.0854 73.0674C60.0854 73.3272 61.7363 74.3972 62.1184 74.3972C62.4088 74.3972 63.4941 72.6547 63.4176 72.3031C63.3565 71.9821 61.8433 71.0345 61.3847 71.0345C61.1554 71.0345 60.9414 71.2943 60.5746 71.9363Z" fill="url(#paint23_linear_525_678)"/>
<path d="M89.9372 75.1768C88.8214 75.5283 88.8214 75.5436 89.2953 77.0721L89.601 78.0963L90.1207 78.0045C91.1906 77.7905 92.1842 77.439 92.1842 77.2403C92.1842 77.1333 92.123 76.8429 92.0313 76.5983C91.9549 76.3537 91.8173 75.8646 91.7256 75.4978C91.5269 74.7488 91.4046 74.7182 89.9372 75.1768Z" fill="url(#paint24_linear_525_678)"/>
<path d="M69.7153 75.5742C69.6236 75.8952 69.5166 76.4454 69.4708 76.797L69.3638 77.439L70.4643 77.76C71.0604 77.9434 71.6413 78.0657 71.7483 78.0198C71.947 77.9434 72.4667 76.3384 72.4667 75.7882C72.4667 75.5436 72.2833 75.4213 71.6718 75.2379C71.2439 75.1156 70.663 75.0086 70.3879 75.0086C69.9293 75.0086 69.8682 75.0698 69.7153 75.5742Z" fill="url(#paint25_linear_525_678)"/>
<path d="M79.4976 77.76V78.9828H80.7204H81.9432V77.76V76.5371H80.7204H79.4976V77.76Z" fill="url(#paint26_linear_525_678)"/>
<defs>
<linearGradient id="paint0_linear_525_678" x1="80.7204" y1="3.16797" x2="80.7204" y2="0.722328" gradientUnits="userSpaceOnUse">
<stop stop-color="#FF740F"/>
<stop offset="1" stop-color="#FF9F4B"/>
</linearGradient>
<linearGradient id="paint1_linear_525_678" x1="101.509" y1="22.733" x2="101.509" y2="0.73501" gradientUnits="userSpaceOnUse">
<stop stop-color="#FF740F"/>
<stop offset="1" stop-color="#FF9F4B"/>
</linearGradient>
<linearGradient id="paint2_linear_525_678" x1="101.47" y1="12.9354" x2="101.47" y2="5.63033" gradientUnits="userSpaceOnUse">
<stop stop-color="#FF740F"/>
<stop offset="1" stop-color="#FF9F4B"/>
</linearGradient>
<linearGradient id="paint3_linear_525_678" x1="70.941" y1="4.74817" x2="70.941" y2="1.69216" gradientUnits="userSpaceOnUse">
<stop stop-color="#FF740F"/>
<stop offset="1" stop-color="#FF9F4B"/>
</linearGradient>
<linearGradient id="paint4_linear_525_678" x1="61.7528" y1="8.80835" x2="61.7528" y2="5.30793" gradientUnits="userSpaceOnUse">
<stop stop-color="#FF740F"/>
<stop offset="1" stop-color="#FF9F4B"/>
</linearGradient>
<linearGradient id="paint5_linear_525_678" x1="65.4353" y1="41.0754" x2="65.4353" y2="8.07278" gradientUnits="userSpaceOnUse">
<stop stop-color="#FF740F"/>
<stop offset="1" stop-color="#FF9F4B"/>
</linearGradient>
<linearGradient id="paint6_linear_525_678" x1="53.7802" y1="14.7847" x2="53.7802" y2="11.2691" gradientUnits="userSpaceOnUse">
<stop stop-color="#FF740F"/>
<stop offset="1" stop-color="#FF9F4B"/>
</linearGradient>
<linearGradient id="paint7_linear_525_678" x1="80.7236" y1="64.2325" x2="80.7236" y2="15.4001" gradientUnits="userSpaceOnUse">
<stop stop-color="#FF740F"/>
<stop offset="1" stop-color="#FF9F4B"/>
</linearGradient>
<linearGradient id="paint8_linear_525_678" x1="79.4917" y1="30.07" x2="79.4917" y2="20.2969" gradientUnits="userSpaceOnUse">
<stop stop-color="#FF740F"/>
<stop offset="1" stop-color="#FF9F4B"/>
</linearGradient>
<linearGradient id="paint9_linear_525_678" x1="47.9536" y1="22.6566" x2="47.9536" y2="19.2174" gradientUnits="userSpaceOnUse">
<stop stop-color="#FF740F"/>
<stop offset="1" stop-color="#FF9F4B"/>
</linearGradient>
<linearGradient id="paint10_linear_525_678" x1="113.521" y1="22.5802" x2="113.521" y2="19.2174" gradientUnits="userSpaceOnUse">
<stop stop-color="#FF740F"/>
<stop offset="1" stop-color="#FF9F4B"/>
</linearGradient>
<linearGradient id="paint11_linear_525_678" x1="117.347" y1="31.5634" x2="117.347" y2="28.4329" gradientUnits="userSpaceOnUse">
<stop stop-color="#FF740F"/>
<stop offset="1" stop-color="#FF9F4B"/>
</linearGradient>
<linearGradient id="paint12_linear_525_678" x1="44.0883" y1="31.5712" x2="44.0883" y2="28.5415" gradientUnits="userSpaceOnUse">
<stop stop-color="#FF740F"/>
<stop offset="1" stop-color="#FF9F4B"/>
</linearGradient>
<linearGradient id="paint13_linear_525_678" x1="42.8132" y1="41.0754" x2="42.8132" y2="38.6297" gradientUnits="userSpaceOnUse">
<stop stop-color="#FF740F"/>
<stop offset="1" stop-color="#FF9F4B"/>
</linearGradient>
<linearGradient id="paint14_linear_525_678" x1="96.0056" y1="71.6459" x2="96.0056" y2="38.6195" gradientUnits="userSpaceOnUse">
<stop stop-color="#FF740F"/>
<stop offset="1" stop-color="#FF9F4B"/>
</linearGradient>
<linearGradient id="paint15_linear_525_678" x1="118.628" y1="41.0754" x2="118.628" y2="38.6297" gradientUnits="userSpaceOnUse">
<stop stop-color="#FF740F"/>
<stop offset="1" stop-color="#FF9F4B"/>
</linearGradient>
<linearGradient id="paint16_linear_525_678" x1="44.087" y1="51.1636" x2="44.087" y2="48.1116" gradientUnits="userSpaceOnUse">
<stop stop-color="#FF740F"/>
<stop offset="1" stop-color="#FF9F4B"/>
</linearGradient>
<linearGradient id="paint17_linear_525_678" x1="117.303" y1="51.1329" x2="117.303" y2="48.1066" gradientUnits="userSpaceOnUse">
<stop stop-color="#FF740F"/>
<stop offset="1" stop-color="#FF9F4B"/>
</linearGradient>
<linearGradient id="paint18_linear_525_678" x1="47.9471" y1="60.4876" x2="47.9471" y2="57.1249" gradientUnits="userSpaceOnUse">
<stop stop-color="#FF740F"/>
<stop offset="1" stop-color="#FF9F4B"/>
</linearGradient>
<linearGradient id="paint19_linear_525_678" x1="113.53" y1="60.4876" x2="113.53" y2="57.1249" gradientUnits="userSpaceOnUse">
<stop stop-color="#FF740F"/>
<stop offset="1" stop-color="#FF9F4B"/>
</linearGradient>
<linearGradient id="paint20_linear_525_678" x1="53.7802" y1="68.6652" x2="53.7802" y2="64.9203" gradientUnits="userSpaceOnUse">
<stop stop-color="#FF740F"/>
<stop offset="1" stop-color="#FF9F4B"/>
</linearGradient>
<linearGradient id="paint21_linear_525_678" x1="107.585" y1="68.6652" x2="107.585" y2="64.9203" gradientUnits="userSpaceOnUse">
<stop stop-color="#FF740F"/>
<stop offset="1" stop-color="#FF9F4B"/>
</linearGradient>
<linearGradient id="paint22_linear_525_678" x1="99.6596" y1="74.3707" x2="99.6596" y2="70.9116" gradientUnits="userSpaceOnUse">
<stop stop-color="#FF740F"/>
<stop offset="1" stop-color="#FF9F4B"/>
</linearGradient>
<linearGradient id="paint23_linear_525_678" x1="61.7535" y1="74.3972" x2="61.7535" y2="71.0345" gradientUnits="userSpaceOnUse">
<stop stop-color="#FF740F"/>
<stop offset="1" stop-color="#FF9F4B"/>
</linearGradient>
<linearGradient id="paint24_linear_525_678" x1="90.5896" y1="78.0963" x2="90.5896" y2="74.8748" gradientUnits="userSpaceOnUse">
<stop stop-color="#FF740F"/>
<stop offset="1" stop-color="#FF9F4B"/>
</linearGradient>
<linearGradient id="paint25_linear_525_678" x1="70.9152" y1="78.0295" x2="70.9152" y2="75.0086" gradientUnits="userSpaceOnUse">
<stop stop-color="#FF740F"/>
<stop offset="1" stop-color="#FF9F4B"/>
</linearGradient>
<linearGradient id="paint26_linear_525_678" x1="80.7204" y1="78.9828" x2="80.7204" y2="76.5371" gradientUnits="userSpaceOnUse">
<stop stop-color="#FF740F"/>
<stop offset="1" stop-color="#FF9F4B"/>
</linearGradient>
</defs>
</svg>
