<svg width="60" height="79" viewBox="0 0 60 79" fill="none" xmlns="http://www.w3.org/2000/svg">
<path d="M1.601 1.06706C1.29071 1.25668 0.894241 1.65315 0.704623 1.96343C0.377101 2.51505 0.359863 2.85981 0.359863 14.5127C0.359863 26.1656 0.377101 26.5103 0.704623 27.062C0.894241 27.3722 1.29071 27.7687 1.601 27.9583C2.13538 28.2859 2.48014 28.3031 6.73792 28.3031C10.9957 28.3031 11.3405 28.2859 11.8748 27.9583C12.5644 27.5446 13.116 26.6655 13.116 25.9932V25.4933L14.4605 25.614C16.4429 25.7863 17.6151 26.4069 19.1838 28.1652C21.0972 30.2855 22.821 31.6817 24.5792 32.5264C26.0445 33.2332 26.665 33.4055 30.7332 34.2502C32.3191 34.5777 32.8535 34.8535 37.2492 37.5254C39.0936 38.6459 40.9381 39.7146 41.3518 39.887C42.3861 40.3524 44.3512 40.3524 45.42 39.887L46.2129 39.525V40.9558V42.3693L44.8166 42.783C41.731 43.6621 39.4212 45.9203 38.3696 49.0404C37.8008 50.7642 37.7663 53.212 38.3007 54.953C38.973 57.125 40.5761 59.2625 42.3344 60.2968C43.0928 60.7278 43.1101 60.7622 43.1101 61.6414C43.1101 62.3826 43.2135 62.6929 43.61 63.2445L44.1099 63.934L43.61 64.6753C43.1273 65.382 43.1101 65.5027 43.1101 67.3471C43.1101 69.1227 43.1446 69.3295 43.541 69.9156C43.7824 70.2604 43.972 70.5879 43.972 70.6224C43.972 70.6568 43.7824 70.9844 43.541 71.3291C43.1273 71.9324 43.1101 72.0704 43.1101 74.5699C43.1101 76.8625 43.1446 77.2418 43.4548 77.7417C44.0754 78.7415 44.696 78.9828 46.6956 78.9828C48.8848 78.9828 49.1606 78.8449 50.419 77.2762C52.229 75.018 52.0738 75.9144 52.0738 67.8298V60.745L52.8496 60.2968C54.6078 59.2625 56.211 57.125 56.8832 54.953C57.4176 53.212 57.3831 50.7642 56.8143 49.0404C55.7628 45.9203 53.4529 43.6621 50.3673 42.783L48.971 42.3693V40.7489V39.1285L49.7467 39.7664C52.2117 41.7832 54.5044 41.9211 55.5387 40.1111C55.8145 39.6112 59.6586 22.3905 59.6586 21.6665C59.6413 20.8046 58.7277 19.7186 53.4874 14.3058C50.419 11.1513 47.7299 8.42768 47.523 8.27254C47.2989 8.10016 43.4031 6.87627 38.8523 5.54893L30.5781 3.13562H21.8556C13.6504 3.13562 13.116 3.11838 13.116 2.82533C13.116 2.34267 12.4782 1.42905 11.8748 1.06706C11.3405 0.73954 10.9957 0.722298 6.73792 0.722298C2.48014 0.722298 2.13538 0.73954 1.601 1.06706ZM10.3579 14.5127V25.545H6.73792H3.11794V14.5127V3.48038H6.73792H10.3579V14.5127ZM37.5767 8.2553L45.7303 10.6341L51.143 16.202C54.2631 19.4255 56.5557 21.9078 56.5557 22.0974C56.5557 22.4766 53.1254 38.1632 53.0219 38.2666C52.884 38.4046 51.7636 37.6116 51.2292 36.991C49.7467 35.319 49.6088 34.233 50.2639 29.3546C50.6776 26.3552 50.7293 25.6312 50.5569 25.0796C50.2294 24.0108 47.0059 20.6149 44.7477 18.9773C41.076 16.3054 37.6112 16.3572 35.8701 19.1152C35.1289 20.2702 34.9565 20.9425 35.0427 22.3387C35.1806 25.3554 37.8353 28.3376 43.5928 31.9575C45.2648 32.9918 45.8682 33.7675 45.8682 34.8535C45.8682 35.8706 45.0063 36.9738 43.9892 37.2668C43.0584 37.5254 42.4378 37.2151 35.646 33.078C33.9567 32.061 33.5775 31.9058 31.7675 31.4921C30.6643 31.2508 29.1128 30.906 28.3371 30.7164C25.8376 30.1476 24.8723 29.5615 22.1659 26.8896C20.8386 25.5795 19.4423 24.3039 19.0631 24.0453C17.822 23.2006 16.374 22.7869 14.6674 22.7869H13.116V14.3403V5.8937H21.2695H29.4059L37.5767 8.2553ZM40.8347 20.1668C42.455 20.7873 45.2993 23.08 47.0748 25.2002L47.7643 26.0277L47.5058 27.9756C47.3679 29.0616 47.1955 30.1303 47.1438 30.3544L47.0576 30.7681L46.6783 30.4061C46.4715 30.2165 45.6441 29.6649 44.8339 29.165C40.4899 26.5103 37.9387 23.8384 37.9387 21.9423C37.9387 21.3045 38.0421 21.0976 38.611 20.5288C39.3694 19.7703 39.6625 19.7186 40.8347 20.1668ZM46.2129 48.1268C46.2129 50.4884 46.2474 50.747 46.5577 51.0572C46.7818 51.2813 47.1265 51.402 47.592 51.402C48.0574 51.402 48.4021 51.2813 48.6262 51.0572C48.9365 50.747 48.971 50.4884 48.971 48.1268C48.971 45.1274 48.9193 45.1963 50.6431 46.0582C51.9187 46.696 53.1426 47.9716 53.7632 49.299C54.1769 50.1609 54.2286 50.4884 54.2286 52.0915C54.2286 53.7981 54.1941 53.9877 53.677 55.0392C53.0047 56.401 51.8325 57.5387 50.4018 58.28C49.8329 58.5558 49.3158 58.9178 49.2468 59.0729C49.1951 59.228 49.1434 62.6584 49.1434 66.7093V74.0355L48.3332 75.1215C47.523 76.1902 47.4885 76.2247 46.6956 76.2247H45.8682V74.6561C45.8682 73.1736 45.8854 73.0702 46.4198 72.4151C47.161 71.5015 47.2989 70.1569 46.7301 69.2088C46.5232 68.8468 46.2474 68.4848 46.1095 68.4159C45.9544 68.3297 45.8682 67.9677 45.8682 67.4333C45.8682 66.7266 45.9716 66.4335 46.4543 65.813C47.4541 64.5029 47.4196 63.1928 46.3853 61.8827C45.8854 61.2794 45.8509 61.1587 45.9544 60.2279C46.075 59.0384 45.9716 58.9005 44.5408 58.1248C43.2135 57.4353 42.0241 56.1942 41.4208 54.8841C41.007 54.0222 40.9553 53.6947 40.9553 52.0915C40.9553 50.4884 41.007 50.1609 41.4208 49.299C42.0413 47.9716 43.2652 46.696 44.5408 46.0582C46.2646 45.1963 46.2129 45.1274 46.2129 48.1268Z" fill="url(#paint0_linear_525_714)"/>
<path d="M5.53177 20.7184C5.23873 21.0114 5.18701 21.2872 5.18701 22.6145C5.18701 24.459 5.42834 24.8555 6.56605 24.8555C7.70376 24.8555 7.94509 24.459 7.94509 22.6145C7.94509 20.7701 7.70376 20.3736 6.56605 20.3736C6.10063 20.3736 5.75587 20.4943 5.53177 20.7184Z" fill="url(#paint1_linear_525_714)"/>
<path d="M35.6637 44.524C30.3717 45.2135 26.6827 50.1091 27.424 55.4701L27.6308 56.8837L27.0103 57.6938C26.6655 58.1248 26.3897 58.6592 26.3897 58.866C26.3725 59.9176 26.2345 60.0555 24.9589 60.2795C24.4935 60.3485 24.0108 60.6588 23.1834 61.4345C21.9595 62.5722 21.6492 63.0549 21.4769 64.0374C21.3734 64.589 21.2872 64.6752 20.7184 64.7787C20.3736 64.8476 19.9082 64.9855 19.6669 65.1234C19.0118 65.4509 16.271 68.3125 16.0641 68.8641C15.8056 69.5364 15.8228 70.4327 16.1158 71.105C16.4951 72.0014 18.4602 73.7597 19.2359 73.9148C19.9254 74.0355 23.0455 73.7252 23.7523 73.4494C23.9936 73.3632 26.4414 71.105 29.1822 68.4159C33.9227 63.8133 34.2157 63.5548 34.7329 63.641C35.0259 63.6927 36.1981 63.7271 37.3358 63.7099C39.0596 63.7099 39.5768 63.641 40.3869 63.3134C42.0073 62.6756 42.5589 61.5207 41.6453 60.6243C41.1282 60.0899 40.5593 60.0727 39.2148 60.5554C37.7668 61.0553 35.6637 60.9518 34.2502 60.314C33.6986 60.0555 33.147 59.8486 33.0263 59.8486C32.9057 59.8486 32.6816 60.1416 32.5437 60.4864C32.354 60.9346 30.7164 62.6929 27.4584 65.9336L22.649 70.743L21.3045 70.8982L19.9599 71.0705L19.3738 70.5017L18.805 69.9501L19.9599 68.7779C20.9597 67.7781 21.2011 67.6057 21.7354 67.6057C23.08 67.6057 24.1832 66.5714 24.3901 65.1234C24.5452 64.1409 25.7346 62.9514 26.5793 62.9514C27.9239 62.9514 29.0099 61.8654 29.234 60.2968C29.4063 59.1074 29.4236 59.0557 30.32 58.7281C30.7681 58.5557 31.1819 58.3661 31.268 58.3144C31.337 58.2455 31.1991 57.6938 30.9578 57.1078C30.6992 56.5044 30.4234 55.6081 30.3372 55.0909C29.9752 53.1603 30.8371 50.7469 32.3885 49.2989C33.5952 48.1612 34.7329 47.6441 36.5946 47.3683C37.7323 47.1959 38.2322 47.0408 38.4046 46.8167C38.6631 46.4547 38.6976 45.4721 38.4563 45.0239C38.3011 44.7309 37.4048 44.3172 37.0083 44.3516C36.9049 44.3689 36.3015 44.4378 35.6637 44.524Z" fill="url(#paint2_linear_525_714)"/>
<defs>
<linearGradient id="paint0_linear_525_714" x1="30.0092" y1="78.9828" x2="30.0092" y2="0.722298" gradientUnits="userSpaceOnUse">
<stop stop-color="#FF740F"/>
<stop offset="1" stop-color="#FF963C"/>
</linearGradient>
<linearGradient id="paint1_linear_525_714" x1="6.56605" y1="24.8555" x2="6.56605" y2="20.3736" gradientUnits="userSpaceOnUse">
<stop stop-color="#FF740F"/>
<stop offset="1" stop-color="#FF963C"/>
</linearGradient>
<linearGradient id="paint2_linear_525_714" x1="28.9839" y1="73.9416" x2="28.9839" y2="44.3496" gradientUnits="userSpaceOnUse">
<stop stop-color="#FF740F"/>
<stop offset="1" stop-color="#FF963C"/>
</linearGradient>
</defs>
</svg>
