<svg width="160" height="149" viewBox="0 0 160 149" fill="none" xmlns="http://www.w3.org/2000/svg">
<path d="M31.28 122.412V111.052H36.224C36.736 111.052 37.2053 111.159 37.632 111.372C38.0693 111.585 38.4427 111.868 38.752 112.22C39.0613 112.561 39.3013 112.956 39.472 113.404C39.6533 113.841 39.744 114.289 39.744 114.748C39.744 115.132 39.6907 115.5 39.584 115.852C39.4773 116.204 39.328 116.529 39.136 116.828C38.944 117.127 38.7093 117.388 38.432 117.612C38.1547 117.825 37.8507 117.985 37.52 118.092L40.192 122.412H38.16L35.696 118.46H33.072V122.412H31.28ZM33.072 116.876H36.208C36.464 116.876 36.6933 116.823 36.896 116.716C37.1093 116.599 37.2907 116.444 37.44 116.252C37.5893 116.049 37.7067 115.82 37.792 115.564C37.8773 115.308 37.92 115.036 37.92 114.748C37.92 114.46 37.8667 114.188 37.76 113.932C37.664 113.676 37.5307 113.452 37.36 113.26C37.2 113.068 37.008 112.919 36.784 112.812C36.5707 112.695 36.3467 112.636 36.112 112.636H33.072V116.876ZM49.6501 120.828V122.412H41.8581V111.052H49.5061V112.636H43.6501V115.868H48.7221V117.356H43.6501V120.828H49.6501ZM54.8428 111.052H56.4108L60.8908 122.412H59.0028L57.8028 119.324H53.4188L52.2348 122.412H50.3308L54.8428 111.052ZM57.4508 117.996L55.6268 113.116L53.7388 117.996H57.4508ZM62.2956 122.412V111.052H64.0876V120.828H70.1836V122.412H62.2956ZM82.947 120.828V122.412H75.155V111.052H82.803V112.636H76.947V115.868H82.019V117.356H76.947V120.828H82.947ZM91.2812 113.724C91.1746 113.607 91.0199 113.484 90.8173 113.356C90.6146 113.217 90.3746 113.089 90.0973 112.972C89.8306 112.855 89.5319 112.759 89.2013 112.684C88.8813 112.609 88.5506 112.572 88.2093 112.572C87.4519 112.572 86.8919 112.711 86.5293 112.988C86.1773 113.265 86.0013 113.649 86.0013 114.14C86.0013 114.417 86.0546 114.647 86.1613 114.828C86.2786 114.999 86.4546 115.153 86.6893 115.292C86.9239 115.42 87.2173 115.537 87.5693 115.644C87.9213 115.74 88.3319 115.847 88.8013 115.964C89.3773 116.103 89.8946 116.257 90.3533 116.428C90.8226 116.599 91.2173 116.807 91.5373 117.052C91.8573 117.297 92.1026 117.601 92.2733 117.964C92.4546 118.316 92.5453 118.748 92.5453 119.26C92.5453 119.836 92.4333 120.332 92.2093 120.748C91.9959 121.164 91.6973 121.505 91.3133 121.772C90.9399 122.028 90.5026 122.22 90.0013 122.348C89.4999 122.465 88.9613 122.524 88.3853 122.524C87.5213 122.524 86.6839 122.396 85.8733 122.14C85.0733 121.873 84.3479 121.489 83.6973 120.988L84.5133 119.452C84.6519 119.591 84.8493 119.745 85.1053 119.916C85.3719 120.087 85.6759 120.247 86.0173 120.396C86.3693 120.535 86.7479 120.657 87.1533 120.764C87.5586 120.86 87.9799 120.908 88.4173 120.908C89.1213 120.908 89.6653 120.785 90.0493 120.54C90.4333 120.295 90.6253 119.932 90.6253 119.452C90.6253 119.164 90.5506 118.924 90.4013 118.732C90.2626 118.54 90.0599 118.375 89.7933 118.236C89.5266 118.087 89.2013 117.953 88.8173 117.836C88.4333 117.719 87.9959 117.596 87.5052 117.468C86.9399 117.319 86.4439 117.164 86.0173 117.004C85.6013 116.833 85.2546 116.631 84.9773 116.396C84.6999 116.161 84.4866 115.889 84.3372 115.58C84.1986 115.26 84.1293 114.876 84.1293 114.428C84.1293 113.873 84.2359 113.383 84.4493 112.956C84.6626 112.519 84.9506 112.156 85.3133 111.868C85.6866 111.569 86.1239 111.345 86.6253 111.196C87.1266 111.047 87.6706 110.972 88.2573 110.972C89.0253 110.972 89.7346 111.095 90.3853 111.34C91.0359 111.585 91.6066 111.889 92.0972 112.252L91.2812 113.724ZM102.6 112.636H98.8244V122.412H97.0164V112.636H93.2244V111.052H102.6V112.636ZM106.343 111.052H107.911L112.391 122.412H110.503L109.303 119.324H104.919L103.735 122.412H101.831L106.343 111.052ZM108.951 117.996L107.127 113.116L105.239 117.996H108.951ZM121.007 112.636H117.231V122.412H115.423V112.636H111.631V111.052H121.007V112.636ZM130.322 120.828V122.412H122.53V111.052H130.178V112.636H124.322V115.868H129.394V117.356H124.322V120.828H130.322Z" fill="#5C6A77"/>
<path d="M53.601 1.06706C53.2907 1.25668 52.8942 1.65315 52.7046 1.96343C52.3771 2.51505 52.3599 2.85981 52.3599 14.5127C52.3599 26.1656 52.3771 26.5103 52.7046 27.062C52.8942 27.3722 53.2907 27.7687 53.601 27.9583C54.1354 28.2859 54.4801 28.3031 58.7379 28.3031C62.9957 28.3031 63.3405 28.2859 63.8748 27.9583C64.5644 27.5446 65.116 26.6655 65.116 25.9932V25.4933L66.4605 25.614C68.4429 25.7863 69.6151 26.4069 71.1838 28.1652C73.0972 30.2855 74.821 31.6817 76.5792 32.5264C78.0445 33.2332 78.665 33.4055 82.7332 34.2502C84.3191 34.5777 84.8535 34.8535 89.2492 37.5254C91.0936 38.6459 92.9381 39.7146 93.3518 39.887C94.3861 40.3524 96.3512 40.3524 97.42 39.887L98.2129 39.525V40.9558V42.3693L96.8166 42.783C93.731 43.6621 91.4212 45.9203 90.3696 49.0404C89.8008 50.7642 89.7663 53.212 90.3007 54.953C90.973 57.125 92.5761 59.2625 94.3344 60.2968C95.0928 60.7278 95.1101 60.7622 95.1101 61.6414C95.1101 62.3826 95.2135 62.6929 95.61 63.2445L96.1099 63.934L95.61 64.6753C95.1273 65.382 95.1101 65.5027 95.1101 67.3471C95.1101 69.1227 95.1446 69.3295 95.541 69.9156C95.7824 70.2604 95.972 70.5879 95.972 70.6224C95.972 70.6568 95.7824 70.9844 95.541 71.3291C95.1273 71.9324 95.1101 72.0704 95.1101 74.5699C95.1101 76.8625 95.1446 77.2418 95.4548 77.7417C96.0754 78.7415 96.696 78.9828 98.6956 78.9828C100.885 78.9828 101.161 78.8449 102.419 77.2762C104.229 75.018 104.074 75.9144 104.074 67.8298V60.745L104.85 60.2968C106.608 59.2625 108.211 57.125 108.883 54.953C109.418 53.212 109.383 50.7642 108.814 49.0404C107.763 45.9203 105.453 43.6621 102.367 42.783L100.971 42.3693V40.7489V39.1285L101.747 39.7664C104.212 41.7832 106.504 41.9211 107.539 40.1111C107.814 39.6112 111.659 22.3905 111.659 21.6665C111.641 20.8046 110.728 19.7186 105.487 14.3058C102.419 11.1513 99.7299 8.42768 99.523 8.27254C99.2989 8.10016 95.4031 6.87627 90.8523 5.54893L82.5781 3.13562H73.8556C65.6504 3.13562 65.116 3.11838 65.116 2.82533C65.116 2.34267 64.4782 1.42905 63.8748 1.06706C63.3405 0.73954 62.9957 0.722298 58.7379 0.722298C54.4801 0.722298 54.1354 0.73954 53.601 1.06706ZM62.3579 14.5127V25.545H58.7379H55.1179V14.5127V3.48038H58.7379H62.3579V14.5127ZM89.5767 8.2553L97.7303 10.6341L103.143 16.202C106.263 19.4255 108.556 21.9078 108.556 22.0974C108.556 22.4766 105.125 38.1632 105.022 38.2666C104.884 38.4046 103.764 37.6116 103.229 36.991C101.747 35.319 101.609 34.233 102.264 29.3546C102.678 26.3552 102.729 25.6312 102.557 25.0796C102.229 24.0108 99.0059 20.6149 96.7477 18.9773C93.076 16.3054 89.6112 16.3572 87.8701 19.1152C87.1289 20.2702 86.9565 20.9425 87.0427 22.3387C87.1806 25.3554 89.8353 28.3376 95.5928 31.9575C97.2648 32.9918 97.8682 33.7675 97.8682 34.8535C97.8682 35.8706 97.0063 36.9738 95.9892 37.2668C95.0584 37.5254 94.4378 37.2151 87.646 33.078C85.9567 32.061 85.5775 31.9058 83.7675 31.4921C82.6643 31.2508 81.1128 30.906 80.3371 30.7164C77.8376 30.1476 76.8723 29.5615 74.1659 26.8896C72.8386 25.5795 71.4423 24.3039 71.0631 24.0453C69.822 23.2006 68.374 22.7869 66.6674 22.7869H65.116V14.3403V5.8937H73.2695H81.4059L89.5767 8.2553ZM92.8347 20.1668C94.455 20.7873 97.2993 23.08 99.0748 25.2002L99.7643 26.0277L99.5058 27.9756C99.3679 29.0616 99.1955 30.1303 99.1438 30.3544L99.0576 30.7681L98.6783 30.4061C98.4715 30.2165 97.6441 29.6649 96.8339 29.165C92.4899 26.5103 89.9387 23.8384 89.9387 21.9423C89.9387 21.3045 90.0421 21.0976 90.611 20.5288C91.3694 19.7703 91.6625 19.7186 92.8347 20.1668ZM98.2129 48.1268C98.2129 50.4884 98.2474 50.747 98.5577 51.0572C98.7818 51.2813 99.1265 51.402 99.592 51.402C100.057 51.402 100.402 51.2813 100.626 51.0572C100.937 50.747 100.971 50.4884 100.971 48.1268C100.971 45.1274 100.919 45.1963 102.643 46.0582C103.919 46.696 105.143 47.9716 105.763 49.299C106.177 50.1609 106.229 50.4884 106.229 52.0915C106.229 53.7981 106.194 53.9877 105.677 55.0392C105.005 56.401 103.833 57.5387 102.402 58.28C101.833 58.5558 101.316 58.9178 101.247 59.0729C101.195 59.228 101.143 62.6584 101.143 66.7093V74.0355L100.333 75.1215C99.523 76.1902 99.4885 76.2247 98.6956 76.2247H97.8682V74.6561C97.8682 73.1736 97.8854 73.0702 98.4198 72.4151C99.161 71.5015 99.2989 70.1569 98.7301 69.2088C98.5232 68.8468 98.2474 68.4848 98.1095 68.4159C97.9544 68.3297 97.8682 67.9677 97.8682 67.4333C97.8682 66.7266 97.9716 66.4335 98.4543 65.813C99.4541 64.5029 99.4196 63.1928 98.3853 61.8827C97.8854 61.2794 97.8509 61.1587 97.9544 60.2279C98.075 59.0384 97.9716 58.9005 96.5408 58.1248C95.2135 57.4353 94.0241 56.1942 93.4208 54.8841C93.007 54.0222 92.9553 53.6947 92.9553 52.0915C92.9553 50.4884 93.007 50.1609 93.4208 49.299C94.0413 47.9716 95.2652 46.696 96.5408 46.0582C98.2646 45.1963 98.2129 45.1274 98.2129 48.1268Z" fill="url(#paint0_linear_525_710)"/>
<path d="M57.5318 20.7184C57.2387 21.0114 57.187 21.2872 57.187 22.6145C57.187 24.459 57.4283 24.8555 58.5661 24.8555C59.7038 24.8555 59.9451 24.459 59.9451 22.6145C59.9451 20.7701 59.7038 20.3736 58.5661 20.3736C58.1006 20.3736 57.7559 20.4943 57.5318 20.7184Z" fill="url(#paint1_linear_525_710)"/>
<path d="M87.6637 44.524C82.3717 45.2135 78.6827 50.1091 79.424 55.4701L79.6308 56.8837L79.0103 57.6938C78.6655 58.1248 78.3897 58.6592 78.3897 58.866C78.3725 59.9176 78.2345 60.0555 76.9589 60.2795C76.4935 60.3485 76.0108 60.6588 75.1834 61.4345C73.9595 62.5722 73.6492 63.0549 73.4769 64.0374C73.3734 64.589 73.2872 64.6752 72.7184 64.7787C72.3736 64.8476 71.9082 64.9855 71.6669 65.1234C71.0118 65.4509 68.271 68.3125 68.0641 68.8641C67.8056 69.5364 67.8228 70.4327 68.1158 71.105C68.4951 72.0014 70.4602 73.7597 71.2359 73.9148C71.9254 74.0355 75.0455 73.7252 75.7523 73.4494C75.9936 73.3632 78.4414 71.105 81.1822 68.4159C85.9227 63.8133 86.2157 63.5548 86.7329 63.641C87.0259 63.6927 88.1981 63.7271 89.3358 63.7099C91.0596 63.7099 91.5768 63.641 92.3869 63.3134C94.0073 62.6756 94.5589 61.5207 93.6453 60.6243C93.1282 60.0899 92.5593 60.0727 91.2148 60.5554C89.7668 61.0553 87.6637 60.9518 86.2502 60.314C85.6986 60.0555 85.147 59.8486 85.0263 59.8486C84.9057 59.8486 84.6816 60.1416 84.5437 60.4864C84.354 60.9346 82.7164 62.6929 79.4584 65.9336L74.649 70.743L73.3045 70.8982L71.9599 71.0705L71.3738 70.5017L70.805 69.9501L71.9599 68.7779C72.9597 67.7781 73.2011 67.6057 73.7354 67.6057C75.08 67.6057 76.1832 66.5714 76.3901 65.1234C76.5452 64.1409 77.7346 62.9514 78.5793 62.9514C79.9239 62.9514 81.0099 61.8654 81.234 60.2968C81.4063 59.1074 81.4236 59.0557 82.32 58.7281C82.7681 58.5557 83.1819 58.3661 83.268 58.3144C83.337 58.2455 83.1991 57.6938 82.9578 57.1078C82.6992 56.5044 82.4234 55.6081 82.3372 55.0909C81.9752 53.1603 82.8371 50.7469 84.3885 49.2989C85.5952 48.1612 86.7329 47.6441 88.5946 47.3683C89.7323 47.1959 90.2322 47.0408 90.4046 46.8167C90.6631 46.4547 90.6976 45.4721 90.4563 45.0239C90.3011 44.7309 89.4048 44.3172 89.0083 44.3516C88.9049 44.3689 88.3015 44.4378 87.6637 44.524Z" fill="url(#paint2_linear_525_710)"/>
<defs>
<linearGradient id="paint0_linear_525_710" x1="82.0092" y1="78.9828" x2="82.0092" y2="0.722298" gradientUnits="userSpaceOnUse">
<stop stop-color="#FF740F"/>
<stop offset="1" stop-color="#FF963C"/>
</linearGradient>
<linearGradient id="paint1_linear_525_710" x1="58.5661" y1="24.8555" x2="58.5661" y2="20.3736" gradientUnits="userSpaceOnUse">
<stop stop-color="#FF740F"/>
<stop offset="1" stop-color="#FF963C"/>
</linearGradient>
<linearGradient id="paint2_linear_525_710" x1="80.9839" y1="73.9416" x2="80.9839" y2="44.3496" gradientUnits="userSpaceOnUse">
<stop stop-color="#FF740F"/>
<stop offset="1" stop-color="#FF963C"/>
</linearGradient>
</defs>
</svg>
