<svg width="160" height="149" viewBox="0 0 160 149" fill="none" xmlns="http://www.w3.org/2000/svg">
<path d="M25.6714 111.1H27.3674L28.7594 114.956L30.1674 111.1H31.8474L29.9114 116.156L31.6074 120.332L35.1434 111.052H37.1114L32.4234 122.412H30.8874L28.7754 117.324L26.6474 122.412H25.1114L20.4234 111.052H22.3754L25.9274 120.332L27.6234 116.156L25.6714 111.1ZM46.2439 120.828V122.412H38.4519V111.052H46.0999V112.636H40.2439V115.868H45.3159V117.356H40.2439V120.828H46.2439ZM57.0205 119.484C57.0205 119.943 56.9245 120.353 56.7325 120.716C56.5512 121.079 56.3005 121.388 55.9805 121.644C55.6712 121.889 55.3032 122.081 54.8765 122.22C54.4498 122.348 53.9965 122.412 53.5165 122.412H48.0925V111.052H53.9485C54.3432 111.052 54.7005 111.137 55.0205 111.308C55.3405 111.479 55.6125 111.703 55.8365 111.98C56.0605 112.247 56.2312 112.556 56.3485 112.908C56.4765 113.249 56.5405 113.596 56.5405 113.948C56.5405 114.503 56.3965 115.025 56.1085 115.516C55.8312 115.996 55.4312 116.353 54.9085 116.588C55.5592 116.78 56.0712 117.132 56.4445 117.644C56.8285 118.145 57.0205 118.759 57.0205 119.484ZM55.1805 119.148C55.1805 118.913 55.1378 118.689 55.0525 118.476C54.9778 118.263 54.8712 118.076 54.7325 117.916C54.6045 117.756 54.4445 117.628 54.2525 117.532C54.0605 117.436 53.8525 117.388 53.6285 117.388H49.8845V120.86H53.5165C53.7512 120.86 53.9698 120.817 54.1725 120.732C54.3752 120.636 54.5512 120.513 54.7005 120.364C54.8498 120.204 54.9672 120.023 55.0525 119.82C55.1378 119.607 55.1805 119.383 55.1805 119.148ZM49.8845 112.604V115.948H53.1805C53.4045 115.948 53.6072 115.905 53.7885 115.82C53.9805 115.735 54.1458 115.623 54.2845 115.484C54.4338 115.335 54.5458 115.159 54.6205 114.956C54.7058 114.753 54.7485 114.529 54.7485 114.284C54.7485 113.793 54.6098 113.393 54.3325 113.084C54.0552 112.764 53.7032 112.604 53.2765 112.604H49.8845ZM63.5134 118.636C63.844 118.7 64.148 118.817 64.4254 118.988C64.7027 119.148 64.9374 119.351 65.1294 119.596C65.3214 119.841 65.4707 120.124 65.5774 120.444C65.684 120.764 65.7374 121.111 65.7374 121.484C65.7374 121.985 65.6414 122.433 65.4494 122.828C65.268 123.233 65.0014 123.58 64.6494 123.868C64.308 124.156 63.892 124.375 63.4014 124.524C62.9107 124.684 62.3614 124.764 61.7534 124.764C60.9427 124.764 60.228 124.62 59.6094 124.332C58.9907 124.055 58.4947 123.649 58.1214 123.116L59.1934 121.9C59.4494 122.295 59.78 122.604 60.1854 122.828C60.5907 123.052 61.1027 123.164 61.7214 123.164C62.4254 123.164 62.964 123.015 63.3374 122.716C63.7214 122.417 63.9134 121.969 63.9134 121.372C63.9134 120.753 63.7 120.268 63.2734 119.916C62.8467 119.564 62.2174 119.388 61.3854 119.388H60.9534V118.012H61.4334C62.148 118.012 62.6974 117.847 63.0814 117.516C63.4654 117.175 63.6574 116.748 63.6574 116.236C63.6574 115.724 63.4867 115.351 63.1454 115.116C62.804 114.871 62.3614 114.748 61.8174 114.748C61.2734 114.748 60.7934 114.865 60.3774 115.1C59.9614 115.335 59.6307 115.671 59.3854 116.108L58.2814 114.908C58.4307 114.652 58.6334 114.423 58.8894 114.22C59.1454 114.007 59.4334 113.825 59.7534 113.676C60.084 113.516 60.436 113.399 60.8094 113.324C61.1934 113.239 61.588 113.196 61.9934 113.196C62.516 113.196 62.9907 113.265 63.4174 113.404C63.8547 113.543 64.228 113.735 64.5374 113.98C64.8574 114.225 65.1027 114.524 65.2734 114.876C65.444 115.228 65.5294 115.617 65.5294 116.044C65.5294 116.364 65.4814 116.668 65.3854 116.956C65.2894 117.244 65.1507 117.505 64.9694 117.74C64.7987 117.975 64.5907 118.172 64.3454 118.332C64.1 118.481 63.8227 118.583 63.5134 118.636ZM76.5666 111.052L68.7746 122.412H66.8226L74.6146 111.052H76.5666ZM77.2163 116.652C77.2163 115.969 77.3389 115.292 77.5843 114.62C77.8296 113.937 78.1869 113.329 78.6562 112.796C79.1363 112.252 79.7176 111.815 80.4003 111.484C81.0829 111.153 81.8563 110.988 82.7203 110.988C83.7549 110.988 84.6403 111.217 85.3763 111.676C86.1123 112.135 86.6669 112.732 87.0403 113.468L85.6323 114.412C85.4723 114.071 85.2803 113.783 85.0563 113.548C84.8323 113.313 84.5869 113.127 84.3203 112.988C84.0536 112.849 83.7763 112.753 83.4883 112.7C83.2003 112.636 82.9229 112.604 82.6563 112.604C82.0589 112.604 81.5363 112.727 81.0883 112.972C80.6403 113.207 80.2616 113.521 79.9523 113.916C79.6536 114.311 79.4243 114.753 79.2643 115.244C79.1149 115.735 79.0403 116.225 79.0403 116.716C79.0403 117.271 79.1309 117.799 79.3123 118.3C79.4936 118.801 79.7443 119.244 80.0643 119.628C80.3949 120.012 80.7843 120.321 81.2323 120.556C81.6803 120.78 82.1709 120.892 82.7043 120.892C82.9816 120.892 83.2643 120.86 83.5523 120.796C83.8509 120.721 84.1336 120.609 84.4003 120.46C84.6776 120.3 84.9283 120.103 85.1523 119.868C85.3869 119.633 85.5789 119.351 85.7283 119.02L87.2163 119.868C87.0349 120.295 86.7789 120.673 86.4483 121.004C86.1176 121.324 85.7443 121.596 85.3283 121.82C84.9123 122.044 84.4696 122.215 84.0003 122.332C83.5416 122.449 83.0883 122.508 82.6403 122.508C81.8403 122.508 81.1096 122.337 80.4483 121.996C79.7869 121.655 79.2163 121.212 78.7363 120.668C78.2563 120.113 77.8829 119.489 77.6163 118.796C77.3496 118.092 77.2163 117.377 77.2163 116.652ZM88.8738 122.412V111.052H93.8178C94.3298 111.052 94.7991 111.159 95.2258 111.372C95.6631 111.585 96.0364 111.868 96.3458 112.22C96.6551 112.561 96.8951 112.956 97.0658 113.404C97.2471 113.841 97.3378 114.289 97.3378 114.748C97.3378 115.132 97.2844 115.5 97.1778 115.852C97.0711 116.204 96.9218 116.529 96.7298 116.828C96.5378 117.127 96.3031 117.388 96.0258 117.612C95.7484 117.825 95.4444 117.985 95.1138 118.092L97.7858 122.412H95.7538L93.2898 118.46H90.6658V122.412H88.8738ZM90.6658 116.876H93.8018C94.0578 116.876 94.2871 116.823 94.4898 116.716C94.7031 116.599 94.8844 116.444 95.0338 116.252C95.1831 116.049 95.3004 115.82 95.3858 115.564C95.4711 115.308 95.5138 115.036 95.5138 114.748C95.5138 114.46 95.4604 114.188 95.3538 113.932C95.2578 113.676 95.1244 113.452 94.9538 113.26C94.7938 113.068 94.6018 112.919 94.3778 112.812C94.1644 112.695 93.9404 112.636 93.7058 112.636H90.6658V116.876ZM99.9089 111.052L103.045 116.748L106.213 111.052H108.181L103.941 118.348V122.412H102.149V118.316L97.9409 111.052H99.9089ZM109.593 122.412V111.052H114.361C114.873 111.052 115.342 111.159 115.769 111.372C116.206 111.585 116.579 111.868 116.889 112.22C117.198 112.561 117.438 112.956 117.609 113.404C117.79 113.841 117.881 114.289 117.881 114.748C117.881 115.228 117.795 115.692 117.625 116.14C117.465 116.577 117.235 116.972 116.937 117.324C116.638 117.665 116.275 117.943 115.849 118.156C115.433 118.359 114.969 118.46 114.457 118.46H111.385V122.412H109.593ZM111.385 116.876H114.345C114.601 116.876 114.83 116.823 115.033 116.716C115.246 116.609 115.427 116.46 115.577 116.268C115.726 116.076 115.843 115.852 115.929 115.596C116.014 115.34 116.057 115.057 116.057 114.748C116.057 114.428 116.009 114.14 115.913 113.884C115.817 113.628 115.683 113.409 115.513 113.228C115.342 113.036 115.145 112.892 114.921 112.796C114.707 112.689 114.483 112.636 114.249 112.636H111.385V116.876ZM127.897 112.636H124.121V122.412H122.313V112.636H118.521V111.052H127.897V112.636ZM133.609 122.492C132.799 122.492 132.057 122.332 131.385 122.012C130.724 121.681 130.153 121.249 129.673 120.716C129.193 120.172 128.82 119.553 128.553 118.86C128.297 118.167 128.169 117.457 128.169 116.732C128.169 115.975 128.308 115.249 128.585 114.556C128.863 113.863 129.241 113.249 129.721 112.716C130.212 112.183 130.788 111.761 131.449 111.452C132.121 111.132 132.852 110.972 133.641 110.972C134.452 110.972 135.188 111.143 135.849 111.484C136.521 111.815 137.092 112.252 137.561 112.796C138.041 113.34 138.409 113.959 138.665 114.652C138.932 115.335 139.065 116.033 139.065 116.748C139.065 117.505 138.927 118.231 138.649 118.924C138.383 119.617 138.004 120.231 137.513 120.764C137.023 121.287 136.441 121.708 135.769 122.028C135.108 122.337 134.388 122.492 133.609 122.492ZM129.993 116.732C129.993 117.265 130.079 117.783 130.249 118.284C130.42 118.785 130.66 119.228 130.969 119.612C131.289 119.996 131.673 120.305 132.121 120.54C132.569 120.764 133.071 120.876 133.625 120.876C134.201 120.876 134.708 120.759 135.145 120.524C135.593 120.279 135.972 119.959 136.281 119.564C136.591 119.169 136.825 118.727 136.985 118.236C137.145 117.745 137.225 117.244 137.225 116.732C137.225 116.188 137.14 115.671 136.969 115.18C136.799 114.679 136.553 114.241 136.233 113.868C135.924 113.484 135.545 113.18 135.097 112.956C134.66 112.721 134.169 112.604 133.625 112.604C133.049 112.604 132.537 112.727 132.089 112.972C131.641 113.207 131.263 113.516 130.953 113.9C130.644 114.284 130.404 114.727 130.233 115.228C130.073 115.719 129.993 116.22 129.993 116.732Z" fill="#5C6A77"/>
<path d="M75.8628 0.606483C68.5307 1.64736 62.2854 4.24957 56.6371 8.61208C54.8462 10.005 51.8001 13.0052 50.3153 14.842C46.0446 20.1383 43.2588 26.3223 42.0648 33.1952C41.6209 35.828 41.4985 41.6294 41.8505 44.3081C42.4934 49.1911 43.7486 53.2934 45.861 57.4263C47.6978 61.0234 49.7949 63.9318 52.7338 66.9473C58.7954 73.1619 66.0663 76.9122 74.9291 78.397C76.2761 78.6113 77.4547 78.6725 80.8223 78.6725C85.4297 78.6725 86.6543 78.5347 90.3127 77.6469C104.227 74.2794 115.539 62.9674 118.922 49.038C119.794 45.3949 119.932 44.1704 119.932 39.563C119.932 34.9555 119.794 33.731 118.906 30.0726C117.666 24.9447 115.125 19.7097 111.773 15.3778C110.38 13.5869 107.38 10.5408 105.543 9.05598C100.247 4.77 94.0935 2.01473 87.19 0.805473C84.7715 0.392181 78.2201 0.26973 75.8628 0.606483ZM85.8736 4.21895C93.6343 5.32105 100.369 8.71922 106.018 14.3675C110.855 19.2199 113.84 24.4702 115.493 31.0675C116.748 36.0423 116.855 42.1039 115.784 46.9869C113.197 58.6968 105.115 68.2943 94.1394 72.7027C89.731 74.4784 85.5981 75.259 80.7458 75.259C69.5104 75.259 58.9791 69.9628 52.2287 60.9469C45.7691 52.329 43.5649 41.3539 46.1671 30.9145C48.7234 20.7047 55.6575 12.1327 65.1326 7.49466C71.7452 4.26487 78.6028 3.17807 85.8736 4.21895Z" fill="url(#paint0_linear_525_718)"/>
<path d="M77.3477 10.4948C73.5363 10.9387 69.3115 12.3623 65.9746 14.3369C52.0299 22.5721 47.4224 40.512 55.6576 54.5332C56.821 56.4925 57.3261 57.013 58.1527 57.013C58.964 57.013 59.515 56.7528 59.7906 56.2323C60.2038 55.421 60.0661 54.9006 58.9946 53.1403C57.2802 50.3391 56.224 47.6604 55.5352 44.354C55.2444 42.9458 55.1831 42.2263 55.1831 39.5629C55.1831 36.8842 55.2444 36.1801 55.5352 34.7412C57.77 24.0569 65.745 16.2043 76.4293 14.1991C78.4039 13.8318 83.241 13.8318 85.2156 14.1991C98.1041 16.6176 107.013 27.7153 106.492 40.6956C106.293 45.6704 104.686 50.4156 101.839 54.4261C100.553 56.2476 97.7061 59.0794 95.8234 60.4264C94.0478 61.6816 90.6037 63.4113 88.6137 64.0389C85.5064 65.0186 84.2818 65.1869 80.6694 65.1869C77.8376 65.1869 77.1641 65.141 75.817 64.8502C72.5873 64.1461 69.6636 62.9521 66.9849 61.253C65.8828 60.5489 65.4848 60.3805 64.9643 60.3805C64.1531 60.3805 63.5867 60.8244 63.3724 61.6204C63.1122 62.5541 63.4949 63.197 64.8266 64.0848C67.9033 66.1513 71.776 67.682 75.8017 68.432C77.5467 68.7535 81.9246 68.8759 83.8226 68.6616C96.4816 67.1769 106.676 58.1763 109.355 46.1297C113.151 28.9704 101.472 12.4694 84.1135 10.4795C82.5215 10.3111 78.9397 10.3111 77.3477 10.4948Z" fill="url(#paint1_linear_525_718)"/>
<path d="M73.3833 20.7965L72.8629 21.3169V23.016C72.8629 25.3121 72.8475 25.3274 70.5515 25.3274H68.8524L68.332 25.8478C67.9034 26.2764 67.8115 26.4754 67.8115 27.0418C67.8115 28.4194 68.5156 28.848 70.7811 28.848C72.2659 28.848 72.4036 28.8786 72.6179 29.1848C72.8322 29.4909 72.8629 30.7308 72.8629 39.5629C72.8629 48.3951 72.8322 49.635 72.6179 49.9411C72.4036 50.2473 72.2659 50.2779 70.7811 50.2779C68.5156 50.2779 67.8115 50.7065 67.8115 52.0841C67.8115 52.6505 67.9034 52.8495 68.332 53.2781L68.8524 53.7985H70.5515C72.8475 53.7985 72.8629 53.8138 72.8629 56.1099V57.809L73.3833 58.3294C73.9497 58.8958 74.6385 59.0182 75.3732 58.6662C76.1233 58.3294 76.2916 57.8549 76.3529 55.9415C76.3988 54.5486 76.46 54.1353 76.659 53.9822C76.8274 53.8597 77.6693 53.7985 79.598 53.7985C82.9655 53.7985 82.8124 53.6914 82.8124 55.9568C82.8124 57.2579 82.8737 57.6406 83.1186 58.0386C83.7309 59.0488 85.4146 59.0488 86.0422 58.0233C86.2871 57.6253 86.3331 57.2579 86.3331 55.8343C86.3331 53.8903 86.3943 53.7832 87.6342 53.5689C87.9709 53.523 88.7669 53.2168 89.3945 52.926C91.6752 51.8392 93.3131 49.5738 93.7111 47.0175C94.155 44.0479 92.808 40.9253 90.3588 39.2262C89.5782 38.6904 89.5475 38.4455 90.1598 37.4659C91.3385 35.629 91.6293 32.8431 90.8946 30.7461C90.1904 28.7715 89.073 27.4091 87.2056 26.307L86.4096 25.8478L86.3331 23.6283C86.2412 21.0873 86.1035 20.7046 85.1238 20.4138C84.3125 20.1689 83.5013 20.4444 83.1033 21.1026C82.8737 21.4853 82.8124 21.868 82.8124 23.1997C82.8124 25.4192 82.9655 25.3274 79.552 25.3274C77.3172 25.3274 76.8274 25.2815 76.6284 25.0825C76.4447 24.8988 76.3835 24.5161 76.3835 23.4446C76.3835 21.6078 76.1998 20.9496 75.5722 20.5822C74.7915 20.0924 73.9956 20.1842 73.3833 20.7965ZM85.2156 29.2766C88.1087 30.8073 88.675 34.3892 86.379 36.5168C85.0932 37.6955 84.7411 37.7873 80.7001 37.8485C77.608 37.9098 77.0876 37.8792 76.7662 37.6649L76.3835 37.42V33.3177C76.3835 30.2409 76.4294 29.1694 76.5825 29.0164C76.7202 28.8786 77.6846 28.848 80.6695 28.8786C84.3738 28.9245 84.6034 28.9398 85.2156 29.2766ZM87.5729 41.7212C89.3486 42.5631 90.2364 43.9255 90.2364 45.8388C90.2211 47.2471 89.7772 48.2267 88.7057 49.1758C87.4964 50.232 87.2362 50.2779 81.6644 50.2779C78.0519 50.2779 76.7049 50.232 76.5672 50.0942C76.4294 49.9564 76.3835 48.7931 76.3835 45.8235C76.3835 41.7519 76.3835 41.7212 76.7355 41.4763C77.0264 41.262 77.654 41.2314 81.894 41.2773L86.7157 41.3233L87.5729 41.7212Z" fill="url(#paint2_linear_525_718)"/>
<defs>
<linearGradient id="paint0_linear_525_718" x1="80.7889" y1="78.6725" x2="80.7889" y2="0.411995" gradientUnits="userSpaceOnUse">
<stop stop-color="#FF6B00"/>
<stop offset="1" stop-color="#FFA75A"/>
</linearGradient>
<linearGradient id="paint1_linear_525_718" x1="80.8228" y1="68.7689" x2="80.8228" y2="10.3551" gradientUnits="userSpaceOnUse">
<stop stop-color="#FF6B00"/>
<stop offset="1" stop-color="#FFA75A"/>
</linearGradient>
<linearGradient id="paint2_linear_525_718" x1="80.8032" y1="58.8636" x2="80.8032" y2="20.2681" gradientUnits="userSpaceOnUse">
<stop stop-color="#FF6B00"/>
<stop offset="1" stop-color="#FFA75A"/>
</linearGradient>
</defs>
</svg>
