<svg width="79" height="79" viewBox="0 0 79 79" fill="none" xmlns="http://www.w3.org/2000/svg">
<path d="M34.8628 0.606482C27.5307 1.64736 21.2854 4.24956 15.6371 8.61207C13.8462 10.005 10.8001 13.0052 9.31532 14.842C5.04465 20.1383 2.25876 26.3223 1.06481 33.1952C0.62091 35.828 0.498453 41.6294 0.850515 44.3081C1.49341 49.1911 2.74859 53.2934 4.86096 57.4263C6.69781 61.0234 8.79488 63.9318 11.7338 66.9473C17.7954 73.1619 25.0663 76.9122 33.9291 78.397C35.2761 78.6113 36.4547 78.6725 39.8223 78.6725C44.4297 78.6725 45.6543 78.5347 49.3127 77.6469C63.2268 74.2794 74.5387 62.9674 77.9216 49.038C78.7941 45.3949 78.9318 44.1704 78.9318 39.5629C78.9318 34.9555 78.7941 33.731 77.9063 30.0726C76.6664 24.9447 74.1254 19.7097 70.7732 15.3778C69.3802 13.5869 66.38 10.5408 64.5432 9.05598C59.2469 4.77 53.0935 2.01473 46.19 0.805474C43.7715 0.392183 37.2201 0.269727 34.8628 0.606482ZM44.8736 4.21895C52.6343 5.32106 59.3694 8.71922 65.0177 14.3675C69.8547 19.2199 72.8396 24.4702 74.4928 31.0675C75.748 36.0423 75.8551 42.1039 74.7836 46.9869C72.1967 58.6968 64.1146 68.2943 53.1394 72.7027C48.731 74.4784 44.5981 75.259 39.7458 75.259C28.5104 75.259 17.9791 69.9628 11.2287 60.9469C4.76912 52.329 2.56491 41.3539 5.16711 30.9145C7.72338 20.7047 14.6575 12.1327 24.1326 7.49466C30.7452 4.26487 37.6028 3.17807 44.8736 4.21895Z" fill="url(#paint0_linear_525_722)"/>
<path d="M36.3477 10.4948C32.5363 10.9387 28.3115 12.3623 24.9746 14.3369C11.0299 22.5721 6.42245 40.512 14.6576 54.5332C15.821 56.4925 16.3261 57.013 17.1527 57.013C17.964 57.013 18.515 56.7528 18.7906 56.2323C19.2038 55.421 19.0661 54.9006 17.9946 53.1403C16.2802 50.3391 15.224 47.6604 14.5352 44.354C14.2444 42.9458 14.1831 42.2263 14.1831 39.5629C14.1831 36.8842 14.2444 36.1801 14.5352 34.7412C16.77 24.0569 24.745 16.2043 35.4293 14.1991C37.4039 13.8318 42.241 13.8318 44.2156 14.1991C57.1041 16.6176 66.0128 27.7153 65.4924 40.6956C65.2934 45.6704 63.6862 50.4156 60.839 54.4261C59.5533 56.2476 56.7061 59.0794 54.8234 60.4264C53.0478 61.6816 49.6037 63.4113 47.6137 64.0389C44.5064 65.0186 43.2818 65.1869 39.6694 65.1869C36.8376 65.1869 36.1641 65.141 34.817 64.8502C31.5873 64.1461 28.6636 62.9521 25.9849 61.253C24.8828 60.5489 24.4848 60.3805 23.9643 60.3805C23.1531 60.3805 22.5867 60.8244 22.3724 61.6204C22.1122 62.5541 22.4949 63.197 23.8266 64.0848C26.9033 66.1513 30.776 67.682 34.8017 68.432C36.5467 68.7535 40.9246 68.8759 42.8226 68.6616C55.4816 67.1769 65.6761 58.1763 68.3548 46.1297C72.151 28.9704 60.4717 12.4694 43.1135 10.4795C41.5215 10.3111 37.9397 10.3111 36.3477 10.4948Z" fill="url(#paint1_linear_525_722)"/>
<path d="M32.3833 20.7965L31.8629 21.3169V23.016C31.8629 25.3121 31.8475 25.3274 29.5515 25.3274H27.8524L27.332 25.8478C26.9034 26.2764 26.8115 26.4754 26.8115 27.0418C26.8115 28.4194 27.5156 28.848 29.7811 28.848C31.2659 28.848 31.4036 28.8786 31.6179 29.1848C31.8322 29.4909 31.8629 30.7308 31.8629 39.5629C31.8629 48.3951 31.8322 49.635 31.6179 49.9411C31.4036 50.2473 31.2659 50.2779 29.7811 50.2779C27.5156 50.2779 26.8115 50.7065 26.8115 52.0841C26.8115 52.6505 26.9034 52.8495 27.332 53.2781L27.8524 53.7985H29.5515C31.8475 53.7985 31.8629 53.8138 31.8629 56.1099V57.809L32.3833 58.3294C32.9497 58.8958 33.6385 59.0182 34.3732 58.6662C35.1233 58.3294 35.2916 57.8549 35.3529 55.9415C35.3988 54.5486 35.46 54.1353 35.659 53.9822C35.8274 53.8597 36.6693 53.7985 38.598 53.7985C41.9655 53.7985 41.8124 53.6914 41.8124 55.9568C41.8124 57.2579 41.8737 57.6406 42.1186 58.0386C42.7309 59.0488 44.4146 59.0488 45.0422 58.0233C45.2871 57.6253 45.3331 57.2579 45.3331 55.8343C45.3331 53.8903 45.3943 53.7832 46.6342 53.5689C46.9709 53.523 47.7669 53.2168 48.3945 52.926C50.6752 51.8392 52.3131 49.5738 52.7111 47.0175C53.155 44.0479 51.808 40.9253 49.3588 39.2262C48.5782 38.6904 48.5475 38.4455 49.1598 37.4659C50.3385 35.629 50.6293 32.8431 49.8946 30.7461C49.1904 28.7715 48.073 27.4091 46.2056 26.307L45.4096 25.8478L45.3331 23.6283C45.2412 21.0873 45.1035 20.7046 44.1238 20.4138C43.3125 20.1689 42.5013 20.4444 42.1033 21.1026C41.8737 21.4853 41.8124 21.868 41.8124 23.1997C41.8124 25.4192 41.9655 25.3274 38.552 25.3274C36.3172 25.3274 35.8274 25.2815 35.6284 25.0825C35.4447 24.8988 35.3835 24.5161 35.3835 23.4446C35.3835 21.6078 35.1998 20.9496 34.5722 20.5822C33.7915 20.0924 32.9956 20.1842 32.3833 20.7965ZM44.2156 29.2766C47.1087 30.8073 47.675 34.3892 45.379 36.5168C44.0932 37.6955 43.7411 37.7873 39.7001 37.8485C36.608 37.9098 36.0876 37.8792 35.7662 37.6649L35.3835 37.42V33.3177C35.3835 30.2409 35.4294 29.1694 35.5825 29.0164C35.7202 28.8786 36.6846 28.848 39.6695 28.8786C43.3738 28.9245 43.6034 28.9398 44.2156 29.2766ZM46.5729 41.7212C48.3486 42.5631 49.2364 43.9255 49.2364 45.8388C49.2211 47.2471 48.7772 48.2267 47.7057 49.1758C46.4964 50.232 46.2362 50.2779 40.6644 50.2779C37.0519 50.2779 35.7049 50.232 35.5672 50.0942C35.4294 49.9564 35.3835 48.7931 35.3835 45.8235C35.3835 41.7518 35.3835 41.7212 35.7355 41.4763C36.0264 41.262 36.654 41.2314 40.894 41.2773L45.7157 41.3233L46.5729 41.7212Z" fill="url(#paint2_linear_525_722)"/>
<defs>
<linearGradient id="paint0_linear_525_722" x1="39.7889" y1="78.6725" x2="39.7889" y2="0.411995" gradientUnits="userSpaceOnUse">
<stop stop-color="#FF6B00"/>
<stop offset="1" stop-color="#FFA75A"/>
</linearGradient>
<linearGradient id="paint1_linear_525_722" x1="39.8228" y1="68.7689" x2="39.8228" y2="10.3551" gradientUnits="userSpaceOnUse">
<stop stop-color="#FF6B00"/>
<stop offset="1" stop-color="#FFA75A"/>
</linearGradient>
<linearGradient id="paint2_linear_525_722" x1="39.8032" y1="58.8636" x2="39.8032" y2="20.2681" gradientUnits="userSpaceOnUse">
<stop stop-color="#FF6B00"/>
<stop offset="1" stop-color="#FFA75A"/>
</linearGradient>
</defs>
</svg>
