<svg width="160" height="149" viewBox="0 0 160 149" fill="none" xmlns="http://www.w3.org/2000/svg">
<path d="M42.56 116.652C42.56 115.969 42.6827 115.292 42.928 114.62C43.1733 113.937 43.5307 113.329 44 112.796C44.48 112.252 45.0613 111.815 45.744 111.484C46.4267 111.153 47.2 110.988 48.064 110.988C49.0987 110.988 49.984 111.217 50.72 111.676C51.456 112.135 52.0107 112.732 52.384 113.468L50.976 114.412C50.816 114.071 50.624 113.783 50.4 113.548C50.176 113.313 49.9307 113.127 49.664 112.988C49.3973 112.849 49.12 112.753 48.832 112.7C48.544 112.636 48.2667 112.604 48 112.604C47.4027 112.604 46.88 112.727 46.432 112.972C45.984 113.207 45.6053 113.521 45.296 113.916C44.9973 114.311 44.768 114.753 44.608 115.244C44.4587 115.735 44.384 116.225 44.384 116.716C44.384 117.271 44.4747 117.799 44.656 118.3C44.8373 118.801 45.088 119.244 45.408 119.628C45.7387 120.012 46.128 120.321 46.576 120.556C47.024 120.78 47.5147 120.892 48.048 120.892C48.3253 120.892 48.608 120.86 48.896 120.796C49.1947 120.721 49.4773 120.609 49.744 120.46C50.0213 120.3 50.272 120.103 50.496 119.868C50.7307 119.633 50.9227 119.351 51.072 119.02L52.56 119.868C52.3787 120.295 52.1227 120.673 51.792 121.004C51.4613 121.324 51.088 121.596 50.672 121.82C50.256 122.044 49.8133 122.215 49.344 122.332C48.8853 122.449 48.432 122.508 47.984 122.508C47.184 122.508 46.4533 122.337 45.792 121.996C45.1307 121.655 44.56 121.212 44.08 120.668C43.6 120.113 43.2267 119.489 42.96 118.796C42.6933 118.092 42.56 117.377 42.56 116.652ZM58.8281 122.492C58.0175 122.492 57.2761 122.332 56.6041 122.012C55.9428 121.681 55.3721 121.249 54.8921 120.716C54.4121 120.172 54.0388 119.553 53.7721 118.86C53.5161 118.167 53.3881 117.457 53.3881 116.732C53.3881 115.975 53.5268 115.249 53.8041 114.556C54.0815 113.863 54.4601 113.249 54.9401 112.716C55.4308 112.183 56.0068 111.761 56.6681 111.452C57.3401 111.132 58.0708 110.972 58.8601 110.972C59.6708 110.972 60.4068 111.143 61.0681 111.484C61.7401 111.815 62.3108 112.252 62.7801 112.796C63.2601 113.34 63.6281 113.959 63.8841 114.652C64.1508 115.335 64.2841 116.033 64.2841 116.748C64.2841 117.505 64.1455 118.231 63.8681 118.924C63.6015 119.617 63.2228 120.231 62.7321 120.764C62.2415 121.287 61.6601 121.708 60.9881 122.028C60.3268 122.337 59.6068 122.492 58.8281 122.492ZM55.2121 116.732C55.2121 117.265 55.2975 117.783 55.4681 118.284C55.6388 118.785 55.8788 119.228 56.1881 119.612C56.5081 119.996 56.8921 120.305 57.3401 120.54C57.7881 120.764 58.2895 120.876 58.8441 120.876C59.4201 120.876 59.9268 120.759 60.3641 120.524C60.8121 120.279 61.1908 119.959 61.5001 119.564C61.8095 119.169 62.0441 118.727 62.2041 118.236C62.3641 117.745 62.4441 117.244 62.4441 116.732C62.4441 116.188 62.3588 115.671 62.1881 115.18C62.0175 114.679 61.7721 114.241 61.4521 113.868C61.1428 113.484 60.7641 113.18 60.3161 112.956C59.8788 112.721 59.3881 112.604 58.8441 112.604C58.2681 112.604 57.7561 112.727 57.3081 112.972C56.8601 113.207 56.4815 113.516 56.1721 113.9C55.8628 114.284 55.6228 114.727 55.4521 115.228C55.2921 115.719 55.2121 116.22 55.2121 116.732ZM67.9314 114.412V122.412H66.1394V111.052H67.5474L74.0434 119.244V111.068H75.8514V122.412H74.3634L67.9314 114.412ZM86.741 112.636H82.965V122.412H81.157V112.636H77.365V111.052H86.741V112.636ZM96.0564 120.828V122.412H88.2644V111.052H95.9124V112.636H90.0564V115.868H95.1284V117.356H90.0564V120.828H96.0564ZM99.697 114.412V122.412H97.905V111.052H99.313L105.809 119.244V111.068H107.617V122.412H106.129L99.697 114.412ZM118.507 112.636H114.731V122.412H112.923V112.636H109.131V111.052H118.507V112.636Z" fill="#5C6A77"/>
<path d="M54.6737 0.717702C54.381 0.88584 54.0071 1.2374 53.8283 1.51253C53.5194 2.00166 53.5031 2.30737 53.5031 12.5026V22.973L50.8368 24.9754C48.1055 27.0389 47.504 27.6197 47.1788 28.5216C47.0488 28.9037 47 35.2318 47 51.9386C47 74.7747 47 74.8359 47.3414 75.6919C47.7966 76.823 48.9672 77.9235 50.1703 78.3515L51.0807 78.6725H80.8163H110.552L111.462 78.3515C112.665 77.9235 113.836 76.823 114.291 75.6919C114.633 74.8359 114.633 74.7747 114.633 51.9386C114.633 35.2318 114.584 28.9037 114.454 28.5216C114.129 27.6197 113.527 27.0389 110.796 24.9754L108.129 22.973V12.5026C108.129 2.30737 108.113 2.00166 107.804 1.51253C107.625 1.2374 107.251 0.88584 106.959 0.717702C106.422 0.411997 106.081 0.411997 80.8163 0.411997C55.5516 0.411997 55.2102 0.411997 54.6737 0.717702ZM105.528 16.2169C105.528 25.3728 105.577 29.8667 105.707 30.1877C105.902 30.7227 106.585 31.0436 107.203 30.9061C108.016 30.7074 108.113 30.4475 108.162 28.2464L108.211 26.2135L109.95 27.528C111.836 28.9496 112.031 29.1788 112.031 29.9431C112.031 30.3864 111.527 30.9214 106.536 35.6139L101.057 40.7803L91.9854 40.7651H82.9135L82.5233 41.1319C81.9868 41.6363 81.9868 42.3394 82.5233 42.8286L82.9135 43.2107H90.6848H98.456L97.1554 44.4335L95.8547 45.6563H89.5467C84.328 45.6563 83.1574 45.7022 82.7835 45.8856C82.0031 46.2525 81.873 47.1237 82.5233 47.7199L82.9135 48.102H88.0835H93.2535L90.9449 50.2725L88.6525 52.4277L87.4007 51.3425C83.4175 47.8421 78.215 47.8421 74.2318 51.3425L72.98 52.4277L70.6876 50.2725L68.379 48.102H73.549H78.719L79.1092 47.7199C79.7595 47.1237 79.6294 46.2525 78.8491 45.8856C78.4751 45.7022 77.3046 45.6563 72.0858 45.6563H65.7778L64.4772 44.4335L63.1765 43.2107H70.9478H78.719L79.1092 42.8286C79.6457 42.3394 79.6457 41.6363 79.1092 41.1319L78.719 40.7651H69.6471L60.5915 40.7803L58.348 38.671L56.1044 36.5616V19.6408V2.70478H80.8163H105.528V16.2169ZM53.5031 30.1724V34.116L51.5522 32.2665C49.8614 30.6768 49.6013 30.3558 49.6013 29.9278C49.6013 29.6527 49.6825 29.3011 49.7638 29.133C49.9101 28.8884 53.2593 26.2441 53.4381 26.2441C53.4706 26.2441 53.5031 28.0172 53.5031 30.1724ZM70.7689 54.5982C70.0373 55.4848 70.5576 56.6617 71.6794 56.6617C72.1671 56.6617 72.4923 56.4172 74.6708 54.4301C77.2883 52.0303 77.9874 51.6023 79.8408 51.2813C81.0276 51.0673 82.3445 51.266 83.7102 51.8469C84.523 52.1984 86.1651 53.6811 97.3667 64.1974C108.585 74.7442 110.048 76.1657 109.723 76.2574C109.511 76.3033 96.5051 76.3491 80.8163 76.3491C65.1275 76.3491 52.1212 76.3033 51.9099 76.2574C51.5847 76.1657 52.5927 75.1722 60.4127 67.82C68.9643 59.7799 69.2732 59.4742 69.2732 58.9239C69.2732 58.1597 68.818 57.7317 68.0214 57.7317C67.4361 57.7317 67.0784 58.0374 58.5105 66.0927L49.6013 74.469V54.2161V33.9631L60.3639 44.082L71.1103 54.1855L70.7689 54.5982ZM112.031 54.2467V74.469L101.269 64.3502L90.4897 54.2161L101.22 44.1278C107.121 38.5793 111.966 34.0396 111.983 34.0396C112.015 34.0396 112.031 43.1343 112.031 54.2467Z" fill="url(#paint0_linear_525_727)"/>
<path d="M59.9275 8.55552C59.2788 9.32966 59.522 10.4819 60.3978 10.8239C61.1276 11.112 99.5304 11.112 100.26 10.8239C101.152 10.4819 101.395 9.23964 100.714 8.53751L100.341 8.14144H80.3128H60.268L59.9275 8.55552Z" fill="url(#paint1_linear_525_727)"/>
<path d="M59.9279 15.2653C59.5601 15.6264 59.5601 15.7049 59.5601 21.1218C59.5601 27.0881 59.5768 27.1509 60.4965 27.3708C61.0316 27.4964 61.8176 27.2295 62.0015 26.8683C62.0851 26.7113 62.1855 25.361 62.2356 23.8537L62.3192 21.1061L64.1253 24.105C65.948 27.1195 66.2657 27.465 67.1018 27.465C67.2858 27.465 67.6202 27.2923 67.8376 27.0724L68.2557 26.6956V21.1375V15.5793L67.8711 15.2496C67.3861 14.8257 66.5834 14.81 66.065 15.2025C65.6804 15.5008 65.6637 15.595 65.5801 18.3584L65.4965 21.216L63.6905 18.2171C62.7039 16.5685 61.7507 15.1554 61.5667 15.0612C61.0316 14.7943 60.3126 14.8728 59.9279 15.2653Z" fill="url(#paint2_linear_525_727)"/>
<path d="M70.5566 15.2662C70.1885 15.6277 70.1885 15.7063 70.1885 21.161C70.1885 26.4585 70.2052 26.71 70.5231 27.0087C71.0084 27.4646 71.3431 27.496 74.9407 27.4489C78.1869 27.4017 78.2538 27.4017 78.5717 27.0244C79.0068 26.5214 78.99 25.7354 78.5048 25.311C78.1367 24.9809 77.9526 24.9652 75.4928 24.9652H72.8658V23.7076V22.45H74.857C75.9446 22.45 77.0657 22.3714 77.3502 22.2771C78.2873 21.9784 78.4379 20.5322 77.5677 20.1078C77.3837 20.0135 76.2793 19.9349 75.0578 19.9349H72.8658V18.6931V17.4355L75.5598 17.3883C78.1534 17.3412 78.2538 17.3255 78.5717 16.9639C79.0068 16.4609 78.99 15.6749 78.5048 15.2505C78.1367 14.9204 77.9861 14.9046 74.5223 14.9046C70.9749 14.9046 70.908 14.9046 70.5566 15.2662Z" fill="url(#paint3_linear_525_727)"/>
<path d="M81.1642 15.3129C80.9655 15.5484 80.8164 15.8781 80.8164 16.0665C80.8164 16.2392 81.3464 18.7198 81.9758 21.5773C83.0193 26.2403 83.1849 26.7898 83.5659 27.1039C83.7978 27.308 84.1621 27.465 84.3775 27.465C85.2387 27.465 85.5866 26.8998 86.0503 24.7959C86.2822 23.7126 86.5141 22.7234 86.5638 22.5978C86.6135 22.4722 86.8951 23.3672 87.1766 24.5761C87.4582 25.8007 87.7895 26.9155 87.9054 27.0411C88.452 27.6534 89.7605 27.4493 90.0752 26.7113C90.3567 26.0519 92.4106 16.6788 92.4106 16.0665C92.4106 15.3914 91.9302 14.9046 91.2346 14.9046C90.158 14.9046 89.9758 15.1715 89.4292 17.7307C89.2304 18.6413 89.0317 19.5206 88.982 19.6933C88.9157 19.8817 88.6839 19.1595 88.4023 17.8877C87.8723 15.4699 87.6073 14.9988 86.7294 14.936C85.7025 14.8575 85.4375 15.2658 84.8744 17.8563L84.394 20.1172L83.864 17.7935C83.2677 15.2343 83.069 14.9046 82.0586 14.9046C81.6611 14.9046 81.4127 15.0145 81.1642 15.3129Z" fill="url(#paint4_linear_525_727)"/>
<path d="M95.9851 15.1306C94.4467 15.653 93.3765 16.9987 93.3765 18.4393C93.3765 19.9908 94.4969 21.3364 96.353 22.033C97.9584 22.6346 99.1791 23.252 99.2962 23.5211C99.6306 24.376 99.0119 24.9301 97.7075 24.9301C96.7711 24.9301 96.1356 24.5027 95.9684 23.7428C95.6173 22.2705 93.3765 22.6188 93.3765 24.1227C93.3765 26.0225 95.2494 27.4631 97.741 27.4631C98.8279 27.4789 99.1457 27.3998 99.9985 27.004C101.386 26.3233 101.955 25.5159 102.022 24.1069C102.122 22.1913 101.186 21.1148 98.5437 20.1174C96.8213 19.4842 96.052 18.9617 96.052 18.471C96.052 17.8377 96.6373 17.5053 97.7243 17.5053C98.8112 17.5053 99.3129 17.7902 99.4801 18.5343C99.6808 19.3892 100.584 19.8008 101.37 19.4209C101.938 19.1359 102.072 18.8826 102.072 18.091C102.072 16.9195 100.684 15.4314 99.2627 15.0514C98.3932 14.8298 96.7711 14.8615 95.9851 15.1306Z" fill="url(#paint5_linear_525_727)"/>
<path d="M59.994 30.744C59.4263 31.2512 59.4101 32.1932 59.9778 32.8092L60.3671 33.2621H80.3329H100.299L100.688 32.8092C101.256 32.1932 101.239 31.2512 100.672 30.744C100.234 30.3635 100.218 30.3635 80.3329 30.3635C60.4481 30.3635 60.4319 30.3635 59.994 30.744Z" fill="url(#paint6_linear_525_727)"/>
<path d="M59.9907 35.5749C59.4274 36.0822 59.4113 37.0242 59.9746 37.6401L60.3609 38.093H69.2299H78.0989L78.4853 37.6401C79.0164 37.0604 79.0164 36.2271 78.4853 35.6474L78.0989 35.1945H69.2621C60.5541 35.1945 60.4092 35.1945 59.9907 35.5749Z" fill="url(#paint7_linear_525_727)"/>
<path d="M82.185 35.6474C81.9276 35.9191 81.7827 36.2995 81.7827 36.6437C81.7827 36.988 81.9276 37.3684 82.185 37.6401L82.5713 38.093H91.4384H100.306L100.692 37.6401C101.255 37.0242 101.239 36.0822 100.676 35.5749C100.257 35.1945 100.112 35.1945 91.4062 35.1945H82.5713L82.185 35.6474Z" fill="url(#paint8_linear_525_727)"/>
<defs>
<linearGradient id="paint0_linear_525_727" x1="80.8163" y1="78.6725" x2="80.8163" y2="0.411995" gradientUnits="userSpaceOnUse">
<stop stop-color="#FF7600"/>
<stop offset="1" stop-color="#FBB171"/>
</linearGradient>
<linearGradient id="paint1_linear_525_727" x1="80.3329" y1="11.04" x2="80.3329" y2="8.14144" gradientUnits="userSpaceOnUse">
<stop stop-color="#FF7600"/>
<stop offset="1" stop-color="#FBB171"/>
</linearGradient>
<linearGradient id="paint2_linear_525_727" x1="63.9079" y1="27.465" x2="63.9079" y2="14.9046" gradientUnits="userSpaceOnUse">
<stop stop-color="#FF7600"/>
<stop offset="1" stop-color="#FBB171"/>
</linearGradient>
<linearGradient id="paint3_linear_525_727" x1="74.5363" y1="27.465" x2="74.5363" y2="14.9046" gradientUnits="userSpaceOnUse">
<stop stop-color="#FF7600"/>
<stop offset="1" stop-color="#FBB171"/>
</linearGradient>
<linearGradient id="paint4_linear_525_727" x1="86.6135" y1="27.465" x2="86.6135" y2="14.9046" gradientUnits="userSpaceOnUse">
<stop stop-color="#FF7600"/>
<stop offset="1" stop-color="#FBB171"/>
</linearGradient>
<linearGradient id="paint5_linear_525_727" x1="97.7243" y1="27.465" x2="97.7243" y2="14.9046" gradientUnits="userSpaceOnUse">
<stop stop-color="#FF7600"/>
<stop offset="1" stop-color="#FBB171"/>
</linearGradient>
<linearGradient id="paint6_linear_525_727" x1="80.3329" y1="33.2621" x2="80.3329" y2="30.3635" gradientUnits="userSpaceOnUse">
<stop stop-color="#FF7600"/>
<stop offset="1" stop-color="#FBB171"/>
</linearGradient>
<linearGradient id="paint7_linear_525_727" x1="69.2218" y1="38.093" x2="69.2218" y2="35.1945" gradientUnits="userSpaceOnUse">
<stop stop-color="#FF7600"/>
<stop offset="1" stop-color="#FBB171"/>
</linearGradient>
<linearGradient id="paint8_linear_525_727" x1="91.4445" y1="38.093" x2="91.4445" y2="35.1945" gradientUnits="userSpaceOnUse">
<stop stop-color="#FF7600"/>
<stop offset="1" stop-color="#FBB171"/>
</linearGradient>
</defs>
</svg>
