<svg width="68" height="79" viewBox="0 0 68 79" fill="none" xmlns="http://www.w3.org/2000/svg">
<path d="M7.67369 0.717705C7.38105 0.885841 7.00712 1.2374 6.82828 1.51254C6.51939 2.00166 6.50313 2.30737 6.50313 12.5026V22.973L3.83685 24.9754C1.10553 27.0389 0.503992 27.6197 0.178836 28.5216C0.0487735 28.9037 0 35.2318 0 51.9386C0 74.7747 0 74.8359 0.341414 75.6919C0.796633 76.823 1.9672 77.9235 3.17027 78.3515L4.08071 78.6725H33.8163H63.5518L64.4622 78.3515C65.6653 77.9235 66.8359 76.823 67.2911 75.6919C67.6325 74.8359 67.6325 74.7747 67.6325 51.9386C67.6325 35.2318 67.5838 28.9037 67.4537 28.5216C67.1285 27.6197 66.527 27.0389 63.7957 24.9754L61.1294 22.973V12.5026C61.1294 2.30737 61.1131 2.00166 60.8042 1.51254C60.6254 1.2374 60.2515 0.885841 59.9588 0.717705C59.4223 0.411995 59.0809 0.411995 33.8163 0.411995C8.55161 0.411995 8.2102 0.411995 7.67369 0.717705ZM58.5281 16.2169C58.5281 25.3728 58.5769 29.8667 58.707 30.1877C58.9021 30.7227 59.5849 31.0436 60.2027 30.9061C61.0156 30.7074 61.1131 30.4475 61.1619 28.2464L61.2107 26.2135L62.9503 27.528C64.8362 28.9496 65.0313 29.1788 65.0313 29.9431C65.0313 30.3864 64.5273 30.9214 59.5361 35.6139L54.0572 40.7803L44.9854 40.7651H35.9135L35.5233 41.1319C34.9868 41.6363 34.9868 42.3394 35.5233 42.8286L35.9135 43.2107H43.6848H51.456L50.1554 44.4335L48.8547 45.6563H42.5467C37.328 45.6563 36.1574 45.7022 35.7835 45.8856C35.0031 46.2525 34.873 47.1237 35.5233 47.7199L35.9135 48.102H41.0835H46.2535L43.9449 50.2725L41.6525 52.4277L40.4007 51.3425C36.4175 47.8421 31.215 47.8421 27.2318 51.3425L25.98 52.4277L23.6876 50.2725L21.379 48.102H26.549H31.719L32.1092 47.7199C32.7595 47.1237 32.6294 46.2525 31.8491 45.8856C31.4751 45.7022 30.3046 45.6563 25.0858 45.6563H18.7778L17.4772 44.4335L16.1765 43.2107H23.9478H31.719L32.1092 42.8286C32.6457 42.3394 32.6457 41.6363 32.1092 41.1319L31.719 40.7651H22.6471L13.5915 40.7803L11.348 38.671L9.10438 36.5616V19.6408V2.70479H33.8163H58.5281V16.2169ZM6.50313 30.1724V34.116L4.55219 32.2665C2.86138 30.6768 2.60125 30.3558 2.60125 29.9278C2.60125 29.6527 2.68254 29.3011 2.76383 29.133C2.91015 28.8884 6.25926 26.2441 6.4381 26.2441C6.47061 26.2441 6.50313 28.0172 6.50313 30.1724ZM23.7689 54.5982C23.0373 55.4848 23.5576 56.6617 24.6794 56.6617C25.1671 56.6617 25.4923 56.4172 27.6708 54.4301C30.2883 52.0303 30.9874 51.6023 32.8408 51.2813C34.0276 51.0673 35.3445 51.266 36.7102 51.8469C37.523 52.1984 39.1651 53.6811 50.3667 64.1974C61.5846 74.7442 63.0478 76.1657 62.7227 76.2574C62.5113 76.3033 49.5051 76.3491 33.8163 76.3491C18.1275 76.3491 5.12121 76.3033 4.90986 76.2574C4.5847 76.1657 5.59269 75.1722 13.4127 67.82C21.9643 59.7799 22.2732 59.4742 22.2732 58.9239C22.2732 58.1597 21.818 57.7317 21.0214 57.7317C20.4361 57.7317 20.0784 58.0374 11.5105 66.0927L2.60125 74.469V54.2161V33.9631L13.3639 44.082L24.1103 54.1855L23.7689 54.5982ZM65.0313 54.2467V74.469L54.2686 64.3502L43.4897 54.2161L54.2198 44.1278C60.1214 38.5793 64.9662 34.0396 64.9825 34.0396C65.015 34.0396 65.0313 43.1343 65.0313 54.2467Z" fill="url(#paint0_linear_525_731)"/>
<path d="M12.9275 8.55552C12.2788 9.32966 12.522 10.4819 13.3978 10.8239C14.1276 11.112 52.5304 11.112 53.2602 10.8239C54.1521 10.4819 54.3954 9.23964 53.7143 8.53751L53.3413 8.14144H33.3128H13.268L12.9275 8.55552Z" fill="url(#paint1_linear_525_731)"/>
<path d="M12.9279 15.2653C12.5601 15.6264 12.5601 15.7049 12.5601 21.1218C12.5601 27.0881 12.5768 27.1509 13.4965 27.3708C14.0316 27.4964 14.8176 27.2295 15.0015 26.8683C15.0851 26.7113 15.1855 25.361 15.2356 23.8537L15.3192 21.1061L17.1253 24.105C18.948 27.1195 19.2657 27.465 20.1018 27.465C20.2858 27.465 20.6202 27.2923 20.8376 27.0724L21.2557 26.6956V21.1375V15.5793L20.8711 15.2496C20.3861 14.8257 19.5834 14.81 19.065 15.2025C18.6804 15.5008 18.6637 15.595 18.5801 18.3584L18.4965 21.216L16.6905 18.2171C15.7039 16.5685 14.7507 15.1554 14.5667 15.0612C14.0316 14.7943 13.3126 14.8728 12.9279 15.2653Z" fill="url(#paint2_linear_525_731)"/>
<path d="M23.5566 15.2662C23.1885 15.6277 23.1885 15.7063 23.1885 21.161C23.1885 26.4585 23.2052 26.71 23.5231 27.0087C24.0084 27.4646 24.3431 27.496 27.9407 27.4489C31.1869 27.4017 31.2538 27.4017 31.5717 27.0244C32.0068 26.5214 31.99 25.7354 31.5048 25.311C31.1367 24.9809 30.9526 24.9652 28.4928 24.9652H25.8658V23.7076V22.45H27.857C28.9446 22.45 30.0657 22.3714 30.3502 22.2771C31.2873 21.9784 31.4379 20.5322 30.5677 20.1078C30.3837 20.0135 29.2793 19.9349 28.0578 19.9349H25.8658V18.6931V17.4355L28.5598 17.3883C31.1534 17.3412 31.2538 17.3255 31.5717 16.9639C32.0068 16.4609 31.99 15.6749 31.5048 15.2505C31.1367 14.9204 30.9861 14.9046 27.5223 14.9046C23.9749 14.9046 23.908 14.9046 23.5566 15.2662Z" fill="url(#paint3_linear_525_731)"/>
<path d="M34.1642 15.3129C33.9655 15.5484 33.8164 15.8781 33.8164 16.0665C33.8164 16.2392 34.3464 18.7198 34.9758 21.5773C36.0193 26.2403 36.1849 26.7898 36.5659 27.1039C36.7978 27.308 37.1621 27.465 37.3775 27.465C38.2387 27.465 38.5866 26.8998 39.0503 24.7959C39.2822 23.7126 39.5141 22.7234 39.5638 22.5978C39.6135 22.4722 39.8951 23.3672 40.1766 24.5761C40.4582 25.8007 40.7895 26.9155 40.9054 27.0411C41.452 27.6534 42.7605 27.4493 43.0752 26.7113C43.3567 26.0519 45.4106 16.6788 45.4106 16.0665C45.4106 15.3914 44.9302 14.9046 44.2346 14.9046C43.158 14.9046 42.9758 15.1715 42.4292 17.7307C42.2304 18.6413 42.0317 19.5206 41.982 19.6933C41.9157 19.8817 41.6839 19.1595 41.4023 17.8877C40.8723 15.4699 40.6073 14.9988 39.7294 14.936C38.7025 14.8575 38.4375 15.2658 37.8744 17.8563L37.394 20.1172L36.864 17.7935C36.2677 15.2344 36.069 14.9046 35.0586 14.9046C34.6611 14.9046 34.4127 15.0145 34.1642 15.3129Z" fill="url(#paint4_linear_525_731)"/>
<path d="M48.9851 15.1306C47.4467 15.653 46.3765 16.9987 46.3765 18.4393C46.3765 19.9908 47.4969 21.3364 49.353 22.033C50.9584 22.6346 52.1791 23.252 52.2962 23.5211C52.6306 24.376 52.0119 24.9301 50.7075 24.9301C49.7711 24.9301 49.1356 24.5027 48.9684 23.7428C48.6173 22.2705 46.3765 22.6188 46.3765 24.1227C46.3765 26.0225 48.2494 27.4631 50.741 27.4631C51.8279 27.4789 52.1457 27.3998 52.9985 27.004C54.3865 26.3233 54.955 25.5159 55.0219 24.1069C55.1222 22.1913 54.1858 21.1148 51.5437 20.1174C49.8213 19.4842 49.052 18.9617 49.052 18.471C49.052 17.8377 49.6373 17.5053 50.7243 17.5053C51.8112 17.5053 52.3129 17.7902 52.4801 18.5343C52.6808 19.3892 53.5838 19.8008 54.3697 19.4209C54.9383 19.1359 55.0721 18.8826 55.0721 18.091C55.0721 16.9195 53.6841 15.4314 52.2627 15.0514C51.3932 14.8298 49.7711 14.8615 48.9851 15.1306Z" fill="url(#paint5_linear_525_731)"/>
<path d="M12.994 30.744C12.4263 31.2512 12.4101 32.1932 12.9778 32.8092L13.3671 33.2621H33.3329H53.2988L53.688 32.8092C54.2557 32.1932 54.2395 31.2512 53.6718 30.744C53.2339 30.3635 53.2177 30.3635 33.3329 30.3635C13.4481 30.3635 13.4319 30.3635 12.994 30.744Z" fill="url(#paint6_linear_525_731)"/>
<path d="M12.9907 35.5749C12.4274 36.0822 12.4113 37.0242 12.9746 37.6401L13.3609 38.093H22.2299H31.0989L31.4853 37.6401C32.0164 37.0604 32.0164 36.2271 31.4853 35.6474L31.0989 35.1945H22.2621C13.5541 35.1945 13.4092 35.1945 12.9907 35.5749Z" fill="url(#paint7_linear_525_731)"/>
<path d="M35.185 35.6474C34.9276 35.9191 34.7827 36.2995 34.7827 36.6437C34.7827 36.988 34.9276 37.3684 35.185 37.6401L35.5713 38.093H44.4384H53.3056L53.6918 37.6401C54.2551 37.0242 54.239 36.0822 53.6757 35.5749C53.2573 35.1945 53.1125 35.1945 44.4062 35.1945H35.5713L35.185 35.6474Z" fill="url(#paint8_linear_525_731)"/>
<defs>
<linearGradient id="paint0_linear_525_731" x1="33.8163" y1="78.6725" x2="33.8163" y2="0.411995" gradientUnits="userSpaceOnUse">
<stop stop-color="#FF7600"/>
<stop offset="1" stop-color="#FBB171"/>
</linearGradient>
<linearGradient id="paint1_linear_525_731" x1="33.3329" y1="11.04" x2="33.3329" y2="8.14144" gradientUnits="userSpaceOnUse">
<stop stop-color="#FF7600"/>
<stop offset="1" stop-color="#FBB171"/>
</linearGradient>
<linearGradient id="paint2_linear_525_731" x1="16.9079" y1="27.465" x2="16.9079" y2="14.9046" gradientUnits="userSpaceOnUse">
<stop stop-color="#FF7600"/>
<stop offset="1" stop-color="#FBB171"/>
</linearGradient>
<linearGradient id="paint3_linear_525_731" x1="27.5363" y1="27.465" x2="27.5363" y2="14.9046" gradientUnits="userSpaceOnUse">
<stop stop-color="#FF7600"/>
<stop offset="1" stop-color="#FBB171"/>
</linearGradient>
<linearGradient id="paint4_linear_525_731" x1="39.6135" y1="27.465" x2="39.6135" y2="14.9046" gradientUnits="userSpaceOnUse">
<stop stop-color="#FF7600"/>
<stop offset="1" stop-color="#FBB171"/>
</linearGradient>
<linearGradient id="paint5_linear_525_731" x1="50.7243" y1="27.465" x2="50.7243" y2="14.9046" gradientUnits="userSpaceOnUse">
<stop stop-color="#FF7600"/>
<stop offset="1" stop-color="#FBB171"/>
</linearGradient>
<linearGradient id="paint6_linear_525_731" x1="33.3329" y1="33.2621" x2="33.3329" y2="30.3635" gradientUnits="userSpaceOnUse">
<stop stop-color="#FF7600"/>
<stop offset="1" stop-color="#FBB171"/>
</linearGradient>
<linearGradient id="paint7_linear_525_731" x1="22.2218" y1="38.093" x2="22.2218" y2="35.1945" gradientUnits="userSpaceOnUse">
<stop stop-color="#FF7600"/>
<stop offset="1" stop-color="#FBB171"/>
</linearGradient>
<linearGradient id="paint8_linear_525_731" x1="44.4445" y1="38.093" x2="44.4445" y2="35.1945" gradientUnits="userSpaceOnUse">
<stop stop-color="#FF7600"/>
<stop offset="1" stop-color="#FBB171"/>
</linearGradient>
</defs>
</svg>
