<svg width="160" height="149" viewBox="0 0 160 149" fill="none" xmlns="http://www.w3.org/2000/svg">
<path d="M34.072 120.828V122.412H26.28V111.052H33.928V112.636H28.072V115.868H33.144V117.356H28.072V120.828H34.072ZM34.9663 116.652C34.9663 115.969 35.0889 115.292 35.3343 114.62C35.5796 113.937 35.9369 113.329 36.4062 112.796C36.8863 112.252 37.4676 111.815 38.1503 111.484C38.8329 111.153 39.6063 110.988 40.4703 110.988C41.5049 110.988 42.3903 111.217 43.1263 111.676C43.8623 112.135 44.4169 112.732 44.7903 113.468L43.3823 114.412C43.2223 114.071 43.0303 113.783 42.8063 113.548C42.5823 113.313 42.3369 113.127 42.0703 112.988C41.8036 112.849 41.5263 112.753 41.2383 112.7C40.9503 112.636 40.6729 112.604 40.4063 112.604C39.8089 112.604 39.2863 112.727 38.8383 112.972C38.3903 113.207 38.0116 113.521 37.7023 113.916C37.4036 114.311 37.1743 114.753 37.0143 115.244C36.8649 115.735 36.7903 116.225 36.7903 116.716C36.7903 117.271 36.8809 117.799 37.0623 118.3C37.2436 118.801 37.4943 119.244 37.8143 119.628C38.1449 120.012 38.5343 120.321 38.9823 120.556C39.4303 120.78 39.9209 120.892 40.4543 120.892C40.7316 120.892 41.0143 120.86 41.3023 120.796C41.6009 120.721 41.8836 120.609 42.1503 120.46C42.4276 120.3 42.6783 120.103 42.9023 119.868C43.1369 119.633 43.3289 119.351 43.4783 119.02L44.9663 119.868C44.7849 120.295 44.5289 120.673 44.1983 121.004C43.8676 121.324 43.4943 121.596 43.0783 121.82C42.6623 122.044 42.2196 122.215 41.7503 122.332C41.2916 122.449 40.8383 122.508 40.3903 122.508C39.5903 122.508 38.8596 122.337 38.1983 121.996C37.5369 121.655 36.9663 121.212 36.4863 120.668C36.0063 120.113 35.6329 119.489 35.3663 118.796C35.0996 118.092 34.9663 117.377 34.9663 116.652ZM51.2344 122.492C50.4237 122.492 49.6824 122.332 49.0104 122.012C48.349 121.681 47.7784 121.249 47.2984 120.716C46.8184 120.172 46.445 119.553 46.1784 118.86C45.9224 118.167 45.7944 117.457 45.7944 116.732C45.7944 115.975 45.933 115.249 46.2104 114.556C46.4877 113.863 46.8664 113.249 47.3464 112.716C47.837 112.183 48.413 111.761 49.0744 111.452C49.7464 111.132 50.477 110.972 51.2664 110.972C52.077 110.972 52.813 111.143 53.4744 111.484C54.1464 111.815 54.717 112.252 55.1864 112.796C55.6664 113.34 56.0344 113.959 56.2904 114.652C56.557 115.335 56.6904 116.033 56.6904 116.748C56.6904 117.505 56.5517 118.231 56.2744 118.924C56.0077 119.617 55.629 120.231 55.1384 120.764C54.6477 121.287 54.0664 121.708 53.3944 122.028C52.733 122.337 52.013 122.492 51.2344 122.492ZM47.6184 116.732C47.6184 117.265 47.7037 117.783 47.8744 118.284C48.045 118.785 48.285 119.228 48.5944 119.612C48.9144 119.996 49.2984 120.305 49.7464 120.54C50.1944 120.764 50.6957 120.876 51.2504 120.876C51.8264 120.876 52.333 120.759 52.7704 120.524C53.2184 120.279 53.597 119.959 53.9064 119.564C54.2157 119.169 54.4504 118.727 54.6104 118.236C54.7704 117.745 54.8504 117.244 54.8504 116.732C54.8504 116.188 54.765 115.671 54.5944 115.18C54.4237 114.679 54.1784 114.241 53.8584 113.868C53.549 113.484 53.1704 113.18 52.7224 112.956C52.285 112.721 51.7944 112.604 51.2504 112.604C50.6744 112.604 50.1624 112.727 49.7144 112.972C49.2664 113.207 48.8877 113.516 48.5784 113.9C48.269 114.284 48.029 114.727 47.8584 115.228C47.6984 115.719 47.6184 116.22 47.6184 116.732ZM68.0976 122.412V114.236L64.7216 120.428H63.7296L60.3376 114.236V122.412H58.5456V111.052H60.4656L64.2256 117.996L67.9856 111.052H69.9056V122.412H68.0976ZM82.0195 122.412V114.236L78.6435 120.428H77.6515L74.2595 114.236V122.412H72.4675V111.052H74.3875L78.1475 117.996L81.9075 111.052H83.8275V122.412H82.0195ZM94.1814 120.828V122.412H86.3894V111.052H94.0374V112.636H88.1814V115.868H93.2534V117.356H88.1814V120.828H94.1814ZM96.03 122.412V111.052H100.974C101.486 111.052 101.955 111.159 102.382 111.372C102.819 111.585 103.193 111.868 103.502 112.22C103.811 112.561 104.051 112.956 104.222 113.404C104.403 113.841 104.494 114.289 104.494 114.748C104.494 115.132 104.441 115.5 104.334 115.852C104.227 116.204 104.078 116.529 103.886 116.828C103.694 117.127 103.459 117.388 103.182 117.612C102.905 117.825 102.601 117.985 102.27 118.092L104.942 122.412H102.91L100.446 118.46H97.822V122.412H96.03ZM97.822 116.876H100.958C101.214 116.876 101.443 116.823 101.646 116.716C101.859 116.599 102.041 116.444 102.19 116.252C102.339 116.049 102.457 115.82 102.542 115.564C102.627 115.308 102.67 115.036 102.67 114.748C102.67 114.46 102.617 114.188 102.51 113.932C102.414 113.676 102.281 113.452 102.11 113.26C101.95 113.068 101.758 112.919 101.534 112.812C101.321 112.695 101.097 112.636 100.862 112.636H97.822V116.876ZM114.4 120.828V122.412H106.608V111.052H114.256V112.636H108.4V115.868H113.472V117.356H108.4V120.828H114.4ZM115.294 116.652C115.294 115.969 115.417 115.292 115.662 114.62C115.908 113.937 116.265 113.329 116.734 112.796C117.214 112.252 117.796 111.815 118.478 111.484C119.161 111.153 119.934 110.988 120.798 110.988C121.833 110.988 122.718 111.217 123.454 111.676C124.19 112.135 124.745 112.732 125.118 113.468L123.71 114.412C123.55 114.071 123.358 113.783 123.134 113.548C122.91 113.313 122.665 113.127 122.398 112.988C122.132 112.849 121.854 112.753 121.566 112.7C121.278 112.636 121.001 112.604 120.734 112.604C120.137 112.604 119.614 112.727 119.166 112.972C118.718 113.207 118.34 113.521 118.03 113.916C117.732 114.311 117.502 114.753 117.342 115.244C117.193 115.735 117.118 116.225 117.118 116.716C117.118 117.271 117.209 117.799 117.39 118.3C117.572 118.801 117.822 119.244 118.142 119.628C118.473 120.012 118.862 120.321 119.31 120.556C119.758 120.78 120.249 120.892 120.782 120.892C121.06 120.892 121.342 120.86 121.63 120.796C121.929 120.721 122.212 120.609 122.478 120.46C122.756 120.3 123.006 120.103 123.23 119.868C123.465 119.633 123.657 119.351 123.806 119.02L125.294 119.868C125.113 120.295 124.857 120.673 124.526 121.004C124.196 121.324 123.822 121.596 123.406 121.82C122.99 122.044 122.548 122.215 122.078 122.332C121.62 122.449 121.166 122.508 120.718 122.508C119.918 122.508 119.188 122.337 118.526 121.996C117.865 121.655 117.294 121.212 116.814 120.668C116.334 120.113 115.961 119.489 115.694 118.796C115.428 118.092 115.294 117.377 115.294 116.652ZM134.744 120.828V122.412H126.952V111.052H134.6V112.636H128.744V115.868H133.816V117.356H128.744V120.828H134.744Z" fill="#5C6A77"/>
<path d="M78.1848 0.48307C72.8689 0.979378 68.0795 3.16997 64.2073 6.88371C59.7406 11.1793 57.261 16.6216 56.9383 22.8169C56.4627 32.1098 61.4899 40.855 69.7099 45.048C73.0727 46.7423 76.4524 47.5466 80.2907 47.5466C85.182 47.5466 89.343 46.2973 93.2492 43.6788C96.5271 41.4883 99.3124 38.3735 101.079 34.8994C102.217 32.6917 102.743 31.2198 103.27 28.8752C103.592 27.3521 103.66 26.6333 103.66 23.9293C103.643 21.1055 103.592 20.5578 103.202 18.8464C102.471 15.7659 101.079 12.5656 99.4652 10.3236L98.9727 9.63907L109.452 9.58772C120.899 9.5535 120.355 9.50215 121.017 10.529C121.306 10.9568 121.323 12.2404 121.374 31.4081L121.408 51.8251H116.177C111.116 51.8251 110.912 51.8422 110.471 52.1845C109.876 52.6466 109.859 53.6563 110.42 54.1869C110.81 54.5634 110.912 54.5634 116.126 54.5634H121.425L121.374 58.106C121.323 62.1106 121.187 62.607 120.134 63.0519C119.268 63.4113 41.687 63.4113 40.8208 63.0519C39.7678 62.607 39.632 62.1106 39.581 58.106L39.5301 54.5634H72.4953H105.46L105.868 54.1355C106.378 53.6392 106.412 52.8691 105.97 52.3214L105.647 51.9107L72.5972 51.8594L39.5471 51.8251V31.8359C39.5471 20.2669 39.615 11.573 39.7169 11.1793C39.8018 10.7686 40.0735 10.3065 40.3962 10.0156L40.9057 9.5535H48.8711C53.9831 9.5535 57.0062 9.48504 57.3289 9.38235C58.212 9.05719 58.4838 8.03035 57.8724 7.26022L57.5327 6.81525H49.0069C40.8038 6.81525 40.4472 6.83237 39.7169 7.17465C38.6979 7.63673 37.8996 8.44109 37.4071 9.46793L36.9995 10.3236V36.4396V62.5385L37.4411 63.4284C37.9166 64.3868 38.5111 64.9687 39.615 65.5677L40.3113 65.9442L54.8833 65.9955L69.4382 66.0298V70.9928V75.9559H67.2473C65.0734 75.9559 65.0395 75.9559 64.6998 76.4009C64.2242 76.9998 64.2582 77.5475 64.7507 78.1294L65.1583 78.6086L79.9171 78.6599C89.7676 78.6941 94.8627 78.6599 95.2703 78.5401C96.2384 78.2492 96.561 77.2223 95.9157 76.4009C95.576 75.9559 95.542 75.9559 93.3681 75.9559H91.1772V70.9928V66.0298L105.919 65.9955L120.644 65.9442L121.34 65.5677C122.444 64.9687 123.038 64.3868 123.514 63.4284L123.956 62.5385V36.4396C123.956 10.5461 123.939 10.3236 123.599 9.5535C123.14 8.52666 122.342 7.7223 121.323 7.22599L120.474 6.81525H108.45H96.4082L95.3722 5.87399C93.9456 4.59043 93.1134 4.1797 92.3831 4.43641C91.7717 4.65889 91.5169 5.0354 91.5169 5.7713C91.5169 6.19915 91.7037 6.43875 92.5869 7.17465C96.3742 10.3065 98.718 13.5924 99.9917 17.5457C100.773 19.9759 100.943 21.2081 100.926 24.186C100.926 27.1125 100.62 28.8581 99.72 31.2541C97.1725 38.0997 91.0923 43.1997 83.8913 44.5517C81.8363 44.9282 78.4735 44.8939 76.3845 44.4661C68.0965 42.7547 61.7277 36.3883 60.0123 28.0709C58.0422 18.4699 63.3581 8.52666 72.5292 4.69312C76.6562 2.98172 81.1909 2.67367 85.5387 3.8203C87.4408 4.33372 87.7975 4.35084 88.307 3.92299C88.7995 3.52937 88.8335 2.53675 88.3749 2.02333C87.4578 0.99649 81.8532 0.157906 78.1848 0.48307ZM88.4599 70.9928V75.9559H80.3077H72.1556V70.9928V66.0298H80.3077H88.4599V70.9928Z" fill="url(#paint0_linear_525_741)"/>
<path d="M66.318 10.4905C65.5005 10.9905 65.3336 11.8353 65.9176 12.6112C66.2179 13.0077 66.368 13.0594 67.3357 13.0594C68.2867 13.0594 68.4202 13.0939 68.5703 13.4387C68.6538 13.6629 69.5547 18.4042 70.5724 23.9903C71.8571 31.0764 72.4911 34.2488 72.6913 34.4729C72.8581 34.6798 73.1918 34.7833 73.6256 34.7833C74.1762 34.7833 74.2596 34.835 74.1595 35.0764C73.7257 36.1798 73.7591 37.0074 74.2596 37.8522C74.5265 38.3005 75.6777 38.9211 76.2116 38.9211C76.8456 38.9211 77.6465 38.4729 78.147 37.8867C78.5474 37.3694 78.5975 37.197 78.5474 36.3522C78.514 35.8177 78.4139 35.2488 78.3472 35.0764C78.2137 34.8005 78.3806 34.7833 80.5495 34.7833H82.902L82.635 35.4212C81.4838 38.3005 85.6215 40.3004 87.0062 37.5419C87.3232 36.9039 87.3232 35.8695 87.0229 35.2488L86.7727 34.7833H87.5902C88.2742 34.7833 88.4577 34.7143 88.7414 34.335C89.2085 33.7316 89.1752 33.1798 88.6913 32.5936L88.2909 32.1109L81.5339 32.0592L74.7601 32.0074L74.5766 31.0247C74.4765 30.4902 74.3764 29.904 74.343 29.7316C74.2763 29.4558 74.7101 29.4385 81.4504 29.4385C85.8717 29.4385 88.7247 29.3696 88.9249 29.2661C89.3587 29.0247 89.4421 28.6799 90.6767 21.8869C91.6444 16.5766 91.7612 15.7318 91.5944 15.2835C91.4776 15.0077 91.2273 14.6801 91.0271 14.5594C90.7768 14.4043 88.1574 14.3353 81.1001 14.2663L71.5234 14.1801L71.2898 13.1801C70.8727 11.2491 69.9718 10.4905 67.9363 10.3698C67.1355 10.3181 66.5349 10.3698 66.318 10.4905ZM75.9781 17.9214C76.0281 18.4214 76.0948 19.1973 76.1282 19.6456L76.2116 20.4731H74.4098H72.6246L72.3576 18.8697C72.1908 17.9904 72.074 17.2146 72.074 17.1456C72.074 17.0766 72.9249 17.0249 73.976 17.0249H75.8946L75.9781 17.9214ZM82.2513 17.8352C82.2513 18.3007 82.2012 19.0766 82.1512 19.5593L82.0344 20.4731H80.4828H78.9311L78.8477 19.9042C78.7977 19.6111 78.7309 18.8352 78.6809 18.1801L78.5975 17.0249H80.416H82.2513V17.8352ZM88.7581 17.2318C88.7581 17.3352 88.6246 18.1111 88.4744 18.9559L88.1908 20.4731H86.489H84.7706L84.854 18.9559C84.904 18.1283 84.9708 17.3525 85.0208 17.2318C85.1042 16.9387 88.7581 16.9387 88.7581 17.2318ZM76.4118 23.6283C76.4118 23.8524 76.4619 24.6282 76.512 25.3524L76.6287 26.6799H75.2106H73.7924L73.5088 25.2489C73.0917 23.0765 72.9916 23.2317 74.8269 23.2317C76.3785 23.2317 76.4118 23.2317 76.4118 23.6283ZM81.8175 24.5593C81.6673 26.8006 81.7507 26.6799 80.416 26.6799H79.2481V26.111C79.2481 25.8179 79.1981 25.042 79.1314 24.3869L79.0312 23.2317H80.4661H81.9176L81.8175 24.5593ZM87.3733 24.9558L87.0396 26.6799H85.7382H84.4202V25.7489C84.4202 25.2489 84.4703 24.4731 84.5203 24.0248L84.6371 23.2317H86.172H87.707L87.3733 24.9558Z" fill="url(#paint1_linear_525_741)"/>
<path d="M111.261 14.4871C110.883 14.8648 110.85 14.9962 110.85 16.6219V18.3462H109.143C107.681 18.3462 107.385 18.3955 107.008 18.6911C106.433 19.1345 106.417 20.1034 106.958 20.6125C107.303 20.9409 107.517 20.9737 109.093 20.9737H110.85V22.7473C110.85 24.3895 110.883 24.5537 111.228 24.8822C111.787 25.4077 112.69 25.3748 113.133 24.8165C113.429 24.4388 113.478 24.1432 113.478 22.6816V20.9737H115.252C116.894 20.9737 117.058 20.9409 117.386 20.596C117.879 20.0705 117.863 19.2659 117.337 18.7568C116.959 18.3791 116.828 18.3462 115.202 18.3462H113.478V16.6219C113.478 14.9962 113.445 14.8648 113.067 14.4871C112.821 14.2243 112.476 14.0765 112.164 14.0765C111.852 14.0765 111.507 14.2243 111.261 14.4871Z" fill="url(#paint2_linear_525_741)"/>
<path d="M44.7752 40.505C44.4268 40.8621 44.3438 41.5609 44.6093 42.0267C44.908 42.5391 45.7045 42.6478 49.4216 42.6478C53.1386 42.6478 53.9351 42.5391 54.2338 42.0267C54.4993 41.5453 54.4164 40.8 54.0679 40.4739C53.7526 40.1789 53.5203 40.1634 49.4216 40.1634C45.2067 40.1634 45.1071 40.1634 44.7752 40.505Z" fill="url(#paint3_linear_525_741)"/>
<path d="M45.1963 46.5587C44.4095 46.8895 44.1964 47.9609 44.8029 48.5439C45.1143 48.8433 45.3438 48.859 52.5565 48.859C59.8512 48.859 59.9987 48.859 60.2938 48.5439C60.72 48.087 60.7036 47.2047 60.2446 46.7635C59.8676 46.4169 59.8676 46.4169 52.786 46.3854C47.0814 46.3538 45.6061 46.3854 45.1963 46.5587Z" fill="url(#paint4_linear_525_741)"/>
<defs>
<linearGradient id="paint0_linear_525_741" x1="80.4776" y1="78.6725" x2="80.4776" y2="0.411995" gradientUnits="userSpaceOnUse">
<stop stop-color="#FF740F"/>
<stop offset="1" stop-color="#FF9942"/>
</linearGradient>
<linearGradient id="paint1_linear_525_741" x1="78.6142" y1="38.9211" x2="78.6142" y2="10.3499" gradientUnits="userSpaceOnUse">
<stop stop-color="#FF740F"/>
<stop offset="1" stop-color="#FF9942"/>
</linearGradient>
<linearGradient id="paint2_linear_525_741" x1="112.154" y1="25.2566" x2="112.154" y2="14.0765" gradientUnits="userSpaceOnUse">
<stop stop-color="#FF740F"/>
<stop offset="1" stop-color="#FF9942"/>
</linearGradient>
<linearGradient id="paint3_linear_525_741" x1="49.4216" y1="42.6478" x2="49.4216" y2="40.1634" gradientUnits="userSpaceOnUse">
<stop stop-color="#FF740F"/>
<stop offset="1" stop-color="#FF9942"/>
</linearGradient>
<linearGradient id="paint4_linear_525_741" x1="52.5271" y1="48.859" x2="52.5271" y2="46.3745" gradientUnits="userSpaceOnUse">
<stop stop-color="#FF740F"/>
<stop offset="1" stop-color="#FF9942"/>
</linearGradient>
</defs>
</svg>
