<svg width="87" height="79" viewBox="0 0 87 79" fill="none" xmlns="http://www.w3.org/2000/svg">
<path d="M41.1848 0.48307C35.8689 0.979378 31.0795 3.16997 27.2073 6.88371C22.7406 11.1793 20.261 16.6216 19.9383 22.8169C19.4627 32.1098 24.4899 40.855 32.7099 45.048C36.0727 46.7423 39.4524 47.5466 43.2907 47.5466C48.182 47.5466 52.343 46.2973 56.2492 43.6788C59.5271 41.4883 62.3124 38.3735 64.0787 34.8994C65.2166 32.6917 65.7431 31.2198 66.2696 28.8752C66.5923 27.3521 66.6602 26.6333 66.6602 23.9293C66.6432 21.1055 66.5923 20.5578 66.2016 18.8464C65.4713 15.7659 64.0787 12.5656 62.4652 10.3236L61.9727 9.63907L72.4516 9.58772C83.8986 9.5535 83.3551 9.50215 84.0174 10.529C84.3062 10.9568 84.3232 12.2404 84.3741 31.4081L84.4081 51.8251H79.1771C74.116 51.8251 73.9122 51.8422 73.4706 52.1845C72.8762 52.6466 72.8592 53.6563 73.4197 54.1869C73.8103 54.5634 73.9122 54.5634 79.1262 54.5634H84.4251L84.3741 58.106C84.3232 62.1106 84.1873 62.607 83.1343 63.0519C82.2681 63.4113 4.68699 63.4113 3.82082 63.0519C2.76784 62.607 2.63197 62.1106 2.58102 58.106L2.53007 54.5634H35.4953H68.4605L68.8681 54.1355C69.3776 53.6392 69.4115 52.8691 68.97 52.3214L68.6473 51.9107L35.5972 51.8594L2.54705 51.8251V31.8359C2.54705 20.2669 2.61499 11.573 2.71689 11.1793C2.80181 10.7686 3.07355 10.3065 3.39623 10.0156L3.90574 9.5535H11.8711C16.9831 9.5535 20.0062 9.48504 20.3289 9.38235C21.212 9.05719 21.4838 8.03035 20.8724 7.26022L20.5327 6.81525H12.0069C3.80384 6.81525 3.44719 6.83237 2.71689 7.17465C1.69787 7.63673 0.899643 8.44109 0.407118 9.46793L-0.000488281 10.3236V36.4396V62.5385L0.441086 63.4284C0.916627 64.3868 1.51105 64.9687 2.61499 65.5677L3.31132 65.9442L17.8833 65.9955L32.4382 66.0298V70.9928V75.9559H30.2473C28.0734 75.9559 28.0395 75.9559 27.6998 76.4009C27.2242 76.9998 27.2582 77.5475 27.7507 78.1294L28.1583 78.6086L42.9171 78.6599C52.7676 78.6941 57.8627 78.6599 58.2703 78.5401C59.2384 78.2492 59.561 77.2223 58.9157 76.4009C58.576 75.9559 58.542 75.9559 56.3681 75.9559H54.1772V70.9928V66.0298L68.919 65.9955L83.6438 65.9442L84.3401 65.5677C85.4441 64.9687 86.0385 64.3868 86.514 63.4284L86.9556 62.5385V36.4396C86.9556 10.5461 86.9386 10.3236 86.599 9.5535C86.1404 8.52666 85.3422 7.7223 84.3232 7.22599L83.474 6.81525H71.4496H59.4082L58.3722 5.87399C56.9456 4.59043 56.1134 4.1797 55.3831 4.43641C54.7717 4.65889 54.5169 5.0354 54.5169 5.7713C54.5169 6.19915 54.7037 6.43875 55.5869 7.17465C59.3742 10.3065 61.718 13.5924 62.9917 17.5457C63.773 19.9759 63.9428 21.2081 63.9258 24.186C63.9258 27.1125 63.6201 28.8581 62.72 31.2541C60.1725 38.0997 54.0923 43.1997 46.8913 44.5517C44.8363 44.9282 41.4735 44.8939 39.3845 44.4661C31.0965 42.7547 24.7277 36.3883 23.0123 28.0709C21.0422 18.4699 26.3581 8.52666 35.5292 4.69312C39.6562 2.98172 44.1909 2.67367 48.5387 3.8203C50.4408 4.33372 50.7975 4.35084 51.307 3.92299C51.7995 3.52937 51.8335 2.53675 51.3749 2.02333C50.4578 0.99649 44.8532 0.157906 41.1848 0.48307ZM51.4599 70.9928V75.9559H43.3077H35.1556V70.9928V66.0298H43.3077H51.4599V70.9928Z" fill="url(#paint0_linear_525_745)"/>
<path d="M29.318 10.4905C28.5005 10.9905 28.3336 11.8353 28.9176 12.6112C29.2179 13.0077 29.368 13.0594 30.3357 13.0594C31.2867 13.0594 31.4202 13.0939 31.5703 13.4387C31.6538 13.6629 32.5547 18.4042 33.5724 23.9903C34.8571 31.0764 35.4911 34.2488 35.6913 34.4729C35.8581 34.6798 36.1918 34.7833 36.6256 34.7833C37.1762 34.7833 37.2596 34.835 37.1595 35.0764C36.7257 36.1798 36.7591 37.0074 37.2596 37.8522C37.5265 38.3005 38.6777 38.9211 39.2116 38.9211C39.8456 38.9211 40.6465 38.4729 41.147 37.8867C41.5474 37.3694 41.5975 37.197 41.5474 36.3522C41.514 35.8177 41.4139 35.2488 41.3472 35.0764C41.2137 34.8005 41.3806 34.7833 43.5495 34.7833H45.902L45.635 35.4212C44.4838 38.3005 48.6215 40.3004 50.0062 37.5419C50.3232 36.9039 50.3232 35.8695 50.0229 35.2488L49.7727 34.7833H50.5902C51.2742 34.7833 51.4577 34.7143 51.7414 34.335C52.2085 33.7316 52.1752 33.1798 51.6913 32.5936L51.2909 32.1109L44.5339 32.0592L37.7601 32.0074L37.5766 31.0247C37.4765 30.4902 37.3764 29.904 37.343 29.7316C37.2763 29.4558 37.7101 29.4385 44.4504 29.4385C48.8717 29.4385 51.7247 29.3696 51.9249 29.2661C52.3587 29.0247 52.4421 28.6799 53.6767 21.8869C54.6444 16.5766 54.7612 15.7318 54.5944 15.2835C54.4776 15.0077 54.2273 14.6801 54.0271 14.5594C53.7768 14.4043 51.1574 14.3353 44.1001 14.2663L34.5234 14.1801L34.2898 13.1801C33.8727 11.2491 32.9718 10.4905 30.9363 10.3698C30.1355 10.3181 29.5349 10.3698 29.318 10.4905ZM38.9781 17.9214C39.0281 18.4214 39.0948 19.1973 39.1282 19.6456L39.2116 20.4731H37.4098H35.6246L35.3576 18.8697C35.1908 17.9904 35.074 17.2146 35.074 17.1456C35.074 17.0766 35.9249 17.0249 36.976 17.0249H38.8946L38.9781 17.9214ZM45.2513 17.8352C45.2513 18.3007 45.2012 19.0766 45.1512 19.5593L45.0344 20.4731H43.4828H41.9311L41.8477 19.9042C41.7977 19.6111 41.7309 18.8352 41.6809 18.1801L41.5975 17.0249H43.416H45.2513V17.8352ZM51.7581 17.2318C51.7581 17.3352 51.6246 18.1111 51.4744 18.9559L51.1908 20.4731H49.489H47.7706L47.854 18.9559C47.904 18.1283 47.9708 17.3525 48.0208 17.2318C48.1042 16.9387 51.7581 16.9387 51.7581 17.2318ZM39.4118 23.6283C39.4118 23.8524 39.4619 24.6282 39.512 25.3524L39.6287 26.6799H38.2106H36.7924L36.5088 25.2489C36.0917 23.0765 35.9916 23.2317 37.8269 23.2317C39.3785 23.2317 39.4118 23.2317 39.4118 23.6283ZM44.8175 24.5593C44.6673 26.8006 44.7507 26.6799 43.416 26.6799H42.2481V26.111C42.2481 25.8179 42.1981 25.042 42.1314 24.3869L42.0312 23.2317H43.4661H44.9176L44.8175 24.5593ZM50.3733 24.9558L50.0396 26.6799H48.7382H47.4202V25.7489C47.4202 25.2489 47.4703 24.4731 47.5203 24.0248L47.6371 23.2317H49.172H50.707L50.3733 24.9558Z" fill="url(#paint1_linear_525_745)"/>
<path d="M74.261 14.4871C73.8833 14.8648 73.8505 14.9962 73.8505 16.6219V18.3462H72.1426C70.681 18.3462 70.3854 18.3955 70.0077 18.6911C69.433 19.1345 69.4165 20.1034 69.9585 20.6125C70.3033 20.9409 70.5168 20.9737 72.0933 20.9737H73.8505V22.7473C73.8505 24.3895 73.8833 24.5537 74.2282 24.8822C74.7865 25.4077 75.6898 25.3748 76.1331 24.8165C76.4287 24.4388 76.478 24.1432 76.478 22.6816V20.9737H78.2516C79.8938 20.9737 80.058 20.9409 80.3865 20.596C80.8791 20.0705 80.8627 19.2659 80.3372 18.7568C79.9595 18.3791 79.8281 18.3462 78.2023 18.3462H76.478V16.6219C76.478 14.9962 76.4452 14.8648 76.0675 14.4871C75.8211 14.2243 75.4763 14.0765 75.1642 14.0765C74.8522 14.0765 74.5074 14.2243 74.261 14.4871Z" fill="url(#paint2_linear_525_745)"/>
<path d="M7.77522 40.505C7.42675 40.8621 7.34378 41.5609 7.60928 42.0267C7.90798 42.5391 8.70449 42.6478 12.4216 42.6478C16.1386 42.6478 16.9351 42.5391 17.2338 42.0267C17.4993 41.5453 17.4164 40.8 17.0679 40.4739C16.7526 40.1789 16.5203 40.1634 12.4216 40.1634C8.20667 40.1634 8.10711 40.1634 7.77522 40.505Z" fill="url(#paint3_linear_525_745)"/>
<path d="M8.1963 46.5587C7.40946 46.8895 7.19636 47.9609 7.80288 48.5439C8.11434 48.8433 8.34383 48.859 15.5565 48.859C22.8512 48.859 22.9987 48.859 23.2938 48.5439C23.72 48.087 23.7036 47.2047 23.2446 46.7635C22.8676 46.4169 22.8676 46.4169 15.786 46.3854C10.0814 46.3538 8.60611 46.3854 8.1963 46.5587Z" fill="url(#paint4_linear_525_745)"/>
<defs>
<linearGradient id="paint0_linear_525_745" x1="43.4776" y1="78.6725" x2="43.4776" y2="0.411995" gradientUnits="userSpaceOnUse">
<stop stop-color="#FF740F"/>
<stop offset="1" stop-color="#FF9942"/>
</linearGradient>
<linearGradient id="paint1_linear_525_745" x1="41.6142" y1="38.9211" x2="41.6142" y2="10.3499" gradientUnits="userSpaceOnUse">
<stop stop-color="#FF740F"/>
<stop offset="1" stop-color="#FF9942"/>
</linearGradient>
<linearGradient id="paint2_linear_525_745" x1="75.154" y1="25.2566" x2="75.154" y2="14.0765" gradientUnits="userSpaceOnUse">
<stop stop-color="#FF740F"/>
<stop offset="1" stop-color="#FF9942"/>
</linearGradient>
<linearGradient id="paint3_linear_525_745" x1="12.4216" y1="42.6478" x2="12.4216" y2="40.1634" gradientUnits="userSpaceOnUse">
<stop stop-color="#FF740F"/>
<stop offset="1" stop-color="#FF9942"/>
</linearGradient>
<linearGradient id="paint4_linear_525_745" x1="15.5271" y1="48.859" x2="15.5271" y2="46.3745" gradientUnits="userSpaceOnUse">
<stop stop-color="#FF740F"/>
<stop offset="1" stop-color="#FF9942"/>
</linearGradient>
</defs>
</svg>
