<svg width="160" height="149" viewBox="0 0 160 149" fill="none" xmlns="http://www.w3.org/2000/svg">
<path fill-rule="evenodd" clip-rule="evenodd" d="M79.5978 0.659225C78.6779 0.984814 77.664 1.9414 77.2362 2.88699L76.8707 3.6953L76.8271 11.3L76.7833 18.9047H60.7514C46.9682 18.9047 44.6114 18.9368 43.9491 19.1333C43.0291 19.4063 41.8846 20.361 41.4062 21.2545L41.0684 21.8855V35.7192V49.5529L41.4062 50.1839C41.8846 51.0774 43.0291 52.0321 43.9491 52.3051C44.392 52.4366 45.3253 52.5336 46.1453 52.5336H47.5709V55.1263C47.5709 57.5965 47.5867 57.7336 47.9058 58.0306C48.0899 58.202 48.4473 58.3423 48.7001 58.3423C49.0921 58.3423 49.5884 57.916 52.0805 55.438L55.0014 52.5336H59.4646H63.9277L63.9731 61.0555C64.0175 69.3701 64.0265 69.5945 64.3434 70.2789C64.7348 71.1243 65.5553 71.9742 66.4325 72.4424L67.0786 72.7874L79.777 72.8299L92.4755 72.8724L95.3921 75.7724C97.7647 78.1315 98.3874 78.6725 98.7306 78.6725C99.8455 78.6725 100.05 78.1233 100.05 75.134V72.8638H101.4C102.179 72.8638 103.09 72.7627 103.556 72.6243C104.57 72.3235 105.631 71.3779 106.116 70.3417L106.473 69.5774V56.0494V42.5214L106.114 41.7513C105.651 40.7559 104.522 39.7609 103.519 39.4635C102.871 39.2713 101.222 39.2349 93.1375 39.2349H83.5263V36.6363V34.0377H94.4226H105.319L108.24 36.9421C111.378 40.0622 111.539 40.1639 112.346 39.5295L112.75 39.2128V36.6469V34.081L114.431 34.0014C116.415 33.9075 117.446 33.5049 118.322 32.482C119.372 31.256 119.329 31.9239 119.329 17.0677V3.66764L118.865 2.7407C118.377 1.76546 117.774 1.20218 116.69 0.710892C116.115 0.450115 115.671 0.41511 112.888 0.412206C110.035 0.409149 109.713 0.435135 109.486 0.686434C109.055 1.16228 109.012 1.81361 109.383 2.28381L109.712 2.70172L112.569 2.70203C115.818 2.70218 116.291 2.82279 116.766 3.77173C117.014 4.26822 117.033 5.2271 117.033 17.1135C117.034 30.8262 117.05 30.5176 116.274 31.2099C115.971 31.4806 115.651 31.5243 113.485 31.592C110.377 31.6891 110.455 31.6253 110.455 34.0859V35.7816L108.339 33.6868L106.222 31.592H94.8744H83.5263V27.3195C83.5263 24.8217 83.4573 22.7253 83.3601 22.2727C83.0139 20.6597 81.497 19.2079 79.9096 18.97L79.2422 18.87V11.4179C79.2422 4.00484 79.2439 3.96357 79.5739 3.54459C80.2543 2.68017 79.9237 2.70172 92.5484 2.70172C103.977 2.70172 104.187 2.69637 104.487 2.39601C104.677 2.20677 104.793 1.88653 104.793 1.55528C104.793 1.22404 104.677 0.903799 104.487 0.71456C104.186 0.413887 103.986 0.408996 92.2091 0.420919C82.0521 0.43116 80.1399 0.467235 79.5978 0.659225ZM97.4032 6.10283C97.2009 6.37614 96.5676 7.49384 95.996 8.58678C93.8659 12.6591 93.5099 13.1316 93.0573 12.4861C92.5823 11.8086 91.7675 11.5675 89.9523 11.5675C87.9446 11.5675 87.2918 11.8133 86.6247 12.8205L86.2038 13.4559V20.1415V26.8271L86.6628 27.474C87.3914 28.5009 87.8935 28.6877 89.9268 28.6877C91.9361 28.6877 92.5088 28.4982 93.1448 27.6227C93.4836 27.1565 93.6089 27.0851 93.9304 27.1749C94.1407 27.2336 96.8948 27.2869 100.05 27.2933C105.512 27.3046 105.821 27.2903 106.476 26.9934C107.319 26.6119 107.798 26.18 108.157 25.4777C108.581 24.6483 110.608 16.7696 110.608 15.9489C110.608 14.649 109.571 13.2909 108.312 12.941C108.018 12.859 106.631 12.7918 105.231 12.7913C103.05 12.7905 102.671 12.7557 102.591 12.5486C102.54 12.4156 102.498 11.568 102.498 10.665C102.498 9.58128 102.418 8.78641 102.261 8.32616C101.738 6.79436 100.128 5.60604 98.5747 5.60604C97.8454 5.60604 97.7369 5.65205 97.4032 6.10283ZM99.5545 8.39571C100.079 8.95456 100.203 9.50623 100.203 11.2618C100.203 13.0845 100.324 13.5674 100.94 14.2179C101.7 15.0203 101.972 15.0833 104.687 15.0833C107.398 15.0833 108.111 15.2178 108.246 15.7549C108.292 15.9397 107.842 17.9393 107.242 20.2108C106.339 23.632 106.089 24.3896 105.771 24.6752C105.39 25.018 105.373 25.0191 100.157 25.0105C96.5253 25.0044 94.761 24.946 94.3894 24.8195L93.8539 24.6369L93.8135 19.8916L93.7731 15.1463L94.2976 14.9567C95.2431 14.6152 95.936 13.7396 97.2849 11.1831C98.7071 8.48742 98.9627 8.05178 99.1234 8.05178C99.1832 8.05178 99.3772 8.20662 99.5545 8.39571ZM91.2528 20.1276V26.3184H89.9523H88.6518L88.6117 20.2808C88.5897 16.9601 88.6059 14.1542 88.6475 14.0455C88.7032 13.9009 89.062 13.8598 89.9881 13.8924L91.2528 13.9368V20.1276ZM80.28 21.5891C81.0848 22.1522 81.0782 22.074 81.0782 30.9729V39.2349H77.3257H73.5732L74.1881 38.1157C76.4368 34.0225 76.128 29.8424 73.3748 27.1044C71.8859 25.6238 70.0715 24.8699 67.9966 24.8699C66.1363 24.8699 64.6365 25.4263 63.0459 26.707L62.1659 27.4155L61.4743 26.7906C60.0967 25.5455 58.3211 24.8662 56.445 24.8662C53.0314 24.8662 50.0251 27.1579 49.039 30.5116C48.6955 31.6801 48.7213 33.8542 49.096 35.3182C49.6072 37.3147 51.4379 40.3954 52.3365 40.7712C52.849 40.9855 53.549 40.6614 53.81 40.089C54.032 39.6023 53.9506 39.385 53.1249 38.262C51.8684 36.5527 51.0993 34.4243 51.0926 32.6374C51.0889 31.6253 51.5727 30.2039 52.2217 29.3205C53.3352 27.8049 55.4448 26.9477 57.24 27.2812C58.8537 27.5812 60.1639 28.4839 60.976 29.8558C61.4237 30.612 62.0918 30.9529 62.6388 30.7039C62.8402 30.6123 63.2398 30.1703 63.527 29.7218C64.5743 28.0862 66.0543 27.256 67.917 27.2592C70.0398 27.2629 71.8787 28.3717 72.7703 30.1853C73.1651 30.9888 73.1984 31.1944 73.1944 32.8149C73.1906 34.3935 73.1454 34.6819 72.7516 35.6428C72.2842 36.7834 71.2165 38.5359 70.7356 38.9515C70.5175 39.14 70.0424 39.2186 68.8381 39.2651C66.9755 39.3367 66.1626 39.6253 65.2476 40.5393C64.5206 41.2658 64.1466 42.1036 64.0112 43.3102L63.9057 44.2518L63.0557 44.6361L62.2057 45.0202L60.976 44.4025C60.2997 44.0628 59.3051 43.517 58.7657 43.1895C57.3832 42.3505 57.1603 42.3183 56.6018 42.8762C56.0654 43.4121 56.0022 43.9898 56.4328 44.4199C56.8651 44.8519 59.4229 46.325 60.8781 46.9803C62.2448 47.5956 62.1807 47.596 63.6743 46.9593C63.9197 46.8546 63.9421 46.9808 63.9421 48.4665V50.0879H59.2855C56.4095 50.0879 54.4642 50.1492 54.1982 50.2484C53.9613 50.3366 52.8897 51.2814 51.8167 52.3479L49.8659 54.2871V52.6546C49.8659 51.1498 49.837 50.9886 49.4971 50.5933C49.1289 50.1653 49.1228 50.1642 46.7813 50.0879C44.2063 50.004 43.9159 49.9138 43.5164 49.0726C43.1698 48.343 43.1706 23.0935 43.5173 22.3638C44.0305 21.2834 42.6244 21.359 62.2632 21.3546C78.0373 21.3509 79.9759 21.3762 80.28 21.5891ZM103.25 41.9032C104.216 42.4022 104.181 41.8768 104.181 56.0494C104.181 67.6304 104.157 68.9724 103.932 69.4449C103.795 69.7338 103.537 70.0537 103.358 70.156C103.162 70.2686 102.11 70.3718 100.687 70.4181C98.3455 70.4944 98.3394 70.4955 97.9713 70.9235C97.6313 71.3188 97.6024 71.48 97.6024 72.9848V74.6173L95.6516 72.6781C94.5788 71.6116 93.507 70.6668 93.2701 70.5786C92.9822 70.4713 88.6452 70.4181 80.1842 70.4181C66.2801 70.4181 67.1239 70.4753 66.6187 69.4993C66.4212 69.1176 66.3901 67.2911 66.3901 56.0494C66.3901 41.8267 66.3532 42.4179 67.2718 41.9199C67.8976 41.5807 102.595 41.5647 103.25 41.9032ZM74.5217 52.389C72.6064 52.7745 71.2669 54.4863 71.2987 56.508C71.3395 59.1119 73.9716 61.0127 76.5142 60.2743C80.0649 59.2431 80.4583 54.1646 77.1002 52.7096C76.2169 52.3268 75.3598 52.2203 74.5217 52.389ZM84.4036 52.3926C82.4257 52.8638 81.2413 54.3478 81.2346 56.3634C81.224 59.4881 84.4663 61.4181 87.215 59.9234C89.416 58.7266 90.0057 55.9575 88.5002 53.8875C87.6529 52.7224 85.8227 52.0544 84.4036 52.3926ZM94.2645 52.3897C92.0183 52.8369 90.5914 55.2509 91.2452 57.4977C91.6098 58.7507 92.7558 59.9014 93.9942 60.2581C95.6244 60.7276 96.9953 60.3337 98.1728 59.0575C98.8059 58.3713 99.2854 57.2067 99.2854 56.3551C99.2854 55.5012 98.8057 54.3388 98.1659 53.6419C97.1673 52.5543 95.7394 52.096 94.2645 52.3897ZM76.524 55.1197C76.9662 55.5144 77.0237 55.6567 77.0237 56.3551C77.0237 57.0535 76.9662 57.1958 76.524 57.5905C75.5642 58.4473 74.0793 58.0684 73.7518 56.8832C73.2808 55.1789 75.2132 53.9496 76.524 55.1197ZM86.2263 54.9681C87.1773 55.5474 87.23 57.0175 86.3251 57.7284C85.3955 58.4591 83.8066 57.8764 83.5905 56.7255C83.3046 55.203 84.8837 54.1503 86.2263 54.9681ZM96.3172 55.1934C97.7295 56.6044 96.1525 58.6934 94.3086 57.8539C93.8047 57.6246 93.4713 56.9944 93.4713 56.271C93.4713 55.4395 94.2781 54.6737 95.1544 54.6737C95.6811 54.6737 95.8908 54.7674 96.3172 55.1934Z" fill="url(#paint0_linear_525_751)"/>
<path d="M34.1094 113.724C34.0027 113.607 33.848 113.484 33.6454 113.356C33.4427 113.217 33.2027 113.089 32.9254 112.972C32.6587 112.855 32.36 112.759 32.0294 112.684C31.7094 112.609 31.3787 112.572 31.0374 112.572C30.28 112.572 29.72 112.711 29.3574 112.988C29.0054 113.265 28.8294 113.649 28.8294 114.14C28.8294 114.417 28.8827 114.647 28.9894 114.828C29.1067 114.999 29.2827 115.153 29.5174 115.292C29.752 115.42 30.0454 115.537 30.3974 115.644C30.7494 115.74 31.16 115.847 31.6294 115.964C32.2054 116.103 32.7227 116.257 33.1814 116.428C33.6507 116.599 34.0454 116.807 34.3654 117.052C34.6854 117.297 34.9307 117.601 35.1014 117.964C35.2827 118.316 35.3734 118.748 35.3734 119.26C35.3734 119.836 35.2614 120.332 35.0374 120.748C34.824 121.164 34.5254 121.505 34.1414 121.772C33.768 122.028 33.3307 122.22 32.8294 122.348C32.328 122.465 31.7894 122.524 31.2134 122.524C30.3494 122.524 29.512 122.396 28.7014 122.14C27.9014 121.873 27.176 121.489 26.5254 120.988L27.3414 119.452C27.48 119.591 27.6774 119.745 27.9334 119.916C28.2 120.087 28.504 120.247 28.8454 120.396C29.1974 120.535 29.576 120.657 29.9814 120.764C30.3867 120.86 30.808 120.908 31.2454 120.908C31.9494 120.908 32.4934 120.785 32.8774 120.54C33.2614 120.295 33.4534 119.932 33.4534 119.452C33.4534 119.164 33.3787 118.924 33.2294 118.732C33.0907 118.54 32.888 118.375 32.6214 118.236C32.3547 118.087 32.0294 117.953 31.6454 117.836C31.2614 117.719 30.824 117.596 30.3334 117.468C29.768 117.319 29.272 117.164 28.8454 117.004C28.4294 116.833 28.0827 116.631 27.8054 116.396C27.528 116.161 27.3147 115.889 27.1654 115.58C27.0267 115.26 26.9574 114.876 26.9574 114.428C26.9574 113.873 27.064 113.383 27.2774 112.956C27.4907 112.519 27.7787 112.156 28.1414 111.868C28.5147 111.569 28.952 111.345 29.4534 111.196C29.9547 111.047 30.4987 110.972 31.0854 110.972C31.8534 110.972 32.5627 111.095 33.2134 111.34C33.864 111.585 34.4347 111.889 34.9254 112.252L34.1094 113.724ZM41.8906 122.492C41.08 122.492 40.3386 122.332 39.6666 122.012C39.0053 121.681 38.4346 121.249 37.9546 120.716C37.4746 120.172 37.1013 119.553 36.8346 118.86C36.5786 118.167 36.4506 117.457 36.4506 116.732C36.4506 115.975 36.5893 115.249 36.8666 114.556C37.144 113.863 37.5226 113.249 38.0026 112.716C38.4933 112.183 39.0693 111.761 39.7306 111.452C40.4026 111.132 41.1333 110.972 41.9226 110.972C42.7333 110.972 43.4693 111.143 44.1306 111.484C44.8026 111.815 45.3733 112.252 45.8426 112.796C46.3226 113.34 46.6906 113.959 46.9466 114.652C47.2133 115.335 47.3466 116.033 47.3466 116.748C47.3466 117.505 47.208 118.231 46.9306 118.924C46.664 119.617 46.2853 120.231 45.7946 120.764C45.304 121.287 44.7226 121.708 44.0506 122.028C43.3893 122.337 42.6693 122.492 41.8906 122.492ZM38.2746 116.732C38.2746 117.265 38.36 117.783 38.5306 118.284C38.7013 118.785 38.9413 119.228 39.2506 119.612C39.5706 119.996 39.9546 120.305 40.4026 120.54C40.8506 120.764 41.352 120.876 41.9066 120.876C42.4826 120.876 42.9893 120.759 43.4266 120.524C43.8746 120.279 44.2533 119.959 44.5626 119.564C44.872 119.169 45.1066 118.727 45.2666 118.236C45.4266 117.745 45.5066 117.244 45.5066 116.732C45.5066 116.188 45.4213 115.671 45.2506 115.18C45.08 114.679 44.8346 114.241 44.5146 113.868C44.2053 113.484 43.8266 113.18 43.3786 112.956C42.9413 112.721 42.4506 112.604 41.9066 112.604C41.3306 112.604 40.8186 112.727 40.3706 112.972C39.9226 113.207 39.544 113.516 39.2346 113.9C38.9253 114.284 38.6853 114.727 38.5146 115.228C38.3546 115.719 38.2746 116.22 38.2746 116.732ZM48.4819 116.652C48.4819 115.969 48.6045 115.292 48.8499 114.62C49.0952 113.937 49.4525 113.329 49.9219 112.796C50.4019 112.252 50.9832 111.815 51.6659 111.484C52.3485 111.153 53.1219 110.988 53.9859 110.988C55.0205 110.988 55.9059 111.217 56.6419 111.676C57.3779 112.135 57.9325 112.732 58.3059 113.468L56.8979 114.412C56.7379 114.071 56.5459 113.783 56.3219 113.548C56.0979 113.313 55.8525 113.127 55.5859 112.988C55.3192 112.849 55.0419 112.753 54.7539 112.7C54.4659 112.636 54.1885 112.604 53.9219 112.604C53.3245 112.604 52.8019 112.727 52.3539 112.972C51.9059 113.207 51.5272 113.521 51.2179 113.916C50.9192 114.311 50.6899 114.753 50.5299 115.244C50.3805 115.735 50.3059 116.225 50.3059 116.716C50.3059 117.271 50.3965 117.799 50.5779 118.3C50.7592 118.801 51.0099 119.244 51.3299 119.628C51.6605 120.012 52.0499 120.321 52.4979 120.556C52.9459 120.78 53.4365 120.892 53.9699 120.892C54.2472 120.892 54.5299 120.86 54.8179 120.796C55.1165 120.721 55.3992 120.609 55.6659 120.46C55.9432 120.3 56.1939 120.103 56.4179 119.868C56.6525 119.633 56.8445 119.351 56.9939 119.02L58.4819 119.868C58.3005 120.295 58.0445 120.673 57.7139 121.004C57.3832 121.324 57.0099 121.596 56.5939 121.82C56.1779 122.044 55.7352 122.215 55.2659 122.332C54.8072 122.449 54.3539 122.508 53.9059 122.508C53.1059 122.508 52.3752 122.337 51.7139 121.996C51.0525 121.655 50.4819 121.212 50.0019 120.668C49.5219 120.113 49.1485 119.489 48.8819 118.796C48.6152 118.092 48.4819 117.377 48.4819 116.652ZM60.1394 122.412V111.052H61.9314V122.412H60.1394ZM67.8428 111.052H69.4108L73.8908 122.412H72.0028L70.8028 119.324H66.4188L65.2348 122.412H63.3308L67.8428 111.052ZM70.4508 117.996L68.6268 113.116L66.7388 117.996H70.4508ZM75.2956 122.412V111.052H77.0876V120.828H83.1836V122.412H75.2956ZM96.107 121.004C95.147 121.996 94.043 122.492 92.795 122.492C92.0377 122.492 91.3337 122.337 90.683 122.028C90.0323 121.708 89.467 121.281 88.987 120.748C88.507 120.215 88.1283 119.596 87.851 118.892C87.5843 118.188 87.451 117.452 87.451 116.684C87.451 115.916 87.5843 115.185 87.851 114.492C88.1283 113.799 88.507 113.191 88.987 112.668C89.467 112.145 90.0377 111.735 90.699 111.436C91.3603 111.127 92.0803 110.972 92.859 110.972C93.947 110.972 94.859 111.201 95.595 111.66C96.331 112.108 96.8857 112.705 97.259 113.452L95.883 114.444C95.5737 113.825 95.147 113.361 94.603 113.052C94.059 112.743 93.4617 112.588 92.811 112.588C92.2777 112.588 91.7923 112.705 91.355 112.94C90.9177 113.164 90.5443 113.468 90.235 113.852C89.9257 114.225 89.6857 114.663 89.515 115.164C89.355 115.665 89.275 116.188 89.275 116.732C89.275 117.308 89.3657 117.847 89.547 118.348C89.739 118.849 89.995 119.287 90.315 119.66C90.6457 120.033 91.035 120.332 91.483 120.556C91.931 120.769 92.4163 120.876 92.939 120.876C93.515 120.876 94.0643 120.743 94.587 120.476C95.1203 120.209 95.627 119.788 96.107 119.212V117.996H93.723V116.668H97.611V122.412H96.107V121.004ZM104.375 122.492C103.564 122.492 102.823 122.332 102.151 122.012C101.49 121.681 100.919 121.249 100.439 120.716C99.959 120.172 99.5857 119.553 99.319 118.86C99.063 118.167 98.935 117.457 98.935 116.732C98.935 115.975 99.0737 115.249 99.351 114.556C99.6283 113.863 100.007 113.249 100.487 112.716C100.978 112.183 101.554 111.761 102.215 111.452C102.887 111.132 103.618 110.972 104.407 110.972C105.218 110.972 105.954 111.143 106.615 111.484C107.287 111.815 107.858 112.252 108.327 112.796C108.807 113.34 109.175 113.959 109.431 114.652C109.698 115.335 109.831 116.033 109.831 116.748C109.831 117.505 109.692 118.231 109.415 118.924C109.148 119.617 108.77 120.231 108.279 120.764C107.788 121.287 107.207 121.708 106.535 122.028C105.874 122.337 105.154 122.492 104.375 122.492ZM100.759 116.732C100.759 117.265 100.844 117.783 101.015 118.284C101.186 118.785 101.426 119.228 101.735 119.612C102.055 119.996 102.439 120.305 102.887 120.54C103.335 120.764 103.836 120.876 104.391 120.876C104.967 120.876 105.474 120.759 105.911 120.524C106.359 120.279 106.738 119.959 107.047 119.564C107.356 119.169 107.591 118.727 107.751 118.236C107.911 117.745 107.991 117.244 107.991 116.732C107.991 116.188 107.906 115.671 107.735 115.18C107.564 114.679 107.319 114.241 106.999 113.868C106.69 113.484 106.311 113.18 105.863 112.956C105.426 112.721 104.935 112.604 104.391 112.604C103.815 112.604 103.303 112.727 102.855 112.972C102.407 113.207 102.028 113.516 101.719 113.9C101.41 114.284 101.17 114.727 100.999 115.228C100.839 115.719 100.759 116.22 100.759 116.732ZM116.406 122.492C115.596 122.492 114.854 122.332 114.182 122.012C113.521 121.681 112.95 121.249 112.47 120.716C111.99 120.172 111.617 119.553 111.35 118.86C111.094 118.167 110.966 117.457 110.966 116.732C110.966 115.975 111.105 115.249 111.382 114.556C111.66 113.863 112.038 113.249 112.518 112.716C113.009 112.183 113.585 111.761 114.246 111.452C114.918 111.132 115.649 110.972 116.438 110.972C117.249 110.972 117.985 111.143 118.646 111.484C119.318 111.815 119.889 112.252 120.358 112.796C120.838 113.34 121.206 113.959 121.462 114.652C121.729 115.335 121.862 116.033 121.862 116.748C121.862 117.505 121.724 118.231 121.446 118.924C121.18 119.617 120.801 120.231 120.31 120.764C119.82 121.287 119.238 121.708 118.566 122.028C117.905 122.337 117.185 122.492 116.406 122.492ZM112.79 116.732C112.79 117.265 112.876 117.783 113.046 118.284C113.217 118.785 113.457 119.228 113.766 119.612C114.086 119.996 114.47 120.305 114.918 120.54C115.366 120.764 115.868 120.876 116.422 120.876C116.998 120.876 117.505 120.759 117.942 120.524C118.39 120.279 118.769 119.959 119.078 119.564C119.388 119.169 119.622 118.727 119.782 118.236C119.942 117.745 120.022 117.244 120.022 116.732C120.022 116.188 119.937 115.671 119.766 115.18C119.596 114.679 119.35 114.241 119.03 113.868C118.721 113.484 118.342 113.18 117.894 112.956C117.457 112.721 116.966 112.604 116.422 112.604C115.846 112.604 115.334 112.727 114.886 112.972C114.438 113.207 114.06 113.516 113.75 113.9C113.441 114.284 113.201 114.727 113.03 115.228C112.87 115.719 112.79 116.22 112.79 116.732ZM123.718 122.412V111.052H127.75C128.667 111.052 129.467 111.201 130.15 111.5C130.843 111.799 131.419 112.204 131.878 112.716C132.347 113.228 132.699 113.831 132.934 114.524C133.168 115.207 133.286 115.937 133.286 116.716C133.286 117.58 133.152 118.364 132.886 119.068C132.63 119.761 132.262 120.359 131.782 120.86C131.302 121.351 130.72 121.735 130.038 122.012C129.355 122.279 128.592 122.412 127.75 122.412H123.718ZM131.462 116.716C131.462 116.119 131.376 115.569 131.206 115.068C131.046 114.567 130.806 114.14 130.486 113.788C130.166 113.425 129.776 113.143 129.318 112.94C128.859 112.737 128.336 112.636 127.75 112.636H125.51V120.828H127.75C128.347 120.828 128.875 120.727 129.334 120.524C129.803 120.311 130.192 120.023 130.502 119.66C130.822 119.287 131.062 118.849 131.222 118.348C131.382 117.847 131.462 117.303 131.462 116.716Z" fill="#5C6A77"/>
<defs>
<linearGradient id="paint0_linear_525_751" x1="80.1986" y1="0.411987" x2="80.1986" y2="78.6725" gradientUnits="userSpaceOnUse">
<stop stop-color="#FE9F5A"/>
<stop offset="1" stop-color="#FF7600"/>
</linearGradient>
</defs>
</svg>
