<svg width="79" height="79" viewBox="0 0 79 79" fill="none" xmlns="http://www.w3.org/2000/svg">
<path fill-rule="evenodd" clip-rule="evenodd" d="M38.5978 0.659225C37.6779 0.984814 36.664 1.9414 36.2362 2.88699L35.8707 3.6953L35.8271 11.3L35.7833 18.9047H19.7514C5.96825 18.9047 3.61141 18.9368 2.94907 19.1333C2.02907 19.4063 0.884622 20.361 0.406187 21.2545L0.0683594 21.8855V35.7192V49.5529L0.406187 50.1839C0.884622 51.0774 2.02907 52.0321 2.94907 52.3051C3.39201 52.4366 4.32532 52.5336 5.14525 52.5336H6.57092V55.1263C6.57092 57.5965 6.58668 57.7336 6.90584 58.0306C7.0899 58.202 7.44731 58.3423 7.70007 58.3423C8.09206 58.3423 8.5884 57.916 11.0805 55.438L14.0014 52.5336H18.4646H22.9277L22.9731 61.0555C23.0175 69.3701 23.0265 69.5945 23.3434 70.2789C23.7348 71.1243 24.5553 71.9742 25.4325 72.4424L26.0786 72.7874L38.777 72.8299L51.4755 72.8724L54.3921 75.7724C56.7647 78.1315 57.3874 78.6725 57.7306 78.6725C58.8455 78.6725 59.0504 78.1233 59.0504 75.134V72.8638H60.3996C61.1791 72.8638 62.0898 72.7627 62.5561 72.6243C63.5702 72.3235 64.6305 71.3779 65.1157 70.3417L65.4734 69.5774V56.0494V42.5214L65.1145 41.7513C64.6506 40.7559 63.522 39.7609 62.5193 39.4635C61.8713 39.2713 60.2222 39.2349 52.1375 39.2349H42.5263V36.6363V34.0377H53.4226H64.319L67.24 36.9421C70.378 40.0622 70.5393 40.1639 71.3464 39.5295L71.7495 39.2128V36.6469V34.081L73.4315 34.0014C75.4145 33.9075 76.4456 33.5049 77.3218 32.482C78.3722 31.256 78.3286 31.9239 78.3286 17.0677V3.66764L77.865 2.7407C77.3771 1.76546 76.7738 1.20218 75.6902 0.710892C75.1151 0.450115 74.6709 0.41511 71.888 0.412206C69.0354 0.409149 68.7131 0.435135 68.4855 0.686434C68.0545 1.16228 68.0125 1.81361 68.3826 2.28381L68.7117 2.70172L71.5694 2.70203C74.8184 2.70218 75.2911 2.82279 75.7655 3.77173C76.0138 4.26822 76.0331 5.2271 76.0333 17.1135C76.0336 30.8262 76.0502 30.5176 75.2741 31.2099C74.9705 31.4806 74.6512 31.5243 72.4849 31.592C69.3771 31.6891 69.4545 31.6253 69.4545 34.0859V35.7816L67.3385 33.6868L65.2225 31.592H53.8744H42.5263V27.3195C42.5263 24.8217 42.4573 22.7253 42.3601 22.2727C42.0139 20.6597 40.497 19.2079 38.9096 18.97L38.2422 18.87V11.4179C38.2422 4.00484 38.2439 3.96357 38.5739 3.54459C39.2543 2.68017 38.9237 2.70172 51.5484 2.70172C62.9775 2.70172 63.1868 2.69637 63.4874 2.39601C63.6769 2.20677 63.7935 1.88653 63.7935 1.55528C63.7935 1.22404 63.6769 0.903799 63.4874 0.71456C63.1865 0.413887 62.9858 0.408996 51.2091 0.420919C41.0521 0.43116 39.1399 0.467235 38.5978 0.659225ZM56.4032 6.10283C56.2009 6.37614 55.5676 7.49384 54.996 8.58678C52.8659 12.6591 52.5099 13.1316 52.0573 12.4861C51.5823 11.8086 50.7675 11.5675 48.9523 11.5675C46.9446 11.5675 46.2918 11.8133 45.6247 12.8205L45.2038 13.4559V20.1415V26.8271L45.6628 27.474C46.3914 28.5009 46.8935 28.6877 48.9268 28.6877C50.9361 28.6877 51.5088 28.4982 52.1448 27.6227C52.4836 27.1565 52.6089 27.0851 52.9304 27.1749C53.1407 27.2336 55.8948 27.2869 59.0504 27.2933C64.5124 27.3046 64.821 27.2903 65.4765 26.9934C66.3189 26.6119 66.7976 26.18 67.157 25.4777C67.5813 24.6483 69.6075 16.7696 69.6075 15.9489C69.6075 14.649 68.5712 13.2909 67.3125 12.941C67.018 12.859 65.6312 12.7918 64.2306 12.7913C62.0503 12.7905 61.6709 12.7557 61.5913 12.5486C61.5402 12.4156 61.4984 11.568 61.4984 10.665C61.4984 9.58128 61.4176 8.78641 61.2607 8.32616C60.7382 6.79436 59.1278 5.60604 57.5747 5.60604C56.8454 5.60604 56.7369 5.65205 56.4032 6.10283ZM58.5545 8.39571C59.0786 8.95456 59.2034 9.50623 59.2034 11.2618C59.2034 13.0845 59.3237 13.5674 59.94 14.2179C60.6998 15.0203 60.9723 15.0833 63.6865 15.0833C66.3978 15.0833 67.1107 15.2178 67.2456 15.7549C67.292 15.9397 66.8415 17.9393 66.2419 20.2108C65.3386 23.632 65.0891 24.3896 64.7713 24.6752C64.3895 25.018 64.3726 25.0191 59.1566 25.0105C55.5253 25.0044 53.761 24.946 53.3894 24.8195L52.8539 24.6369L52.8135 19.8916L52.7731 15.1463L53.2976 14.9567C54.2431 14.6152 54.936 13.7396 56.2849 11.1831C57.7071 8.48742 57.9627 8.05178 58.1234 8.05178C58.1832 8.05178 58.3772 8.20662 58.5545 8.39571ZM50.2528 20.1276V26.3184H48.9523H47.6518L47.6117 20.2808C47.5897 16.9601 47.6059 14.1542 47.6475 14.0455C47.7032 13.9009 48.062 13.8598 48.9881 13.8924L50.2528 13.9368V20.1276ZM39.28 21.5891C40.0848 22.1522 40.0782 22.074 40.0782 30.9729V39.2349H36.3257H32.5732L33.1881 38.1157C35.4368 34.0225 35.128 29.8424 32.3748 27.1044C30.8859 25.6238 29.0715 24.8699 26.9966 24.8699C25.1363 24.8699 23.6365 25.4263 22.0459 26.707L21.1659 27.4155L20.4743 26.7906C19.0967 25.5455 17.3211 24.8662 15.445 24.8662C12.0314 24.8662 9.02506 27.1579 8.03897 30.5116C7.69548 31.6801 7.72134 33.8542 8.09604 35.3182C8.60722 37.3147 10.4379 40.3954 11.3365 40.7712C11.849 40.9855 12.549 40.6614 12.81 40.089C13.032 39.6023 12.9506 39.385 12.1249 38.262C10.8684 36.5527 10.0993 34.4243 10.0926 32.6374C10.0889 31.6253 10.5727 30.2039 11.2217 29.3205C12.3352 27.8049 14.4448 26.9477 16.24 27.2812C17.8537 27.5812 19.1639 28.4839 19.976 29.8558C20.4237 30.612 21.0918 30.9529 21.6388 30.7039C21.8402 30.6123 22.2398 30.1703 22.527 29.7218C23.5743 28.0862 25.0543 27.256 26.917 27.2592C29.0398 27.2629 30.8787 28.3717 31.7703 30.1853C32.1651 30.9888 32.1984 31.1944 32.1944 32.8149C32.1906 34.3935 32.1454 34.6819 31.7516 35.6428C31.2842 36.7834 30.2165 38.5359 29.7356 38.9515C29.5175 39.14 29.0424 39.2186 27.8381 39.2651C25.9755 39.3367 25.1626 39.6253 24.2476 40.5393C23.5206 41.2658 23.1466 42.1036 23.0112 43.3102L22.9057 44.2518L22.0557 44.6361L21.2057 45.0202L19.976 44.4025C19.2997 44.0628 18.3051 43.517 17.7657 43.1895C16.3832 42.3505 16.1603 42.3183 15.6018 42.8762C15.0654 43.4121 15.0022 43.9898 15.4328 44.4199C15.8651 44.8519 18.4229 46.325 19.8781 46.9803C21.2448 47.5956 21.1807 47.596 22.6743 46.9593C22.9197 46.8546 22.9421 46.9808 22.9421 48.4665V50.0879H18.2855C15.4095 50.0879 13.4642 50.1492 13.1982 50.2484C12.9613 50.3366 11.8897 51.2814 10.8167 52.3479L8.86594 54.2871V52.6546C8.86594 51.1498 8.83702 50.9886 8.49706 50.5933C8.12893 50.1653 8.12281 50.1642 5.78128 50.0879C3.20627 50.004 2.91587 49.9138 2.51638 49.0726C2.16983 48.343 2.1706 23.0935 2.5173 22.3638C3.03047 21.2834 1.62438 21.359 21.2632 21.3546C37.0373 21.3509 38.9759 21.3762 39.28 21.5891ZM62.2504 41.9032C63.216 42.4022 63.1814 41.8768 63.1814 56.0494C63.1814 67.6304 63.1565 68.9724 62.9321 69.4449C62.7948 69.7338 62.5365 70.0537 62.3583 70.156C62.1615 70.2686 61.1101 70.3718 59.687 70.4181C57.3455 70.4944 57.3394 70.4955 56.9713 70.9235C56.6313 71.3188 56.6024 71.48 56.6024 72.9848V74.6173L54.6516 72.6781C53.5788 71.6116 52.507 70.6668 52.2701 70.5786C51.9822 70.4713 47.6452 70.4181 39.1842 70.4181C25.2801 70.4181 26.1239 70.4753 25.6187 69.4993C25.4212 69.1176 25.3901 67.2911 25.3901 56.0494C25.3901 41.8267 25.3532 42.4179 26.2718 41.9199C26.8976 41.5807 61.595 41.5647 62.2504 41.9032ZM33.5217 52.389C31.6064 52.7745 30.2669 54.4863 30.2987 56.508C30.3395 59.1119 32.9716 61.0127 35.5142 60.2743C39.0649 59.2431 39.4583 54.1646 36.1002 52.7096C35.2169 52.3268 34.3598 52.2203 33.5217 52.389ZM43.4036 52.3926C41.4257 52.8638 40.2413 54.3478 40.2346 56.3634C40.224 59.4881 43.4663 61.4181 46.215 59.9234C48.416 58.7266 49.0057 55.9575 47.5002 53.8875C46.6529 52.7224 44.8227 52.0544 43.4036 52.3926ZM53.2645 52.3897C51.0183 52.8369 49.5914 55.2509 50.2452 57.4977C50.6098 58.7507 51.7558 59.9014 52.9942 60.2581C54.6244 60.7276 55.9953 60.3337 57.1728 59.0575C57.8059 58.3713 58.2854 57.2067 58.2854 56.3551C58.2854 55.5012 57.8057 54.3388 57.1659 53.6419C56.1673 52.5543 54.7394 52.096 53.2645 52.3897ZM35.524 55.1197C35.9662 55.5144 36.0237 55.6567 36.0237 56.3551C36.0237 57.0535 35.9662 57.1958 35.524 57.5905C34.5642 58.4473 33.0793 58.0684 32.7518 56.8832C32.2808 55.1789 34.2132 53.9496 35.524 55.1197ZM45.2263 54.9681C46.1773 55.5474 46.23 57.0175 45.3251 57.7284C44.3955 58.4591 42.8066 57.8764 42.5905 56.7255C42.3046 55.203 43.8837 54.1503 45.2263 54.9681ZM55.3172 55.1934C56.7295 56.6044 55.1525 58.6934 53.3086 57.8539C52.8047 57.6246 52.4713 56.9944 52.4713 56.271C52.4713 55.4395 53.2781 54.6737 54.1544 54.6737C54.6811 54.6737 54.8908 54.7674 55.3172 55.1934Z" fill="url(#paint0_linear_525_754)"/>
<defs>
<linearGradient id="paint0_linear_525_754" x1="39.1986" y1="0.411987" x2="39.1986" y2="78.6725" gradientUnits="userSpaceOnUse">
<stop stop-color="#FE9F5A"/>
<stop offset="1" stop-color="#FF7600"/>
</linearGradient>
</defs>
</svg>
