<svg width="160" height="149" viewBox="0 0 160 149" fill="none" xmlns="http://www.w3.org/2000/svg">
<path d="M27.832 122.412V114.236L24.456 120.428H23.464L20.072 114.236V122.412H18.28V111.052H20.2L23.96 117.996L27.72 111.052H29.64V122.412H27.832ZM35.5459 111.052H37.1139L41.5939 122.412H39.7059L38.5059 119.324H34.1219L32.9379 122.412H31.0339L35.5459 111.052ZM38.1539 117.996L36.3299 113.116L34.4419 117.996H38.1539ZM42.9988 122.412V111.052H47.9428C48.4548 111.052 48.9241 111.159 49.3508 111.372C49.7881 111.585 50.1614 111.868 50.4708 112.22C50.7801 112.561 51.0201 112.956 51.1908 113.404C51.3721 113.841 51.4628 114.289 51.4628 114.748C51.4628 115.132 51.4094 115.5 51.3028 115.852C51.1961 116.204 51.0468 116.529 50.8548 116.828C50.6628 117.127 50.4281 117.388 50.1508 117.612C49.8734 117.825 49.5694 117.985 49.2388 118.092L51.9108 122.412H49.8788L47.4148 118.46H44.7908V122.412H42.9988ZM44.7908 116.876H47.9268C48.1828 116.876 48.4121 116.823 48.6148 116.716C48.8281 116.599 49.0094 116.444 49.1588 116.252C49.3081 116.049 49.4254 115.82 49.5108 115.564C49.5961 115.308 49.6388 115.036 49.6388 114.748C49.6388 114.46 49.5854 114.188 49.4788 113.932C49.3828 113.676 49.2494 113.452 49.0788 113.26C48.9188 113.068 48.7268 112.919 48.5028 112.812C48.2894 112.695 48.0654 112.636 47.8308 112.636H44.7908V116.876ZM53.5769 122.412V111.068H55.3689V116.908L60.7129 111.052H62.6969L58.2169 116.076L62.9529 122.412H60.9529L57.1129 117.18L55.3689 118.988V122.412H53.5769ZM71.9314 120.828V122.412H64.1394V111.052H71.7874V112.636H65.9314V115.868H71.0034V117.356H65.9314V120.828H71.9314ZM82.116 112.636H78.34V122.412H76.532V112.636H72.74V111.052H82.116V112.636ZM83.6394 122.412V111.052H88.4074C88.9194 111.052 89.3887 111.159 89.8154 111.372C90.2527 111.585 90.626 111.868 90.9354 112.22C91.2447 112.561 91.4847 112.956 91.6554 113.404C91.8367 113.841 91.9274 114.289 91.9274 114.748C91.9274 115.228 91.842 115.692 91.6714 116.14C91.5114 116.577 91.282 116.972 90.9834 117.324C90.6847 117.665 90.322 117.943 89.8954 118.156C89.4794 118.359 89.0154 118.46 88.5034 118.46H85.4314V122.412H83.6394ZM85.4314 116.876H88.3914C88.6474 116.876 88.8767 116.823 89.0794 116.716C89.2927 116.609 89.474 116.46 89.6234 116.268C89.7727 116.076 89.89 115.852 89.9754 115.596C90.0607 115.34 90.1034 115.057 90.1034 114.748C90.1034 114.428 90.0554 114.14 89.9594 113.884C89.8634 113.628 89.73 113.409 89.5594 113.228C89.3887 113.036 89.1914 112.892 88.9674 112.796C88.754 112.689 88.53 112.636 88.2954 112.636H85.4314V116.876ZM93.6081 122.412V111.052H95.4001V120.828H101.496V122.412H93.6081ZM106.296 111.052H107.864L112.344 122.412H110.456L109.256 119.324H104.872L103.688 122.412H101.784L106.296 111.052ZM108.904 117.996L107.08 113.116L105.192 117.996H108.904ZM112.607 116.652C112.607 115.969 112.73 115.292 112.975 114.62C113.22 113.937 113.578 113.329 114.047 112.796C114.527 112.252 115.108 111.815 115.791 111.484C116.474 111.153 117.247 110.988 118.111 110.988C119.146 110.988 120.031 111.217 120.767 111.676C121.503 112.135 122.058 112.732 122.431 113.468L121.023 114.412C120.863 114.071 120.671 113.783 120.447 113.548C120.223 113.313 119.978 113.127 119.711 112.988C119.444 112.849 119.167 112.753 118.879 112.7C118.591 112.636 118.314 112.604 118.047 112.604C117.45 112.604 116.927 112.727 116.479 112.972C116.031 113.207 115.652 113.521 115.343 113.916C115.044 114.311 114.815 114.753 114.655 115.244C114.506 115.735 114.431 116.225 114.431 116.716C114.431 117.271 114.522 117.799 114.703 118.3C114.884 118.801 115.135 119.244 115.455 119.628C115.786 120.012 116.175 120.321 116.623 120.556C117.071 120.78 117.562 120.892 118.095 120.892C118.372 120.892 118.655 120.86 118.943 120.796C119.242 120.721 119.524 120.609 119.791 120.46C120.068 120.3 120.319 120.103 120.543 119.868C120.778 119.633 120.97 119.351 121.119 119.02L122.607 119.868C122.426 120.295 122.17 120.673 121.839 121.004C121.508 121.324 121.135 121.596 120.719 121.82C120.303 122.044 119.86 122.215 119.391 122.332C118.932 122.449 118.479 122.508 118.031 122.508C117.231 122.508 116.5 122.337 115.839 121.996C115.178 121.655 114.607 121.212 114.127 120.668C113.647 120.113 113.274 119.489 113.007 118.796C112.74 118.092 112.607 117.377 112.607 116.652ZM132.056 120.828V122.412H124.264V111.052H131.912V112.636H126.056V115.868H131.128V117.356H126.056V120.828H132.056ZM140.391 113.724C140.284 113.607 140.129 113.484 139.927 113.356C139.724 113.217 139.484 113.089 139.207 112.972C138.94 112.855 138.641 112.759 138.311 112.684C137.991 112.609 137.66 112.572 137.319 112.572C136.561 112.572 136.001 112.711 135.639 112.988C135.287 113.265 135.111 113.649 135.111 114.14C135.111 114.417 135.164 114.647 135.271 114.828C135.388 114.999 135.564 115.153 135.799 115.292C136.033 115.42 136.327 115.537 136.679 115.644C137.031 115.74 137.441 115.847 137.911 115.964C138.487 116.103 139.004 116.257 139.463 116.428C139.932 116.599 140.327 116.807 140.647 117.052C140.967 117.297 141.212 117.601 141.383 117.964C141.564 118.316 141.655 118.748 141.655 119.26C141.655 119.836 141.543 120.332 141.319 120.748C141.105 121.164 140.807 121.505 140.423 121.772C140.049 122.028 139.612 122.22 139.111 122.348C138.609 122.465 138.071 122.524 137.495 122.524C136.631 122.524 135.793 122.396 134.983 122.14C134.183 121.873 133.457 121.489 132.807 120.988L133.623 119.452C133.761 119.591 133.959 119.745 134.215 119.916C134.481 120.087 134.785 120.247 135.127 120.396C135.479 120.535 135.857 120.657 136.263 120.764C136.668 120.86 137.089 120.908 137.527 120.908C138.231 120.908 138.775 120.785 139.159 120.54C139.543 120.295 139.735 119.932 139.735 119.452C139.735 119.164 139.66 118.924 139.511 118.732C139.372 118.54 139.169 118.375 138.903 118.236C138.636 118.087 138.311 117.953 137.927 117.836C137.543 117.719 137.105 117.596 136.615 117.468C136.049 117.319 135.553 117.164 135.127 117.004C134.711 116.833 134.364 116.631 134.087 116.396C133.809 116.161 133.596 115.889 133.447 115.58C133.308 115.26 133.239 114.876 133.239 114.428C133.239 113.873 133.345 113.383 133.559 112.956C133.772 112.519 134.06 112.156 134.423 111.868C134.796 111.569 135.233 111.345 135.735 111.196C136.236 111.047 136.78 110.972 137.367 110.972C138.135 110.972 138.844 111.095 139.495 111.34C140.145 111.585 140.716 111.889 141.207 112.252L140.391 113.724Z" fill="#5C6A77"/>
<path d="M38.354 0.778839C37.1137 1.26797 35.8385 2.54319 35.3668 3.81842C35 4.79668 35 4.81414 35 33.9522C35 62.968 35 63.1252 35.3668 64.0685C35.8036 65.2389 36.8692 66.3919 38.0571 66.9683L38.9305 67.4051L53.0453 67.4575L67.1427 67.4924V68.8899V70.2874H66.5837C65.3259 70.3049 63.7712 71.4404 63.2297 72.768C63.02 73.2397 62.9502 74.0432 62.9502 75.7028C62.9502 77.7466 62.9851 78.0087 63.2996 78.3231C63.6489 78.6725 63.876 78.6725 79.7203 78.6725C95.5645 78.6725 95.7916 78.6725 96.141 78.3231C96.4554 78.0087 96.4904 77.7466 96.4904 75.7028C96.4904 74.0432 96.4205 73.2397 96.2109 72.768C95.6693 71.4404 94.1146 70.3049 92.8743 70.2874H92.2979V68.8899V67.4924H106.186C119.829 67.4924 120.073 67.4924 121.034 67.1256C122.327 66.6364 123.585 65.3787 124.074 64.086C124.441 63.1077 124.441 63.0903 124.441 33.9522C124.441 4.81414 124.441 4.79668 124.074 3.81842C123.585 2.52573 122.327 1.26797 121.034 0.778839L120.056 0.411987L79.6679 0.429459C39.507 0.429459 39.2799 0.429459 38.354 0.778839ZM119.27 3.3817C120.126 3.57385 120.755 4.02805 121.209 4.79668C121.558 5.37315 121.558 5.73999 121.611 29.4452L121.646 53.5173H79.7203H37.795L37.83 29.4452C37.8824 5.73999 37.8824 5.37315 38.2317 4.79668C38.6685 4.06298 39.3148 3.55639 40.0834 3.3817C40.9219 3.18954 118.431 3.17207 119.27 3.3817ZM121.611 59.4043C121.558 62.1295 121.523 62.5837 121.209 63.1077C120.755 63.8764 120.126 64.3306 119.27 64.5227C118.361 64.7498 41.0792 64.7498 40.1708 64.5227C39.3148 64.3306 38.6859 63.8764 38.2317 63.1077C37.9173 62.5837 37.8824 62.1295 37.83 59.4043L37.7601 56.3123H79.7203H121.68L121.611 59.4043ZM89.5028 68.8899V70.2874H79.7203H69.9377V68.8899V67.4924H79.7203H89.5028V68.8899ZM92.7171 73.327C93.346 73.589 93.6954 74.2703 93.6954 75.2835V75.8775H79.7203H65.7452V75.2835C65.7452 74.3053 66.0946 73.589 66.6885 73.327C67.5095 72.9776 91.8611 72.9776 92.7171 73.327Z" fill="url(#paint0_linear_525_757)"/>
<path d="M54.9667 11.924C53.1324 12.6053 51.8223 13.7932 50.9313 15.6099C50.4946 16.4834 50.4597 16.7803 50.4073 18.964L50.3374 21.3747H48.608C45.9178 21.3747 46.1798 20.2217 46.1798 32.0307C46.1798 43.0186 46.1449 42.7041 47.2804 43.892C48.4682 45.1498 48.311 45.1323 57.3249 45.1323C66.2341 45.1323 66.1293 45.1498 67.2997 44.0318C68.5749 42.8089 68.54 43.2457 68.54 32.0656C68.54 20.2217 68.802 21.3747 66.1118 21.3747H64.3824L64.3125 18.964C64.2601 16.7279 64.2251 16.5008 63.7535 15.5226C63.0897 14.1775 61.762 12.8499 60.4169 12.2035C59.5086 11.7493 59.1417 11.6794 57.6219 11.627C56.2419 11.5921 55.6829 11.662 54.9667 11.924ZM59.0194 14.8937C59.8929 15.2955 60.7488 16.1864 61.1332 17.0948C61.3078 17.514 61.4476 18.5098 61.5175 19.5754L61.6048 21.3747H57.3599H53.115L53.2023 19.5754C53.342 17.0074 54.0059 15.7322 55.7003 14.8588C56.434 14.4745 58.146 14.4919 59.0194 14.8937ZM65.7449 32.4674C65.7449 41.6909 65.7275 41.7783 64.6968 42.1451C63.8932 42.4072 50.8265 42.4072 50.023 42.1451C48.9923 41.7783 48.9748 41.6909 48.9748 32.4674V24.1697H57.3599H65.7449V32.4674Z" fill="url(#paint1_linear_525_757)"/>
<path d="M77.2747 13.339C76.9428 13.6709 76.9253 13.9154 76.9253 17.1821C76.9253 20.4488 76.9428 20.6933 77.2747 21.0253C77.624 21.3746 77.8511 21.3746 95.0929 21.3746C112.335 21.3746 112.562 21.3746 112.911 21.0253C113.243 20.6933 113.261 20.4488 113.261 17.1821C113.261 13.9154 113.243 13.6709 112.911 13.339C112.562 12.9896 112.335 12.9896 95.0929 12.9896C77.8511 12.9896 77.624 12.9896 77.2747 13.339ZM110.466 17.1821V18.5796H95.0929H79.7203V17.1821V15.7846H95.0929H110.466V17.1821Z" fill="url(#paint2_linear_525_757)"/>
<path d="M77.2747 25.9165C77.0476 26.1436 76.9253 26.493 76.9253 26.9647C76.9253 27.4363 77.0476 27.7857 77.2747 28.0128C77.6066 28.3447 77.8511 28.3622 83.9128 28.3622C89.9745 28.3622 90.2191 28.3447 90.551 28.0128C90.7781 27.7857 90.9004 27.4363 90.9004 26.9647C90.9004 26.493 90.7781 26.1436 90.551 25.9165C90.2191 25.5846 89.9745 25.5672 83.9128 25.5672C77.8511 25.5672 77.6066 25.5846 77.2747 25.9165Z" fill="url(#paint3_linear_525_757)"/>
<path d="M94.0447 25.9165C93.8176 26.1436 93.6953 26.493 93.6953 26.9647C93.6953 27.4363 93.8176 27.7857 94.0447 28.0128C94.3766 28.3447 94.6212 28.3622 103.478 28.3622C112.335 28.3622 112.579 28.3447 112.911 28.0128C113.138 27.7857 113.26 27.4363 113.26 26.9647C113.26 26.493 113.138 26.1436 112.911 25.9165C112.579 25.5846 112.335 25.5672 103.478 25.5672C94.6212 25.5672 94.3766 25.5846 94.0447 25.9165Z" fill="url(#paint4_linear_525_757)"/>
<path d="M77.2747 31.5066C77.0476 31.7337 76.9253 32.0831 76.9253 32.5548C76.9253 33.0264 77.0476 33.3758 77.2747 33.6029C77.624 33.9523 77.8511 33.9523 88.1054 33.9523C98.3596 33.9523 98.5867 33.9523 98.9361 33.6029C99.1632 33.3758 99.2854 33.0264 99.2854 32.5548C99.2854 32.0831 99.1632 31.7337 98.9361 31.5066C98.5867 31.1573 98.3596 31.1573 88.1054 31.1573C77.8511 31.1573 77.624 31.1573 77.2747 31.5066Z" fill="url(#paint5_linear_525_757)"/>
<path d="M102.43 31.5066C102.203 31.7337 102.081 32.0831 102.081 32.5548C102.081 33.0264 102.203 33.3758 102.43 33.6029C102.762 33.9348 103.006 33.9523 107.671 33.9523C112.335 33.9523 112.579 33.9348 112.911 33.6029C113.138 33.3758 113.261 33.0264 113.261 32.5548C113.261 32.0831 113.138 31.7337 112.911 31.5066C112.579 31.1747 112.335 31.1573 107.671 31.1573C103.006 31.1573 102.762 31.1747 102.43 31.5066Z" fill="url(#paint6_linear_525_757)"/>
<path d="M77.2747 37.0966C77.0476 37.3237 76.9253 37.6731 76.9253 38.1447C76.9253 38.6164 77.0476 38.9658 77.2747 39.1929C77.6066 39.5248 77.8511 39.5422 86.0091 39.5422C94.1671 39.5422 94.4116 39.5248 94.7435 39.1929C94.9706 38.9658 95.0929 38.6164 95.0929 38.1447C95.0929 37.6731 94.9706 37.3237 94.7435 37.0966C94.4116 36.7647 94.1671 36.7472 86.0091 36.7472C77.8511 36.7472 77.6066 36.7647 77.2747 37.0966Z" fill="url(#paint7_linear_525_757)"/>
<path d="M98.2376 37.0966C98.0105 37.3237 97.8882 37.6731 97.8882 38.1447C97.8882 38.6164 98.0105 38.9658 98.2376 39.1929C98.5695 39.5248 98.814 39.5422 105.574 39.5422C112.335 39.5422 112.579 39.5248 112.911 39.1929C113.138 38.9658 113.261 38.6164 113.261 38.1447C113.261 37.6731 113.138 37.3237 112.911 37.0966C112.579 36.7647 112.335 36.7472 105.574 36.7472C98.814 36.7472 98.5695 36.7647 98.2376 37.0966Z" fill="url(#paint8_linear_525_757)"/>
<path d="M77.2747 42.6867C77.0476 42.9138 76.9253 43.2632 76.9253 43.7348C76.9253 44.2065 77.0476 44.5559 77.2747 44.7829C77.6066 45.1149 77.8511 45.1323 81.8166 45.1323C85.782 45.1323 86.0266 45.1149 86.3585 44.7829C86.5856 44.5559 86.7079 44.2065 86.7079 43.7348C86.7079 43.2632 86.5856 42.9138 86.3585 42.6867C86.0266 42.3548 85.782 42.3373 81.8166 42.3373C77.8511 42.3373 77.6066 42.3548 77.2747 42.6867Z" fill="url(#paint9_linear_525_757)"/>
<path d="M89.8523 42.6867C89.6252 42.9138 89.5029 43.2632 89.5029 43.7348C89.5029 44.2065 89.6252 44.5559 89.8523 44.7829C90.1842 45.1149 90.4288 45.1323 99.2855 45.1323C108.142 45.1323 108.387 45.1149 108.719 44.7829C108.946 44.5559 109.068 44.2065 109.068 43.7348C109.068 43.2632 108.946 42.9138 108.719 42.6867C108.387 42.3548 108.142 42.3373 99.2855 42.3373C90.4288 42.3373 90.1842 42.3548 89.8523 42.6867Z" fill="url(#paint10_linear_525_757)"/>
<path d="M110.815 59.4567C110.588 59.6838 110.465 60.0332 110.465 60.5048C110.465 61.4307 110.937 61.9023 111.863 61.9023C112.789 61.9023 113.26 61.4307 113.26 60.5048C113.26 60.0332 113.138 59.6838 112.911 59.4567C112.684 59.2296 112.334 59.1073 111.863 59.1073C111.391 59.1073 111.042 59.2296 110.815 59.4567Z" fill="url(#paint11_linear_525_757)"/>
<defs>
<linearGradient id="paint0_linear_525_757" x1="79.7203" y1="78.6725" x2="79.7203" y2="0.411995" gradientUnits="userSpaceOnUse">
<stop stop-color="#FF7600"/>
<stop offset="1" stop-color="#FFA456"/>
</linearGradient>
<linearGradient id="paint1_linear_525_757" x1="57.3599" y1="45.1323" x2="57.3599" y2="11.6187" gradientUnits="userSpaceOnUse">
<stop stop-color="#FF7600"/>
<stop offset="1" stop-color="#FFA456"/>
</linearGradient>
<linearGradient id="paint2_linear_525_757" x1="95.0929" y1="21.3746" x2="95.0929" y2="12.9896" gradientUnits="userSpaceOnUse">
<stop stop-color="#FF7600"/>
<stop offset="1" stop-color="#FFA456"/>
</linearGradient>
<linearGradient id="paint3_linear_525_757" x1="83.9128" y1="28.3622" x2="83.9128" y2="25.5672" gradientUnits="userSpaceOnUse">
<stop stop-color="#FF7600"/>
<stop offset="1" stop-color="#FFA456"/>
</linearGradient>
<linearGradient id="paint4_linear_525_757" x1="103.478" y1="28.3622" x2="103.478" y2="25.5672" gradientUnits="userSpaceOnUse">
<stop stop-color="#FF7600"/>
<stop offset="1" stop-color="#FFA456"/>
</linearGradient>
<linearGradient id="paint5_linear_525_757" x1="88.1054" y1="33.9523" x2="88.1054" y2="31.1573" gradientUnits="userSpaceOnUse">
<stop stop-color="#FF7600"/>
<stop offset="1" stop-color="#FFA456"/>
</linearGradient>
<linearGradient id="paint6_linear_525_757" x1="107.671" y1="33.9523" x2="107.671" y2="31.1573" gradientUnits="userSpaceOnUse">
<stop stop-color="#FF7600"/>
<stop offset="1" stop-color="#FFA456"/>
</linearGradient>
<linearGradient id="paint7_linear_525_757" x1="86.0091" y1="39.5422" x2="86.0091" y2="36.7472" gradientUnits="userSpaceOnUse">
<stop stop-color="#FF7600"/>
<stop offset="1" stop-color="#FFA456"/>
</linearGradient>
<linearGradient id="paint8_linear_525_757" x1="105.574" y1="39.5422" x2="105.574" y2="36.7472" gradientUnits="userSpaceOnUse">
<stop stop-color="#FF7600"/>
<stop offset="1" stop-color="#FFA456"/>
</linearGradient>
<linearGradient id="paint9_linear_525_757" x1="81.8166" y1="45.1323" x2="81.8166" y2="42.3373" gradientUnits="userSpaceOnUse">
<stop stop-color="#FF7600"/>
<stop offset="1" stop-color="#FFA456"/>
</linearGradient>
<linearGradient id="paint10_linear_525_757" x1="99.2855" y1="45.1323" x2="99.2855" y2="42.3373" gradientUnits="userSpaceOnUse">
<stop stop-color="#FF7600"/>
<stop offset="1" stop-color="#FFA456"/>
</linearGradient>
<linearGradient id="paint11_linear_525_757" x1="111.863" y1="61.9023" x2="111.863" y2="59.1073" gradientUnits="userSpaceOnUse">
<stop stop-color="#FF7600"/>
<stop offset="1" stop-color="#FFA456"/>
</linearGradient>
</defs>
</svg>
