<svg width="90" height="79" viewBox="0 0 90 79" fill="none" xmlns="http://www.w3.org/2000/svg">
<path d="M3.35402 0.778839C2.11373 1.26797 0.838505 2.54319 0.366846 3.81842C0 4.79668 0 4.81414 0 33.9522C0 62.968 0 63.1252 0.366846 64.0685C0.803567 65.2389 1.86917 66.3919 3.05705 66.9683L3.93049 67.4051L18.0453 67.4575L32.1427 67.4924V68.8899V70.2874H31.5837C30.3259 70.3049 28.7712 71.4404 28.2297 72.768C28.02 73.2397 27.9502 74.0432 27.9502 75.7028C27.9502 77.7466 27.9851 78.0087 28.2996 78.3231C28.6489 78.6725 28.876 78.6725 44.7203 78.6725C60.5645 78.6725 60.7916 78.6725 61.141 78.3231C61.4554 78.0087 61.4904 77.7466 61.4904 75.7028C61.4904 74.0432 61.4205 73.2397 61.2109 72.768C60.6693 71.4404 59.1146 70.3049 57.8743 70.2874H57.2979V68.8899V67.4924H71.1856C84.8288 67.4924 85.0733 67.4924 86.0341 67.1256C87.3268 66.6364 88.5846 65.3787 89.0737 64.086C89.4406 63.1077 89.4406 63.0903 89.4406 33.9522C89.4406 4.81414 89.4406 4.79668 89.0737 3.81842C88.5846 2.52573 87.3268 1.26797 86.0341 0.778839L85.0559 0.411987L44.6679 0.429459C4.50697 0.429459 4.27987 0.429459 3.35402 0.778839ZM84.2698 3.3817C85.1257 3.57385 85.7546 4.02805 86.2088 4.79668C86.5582 5.37315 86.5582 5.73999 86.6106 29.4452L86.6455 53.5173H44.7203H2.79502L2.82996 29.4452C2.88236 5.73999 2.88236 5.37315 3.23174 4.79668C3.66846 4.06298 4.31481 3.55639 5.08344 3.3817C5.92194 3.18954 83.4313 3.17207 84.2698 3.3817ZM86.6106 59.4043C86.5582 62.1295 86.5233 62.5837 86.2088 63.1077C85.7546 63.8764 85.1257 64.3306 84.2698 64.5227C83.3614 64.7498 6.07916 64.7498 5.17078 64.5227C4.31481 64.3306 3.68593 63.8764 3.23174 63.1077C2.9173 62.5837 2.88236 62.1295 2.82996 59.4043L2.76008 56.3123H44.7203H86.6805L86.6106 59.4043ZM54.5028 68.8899V70.2874H44.7203H34.9377V68.8899V67.4924H44.7203H54.5028V68.8899ZM57.7171 73.327C58.346 73.589 58.6954 74.2703 58.6954 75.2835V75.8775H44.7203H30.7452V75.2835C30.7452 74.3053 31.0946 73.589 31.6885 73.327C32.5095 72.9776 56.8611 72.9776 57.7171 73.327Z" fill="url(#paint0_linear_525_761)"/>
<path d="M19.9667 11.924C18.1324 12.6053 16.8223 13.7932 15.9313 15.6099C15.4946 16.4834 15.4597 16.7803 15.4073 18.964L15.3374 21.3747H13.608C10.9178 21.3747 11.1798 20.2217 11.1798 32.0307C11.1798 43.0186 11.1449 42.7041 12.2804 43.892C13.4682 45.1498 13.311 45.1323 22.3249 45.1323C31.2341 45.1323 31.1293 45.1498 32.2997 44.0318C33.5749 42.8089 33.54 43.2457 33.54 32.0656C33.54 20.2217 33.802 21.3747 31.1118 21.3747H29.3824L29.3125 18.964C29.2601 16.7279 29.2251 16.5008 28.7535 15.5226C28.0897 14.1775 26.762 12.8499 25.4169 12.2035C24.5086 11.7493 24.1417 11.6794 22.6219 11.627C21.2419 11.5921 20.6829 11.662 19.9667 11.924ZM24.0194 14.8937C24.8929 15.2955 25.7488 16.1864 26.1332 17.0948C26.3078 17.514 26.4476 18.5098 26.5175 19.5754L26.6048 21.3747H22.3599H18.115L18.2023 19.5754C18.342 17.0074 19.0059 15.7322 20.7003 14.8588C21.434 14.4745 23.146 14.4919 24.0194 14.8937ZM30.7449 32.4674C30.7449 41.6909 30.7275 41.7783 29.6968 42.1451C28.8932 42.4072 15.8265 42.4072 15.023 42.1451C13.9923 41.7783 13.9748 41.6909 13.9748 32.4674V24.1697H22.3599H30.7449V32.4674Z" fill="url(#paint1_linear_525_761)"/>
<path d="M42.2747 13.339C41.9428 13.6709 41.9253 13.9154 41.9253 17.1821C41.9253 20.4488 41.9428 20.6933 42.2747 21.0253C42.624 21.3746 42.8511 21.3746 60.0929 21.3746C77.3347 21.3746 77.5618 21.3746 77.9111 21.0253C78.2431 20.6933 78.2605 20.4488 78.2605 17.1821C78.2605 13.9154 78.2431 13.6709 77.9111 13.339C77.5618 12.9896 77.3347 12.9896 60.0929 12.9896C42.8511 12.9896 42.624 12.9896 42.2747 13.339ZM75.4655 17.1821V18.5796H60.0929H44.7203V17.1821V15.7846H60.0929H75.4655V17.1821Z" fill="url(#paint2_linear_525_761)"/>
<path d="M42.2747 25.9165C42.0476 26.1436 41.9253 26.493 41.9253 26.9647C41.9253 27.4363 42.0476 27.7857 42.2747 28.0128C42.6066 28.3447 42.8511 28.3622 48.9128 28.3622C54.9745 28.3622 55.2191 28.3447 55.551 28.0128C55.7781 27.7857 55.9004 27.4363 55.9004 26.9647C55.9004 26.493 55.7781 26.1436 55.551 25.9165C55.2191 25.5846 54.9745 25.5672 48.9128 25.5672C42.8511 25.5672 42.6066 25.5846 42.2747 25.9165Z" fill="url(#paint3_linear_525_761)"/>
<path d="M59.0447 25.9165C58.8176 26.1436 58.6953 26.493 58.6953 26.9647C58.6953 27.4363 58.8176 27.7857 59.0447 28.0128C59.3766 28.3447 59.6212 28.3622 68.4779 28.3622C77.3346 28.3622 77.5792 28.3447 77.9111 28.0128C78.1382 27.7857 78.2604 27.4363 78.2604 26.9647C78.2604 26.493 78.1382 26.1436 77.9111 25.9165C77.5792 25.5846 77.3346 25.5672 68.4779 25.5672C59.6212 25.5672 59.3766 25.5846 59.0447 25.9165Z" fill="url(#paint4_linear_525_761)"/>
<path d="M42.2747 31.5066C42.0476 31.7337 41.9253 32.0831 41.9253 32.5548C41.9253 33.0264 42.0476 33.3758 42.2747 33.6029C42.624 33.9523 42.8511 33.9523 53.1054 33.9523C63.3596 33.9523 63.5867 33.9523 63.9361 33.6029C64.1632 33.3758 64.2854 33.0264 64.2854 32.5548C64.2854 32.0831 64.1632 31.7337 63.9361 31.5066C63.5867 31.1573 63.3596 31.1573 53.1054 31.1573C42.8511 31.1573 42.624 31.1573 42.2747 31.5066Z" fill="url(#paint5_linear_525_761)"/>
<path d="M67.4299 31.5066C67.2028 31.7337 67.0806 32.0831 67.0806 32.5548C67.0806 33.0264 67.2028 33.3758 67.4299 33.6029C67.7619 33.9348 68.0064 33.9523 72.6706 33.9523C77.3348 33.9523 77.5794 33.9348 77.9113 33.6029C78.1384 33.3758 78.2606 33.0264 78.2606 32.5548C78.2606 32.0831 78.1384 31.7337 77.9113 31.5066C77.5794 31.1747 77.3348 31.1573 72.6706 31.1573C68.0064 31.1573 67.7619 31.1747 67.4299 31.5066Z" fill="url(#paint6_linear_525_761)"/>
<path d="M42.2747 37.0966C42.0476 37.3237 41.9253 37.6731 41.9253 38.1447C41.9253 38.6164 42.0476 38.9658 42.2747 39.1929C42.6066 39.5248 42.8511 39.5422 51.0091 39.5422C59.1671 39.5422 59.4116 39.5248 59.7435 39.1929C59.9706 38.9658 60.0929 38.6164 60.0929 38.1447C60.0929 37.6731 59.9706 37.3237 59.7435 37.0966C59.4116 36.7647 59.1671 36.7472 51.0091 36.7472C42.8511 36.7472 42.6066 36.7647 42.2747 37.0966Z" fill="url(#paint7_linear_525_761)"/>
<path d="M63.2376 37.0966C63.0105 37.3237 62.8882 37.6731 62.8882 38.1447C62.8882 38.6164 63.0105 38.9658 63.2376 39.1929C63.5695 39.5248 63.814 39.5422 70.5745 39.5422C77.3349 39.5422 77.5795 39.5248 77.9114 39.1929C78.1385 38.9658 78.2608 38.6164 78.2608 38.1447C78.2608 37.6731 78.1385 37.3237 77.9114 37.0966C77.5795 36.7647 77.3349 36.7472 70.5745 36.7472C63.814 36.7472 63.5695 36.7647 63.2376 37.0966Z" fill="url(#paint8_linear_525_761)"/>
<path d="M42.2747 42.6867C42.0476 42.9138 41.9253 43.2632 41.9253 43.7348C41.9253 44.2065 42.0476 44.5559 42.2747 44.7829C42.6066 45.1149 42.8511 45.1323 46.8166 45.1323C50.782 45.1323 51.0266 45.1149 51.3585 44.7829C51.5856 44.5559 51.7079 44.2065 51.7079 43.7348C51.7079 43.2632 51.5856 42.9138 51.3585 42.6867C51.0266 42.3548 50.782 42.3373 46.8166 42.3373C42.8511 42.3373 42.6066 42.3548 42.2747 42.6867Z" fill="url(#paint9_linear_525_761)"/>
<path d="M54.8523 42.6867C54.6252 42.9138 54.5029 43.2632 54.5029 43.7348C54.5029 44.2065 54.6252 44.5559 54.8523 44.7829C55.1842 45.1149 55.4288 45.1323 64.2855 45.1323C73.1422 45.1323 73.3868 45.1149 73.7187 44.7829C73.9458 44.5559 74.0681 44.2065 74.0681 43.7348C74.0681 43.2632 73.9458 42.9138 73.7187 42.6867C73.3868 42.3548 73.1422 42.3373 64.2855 42.3373C55.4288 42.3373 55.1842 42.3548 54.8523 42.6867Z" fill="url(#paint10_linear_525_761)"/>
<path d="M75.8147 59.4567C75.5876 59.6838 75.4653 60.0332 75.4653 60.5048C75.4653 61.4307 75.937 61.9023 76.8628 61.9023C77.7887 61.9023 78.2603 61.4307 78.2603 60.5048C78.2603 60.0332 78.1381 59.6838 77.911 59.4567C77.6839 59.2296 77.3345 59.1073 76.8628 59.1073C76.3912 59.1073 76.0418 59.2296 75.8147 59.4567Z" fill="url(#paint11_linear_525_761)"/>
<defs>
<linearGradient id="paint0_linear_525_761" x1="44.7203" y1="78.6725" x2="44.7203" y2="0.411995" gradientUnits="userSpaceOnUse">
<stop stop-color="#FF7600"/>
<stop offset="1" stop-color="#FFA456"/>
</linearGradient>
<linearGradient id="paint1_linear_525_761" x1="22.3599" y1="45.1323" x2="22.3599" y2="11.6187" gradientUnits="userSpaceOnUse">
<stop stop-color="#FF7600"/>
<stop offset="1" stop-color="#FFA456"/>
</linearGradient>
<linearGradient id="paint2_linear_525_761" x1="60.0929" y1="21.3746" x2="60.0929" y2="12.9896" gradientUnits="userSpaceOnUse">
<stop stop-color="#FF7600"/>
<stop offset="1" stop-color="#FFA456"/>
</linearGradient>
<linearGradient id="paint3_linear_525_761" x1="48.9128" y1="28.3622" x2="48.9128" y2="25.5672" gradientUnits="userSpaceOnUse">
<stop stop-color="#FF7600"/>
<stop offset="1" stop-color="#FFA456"/>
</linearGradient>
<linearGradient id="paint4_linear_525_761" x1="68.4779" y1="28.3622" x2="68.4779" y2="25.5672" gradientUnits="userSpaceOnUse">
<stop stop-color="#FF7600"/>
<stop offset="1" stop-color="#FFA456"/>
</linearGradient>
<linearGradient id="paint5_linear_525_761" x1="53.1054" y1="33.9523" x2="53.1054" y2="31.1573" gradientUnits="userSpaceOnUse">
<stop stop-color="#FF7600"/>
<stop offset="1" stop-color="#FFA456"/>
</linearGradient>
<linearGradient id="paint6_linear_525_761" x1="72.6706" y1="33.9523" x2="72.6706" y2="31.1573" gradientUnits="userSpaceOnUse">
<stop stop-color="#FF7600"/>
<stop offset="1" stop-color="#FFA456"/>
</linearGradient>
<linearGradient id="paint7_linear_525_761" x1="51.0091" y1="39.5422" x2="51.0091" y2="36.7472" gradientUnits="userSpaceOnUse">
<stop stop-color="#FF7600"/>
<stop offset="1" stop-color="#FFA456"/>
</linearGradient>
<linearGradient id="paint8_linear_525_761" x1="70.5745" y1="39.5422" x2="70.5745" y2="36.7472" gradientUnits="userSpaceOnUse">
<stop stop-color="#FF7600"/>
<stop offset="1" stop-color="#FFA456"/>
</linearGradient>
<linearGradient id="paint9_linear_525_761" x1="46.8166" y1="45.1323" x2="46.8166" y2="42.3373" gradientUnits="userSpaceOnUse">
<stop stop-color="#FF7600"/>
<stop offset="1" stop-color="#FFA456"/>
</linearGradient>
<linearGradient id="paint10_linear_525_761" x1="64.2855" y1="45.1323" x2="64.2855" y2="42.3373" gradientUnits="userSpaceOnUse">
<stop stop-color="#FF7600"/>
<stop offset="1" stop-color="#FFA456"/>
</linearGradient>
<linearGradient id="paint11_linear_525_761" x1="76.8628" y1="61.9023" x2="76.8628" y2="59.1073" gradientUnits="userSpaceOnUse">
<stop stop-color="#FF7600"/>
<stop offset="1" stop-color="#FFA456"/>
</linearGradient>
</defs>
</svg>
