<svg width="84" height="79" viewBox="0 0 84 79" fill="none" xmlns="http://www.w3.org/2000/svg">
<path d="M6.25692 0.698608C4.47558 1.34053 2.98311 2.68857 2.03628 4.48595C0.864772 6.70058 0.945012 4.8711 0.945012 31.7516C0.945012 58.6321 0.864772 56.8026 2.03628 59.0172C2.99916 60.8467 4.50768 62.1787 6.36925 62.8206C7.17166 63.0934 7.78148 63.1255 12.9971 63.1255H18.7423L19.1595 62.7564C19.4805 62.4997 19.6089 62.1947 19.6731 61.6652C19.7533 61.0072 19.7052 60.8628 19.2719 60.3813L18.7904 59.8357L13.1094 59.7554C7.55681 59.6752 7.42842 59.6752 6.85069 59.3061C6.03224 58.8086 5.31008 57.926 4.81259 56.8668L4.39534 55.9841L4.3472 40.5299L4.3151 25.0916H39.1394H73.9636V33.1959V41.3002H73.2415C72.3749 41.3002 71.6688 41.573 70.9627 42.1668L70.4491 42.6001L69.0369 42.0384L67.6247 41.4767L67.5284 40.6904C67.3839 39.6151 66.9827 38.8288 66.2285 38.1869C65.3137 37.4005 64.5595 37.24 61.9918 37.3203C59.8895 37.3684 59.713 37.4005 58.9908 37.8178C57.9958 38.4115 57.2737 39.6151 57.2737 40.7064C57.2737 41.3804 57.2255 41.4928 56.8404 41.6532C56.5836 41.7495 55.9417 42.0223 55.396 42.2791C54.4332 42.7124 54.4011 42.7124 54.1282 42.4075C53.2617 41.4446 51.1915 41.0274 49.9237 41.5409C49.2175 41.8458 46.4573 44.5098 46.04 45.3122C45.366 46.6442 45.5265 48.1848 46.4733 49.4365L47.019 50.1587L46.4573 51.4586L45.8956 52.7745L45.1092 52.8708C44.0501 53.0153 43.2637 53.4004 42.6057 54.1386C41.8675 54.9571 41.7071 55.615 41.7071 57.8618V59.7554H36.8926C31.5647 59.7554 31.3561 59.7875 30.8586 60.7344C30.5537 61.3281 30.666 62.1145 31.0993 62.6762L31.4042 63.0453L38.6579 63.1255L45.8956 63.2058L46.4573 64.6019L47.035 66.0142L46.5857 66.5277C45.9437 67.298 45.7191 67.972 45.7191 69.0633C45.7191 70.4113 46.04 70.9409 47.9979 72.8506C49.5225 74.3431 49.7311 74.5036 50.5495 74.6801C51.7371 74.9369 52.8284 74.6962 53.8233 73.9419C54.5294 73.3963 54.5455 73.3802 55.059 73.653C55.3479 73.7975 55.9417 74.0382 56.375 74.1987L57.1934 74.4715L57.2897 75.3702C57.4181 76.5096 58.044 77.6009 58.9106 78.1786C59.5525 78.5958 59.6648 78.6119 62.1362 78.66C65.1051 78.7242 65.747 78.5638 66.5976 77.6169C67.2556 76.8627 67.5444 76.1405 67.5444 75.2899V74.5999L69.0048 73.974L70.4652 73.3642L70.8824 73.7654C71.6688 74.4875 72.3588 74.7443 73.4982 74.7443C74.3327 74.7443 74.6858 74.6641 75.2635 74.3271C76.098 73.8296 78.4571 71.4545 78.8262 70.7323C79.4842 69.4485 79.2916 67.7634 78.3769 66.6882L77.8312 66.0623L78.425 64.5859L79.0027 63.1255H79.7409C81.1532 63.1095 82.5654 62.0824 82.9505 60.7665C83.0629 60.3813 83.111 59.1938 83.0789 57.6531C83.0308 55.1817 83.0308 55.1496 82.5654 54.4756C81.9556 53.609 80.9445 53.0153 79.8533 52.9029L79.0027 52.8227L78.425 51.4586L77.8473 50.0945L78.3929 49.3884C79.0509 48.5218 79.3237 47.575 79.2113 46.5639C79.099 45.6331 78.8422 45.1196 77.9917 44.1567L77.3337 43.4185V25.7817C77.3337 10.857 77.2856 7.98442 77.093 7.03759C76.5313 4.37361 74.8944 2.14293 72.7119 1.06771L71.4922 0.457886L39.3159 0.425789C7.70124 0.393692 7.10746 0.393692 6.25692 0.698608ZM71.3478 4.22918C72.3107 4.77481 72.8082 5.36859 73.4341 6.71663L73.8834 7.67951L73.9315 14.6925L73.9797 21.7216H39.1394H4.29905L4.3472 14.6123L4.39534 7.51903L4.86074 6.52405C5.35823 5.44883 6.36925 4.35757 7.2519 3.98846C7.68519 3.79588 12.7243 3.76379 39.1394 3.74773H70.5133L71.3478 4.22918ZM64.1743 42.1026C64.2867 44.0925 64.2867 44.0925 66.6618 44.8307C67.2877 45.0233 68.3147 45.4727 68.9566 45.8097C70.6898 46.7405 71.2194 46.6923 72.5033 45.5208L73.4982 44.6221L74.7019 45.8097L75.8894 46.9812L75.1031 47.7996C73.7069 49.2279 73.6748 49.5649 74.6698 51.5388C75.0549 52.3252 75.5363 53.4967 75.7289 54.1547C76.2585 55.8879 76.5313 56.1286 78.2645 56.2249L79.6607 56.3051L79.7088 58.0222L79.757 59.7554H78.5052C76.5634 59.7554 76.3067 59.9962 75.6326 62.2268C75.4722 62.7564 75.0389 63.7835 74.6537 64.5217C73.6748 66.4154 73.7069 66.7363 74.9426 68.0362L75.9376 69.0473L74.8463 70.1867C74.2365 70.7965 73.6427 71.31 73.5143 71.31C73.3859 71.31 72.8563 70.9088 72.3428 70.4274C71.1873 69.3361 70.7059 69.2719 69.2295 70.0904C68.6999 70.3953 67.4963 70.9088 66.5815 71.2137C64.3669 71.968 64.2706 72.0803 64.1904 73.8938L64.1422 75.3381L62.4251 75.2899L60.724 75.2418L60.6438 73.8456C60.5475 72.1124 60.3067 71.8396 58.5896 71.3261C57.9477 71.1335 56.7922 70.6521 56.038 70.2669C54.0641 69.2398 53.6789 69.2719 52.3951 70.5076L51.4001 71.4545L50.2446 70.299C49.6027 69.6571 49.0892 69.0633 49.0892 68.9831C49.0892 68.9028 49.4904 68.4214 49.9879 67.9239C51.1594 66.7524 51.1915 66.287 50.2446 64.5699C49.8916 63.9119 49.4101 62.7404 49.1694 61.9701C48.5756 60.0764 48.3349 59.8678 46.5536 59.7554L45.1574 59.6752V57.9902V56.3051L46.5375 56.257C48.3028 56.1928 48.5917 55.9681 49.0892 54.2831C49.2817 53.6251 49.7632 52.4536 50.1483 51.6833C51.1273 49.7094 51.1112 49.3082 49.9718 48.0725C49.4904 47.5429 49.0892 47.0454 49.0892 46.9651C49.0892 46.8849 49.5867 46.3232 50.1965 45.7294L51.3198 44.6221L52.2827 45.5208C53.6629 46.7886 53.9357 46.8207 55.9256 45.8257C56.7922 45.3764 58.0279 44.8628 58.6538 44.6863C60.2586 44.2209 60.5475 43.8679 60.6117 42.2952C60.6438 41.6211 60.6919 40.9632 60.724 40.8508C60.7882 40.7064 61.2215 40.6583 62.4411 40.6904L64.0941 40.7385L64.1743 42.1026Z" fill="url(#paint0_linear_525_778)"/>
<path d="M13.9278 7.64739C12.1946 8.3856 11.1033 9.63735 10.6379 11.4347C10.0121 13.9382 11.2157 16.5701 13.5426 17.7256C14.2327 18.0626 14.5697 18.1107 15.9498 18.1107C17.2979 18.1107 17.683 18.0465 18.2929 17.7416C19.4804 17.1639 20.2989 16.3454 20.8766 15.1739C21.358 14.211 21.4062 13.9703 21.4062 12.7346C21.3901 11.6754 21.3099 11.194 21.0371 10.5842C20.4914 9.38058 19.689 8.51398 18.5657 7.92021C17.683 7.43876 17.3781 7.37457 16.1906 7.32643C15.0351 7.27828 14.682 7.32643 13.9278 7.64739ZM17.009 11.0175C17.3139 11.2101 17.683 11.6594 17.8596 11.9964C18.2287 12.7667 18.0361 13.5531 17.3139 14.2592C16.8806 14.6764 16.6881 14.7406 15.9498 14.7406C15.2116 14.7406 15.0191 14.6764 14.6018 14.2752C14.008 13.6975 13.7513 12.9111 13.9438 12.2371C14.1204 11.6273 14.3611 11.3224 14.987 10.9372C15.6289 10.5521 16.351 10.5681 17.009 11.0175Z" fill="url(#paint1_linear_525_778)"/>
<path d="M28.2265 7.55106C26.7822 8.04855 25.8033 8.94724 25.0009 10.4879C24.6799 11.0977 24.6318 11.4507 24.6157 12.7346C24.6157 14.5801 24.9527 15.4146 26.2205 16.6824C27.376 17.8379 28.4994 18.2391 30.3128 18.1588C31.9176 18.0786 32.8965 17.6613 33.9717 16.5701C37.3579 13.1358 34.8544 7.24615 30.0239 7.27825C29.4301 7.29429 28.6277 7.40663 28.2265 7.55106ZM30.9708 10.8891C32.0139 11.4347 32.4311 13.0555 31.7411 13.9221C30.73 15.206 28.8364 15.0455 28.1623 13.6333C27.8414 12.9593 27.8414 12.526 28.1302 11.9643C28.7401 10.7928 29.9116 10.3434 30.9708 10.8891Z" fill="url(#paint2_linear_525_778)"/>
<path d="M47.372 7.50302C45.8475 7.98446 44.5155 9.25225 43.9378 10.7929C43.4884 12.0125 43.5526 14.0667 44.0982 15.1419C44.5957 16.1208 45.6228 17.1639 46.6017 17.6775L47.4041 18.1108L55.9096 18.1589C65.378 18.2071 65.2817 18.2231 66.7741 17.1318C68.3148 15.9924 69.2134 13.7618 68.8604 11.9002C68.5073 10.0065 67.4321 8.56219 65.7792 7.77583L64.8965 7.35858L56.4713 7.32649C49.8755 7.31044 47.9016 7.34254 47.372 7.50302ZM64.3348 10.8892C65.8755 11.6755 65.8755 13.7938 64.3348 14.5802C63.9497 14.7888 62.6658 14.8209 56.2306 14.8209C47.8053 14.8209 47.9498 14.837 47.3239 13.8099C46.698 12.7828 47.1153 11.3385 48.1744 10.8892C48.9608 10.5361 63.6608 10.5361 64.3348 10.8892Z" fill="url(#paint3_linear_525_778)"/>
<path d="M60.323 48.2811C58.5578 48.6823 56.7283 49.6933 55.4284 51.0093C51.2559 55.1657 51.5608 61.9219 56.1024 65.7093C57.1134 66.5598 59.1836 67.5548 60.4514 67.7955C61.8155 68.0523 64.303 67.9079 65.6349 67.4746C68.3952 66.608 70.8345 64.1847 71.8295 61.3603C72.3751 59.7715 72.5196 57.268 72.1344 55.7434C71.2839 52.3734 68.7483 49.6131 65.5387 48.586C63.9178 48.0725 61.7995 47.9441 60.323 48.2811ZM63.5487 51.5709C65.6189 51.9561 67.3521 53.2881 68.2989 55.2299C68.8767 56.3854 68.9087 56.5298 68.9087 57.9741C68.8927 60.1406 68.5075 61.0714 66.999 62.5799C65.4905 64.0884 64.5597 64.4736 62.4093 64.4896C61.0292 64.4896 60.7884 64.4415 59.8095 63.9761C57.0653 62.6762 55.4765 59.8036 55.974 57.0594C56.4876 54.3152 58.3652 52.3092 61.0452 51.6351C62.0723 51.3784 62.4895 51.3784 63.5487 51.5709Z" fill="url(#paint4_linear_525_778)"/>
<path d="M25.9002 34.4476C25.515 34.7686 25.3064 35.4908 23.814 41.7816C22.8832 45.6171 22.1289 49.0032 22.1289 49.2921C22.1289 50.8809 24.7608 51.3783 25.3385 49.9019C25.4188 49.6933 26.2051 46.4676 27.1038 42.7284C28.853 35.4266 28.8851 35.0896 28.1469 34.4316C27.5692 33.9502 26.4779 33.9502 25.9002 34.4476Z" fill="url(#paint5_linear_525_778)"/>
<path d="M15.7734 35.3463C15.3241 35.5389 10.9911 40.2731 10.3974 41.2199C9.96405 41.926 9.9801 43.2099 10.4455 43.8037C11.3763 44.9912 15.1315 49.1156 15.5167 49.3563C16.2228 49.8217 16.945 49.7254 17.5708 49.0995C18.1646 48.5057 18.2769 47.8478 17.9239 47.1898C17.8276 46.9972 16.8808 45.8899 15.8376 44.7184C14.7945 43.5629 13.944 42.5359 13.944 42.4556C13.944 42.3754 14.7785 41.3804 15.8055 40.241C17.9078 37.8819 18.2128 37.4005 18.0523 36.6141C17.8757 35.6192 16.6882 34.9612 15.7734 35.3463Z" fill="url(#paint6_linear_525_778)"/>
<path d="M33.7473 35.3464C33.1695 35.6031 32.7202 36.3093 32.7202 36.9833C32.7202 37.6412 32.64 37.545 35.978 41.2842C36.4754 41.8619 36.8927 42.3915 36.8927 42.4557C36.8927 42.5199 36.0422 43.5309 34.999 44.7024C33.9399 45.8739 33.0091 46.9973 32.9128 47.1898C32.1425 48.6181 33.8275 50.239 35.2237 49.4366C35.6249 49.2119 40.0221 44.3172 40.4393 43.6272C40.7924 43.0815 40.8405 41.8779 40.5356 41.3644C40.327 40.9792 36.2187 36.3253 35.5607 35.7155C35.1274 35.3143 34.2608 35.1377 33.7473 35.3464Z" fill="url(#paint7_linear_525_778)"/>
<path d="M24.4714 59.9961C23.7974 60.3492 23.5888 60.7183 23.5728 61.4886C23.5728 62.4836 24.2147 63.1255 25.2418 63.1255C26.2367 63.1255 26.7824 62.644 26.8947 61.6651C26.9749 61.0232 26.9268 60.8627 26.5256 60.4134C25.9639 59.7875 25.1455 59.627 24.4714 59.9961Z" fill="url(#paint8_linear_525_778)"/>
<defs>
<linearGradient id="paint0_linear_525_778" x1="42.0163" y1="78.6725" x2="42.0163" y2="0.411995" gradientUnits="userSpaceOnUse">
<stop stop-color="#FF7600"/>
<stop offset="1" stop-color="#FF9E4A"/>
</linearGradient>
<linearGradient id="paint1_linear_525_778" x1="15.9399" y1="18.1107" x2="15.9399" y2="7.31047" gradientUnits="userSpaceOnUse">
<stop stop-color="#FF7600"/>
<stop offset="1" stop-color="#FF9E4A"/>
</linearGradient>
<linearGradient id="paint2_linear_525_778" x1="30.0728" y1="18.1687" x2="30.0728" y2="7.27812" gradientUnits="userSpaceOnUse">
<stop stop-color="#FF7600"/>
<stop offset="1" stop-color="#FF9E4A"/>
</linearGradient>
<linearGradient id="paint3_linear_525_778" x1="56.2885" y1="18.1755" x2="56.2885" y2="7.32278" gradientUnits="userSpaceOnUse">
<stop stop-color="#FF7600"/>
<stop offset="1" stop-color="#FF9E4A"/>
</linearGradient>
<linearGradient id="paint4_linear_525_778" x1="62.4192" y1="67.9227" x2="62.4192" y2="48.0941" gradientUnits="userSpaceOnUse">
<stop stop-color="#FF7600"/>
<stop offset="1" stop-color="#FF9E4A"/>
</linearGradient>
<linearGradient id="paint5_linear_525_778" x1="25.366" y1="50.7833" x2="25.366" y2="34.0725" gradientUnits="userSpaceOnUse">
<stop stop-color="#FF7600"/>
<stop offset="1" stop-color="#FF9E4A"/>
</linearGradient>
<linearGradient id="paint6_linear_525_778" x1="14.1039" y1="49.6478" x2="14.1039" y2="35.2348" gradientUnits="userSpaceOnUse">
<stop stop-color="#FF7600"/>
<stop offset="1" stop-color="#FF9E4A"/>
</linearGradient>
<linearGradient id="paint7_linear_525_778" x1="36.7282" y1="49.6497" x2="36.7282" y2="35.2581" gradientUnits="userSpaceOnUse">
<stop stop-color="#FF7600"/>
<stop offset="1" stop-color="#FF9E4A"/>
</linearGradient>
<linearGradient id="paint8_linear_525_778" x1="25.25" y1="63.1255" x2="25.25" y2="59.8004" gradientUnits="userSpaceOnUse">
<stop stop-color="#FF7600"/>
<stop offset="1" stop-color="#FF9E4A"/>
</linearGradient>
</defs>
</svg>
