<svg width="160" height="149" viewBox="0 0 160 149" fill="none" xmlns="http://www.w3.org/2000/svg">
<path d="M24.7253 122.412V111.052H28.7573C29.6746 111.052 30.4746 111.201 31.1573 111.5C31.8506 111.799 32.4266 112.204 32.8853 112.716C33.3546 113.228 33.7066 113.831 33.9413 114.524C34.176 115.207 34.2933 115.937 34.2933 116.716C34.2933 117.58 34.16 118.364 33.8933 119.068C33.6373 119.761 33.2693 120.359 32.7893 120.86C32.3093 121.351 31.728 121.735 31.0453 122.012C30.3626 122.279 29.6 122.412 28.7573 122.412H24.7253ZM32.4693 116.716C32.4693 116.119 32.384 115.569 32.2133 115.068C32.0533 114.567 31.8133 114.14 31.4933 113.788C31.1733 113.425 30.784 113.143 30.3253 112.94C29.8666 112.737 29.344 112.636 28.7573 112.636H26.5173V120.828H28.7573C29.3546 120.828 29.8826 120.727 30.3413 120.524C30.8106 120.311 31.2 120.023 31.5093 119.66C31.8293 119.287 32.0693 118.849 32.2293 118.348C32.3893 117.847 32.4693 117.303 32.4693 116.716ZM43.9704 120.828V122.412H36.1784V111.052H43.8264V112.636H37.9704V115.868H43.0424V117.356H37.9704V120.828H43.9704ZM46.5391 111.052L49.9631 120.156L53.3711 111.052H55.2751L50.7311 122.412H49.1951L44.6351 111.052H46.5391ZM62.9131 111.052H64.4811L68.9611 122.412H67.0731L65.8731 119.324H61.4891L60.3051 122.412H58.4011L62.9131 111.052ZM65.5211 117.996L63.6971 113.116L61.8091 117.996H65.5211ZM77.8961 121.004C76.9361 121.996 75.8321 122.492 74.5841 122.492C73.8267 122.492 73.1227 122.337 72.4721 122.028C71.8214 121.708 71.2561 121.281 70.7761 120.748C70.2961 120.215 69.9174 119.596 69.6401 118.892C69.3734 118.188 69.2401 117.452 69.2401 116.684C69.2401 115.916 69.3734 115.185 69.6401 114.492C69.9174 113.799 70.2961 113.191 70.7761 112.668C71.2561 112.145 71.8267 111.735 72.4881 111.436C73.1494 111.127 73.8694 110.972 74.6481 110.972C75.7361 110.972 76.6481 111.201 77.3841 111.66C78.1201 112.108 78.6747 112.705 79.0481 113.452L77.6721 114.444C77.3627 113.825 76.9361 113.361 76.3921 113.052C75.8481 112.743 75.2507 112.588 74.6001 112.588C74.0667 112.588 73.5814 112.705 73.1441 112.94C72.7067 113.164 72.3334 113.468 72.0241 113.852C71.7147 114.225 71.4747 114.663 71.3041 115.164C71.1441 115.665 71.0641 116.188 71.0641 116.732C71.0641 117.308 71.1547 117.847 71.3361 118.348C71.5281 118.849 71.7841 119.287 72.1041 119.66C72.4347 120.033 72.8241 120.332 73.2721 120.556C73.7201 120.769 74.2054 120.876 74.7281 120.876C75.3041 120.876 75.8534 120.743 76.3761 120.476C76.9094 120.209 77.4161 119.788 77.8961 119.212V117.996H75.5121V116.668H79.4001V122.412H77.8961V121.004ZM89.2361 120.828V122.412H81.4441V111.052H89.0921V112.636H83.2361V115.868H88.3081V117.356H83.2361V120.828H89.2361ZM92.8767 114.412V122.412H91.0847V111.052H92.4927L98.9887 119.244V111.068H100.797V122.412H99.3087L92.8767 114.412ZM102.63 116.652C102.63 115.969 102.753 115.292 102.998 114.62C103.244 113.937 103.601 113.329 104.07 112.796C104.55 112.252 105.132 111.815 105.814 111.484C106.497 111.153 107.27 110.988 108.134 110.988C109.169 110.988 110.054 111.217 110.79 111.676C111.526 112.135 112.081 112.732 112.454 113.468L111.046 114.412C110.886 114.071 110.694 113.783 110.47 113.548C110.246 113.313 110.001 113.127 109.734 112.988C109.468 112.849 109.19 112.753 108.902 112.7C108.614 112.636 108.337 112.604 108.07 112.604C107.473 112.604 106.95 112.727 106.502 112.972C106.054 113.207 105.676 113.521 105.366 113.916C105.068 114.311 104.838 114.753 104.678 115.244C104.529 115.735 104.454 116.225 104.454 116.716C104.454 117.271 104.545 117.799 104.726 118.3C104.908 118.801 105.158 119.244 105.478 119.628C105.809 120.012 106.198 120.321 106.646 120.556C107.094 120.78 107.585 120.892 108.118 120.892C108.396 120.892 108.678 120.86 108.966 120.796C109.265 120.721 109.548 120.609 109.814 120.46C110.092 120.3 110.342 120.103 110.566 119.868C110.801 119.633 110.993 119.351 111.142 119.02L112.63 119.868C112.449 120.295 112.193 120.673 111.862 121.004C111.532 121.324 111.158 121.596 110.742 121.82C110.326 122.044 109.884 122.215 109.414 122.332C108.956 122.449 108.502 122.508 108.054 122.508C107.254 122.508 106.524 122.337 105.862 121.996C105.201 121.655 104.63 121.212 104.15 120.668C103.67 120.113 103.297 119.489 103.03 118.796C102.764 118.092 102.63 117.377 102.63 116.652ZM114.288 122.412V111.052H116.08V122.412H114.288ZM126.439 120.828V122.412H118.647V111.052H126.295V112.636H120.439V115.868H125.511V117.356H120.439V120.828H126.439ZM134.773 113.724C134.667 113.607 134.512 113.484 134.309 113.356C134.107 113.217 133.867 113.089 133.589 112.972C133.323 112.855 133.024 112.759 132.693 112.684C132.373 112.609 132.043 112.572 131.701 112.572C130.944 112.572 130.384 112.711 130.021 112.988C129.669 113.265 129.493 113.649 129.493 114.14C129.493 114.417 129.547 114.647 129.653 114.828C129.771 114.999 129.947 115.153 130.181 115.292C130.416 115.42 130.709 115.537 131.061 115.644C131.413 115.74 131.824 115.847 132.293 115.964C132.869 116.103 133.387 116.257 133.845 116.428C134.315 116.599 134.709 116.807 135.029 117.052C135.349 117.297 135.595 117.601 135.765 117.964C135.947 118.316 136.037 118.748 136.037 119.26C136.037 119.836 135.925 120.332 135.701 120.748C135.488 121.164 135.189 121.505 134.805 121.772C134.432 122.028 133.995 122.22 133.493 122.348C132.992 122.465 132.453 122.524 131.877 122.524C131.013 122.524 130.176 122.396 129.365 122.14C128.565 121.873 127.84 121.489 127.189 120.988L128.005 119.452C128.144 119.591 128.341 119.745 128.597 119.916C128.864 120.087 129.168 120.247 129.509 120.396C129.861 120.535 130.24 120.657 130.645 120.764C131.051 120.86 131.472 120.908 131.909 120.908C132.613 120.908 133.157 120.785 133.541 120.54C133.925 120.295 134.117 119.932 134.117 119.452C134.117 119.164 134.043 118.924 133.893 118.732C133.755 118.54 133.552 118.375 133.285 118.236C133.019 118.087 132.693 117.953 132.309 117.836C131.925 117.719 131.488 117.596 130.997 117.468C130.432 117.319 129.936 117.164 129.509 117.004C129.093 116.833 128.747 116.631 128.469 116.396C128.192 116.161 127.979 115.889 127.829 115.58C127.691 115.26 127.621 114.876 127.621 114.428C127.621 113.873 127.728 113.383 127.941 112.956C128.155 112.519 128.443 112.156 128.805 111.868C129.179 111.569 129.616 111.345 130.117 111.196C130.619 111.047 131.163 110.972 131.749 110.972C132.517 110.972 133.227 111.095 133.877 111.34C134.528 111.585 135.099 111.889 135.589 112.252L134.773 113.724Z" fill="#5C6A77"/>
<path d="M45.2569 0.698608C43.4756 1.34053 41.9831 2.68857 41.0363 4.48595C39.8648 6.70058 39.945 4.8711 39.945 31.7516C39.945 58.6321 39.8648 56.8026 41.0363 59.0172C41.9992 60.8467 43.5077 62.1787 45.3693 62.8206C46.1717 63.0934 46.7815 63.1255 51.9971 63.1255H57.7423L58.1595 62.7564C58.4805 62.4997 58.6089 62.1947 58.6731 61.6652C58.7533 61.0072 58.7052 60.8628 58.2719 60.3813L57.7904 59.8357L52.1094 59.7554C46.5568 59.6752 46.4284 59.6752 45.8507 59.3061C45.0322 58.8086 44.3101 57.926 43.8126 56.8668L43.3953 55.9841L43.3472 40.5299L43.3151 25.0916H78.1394H112.964V33.1959V41.3002H112.241C111.375 41.3002 110.669 41.573 109.963 42.1668L109.449 42.6001L108.037 42.0384L106.625 41.4767L106.528 40.6904C106.384 39.6151 105.983 38.8288 105.228 38.1869C104.314 37.4005 103.559 37.24 100.992 37.3203C98.8895 37.3684 98.713 37.4005 97.9908 37.8178C96.9958 38.4115 96.2737 39.6151 96.2737 40.7064C96.2737 41.3804 96.2255 41.4928 95.8404 41.6532C95.5836 41.7495 94.9417 42.0223 94.396 42.2791C93.4332 42.7124 93.4011 42.7124 93.1282 42.4075C92.2617 41.4446 90.1915 41.0274 88.9237 41.5409C88.2175 41.8458 85.4573 44.5098 85.04 45.3122C84.366 46.6442 84.5265 48.1848 85.4733 49.4365L86.019 50.1587L85.4573 51.4586L84.8956 52.7745L84.1092 52.8708C83.0501 53.0153 82.2637 53.4004 81.6057 54.1386C80.8675 54.9571 80.7071 55.615 80.7071 57.8618V59.7554H75.8926C70.5647 59.7554 70.3561 59.7875 69.8586 60.7344C69.5537 61.3281 69.666 62.1145 70.0993 62.6762L70.4042 63.0453L77.6579 63.1255L84.8956 63.2058L85.4573 64.6019L86.035 66.0142L85.5857 66.5277C84.9437 67.298 84.7191 67.972 84.7191 69.0633C84.7191 70.4113 85.04 70.9409 86.9979 72.8506C88.5225 74.3431 88.7311 74.5036 89.5495 74.6801C90.7371 74.9369 91.8284 74.6962 92.8233 73.9419C93.5294 73.3963 93.5455 73.3802 94.059 73.653C94.3479 73.7975 94.9417 74.0382 95.375 74.1987L96.1934 74.4715L96.2897 75.3702C96.4181 76.5096 97.044 77.6009 97.9106 78.1786C98.5525 78.5958 98.6648 78.6119 101.136 78.66C104.105 78.7242 104.747 78.5638 105.598 77.6169C106.256 76.8627 106.544 76.1405 106.544 75.2899V74.5999L108.005 73.974L109.465 73.3642L109.882 73.7654C110.669 74.4875 111.359 74.7443 112.498 74.7443C113.333 74.7443 113.686 74.6641 114.264 74.3271C115.098 73.8296 117.457 71.4545 117.826 70.7323C118.484 69.4485 118.292 67.7634 117.377 66.6882L116.831 66.0623L117.425 64.5859L118.003 63.1255H118.741C120.153 63.1095 121.565 62.0824 121.951 60.7665C122.063 60.3813 122.111 59.1938 122.079 57.6531C122.031 55.1817 122.031 55.1496 121.565 54.4756C120.956 53.609 119.945 53.0153 118.853 52.9029L118.003 52.8227L117.425 51.4586L116.847 50.0945L117.393 49.3884C118.051 48.5218 118.324 47.575 118.211 46.5639C118.099 45.6331 117.842 45.1196 116.992 44.1567L116.334 43.4185V25.7817C116.334 10.857 116.286 7.98442 116.093 7.03759C115.531 4.37361 113.894 2.14293 111.712 1.06771L110.492 0.457886L78.3159 0.425789C46.7012 0.393692 46.1075 0.393692 45.2569 0.698608ZM110.348 4.22918C111.311 4.77481 111.808 5.36859 112.434 6.71663L112.883 7.67951L112.932 14.6925L112.98 21.7216H78.1394H43.2991L43.3472 14.6123L43.3953 7.51903L43.8607 6.52405C44.3582 5.44883 45.3693 4.35757 46.2519 3.98846C46.6852 3.79588 51.7243 3.76379 78.1394 3.74773H109.513L110.348 4.22918ZM103.174 42.1026C103.287 44.0925 103.287 44.0925 105.662 44.8307C106.288 45.0233 107.315 45.4727 107.957 45.8097C109.69 46.7405 110.219 46.6923 111.503 45.5208L112.498 44.6221L113.702 45.8097L114.889 46.9812L114.103 47.7996C112.707 49.2279 112.675 49.5649 113.67 51.5388C114.055 52.3252 114.536 53.4967 114.729 54.1547C115.259 55.8879 115.531 56.1286 117.265 56.2249L118.661 56.3051L118.709 58.0222L118.757 59.7554H117.505C115.563 59.7554 115.307 59.9962 114.633 62.2268C114.472 62.7564 114.039 63.7835 113.654 64.5217C112.675 66.4154 112.707 66.7363 113.943 68.0362L114.938 69.0473L113.846 70.1867C113.236 70.7965 112.643 71.31 112.514 71.31C112.386 71.31 111.856 70.9088 111.343 70.4274C110.187 69.3361 109.706 69.2719 108.229 70.0904C107.7 70.3953 106.496 70.9088 105.582 71.2137C103.367 71.968 103.271 72.0803 103.19 73.8938L103.142 75.3381L101.425 75.2899L99.724 75.2418L99.6438 73.8456C99.5475 72.1124 99.3067 71.8396 97.5896 71.3261C96.9477 71.1335 95.7922 70.6521 95.038 70.2669C93.0641 69.2398 92.6789 69.2719 91.3951 70.5076L90.4001 71.4545L89.2446 70.299C88.6027 69.6571 88.0892 69.0633 88.0892 68.9831C88.0892 68.9028 88.4904 68.4214 88.9879 67.9239C90.1594 66.7524 90.1915 66.287 89.2446 64.5699C88.8916 63.9119 88.4101 62.7404 88.1694 61.9701C87.5756 60.0764 87.3349 59.8678 85.5536 59.7554L84.1574 59.6752V57.9902V56.3051L85.5375 56.257C87.3028 56.1928 87.5917 55.9681 88.0892 54.2831C88.2817 53.6251 88.7632 52.4536 89.1483 51.6833C90.1273 49.7094 90.1112 49.3082 88.9718 48.0725C88.4904 47.5429 88.0892 47.0454 88.0892 46.9651C88.0892 46.8849 88.5867 46.3232 89.1965 45.7294L90.3198 44.6221L91.2827 45.5208C92.6629 46.7886 92.9357 46.8207 94.9256 45.8257C95.7922 45.3764 97.0279 44.8628 97.6538 44.6863C99.2586 44.2209 99.5475 43.8679 99.6117 42.2952C99.6438 41.6211 99.6919 40.9632 99.724 40.8508C99.7882 40.7064 100.221 40.6583 101.441 40.6904L103.094 40.7385L103.174 42.1026Z" fill="url(#paint0_linear_525_774)"/>
<path d="M52.9278 7.64739C51.1946 8.3856 50.1033 9.63735 49.6379 11.4347C49.0121 13.9382 50.2157 16.5701 52.5426 17.7256C53.2327 18.0626 53.5697 18.1107 54.9498 18.1107C56.2979 18.1107 56.683 18.0465 57.2929 17.7416C58.4804 17.1639 59.2989 16.3454 59.8766 15.1739C60.358 14.211 60.4062 13.9703 60.4062 12.7346C60.3901 11.6754 60.3099 11.194 60.0371 10.5842C59.4914 9.38058 58.689 8.51398 57.5657 7.92021C56.683 7.43876 56.3781 7.37457 55.1906 7.32643C54.0351 7.27828 53.682 7.32643 52.9278 7.64739ZM56.009 11.0175C56.3139 11.2101 56.683 11.6594 56.8596 11.9964C57.2287 12.7667 57.0361 13.5531 56.3139 14.2592C55.8806 14.6764 55.6881 14.7406 54.9498 14.7406C54.2116 14.7406 54.0191 14.6764 53.6018 14.2752C53.008 13.6975 52.7513 12.9111 52.9438 12.2371C53.1204 11.6273 53.3611 11.3224 53.987 10.9372C54.6289 10.5521 55.351 10.5681 56.009 11.0175Z" fill="url(#paint1_linear_525_774)"/>
<path d="M67.2265 7.55106C65.7822 8.04855 64.8033 8.94724 64.0009 10.4879C63.6799 11.0977 63.6318 11.4507 63.6157 12.7346C63.6157 14.5801 63.9527 15.4146 65.2205 16.6824C66.376 17.8379 67.4994 18.2391 69.3128 18.1588C70.9176 18.0786 71.8965 17.6613 72.9717 16.5701C76.3579 13.1358 73.8544 7.24615 69.0239 7.27825C68.4301 7.29429 67.6277 7.40663 67.2265 7.55106ZM69.9708 10.8891C71.0139 11.4347 71.4311 13.0555 70.7411 13.9221C69.73 15.206 67.8364 15.0455 67.1623 13.6333C66.8414 12.9593 66.8414 12.526 67.1302 11.9643C67.7401 10.7928 68.9116 10.3434 69.9708 10.8891Z" fill="url(#paint2_linear_525_774)"/>
<path d="M86.372 7.50302C84.8475 7.98446 83.5155 9.25225 82.9378 10.7929C82.4884 12.0125 82.5526 14.0667 83.0982 15.1419C83.5957 16.1208 84.6228 17.1639 85.6017 17.6775L86.4041 18.1108L94.9096 18.1589C104.378 18.2071 104.282 18.2231 105.774 17.1318C107.315 15.9924 108.213 13.7618 107.86 11.9002C107.507 10.0065 106.432 8.56219 104.779 7.77583L103.897 7.35858L95.4713 7.32649C88.8755 7.31044 86.9016 7.34254 86.372 7.50302ZM103.335 10.8892C104.875 11.6755 104.875 13.7938 103.335 14.5802C102.95 14.7888 101.666 14.8209 95.2306 14.8209C86.8053 14.8209 86.9498 14.837 86.3239 13.8099C85.698 12.7828 86.1153 11.3385 87.1744 10.8892C87.9608 10.5361 102.661 10.5361 103.335 10.8892Z" fill="url(#paint3_linear_525_774)"/>
<path d="M99.323 48.2811C97.5578 48.6823 95.7283 49.6933 94.4284 51.0093C90.2559 55.1657 90.5608 61.9219 95.1024 65.7093C96.1134 66.5598 98.1836 67.5548 99.4514 67.7955C100.816 68.0523 103.303 67.9079 104.635 67.4746C107.395 66.608 109.835 64.1847 110.829 61.3603C111.375 59.7715 111.52 57.268 111.134 55.7434C110.284 52.3734 107.748 49.6131 104.539 48.586C102.918 48.0725 100.799 47.9441 99.323 48.2811ZM102.549 51.5709C104.619 51.9561 106.352 53.2881 107.299 55.2299C107.877 56.3854 107.909 56.5298 107.909 57.9741C107.893 60.1406 107.508 61.0714 105.999 62.5799C104.491 64.0884 103.56 64.4736 101.409 64.4896C100.029 64.4896 99.7884 64.4415 98.8095 63.9761C96.0653 62.6762 94.4765 59.8036 94.974 57.0594C95.4876 54.3152 97.3652 52.3092 100.045 51.6351C101.072 51.3784 101.49 51.3784 102.549 51.5709Z" fill="url(#paint4_linear_525_774)"/>
<path d="M64.9002 34.4476C64.515 34.7686 64.3064 35.4908 62.814 41.7816C61.8832 45.6171 61.1289 49.0032 61.1289 49.2921C61.1289 50.8809 63.7608 51.3783 64.3385 49.9019C64.4188 49.6933 65.2051 46.4676 66.1038 42.7284C67.853 35.4266 67.8851 35.0896 67.1469 34.4316C66.5692 33.9502 65.4779 33.9502 64.9002 34.4476Z" fill="url(#paint5_linear_525_774)"/>
<path d="M54.7734 35.3463C54.3241 35.5389 49.9911 40.2731 49.3974 41.2199C48.9641 41.926 48.9801 43.2099 49.4455 43.8037C50.3763 44.9912 54.1315 49.1156 54.5167 49.3563C55.2228 49.8217 55.945 49.7254 56.5708 49.0995C57.1646 48.5057 57.2769 47.8478 56.9239 47.1898C56.8276 46.9972 55.8808 45.8899 54.8376 44.7184C53.7945 43.5629 52.944 42.5359 52.944 42.4556C52.944 42.3754 53.7785 41.3804 54.8055 40.241C56.9078 37.8819 57.2128 37.4005 57.0523 36.6141C56.8757 35.6192 55.6882 34.9612 54.7734 35.3463Z" fill="url(#paint6_linear_525_774)"/>
<path d="M72.7473 35.3464C72.1695 35.6031 71.7202 36.3093 71.7202 36.9833C71.7202 37.6412 71.64 37.545 74.978 41.2842C75.4754 41.8619 75.8927 42.3915 75.8927 42.4557C75.8927 42.5199 75.0422 43.5309 73.999 44.7024C72.9399 45.8739 72.0091 46.9973 71.9128 47.1898C71.1425 48.6181 72.8275 50.239 74.2237 49.4366C74.6249 49.2119 79.0221 44.3172 79.4393 43.6272C79.7924 43.0815 79.8405 41.8779 79.5356 41.3644C79.327 40.9792 75.2187 36.3253 74.5607 35.7155C74.1274 35.3143 73.2608 35.1377 72.7473 35.3464Z" fill="url(#paint7_linear_525_774)"/>
<path d="M63.4714 59.9961C62.7974 60.3492 62.5888 60.7183 62.5728 61.4886C62.5728 62.4836 63.2147 63.1255 64.2418 63.1255C65.2367 63.1255 65.7824 62.644 65.8947 61.6651C65.9749 61.0232 65.9268 60.8627 65.5256 60.4134C64.9639 59.7875 64.1455 59.627 63.4714 59.9961Z" fill="url(#paint8_linear_525_774)"/>
<defs>
<linearGradient id="paint0_linear_525_774" x1="81.0163" y1="78.6725" x2="81.0163" y2="0.411995" gradientUnits="userSpaceOnUse">
<stop stop-color="#FF7600"/>
<stop offset="1" stop-color="#FF9E4A"/>
</linearGradient>
<linearGradient id="paint1_linear_525_774" x1="54.9399" y1="18.1107" x2="54.9399" y2="7.31047" gradientUnits="userSpaceOnUse">
<stop stop-color="#FF7600"/>
<stop offset="1" stop-color="#FF9E4A"/>
</linearGradient>
<linearGradient id="paint2_linear_525_774" x1="69.0728" y1="18.1687" x2="69.0728" y2="7.27812" gradientUnits="userSpaceOnUse">
<stop stop-color="#FF7600"/>
<stop offset="1" stop-color="#FF9E4A"/>
</linearGradient>
<linearGradient id="paint3_linear_525_774" x1="95.2885" y1="18.1755" x2="95.2885" y2="7.32278" gradientUnits="userSpaceOnUse">
<stop stop-color="#FF7600"/>
<stop offset="1" stop-color="#FF9E4A"/>
</linearGradient>
<linearGradient id="paint4_linear_525_774" x1="101.419" y1="67.9227" x2="101.419" y2="48.0941" gradientUnits="userSpaceOnUse">
<stop stop-color="#FF7600"/>
<stop offset="1" stop-color="#FF9E4A"/>
</linearGradient>
<linearGradient id="paint5_linear_525_774" x1="64.366" y1="50.7833" x2="64.366" y2="34.0725" gradientUnits="userSpaceOnUse">
<stop stop-color="#FF7600"/>
<stop offset="1" stop-color="#FF9E4A"/>
</linearGradient>
<linearGradient id="paint6_linear_525_774" x1="53.1039" y1="49.6478" x2="53.1039" y2="35.2348" gradientUnits="userSpaceOnUse">
<stop stop-color="#FF7600"/>
<stop offset="1" stop-color="#FF9E4A"/>
</linearGradient>
<linearGradient id="paint7_linear_525_774" x1="75.7282" y1="49.6497" x2="75.7282" y2="35.2581" gradientUnits="userSpaceOnUse">
<stop stop-color="#FF7600"/>
<stop offset="1" stop-color="#FF9E4A"/>
</linearGradient>
<linearGradient id="paint8_linear_525_774" x1="64.25" y1="63.1255" x2="64.25" y2="59.8004" gradientUnits="userSpaceOnUse">
<stop stop-color="#FF7600"/>
<stop offset="1" stop-color="#FF9E4A"/>
</linearGradient>
</defs>
</svg>
