<svg width="160" height="149" viewBox="0 0 160 149" fill="none" xmlns="http://www.w3.org/2000/svg">
<path d="M9.34806 122.412V111.052H13.4761C14.4041 111.052 15.2147 111.201 15.9081 111.5C16.6121 111.799 17.1987 112.204 17.6681 112.716C18.1374 113.228 18.4894 113.831 18.7241 114.524C18.9587 115.207 19.0761 115.937 19.0761 116.716C19.0761 117.58 18.9427 118.364 18.6761 119.068C18.4201 119.761 18.0467 120.359 17.5561 120.86C17.0654 121.351 16.4734 121.735 15.7801 122.012C15.0974 122.279 14.3294 122.412 13.4761 122.412H9.34806ZM16.8521 116.716C16.8521 116.172 16.7774 115.671 16.6281 115.212C16.4787 114.753 16.2601 114.359 15.9721 114.028C15.6841 113.697 15.3267 113.441 14.9001 113.26C14.4841 113.079 14.0094 112.988 13.4761 112.988H11.5561V120.476H13.4761C14.0201 120.476 14.5001 120.38 14.9161 120.188C15.3427 119.996 15.6947 119.735 15.9721 119.404C16.2601 119.063 16.4787 118.663 16.6281 118.204C16.7774 117.745 16.8521 117.249 16.8521 116.716ZM28.6892 120.476V122.412H20.8012V111.052H28.5452V112.988H23.0092V115.724H27.7932V117.516H23.0092V120.476H28.6892ZM36.9442 114.028C36.8695 113.953 36.7309 113.852 36.5282 113.724C36.3362 113.596 36.0962 113.473 35.8082 113.356C35.5309 113.228 35.2269 113.121 34.8962 113.036C34.5655 112.951 34.2295 112.908 33.8882 112.908C33.2802 112.908 32.8269 113.02 32.5282 113.244C32.2295 113.468 32.0802 113.783 32.0802 114.188C32.0802 114.423 32.1335 114.62 32.2402 114.78C32.3575 114.929 32.5229 115.063 32.7362 115.18C32.9495 115.297 33.2162 115.404 33.5362 115.5C33.8669 115.596 34.2455 115.697 34.6722 115.804C35.2269 115.953 35.7282 116.113 36.1762 116.284C36.6349 116.455 37.0189 116.668 37.3282 116.924C37.6482 117.18 37.8935 117.489 38.0642 117.852C38.2349 118.204 38.3202 118.641 38.3202 119.164C38.3202 119.772 38.2029 120.295 37.9682 120.732C37.7442 121.159 37.4349 121.505 37.0402 121.772C36.6562 122.039 36.2082 122.236 35.6962 122.364C35.1949 122.481 34.6669 122.54 34.1122 122.54C33.2589 122.54 32.4162 122.412 31.5842 122.156C30.7522 121.9 30.0055 121.537 29.3442 121.068L30.3202 119.164C30.4162 119.26 30.5869 119.388 30.8322 119.548C31.0882 119.697 31.3869 119.852 31.7282 120.012C32.0695 120.161 32.4482 120.289 32.8642 120.396C33.2802 120.503 33.7069 120.556 34.1442 120.556C35.3602 120.556 35.9682 120.167 35.9682 119.388C35.9682 119.143 35.8989 118.935 35.7602 118.764C35.6215 118.593 35.4242 118.444 35.1682 118.316C34.9122 118.188 34.6029 118.071 34.2402 117.964C33.8775 117.857 33.4722 117.74 33.0242 117.612C32.4802 117.463 32.0055 117.303 31.6002 117.132C31.2055 116.951 30.8749 116.743 30.6082 116.508C30.3415 116.263 30.1389 115.985 30.0002 115.676C29.8722 115.356 29.8082 114.977 29.8082 114.54C29.8082 113.964 29.9149 113.452 30.1282 113.004C30.3415 112.556 30.6349 112.183 31.0082 111.884C31.3922 111.585 31.8349 111.361 32.3362 111.212C32.8375 111.052 33.3762 110.972 33.9522 110.972C34.7522 110.972 35.4882 111.1 36.1602 111.356C36.8322 111.601 37.4189 111.895 37.9202 112.236L36.9442 114.028ZM39.9887 122.412V111.052H42.1967V122.412H39.9887ZM52.4548 121.132C51.5481 122.039 50.4921 122.492 49.2868 122.492C48.5401 122.492 47.8361 122.343 47.1748 122.044C46.5241 121.745 45.9535 121.335 45.4628 120.812C44.9828 120.289 44.5988 119.676 44.3108 118.972C44.0335 118.257 43.8948 117.489 43.8948 116.668C43.8948 115.889 44.0335 115.159 44.3108 114.476C44.5988 113.783 44.9881 113.18 45.4788 112.668C45.9801 112.145 46.5668 111.735 47.2388 111.436C47.9108 111.127 48.6415 110.972 49.4308 110.972C50.4975 110.972 51.4095 111.196 52.1668 111.644C52.9348 112.092 53.5108 112.695 53.8948 113.452L52.2468 114.668C51.9588 114.103 51.5535 113.671 51.0308 113.372C50.5188 113.073 49.9588 112.924 49.3508 112.924C48.8708 112.924 48.4281 113.025 48.0228 113.228C47.6281 113.431 47.2868 113.708 46.9988 114.06C46.7215 114.412 46.5028 114.817 46.3428 115.276C46.1935 115.735 46.1188 116.22 46.1188 116.732C46.1188 117.265 46.2041 117.767 46.3748 118.236C46.5455 118.695 46.7801 119.095 47.0788 119.436C47.3775 119.777 47.7295 120.049 48.1348 120.252C48.5508 120.444 48.9988 120.54 49.4788 120.54C50.5775 120.54 51.5695 120.023 52.4548 118.988V118.188H50.1668V116.572H54.2788V122.412H52.4548V121.132ZM58.3686 115.132V122.412H56.1606V111.052H57.8726L63.7926 118.508V111.068H66.0006V122.412H64.2086L58.3686 115.132ZM78.7832 111.052H80.7352L85.0552 122.412H82.7832L81.7272 119.58H77.7592L76.7192 122.412H74.4472L78.7832 111.052ZM81.3272 118.028L79.7592 113.564L78.1272 118.028H81.3272ZM93.7673 121.132C92.8606 122.039 91.8046 122.492 90.5993 122.492C89.8526 122.492 89.1486 122.343 88.4873 122.044C87.8366 121.745 87.266 121.335 86.7753 120.812C86.2953 120.289 85.9113 119.676 85.6233 118.972C85.346 118.257 85.2073 117.489 85.2073 116.668C85.2073 115.889 85.346 115.159 85.6233 114.476C85.9113 113.783 86.3006 113.18 86.7913 112.668C87.2926 112.145 87.8793 111.735 88.5513 111.436C89.2233 111.127 89.954 110.972 90.7433 110.972C91.81 110.972 92.722 111.196 93.4793 111.644C94.2473 112.092 94.8233 112.695 95.2073 113.452L93.5593 114.668C93.2713 114.103 92.866 113.671 92.3433 113.372C91.8313 113.073 91.2713 112.924 90.6633 112.924C90.1833 112.924 89.7406 113.025 89.3353 113.228C88.9406 113.431 88.5993 113.708 88.3113 114.06C88.034 114.412 87.8153 114.817 87.6553 115.276C87.506 115.735 87.4313 116.22 87.4313 116.732C87.4313 117.265 87.5166 117.767 87.6873 118.236C87.858 118.695 88.0926 119.095 88.3913 119.436C88.69 119.777 89.042 120.049 89.4473 120.252C89.8633 120.444 90.3113 120.54 90.7913 120.54C91.89 120.54 92.882 120.023 93.7673 118.988V118.188H91.4793V116.572H95.5913V122.412H93.7673V121.132ZM105.361 120.476V122.412H97.4731V111.052H105.217V112.988H99.6811V115.724H104.465V117.516H99.6811V120.476H105.361ZM109.29 115.132V122.412H107.082V111.052H108.794L114.714 118.508V111.068H116.922V122.412H115.13L109.29 115.132ZM118.598 116.652C118.598 115.959 118.72 115.276 118.966 114.604C119.222 113.921 119.59 113.313 120.07 112.78C120.55 112.247 121.136 111.815 121.83 111.484C122.523 111.153 123.312 110.988 124.198 110.988C125.243 110.988 126.144 111.217 126.902 111.676C127.67 112.135 128.24 112.732 128.614 113.468L126.918 114.636C126.768 114.316 126.587 114.049 126.374 113.836C126.16 113.612 125.931 113.436 125.686 113.308C125.44 113.18 125.184 113.089 124.918 113.036C124.651 112.972 124.39 112.94 124.134 112.94C123.579 112.94 123.094 113.052 122.678 113.276C122.272 113.5 121.931 113.793 121.654 114.156C121.387 114.508 121.184 114.913 121.046 115.372C120.907 115.82 120.838 116.268 120.838 116.716C120.838 117.217 120.918 117.703 121.078 118.172C121.238 118.631 121.462 119.036 121.75 119.388C122.048 119.74 122.4 120.023 122.806 120.236C123.222 120.449 123.675 120.556 124.166 120.556C124.422 120.556 124.688 120.524 124.966 120.46C125.243 120.396 125.504 120.295 125.75 120.156C126.006 120.017 126.24 119.841 126.454 119.628C126.667 119.404 126.838 119.137 126.966 118.828L128.774 119.868C128.592 120.295 128.331 120.673 127.99 121.004C127.659 121.324 127.28 121.596 126.854 121.82C126.438 122.044 125.99 122.215 125.51 122.332C125.03 122.449 124.56 122.508 124.102 122.508C123.291 122.508 122.55 122.337 121.878 121.996C121.206 121.655 120.624 121.212 120.134 120.668C119.654 120.113 119.275 119.489 118.998 118.796C118.731 118.092 118.598 117.377 118.598 116.652ZM130.254 122.412V111.052H132.462V122.412H130.254ZM142.72 120.476V122.412H134.832V111.052H142.576V112.988H137.04V115.724H141.824V117.516H137.04V120.476H142.72ZM150.975 114.028C150.901 113.953 150.762 113.852 150.559 113.724C150.367 113.596 150.127 113.473 149.839 113.356C149.562 113.228 149.258 113.121 148.927 113.036C148.597 112.951 148.261 112.908 147.919 112.908C147.311 112.908 146.858 113.02 146.559 113.244C146.261 113.468 146.111 113.783 146.111 114.188C146.111 114.423 146.165 114.62 146.271 114.78C146.389 114.929 146.554 115.063 146.767 115.18C146.981 115.297 147.247 115.404 147.567 115.5C147.898 115.596 148.277 115.697 148.703 115.804C149.258 115.953 149.759 116.113 150.207 116.284C150.666 116.455 151.05 116.668 151.359 116.924C151.679 117.18 151.925 117.489 152.095 117.852C152.266 118.204 152.351 118.641 152.351 119.164C152.351 119.772 152.234 120.295 151.999 120.732C151.775 121.159 151.466 121.505 151.071 121.772C150.687 122.039 150.239 122.236 149.727 122.364C149.226 122.481 148.698 122.54 148.143 122.54C147.29 122.54 146.447 122.412 145.615 122.156C144.783 121.9 144.037 121.537 143.375 121.068L144.351 119.164C144.447 119.26 144.618 119.388 144.863 119.548C145.119 119.697 145.418 119.852 145.759 120.012C146.101 120.161 146.479 120.289 146.895 120.396C147.311 120.503 147.738 120.556 148.175 120.556C149.391 120.556 149.999 120.167 149.999 119.388C149.999 119.143 149.93 118.935 149.791 118.764C149.653 118.593 149.455 118.444 149.199 118.316C148.943 118.188 148.634 118.071 148.271 117.964C147.909 117.857 147.503 117.74 147.055 117.612C146.511 117.463 146.037 117.303 145.631 117.132C145.237 116.951 144.906 116.743 144.639 116.508C144.373 116.263 144.17 115.985 144.031 115.676C143.903 115.356 143.839 114.977 143.839 114.54C143.839 113.964 143.946 113.452 144.159 113.004C144.373 112.556 144.666 112.183 145.039 111.884C145.423 111.585 145.866 111.361 146.367 111.212C146.869 111.052 147.407 110.972 147.983 110.972C148.783 110.972 149.519 111.1 150.191 111.356C150.863 111.601 151.45 111.895 151.951 112.236L150.975 114.028Z" fill="#5C6A77"/>
<path d="M48.8293 23.7984V47.1849H46.6893H44.5494V29.7902C44.5494 13.3128 44.5647 12.3803 44.8398 11.7995C45.0844 11.234 45.8028 10.485 46.4448 10.1181C46.7046 9.96528 46.6893 9.88885 46.2919 8.89531C46.0626 8.29919 45.8639 7.79478 45.8334 7.77949C45.8181 7.74892 45.4359 7.91705 45.0079 8.14633C44.0603 8.66603 43.189 9.58315 42.6082 10.6837L42.1802 11.4938V34.5745V57.6553L42.6846 58.6794C43.2654 59.8716 44.2131 60.7887 45.4665 61.3849L46.3072 61.7823L57.817 61.8281L69.3115 61.8587V65.9704V70.0669L67.1104 70.1433C65.0928 70.2197 64.8176 70.2656 64.0534 70.6324C63.5795 70.8617 62.9681 71.3203 62.6777 71.6718C61.8217 72.6654 61.6689 73.3379 61.6689 76.181V78.6725H81.234H100.799V76.181C100.799 73.3379 100.646 72.6654 99.7903 71.6718C99.4999 71.3203 98.8885 70.8617 98.4146 70.6324C97.6504 70.2656 97.3752 70.2197 95.3576 70.1433L93.1565 70.0669V65.9704V61.8587L104.666 61.8281L116.161 61.7823L117.001 61.3849C118.255 60.7887 119.203 59.8716 119.783 58.6794L120.288 57.6553V34.651V11.6467L119.799 10.6378C119.203 9.4303 118.24 8.49789 117.032 7.93234L116.161 7.51964L96.718 7.47379L77.2598 7.44321V8.66603V9.88885H96.3358C114.556 9.88885 115.427 9.90414 116.008 10.1793C116.344 10.3321 116.803 10.6531 117.032 10.8977C117.964 11.9065 117.919 10.8365 117.919 29.8361V47.1849H97.5892H77.2598V30.3099V13.435L74.4321 8.71189C72.873 6.12868 71.5431 3.98875 71.4667 3.95818C71.3903 3.9276 70.0452 6.03697 68.4861 8.65075L65.643 13.3739V30.2794V47.1849H63.8088H61.9746V23.7984V0.411995H55.4019H48.8293V23.7984ZM59.5289 25.0213V47.1849H55.4019H51.2749V45.8856V44.5864H54.0262H56.7776V43.3636V42.1407H54.0262H51.2749V41.0708V40.0008H52.8034H54.332V38.778V37.5552H52.8034H51.2749V36.4852V35.4152H54.0262H56.7776V34.1924V32.9696H54.0262H51.2749V31.8996V30.8296H52.8034H54.332V29.6068V28.384H52.8034H51.2749V27.314V26.2441H54.0262H56.7776V25.0213V23.7984H54.0262H51.2749V22.7285V21.6585H52.8034H54.332V20.4357V19.2129H52.8034H51.2749V18.1429V17.0729H54.0262H56.7776V15.8501V14.6273H54.0262H51.2749V13.5573V12.4873H52.8034H54.332V11.2645V10.0417H52.8034H51.2749V8.97174V7.90177H54.0262H56.7776V6.67895V5.45613H54.0262H51.2749V4.15688V2.85764H55.4019H59.5289V25.0213ZM72.9341 11.0352L74.3251 13.3892L72.873 14.2451L71.4361 15.1164L69.984 14.2451L68.5472 13.3892L68.9294 12.7472C69.1434 12.3956 69.7701 11.3257 70.3356 10.378C70.9012 9.44558 71.4056 8.66603 71.4514 8.66603C71.4973 8.66603 72.1546 9.736 72.9341 11.0352ZM72.7812 17.2105C73.5149 16.7672 74.2792 16.3087 74.4779 16.1864L74.8142 15.9724V28.5216V41.0708H71.4514H68.0887V28.5369V16.0182L69.7548 17.0118L71.4361 18.0206L72.7812 17.2105ZM74.8142 45.3506V47.1849H71.4514H68.0887V45.3506V43.5164H71.4514H74.8142V45.3506ZM117.919 53.2531C117.919 57.3343 117.827 57.7164 116.833 58.5571C115.748 59.4742 118.27 59.4131 81.234 59.4131C44.1978 59.4131 46.7199 59.4742 45.6346 58.5571C44.6411 57.7164 44.5494 57.3343 44.5494 53.2531V49.6305H81.234H117.919V53.2531ZM90.7108 65.9857V70.1127H81.234H71.7571V65.9857V61.8587H81.234H90.7108V65.9857ZM97.4822 72.9252C98.1242 73.3685 98.3535 73.9341 98.3535 75.1569V76.2268H81.234H64.1145V75.1569C64.1145 73.6742 64.5578 72.9405 65.5666 72.6654C65.7347 72.6195 72.8882 72.6042 81.4633 72.6195C96.504 72.6348 97.0695 72.6501 97.4822 72.9252Z" fill="url(#paint0_linear_525_788)"/>
<path d="M70.2285 24.1806V28.0784H71.4513H72.6742V24.1806V20.2829H71.4513H70.2285V24.1806Z" fill="url(#paint1_linear_525_788)"/>
<path d="M70.2285 31.4411V32.6639H71.4513H72.6742V31.4411V30.2183H71.4513H70.2285V31.4411Z" fill="url(#paint2_linear_525_788)"/>
<path d="M70.2285 36.7909V38.778H71.4513H72.6742V36.7909V34.8038H71.4513H70.2285V36.7909Z" fill="url(#paint3_linear_525_788)"/>
<path d="M75.4253 54.5218V55.7446H76.6481H77.8709V54.5218V53.299H76.6481H75.4253V54.5218Z" fill="url(#paint4_linear_525_788)"/>
<path d="M80.0112 54.5218V55.7446H81.2341H82.4569V54.5218V53.299H81.2341H80.0112V54.5218Z" fill="url(#paint5_linear_525_788)"/>
<path d="M84.5967 54.5218V55.7446H85.8195H87.0423V54.5218V53.299H85.8195H84.5967V54.5218Z" fill="url(#paint6_linear_525_788)"/>
<path d="M79.3999 13.2516V14.4744H80.6227H81.8455V28.5368V42.5993H80.6227H79.3999V43.8221V45.0449H82.9919H86.584V43.8221V42.5993H85.4376H84.2912V28.5368V14.4744H85.4376H86.584V13.2516V12.0288H82.9919H79.3999V13.2516Z" fill="url(#paint7_linear_525_788)"/>
<path d="M88.8765 18.6014V25.1741H102.327H115.779V18.6014V12.0288H102.327H88.8765V18.6014ZM113.333 18.6014V22.7284H102.327H91.3221V18.6014V14.4744H102.327H113.333V18.6014Z" fill="url(#paint8_linear_525_788)"/>
<path d="M88.8765 31.5939V35.8738H95.067H101.258V31.5939V27.314H95.067H88.8765V31.5939ZM98.8119 31.5939V33.4281H95.067H91.3221V31.5939V29.7597H95.067H98.8119V31.5939Z" fill="url(#paint9_linear_525_788)"/>
<path d="M103.397 31.5939V35.8738H109.588H115.779V31.5939V27.314H109.588H103.397V31.5939ZM113.333 31.5939V33.4281H109.588H105.843V31.5939V29.7597H109.588H113.333V31.5939Z" fill="url(#paint10_linear_525_788)"/>
<path d="M90.0996 40.0008V41.2236H92.851H95.6023V40.0008V38.778H92.851H90.0996V40.0008Z" fill="url(#paint11_linear_525_788)"/>
<path d="M97.7422 40.0008V41.2236H98.965H100.188V40.0008V38.778H98.965H97.7422V40.0008Z" fill="url(#paint12_linear_525_788)"/>
<path d="M104.62 40.0008V41.2236H107.371H110.123V40.0008V38.778H107.371H104.62V40.0008Z" fill="url(#paint13_linear_525_788)"/>
<path d="M112.263 40.0008V41.2236H113.486H114.709V40.0008V38.778H113.486H112.263V40.0008Z" fill="url(#paint14_linear_525_788)"/>
<defs>
<linearGradient id="paint0_linear_525_788" x1="81.234" y1="78.6725" x2="81.234" y2="0.411995" gradientUnits="userSpaceOnUse">
<stop stop-color="#FF7600"/>
<stop offset="1" stop-color="#FF9840"/>
</linearGradient>
<linearGradient id="paint1_linear_525_788" x1="71.4513" y1="28.0784" x2="71.4513" y2="20.2829" gradientUnits="userSpaceOnUse">
<stop stop-color="#FF7600"/>
<stop offset="1" stop-color="#FF9840"/>
</linearGradient>
<linearGradient id="paint2_linear_525_788" x1="71.4513" y1="32.6639" x2="71.4513" y2="30.2183" gradientUnits="userSpaceOnUse">
<stop stop-color="#FF7600"/>
<stop offset="1" stop-color="#FF9840"/>
</linearGradient>
<linearGradient id="paint3_linear_525_788" x1="71.4513" y1="38.778" x2="71.4513" y2="34.8038" gradientUnits="userSpaceOnUse">
<stop stop-color="#FF7600"/>
<stop offset="1" stop-color="#FF9840"/>
</linearGradient>
<linearGradient id="paint4_linear_525_788" x1="76.6481" y1="55.7446" x2="76.6481" y2="53.299" gradientUnits="userSpaceOnUse">
<stop stop-color="#FF7600"/>
<stop offset="1" stop-color="#FF9840"/>
</linearGradient>
<linearGradient id="paint5_linear_525_788" x1="81.2341" y1="55.7446" x2="81.2341" y2="53.299" gradientUnits="userSpaceOnUse">
<stop stop-color="#FF7600"/>
<stop offset="1" stop-color="#FF9840"/>
</linearGradient>
<linearGradient id="paint6_linear_525_788" x1="85.8195" y1="55.7446" x2="85.8195" y2="53.299" gradientUnits="userSpaceOnUse">
<stop stop-color="#FF7600"/>
<stop offset="1" stop-color="#FF9840"/>
</linearGradient>
<linearGradient id="paint7_linear_525_788" x1="82.9919" y1="45.0449" x2="82.9919" y2="12.0288" gradientUnits="userSpaceOnUse">
<stop stop-color="#FF7600"/>
<stop offset="1" stop-color="#FF9840"/>
</linearGradient>
<linearGradient id="paint8_linear_525_788" x1="102.327" y1="25.1741" x2="102.327" y2="12.0288" gradientUnits="userSpaceOnUse">
<stop stop-color="#FF7600"/>
<stop offset="1" stop-color="#FF9840"/>
</linearGradient>
<linearGradient id="paint9_linear_525_788" x1="95.067" y1="35.8738" x2="95.067" y2="27.314" gradientUnits="userSpaceOnUse">
<stop stop-color="#FF7600"/>
<stop offset="1" stop-color="#FF9840"/>
</linearGradient>
<linearGradient id="paint10_linear_525_788" x1="109.588" y1="35.8738" x2="109.588" y2="27.314" gradientUnits="userSpaceOnUse">
<stop stop-color="#FF7600"/>
<stop offset="1" stop-color="#FF9840"/>
</linearGradient>
<linearGradient id="paint11_linear_525_788" x1="92.851" y1="41.2236" x2="92.851" y2="38.778" gradientUnits="userSpaceOnUse">
<stop stop-color="#FF7600"/>
<stop offset="1" stop-color="#FF9840"/>
</linearGradient>
<linearGradient id="paint12_linear_525_788" x1="98.965" y1="41.2236" x2="98.965" y2="38.778" gradientUnits="userSpaceOnUse">
<stop stop-color="#FF7600"/>
<stop offset="1" stop-color="#FF9840"/>
</linearGradient>
<linearGradient id="paint13_linear_525_788" x1="107.371" y1="41.2236" x2="107.371" y2="38.778" gradientUnits="userSpaceOnUse">
<stop stop-color="#FF7600"/>
<stop offset="1" stop-color="#FF9840"/>
</linearGradient>
<linearGradient id="paint14_linear_525_788" x1="113.486" y1="41.2236" x2="113.486" y2="38.778" gradientUnits="userSpaceOnUse">
<stop stop-color="#FF7600"/>
<stop offset="1" stop-color="#FF9840"/>
</linearGradient>
</defs>
</svg>
