<svg width="79" height="79" viewBox="0 0 79 79" fill="none" xmlns="http://www.w3.org/2000/svg">
<path d="M6.82926 23.7984V47.1849H4.68932H2.54939V29.7902C2.54939 13.3128 2.56468 12.3803 2.83981 11.7995C3.08437 11.234 3.80278 10.485 4.44476 10.1181C4.70461 9.96528 4.68932 9.88885 4.29191 8.89531C4.06263 8.29919 3.86392 7.79478 3.83335 7.77949C3.81807 7.74892 3.43593 7.91705 3.00795 8.14633C2.06026 8.66603 1.189 9.58315 0.608163 10.6837L0.180176 11.4938V34.5745V57.6553L0.684589 58.6794C1.26543 59.8716 2.21311 60.7887 3.4665 61.3849L4.30719 61.7823L15.817 61.8281L27.3115 61.8587V65.9704V70.0669L25.1104 70.1433C23.0928 70.2197 22.8176 70.2656 22.0534 70.6324C21.5795 70.8617 20.9681 71.3203 20.6777 71.6718C19.8217 72.6654 19.6689 73.3379 19.6689 76.181V78.6725H39.234H58.7991V76.181C58.7991 73.3379 58.6463 72.6654 57.7903 71.6718C57.4999 71.3203 56.8885 70.8617 56.4146 70.6324C55.6504 70.2656 55.3752 70.2197 53.3576 70.1433L51.1565 70.0669V65.9704V61.8587L62.6663 61.8281L74.1608 61.7823L75.0015 61.3849C76.2549 60.7887 77.2026 59.8716 77.7834 58.6794L78.2878 57.6553V34.651V11.6467L77.7987 10.6378C77.2026 9.4303 76.2396 8.49789 75.0321 7.93234L74.1608 7.51964L54.718 7.47379L35.2598 7.44321V8.66603V9.88885H54.3358C72.5558 9.88885 73.4271 9.90414 74.0079 10.1793C74.3442 10.3321 74.8028 10.6531 75.0321 10.8977C75.9645 11.9065 75.9186 10.8365 75.9186 29.8361V47.1849H55.5892H35.2598V30.3099V13.435L32.4321 8.71189C30.873 6.12868 29.5431 3.98875 29.4667 3.95818C29.3903 3.9276 28.0452 6.03697 26.4861 8.65075L23.643 13.3739V30.2794V47.1849H21.8088H19.9746V23.7984V0.411995H13.4019H6.82926V23.7984ZM17.5289 25.0213V47.1849H13.4019H9.2749V45.8856V44.5864H12.0262H14.7776V43.3636V42.1407H12.0262H9.2749V41.0708V40.0008H10.8034H12.332V38.778V37.5552H10.8034H9.2749V36.4852V35.4152H12.0262H14.7776V34.1924V32.9696H12.0262H9.2749V31.8996V30.8296H10.8034H12.332V29.6068V28.384H10.8034H9.2749V27.314V26.2441H12.0262H14.7776V25.0213V23.7984H12.0262H9.2749V22.7285V21.6585H10.8034H12.332V20.4357V19.2129H10.8034H9.2749V18.1429V17.0729H12.0262H14.7776V15.8501V14.6273H12.0262H9.2749V13.5573V12.4873H10.8034H12.332V11.2645V10.0417H10.8034H9.2749V8.97174V7.90177H12.0262H14.7776V6.67895V5.45613H12.0262H9.2749V4.15688V2.85764H13.4019H17.5289V25.0213ZM30.9341 11.0352L32.3251 13.3892L30.873 14.2451L29.4361 15.1164L27.984 14.2451L26.5472 13.3892L26.9294 12.7472C27.1434 12.3956 27.7701 11.3257 28.3356 10.378C28.9012 9.44558 29.4056 8.66603 29.4514 8.66603C29.4973 8.66603 30.1546 9.736 30.9341 11.0352ZM30.7812 17.2105C31.5149 16.7672 32.2792 16.3087 32.4779 16.1864L32.8142 15.9724V28.5216V41.0708H29.4514H26.0887V28.5369V16.0182L27.7548 17.0118L29.4361 18.0206L30.7812 17.2105ZM32.8142 45.3506V47.1849H29.4514H26.0887V45.3506V43.5164H29.4514H32.8142V45.3506ZM75.9186 53.2531C75.9186 57.3343 75.8269 57.7164 74.8333 58.5571C73.7481 59.4742 76.2702 59.4131 39.234 59.4131C2.19783 59.4131 4.7199 59.4742 3.63464 58.5571C2.6411 57.7164 2.54939 57.3343 2.54939 53.2531V49.6305H39.234H75.9186V53.2531ZM48.7108 65.9857V70.1127H39.234H29.7571V65.9857V61.8587H39.234H48.7108V65.9857ZM55.4822 72.9252C56.1242 73.3685 56.3535 73.9341 56.3535 75.1569V76.2268H39.234H22.1145V75.1569C22.1145 73.6742 22.5578 72.9405 23.5666 72.6654C23.7347 72.6195 30.8882 72.6042 39.4633 72.6195C54.504 72.6348 55.0695 72.6501 55.4822 72.9252Z" fill="url(#paint0_linear_525_793)"/>
<path d="M28.2285 24.1806V28.0784H29.4513H30.6742V24.1806V20.2829H29.4513H28.2285V24.1806Z" fill="url(#paint1_linear_525_793)"/>
<path d="M28.2285 31.4411V32.6639H29.4513H30.6742V31.4411V30.2183H29.4513H28.2285V31.4411Z" fill="url(#paint2_linear_525_793)"/>
<path d="M28.2285 36.7909V38.778H29.4513H30.6742V36.7909V34.8038H29.4513H28.2285V36.7909Z" fill="url(#paint3_linear_525_793)"/>
<path d="M33.4253 54.5218V55.7446H34.6481H35.8709V54.5218V53.299H34.6481H33.4253V54.5218Z" fill="url(#paint4_linear_525_793)"/>
<path d="M38.0112 54.5218V55.7446H39.2341H40.4569V54.5218V53.299H39.2341H38.0112V54.5218Z" fill="url(#paint5_linear_525_793)"/>
<path d="M42.5967 54.5218V55.7446H43.8195H45.0423V54.5218V53.299H43.8195H42.5967V54.5218Z" fill="url(#paint6_linear_525_793)"/>
<path d="M37.3999 13.2516V14.4744H38.6227H39.8455V28.5368V42.5993H38.6227H37.3999V43.8221V45.0449H40.9919H44.584V43.8221V42.5993H43.4376H42.2912V28.5368V14.4744H43.4376H44.584V13.2516V12.0288H40.9919H37.3999V13.2516Z" fill="url(#paint7_linear_525_793)"/>
<path d="M46.8765 18.6014V25.1741H60.3275H73.7785V18.6014V12.0288H60.3275H46.8765V18.6014ZM71.3329 18.6014V22.7284H60.3275H49.3221V18.6014V14.4744H60.3275H71.3329V18.6014Z" fill="url(#paint8_linear_525_793)"/>
<path d="M46.8765 31.5939V35.8738H53.067H59.2575V31.5939V27.314H53.067H46.8765V31.5939ZM56.8119 31.5939V33.4281H53.067H49.3221V31.5939V29.7597H53.067H56.8119V31.5939Z" fill="url(#paint9_linear_525_793)"/>
<path d="M61.3975 31.5939V35.8738H67.588H73.7785V31.5939V27.314H67.588H61.3975V31.5939ZM71.3329 31.5939V33.4281H67.588H63.8431V31.5939V29.7597H67.588H71.3329V31.5939Z" fill="url(#paint10_linear_525_793)"/>
<path d="M48.0996 40.0008V41.2236H50.851H53.6023V40.0008V38.778H50.851H48.0996V40.0008Z" fill="url(#paint11_linear_525_793)"/>
<path d="M55.7422 40.0008V41.2236H56.965H58.1878V40.0008V38.778H56.965H55.7422V40.0008Z" fill="url(#paint12_linear_525_793)"/>
<path d="M62.6201 40.0008V41.2236H65.3715H68.1228V40.0008V38.778H65.3715H62.6201V40.0008Z" fill="url(#paint13_linear_525_793)"/>
<path d="M70.2632 40.0008V41.2236H71.486H72.7088V40.0008V38.778H71.486H70.2632V40.0008Z" fill="url(#paint14_linear_525_793)"/>
<defs>
<linearGradient id="paint0_linear_525_793" x1="39.234" y1="78.6725" x2="39.234" y2="0.411995" gradientUnits="userSpaceOnUse">
<stop stop-color="#FF7600"/>
<stop offset="1" stop-color="#FF9840"/>
</linearGradient>
<linearGradient id="paint1_linear_525_793" x1="29.4513" y1="28.0784" x2="29.4513" y2="20.2829" gradientUnits="userSpaceOnUse">
<stop stop-color="#FF7600"/>
<stop offset="1" stop-color="#FF9840"/>
</linearGradient>
<linearGradient id="paint2_linear_525_793" x1="29.4513" y1="32.6639" x2="29.4513" y2="30.2183" gradientUnits="userSpaceOnUse">
<stop stop-color="#FF7600"/>
<stop offset="1" stop-color="#FF9840"/>
</linearGradient>
<linearGradient id="paint3_linear_525_793" x1="29.4513" y1="38.778" x2="29.4513" y2="34.8038" gradientUnits="userSpaceOnUse">
<stop stop-color="#FF7600"/>
<stop offset="1" stop-color="#FF9840"/>
</linearGradient>
<linearGradient id="paint4_linear_525_793" x1="34.6481" y1="55.7446" x2="34.6481" y2="53.299" gradientUnits="userSpaceOnUse">
<stop stop-color="#FF7600"/>
<stop offset="1" stop-color="#FF9840"/>
</linearGradient>
<linearGradient id="paint5_linear_525_793" x1="39.2341" y1="55.7446" x2="39.2341" y2="53.299" gradientUnits="userSpaceOnUse">
<stop stop-color="#FF7600"/>
<stop offset="1" stop-color="#FF9840"/>
</linearGradient>
<linearGradient id="paint6_linear_525_793" x1="43.8195" y1="55.7446" x2="43.8195" y2="53.299" gradientUnits="userSpaceOnUse">
<stop stop-color="#FF7600"/>
<stop offset="1" stop-color="#FF9840"/>
</linearGradient>
<linearGradient id="paint7_linear_525_793" x1="40.9919" y1="45.0449" x2="40.9919" y2="12.0288" gradientUnits="userSpaceOnUse">
<stop stop-color="#FF7600"/>
<stop offset="1" stop-color="#FF9840"/>
</linearGradient>
<linearGradient id="paint8_linear_525_793" x1="60.3275" y1="25.1741" x2="60.3275" y2="12.0288" gradientUnits="userSpaceOnUse">
<stop stop-color="#FF7600"/>
<stop offset="1" stop-color="#FF9840"/>
</linearGradient>
<linearGradient id="paint9_linear_525_793" x1="53.067" y1="35.8738" x2="53.067" y2="27.314" gradientUnits="userSpaceOnUse">
<stop stop-color="#FF7600"/>
<stop offset="1" stop-color="#FF9840"/>
</linearGradient>
<linearGradient id="paint10_linear_525_793" x1="67.588" y1="35.8738" x2="67.588" y2="27.314" gradientUnits="userSpaceOnUse">
<stop stop-color="#FF7600"/>
<stop offset="1" stop-color="#FF9840"/>
</linearGradient>
<linearGradient id="paint11_linear_525_793" x1="50.851" y1="41.2236" x2="50.851" y2="38.778" gradientUnits="userSpaceOnUse">
<stop stop-color="#FF7600"/>
<stop offset="1" stop-color="#FF9840"/>
</linearGradient>
<linearGradient id="paint12_linear_525_793" x1="56.965" y1="41.2236" x2="56.965" y2="38.778" gradientUnits="userSpaceOnUse">
<stop stop-color="#FF7600"/>
<stop offset="1" stop-color="#FF9840"/>
</linearGradient>
<linearGradient id="paint13_linear_525_793" x1="65.3715" y1="41.2236" x2="65.3715" y2="38.778" gradientUnits="userSpaceOnUse">
<stop stop-color="#FF7600"/>
<stop offset="1" stop-color="#FF9840"/>
</linearGradient>
<linearGradient id="paint14_linear_525_793" x1="71.486" y1="41.2236" x2="71.486" y2="38.778" gradientUnits="userSpaceOnUse">
<stop stop-color="#FF7600"/>
<stop offset="1" stop-color="#FF9840"/>
</linearGradient>
</defs>
</svg>
