<svg width="61" height="63" viewBox="0 0 61 63" fill="none" xmlns="http://www.w3.org/2000/svg">
<path d="M53.5964 51.3757C28.0284 63.496 12.1621 53.3538 2.00309 47.1956C1.374 46.808 0.305298 47.2862 1.23252 48.3457C4.61548 52.4327 15.7067 62.2829 30.181 62.2829C44.6653 62.2829 53.2831 54.4108 54.362 53.0367C55.4357 51.6752 54.6778 50.9253 53.5964 51.3757ZM60.7767 47.4246C60.0895 46.5337 56.6004 46.3676 54.4074 46.6369C52.2094 46.8986 48.9073 48.2375 49.1953 49.0403C49.3418 49.3423 49.6425 49.2064 51.1533 49.0705C52.6667 48.9195 56.9112 48.3859 57.7954 49.5386C58.6848 50.6988 56.4412 56.2203 56.032 57.1112C55.6353 58.0021 56.1835 58.2311 56.9263 57.6372C57.659 57.0432 58.9854 55.5081 59.8747 53.3362C60.759 51.1518 61.2997 48.1041 60.7767 47.4246Z" fill="#FF9900"/>
<path fill-rule="evenodd" clip-rule="evenodd" d="M36.4054 26.642C36.4054 29.8231 36.4862 32.4756 34.8718 35.2993C33.5681 37.597 31.5065 39.0089 29.1998 39.0089C26.0518 39.0089 24.2201 36.6206 24.2201 33.0947C24.2201 26.1362 30.4782 24.8728 36.4028 24.8728V26.642H36.4054ZM44.6695 46.5412C44.1288 47.0244 43.3431 47.0571 42.7342 46.7375C40.0132 44.4876 39.5306 43.4432 38.0324 41.2965C33.5378 45.8668 30.357 47.2333 24.5233 47.2333C17.6311 47.2333 12.2598 42.9978 12.2598 34.5116C12.2598 27.8878 15.8676 23.3754 20.9963 21.1708C25.4455 19.2179 31.6581 18.8731 36.4079 18.3345V17.2775C36.4079 15.3372 36.557 13.042 35.4175 11.3634C34.4145 9.85841 32.502 9.23931 30.8193 9.23931C27.6966 9.23931 24.9073 10.8349 24.2252 14.1418C24.0862 14.8766 23.5456 15.5989 22.8078 15.6341L14.8545 14.7835C14.1849 14.635 13.4472 14.0939 13.6316 13.0722C15.4608 3.47364 24.162 0.579483 31.9537 0.579483C35.943 0.579483 41.1526 1.63648 44.2981 4.64389C48.2874 8.35344 47.9059 13.3012 47.9059 18.6868V31.4086C47.9059 35.2314 49.4976 36.9075 50.9958 38.9762C51.5264 39.711 51.6426 40.5944 50.9731 41.1455C49.3005 42.5347 46.3269 45.1193 44.6922 46.5639L44.6695 46.5412Z" fill="black"/>
<path d="M53.5964 51.3757C28.0284 63.496 12.1621 53.3538 2.00309 47.1956C1.374 46.808 0.305298 47.2862 1.23252 48.3457C4.61548 52.4327 15.7067 62.2829 30.181 62.2829C44.6653 62.2829 53.2831 54.4108 54.362 53.0367C55.4357 51.6752 54.6778 50.9253 53.5964 51.3757ZM60.7767 47.4246C60.0895 46.5337 56.6004 46.3676 54.4074 46.6369C52.2094 46.8986 48.9073 48.2375 49.1953 49.0403C49.3418 49.3423 49.6425 49.2064 51.1533 49.0705C52.6667 48.9195 56.9112 48.3859 57.7954 49.5386C58.6848 50.6988 56.4412 56.2203 56.032 57.1112C55.6353 58.0021 56.1835 58.2311 56.9263 57.6372C57.659 57.0432 58.9854 55.5081 59.8747 53.3362C60.759 51.1518 61.2997 48.1041 60.7767 47.4246Z" fill="#FF9900"/>
<path fill-rule="evenodd" clip-rule="evenodd" d="M36.4054 26.642C36.4054 29.8231 36.4862 32.4756 34.8718 35.2993C33.5681 37.597 31.5065 39.0089 29.1998 39.0089C26.0518 39.0089 24.2201 36.6206 24.2201 33.0947C24.2201 26.1362 30.4782 24.8728 36.4028 24.8728V26.642H36.4054ZM44.6695 46.5412C44.1288 47.0244 43.3431 47.0571 42.7342 46.7375C40.0132 44.4876 39.5306 43.4432 38.0324 41.2965C33.5378 45.8668 30.357 47.2333 24.5233 47.2333C17.6311 47.2333 12.2598 42.9978 12.2598 34.5116C12.2598 27.8878 15.8676 23.3754 20.9963 21.1708C25.4455 19.2179 31.6581 18.8731 36.4079 18.3345V17.2775C36.4079 15.3372 36.557 13.042 35.4175 11.3634C34.4145 9.85841 32.502 9.23931 30.8193 9.23931C27.6966 9.23931 24.9073 10.8349 24.2252 14.1418C24.0862 14.8766 23.5456 15.5989 22.8078 15.6341L14.8545 14.7835C14.1849 14.635 13.4472 14.0939 13.6316 13.0722C15.4608 3.47364 24.162 0.579483 31.9537 0.579483C35.943 0.579483 41.1526 1.63648 44.2981 4.64389C48.2874 8.35344 47.9059 13.3012 47.9059 18.6868V31.4086C47.9059 35.2314 49.4976 36.9075 50.9958 38.9762C51.5264 39.711 51.6426 40.5944 50.9731 41.1455C49.3005 42.5347 46.3269 45.1193 44.6922 46.5639L44.6695 46.5412Z" fill="white"/>
</svg>
