<svg width="481" height="468" viewBox="0 0 481 468" fill="none" xmlns="http://www.w3.org/2000/svg">
<path d="M459.851 315.534C414.408 421.18 293.356 480.363 188.379 464.399C171.301 461.8 124.469 454.062 83.0064 417.556C3.19135 347.278 -13.8783 208.123 50.5066 110.05C97.3675 38.6734 181.372 -1.78839 261.19 0.235031C278.383 0.671754 344.276 3.35785 402.181 50.502C410.688 57.4271 429.447 73.881 446.354 99.9848C486.054 161.283 489.467 246.683 459.851 315.534Z" fill="#EAF3FA"/>
<path d="M176.998 154.214C176.838 154.202 176.683 154.152 176.547 154.067C176.411 153.982 176.299 153.865 176.219 153.727C175.586 152.624 174.918 151.523 174.235 150.455C174.107 150.239 174.07 149.983 174.13 149.74C174.19 149.497 174.344 149.286 174.558 149.152C174.772 149.019 175.03 148.972 175.278 149.023C175.526 149.073 175.745 149.217 175.888 149.423C176.588 150.518 177.273 151.644 177.922 152.775C178.009 152.928 178.053 153.1 178.048 153.275C178.044 153.45 177.991 153.62 177.896 153.768C177.801 153.915 177.668 154.035 177.51 154.113C177.352 154.192 177.175 154.227 176.998 154.214Z" fill="#91B3FA"/>
<path d="M99.313 275.362C97.834 275.271 96.3158 275.103 94.8402 274.915C94.712 274.9 94.5882 274.86 94.4758 274.797C94.3635 274.734 94.2648 274.65 94.1854 274.549C94.1061 274.449 94.0476 274.334 94.0134 274.211C93.9793 274.088 93.9701 273.959 93.9863 273.833C94.0209 273.579 94.1548 273.348 94.3594 273.191C94.5641 273.033 94.8231 272.961 95.081 272.99C96.5224 273.175 98.0168 273.317 99.4496 273.428C100.51 273.506 101.596 273.563 102.679 273.597C102.809 273.597 102.937 273.623 103.056 273.674C103.174 273.725 103.281 273.799 103.37 273.893C103.458 273.986 103.526 274.097 103.57 274.217C103.613 274.338 103.631 274.466 103.622 274.593C103.618 274.72 103.588 274.845 103.535 274.96C103.482 275.076 103.407 275.18 103.313 275.266C103.219 275.353 103.109 275.42 102.989 275.465C102.869 275.509 102.741 275.53 102.613 275.526C101.513 275.501 100.399 275.442 99.313 275.362ZM115.097 275.003C114.855 274.984 114.629 274.878 114.462 274.704C114.295 274.53 114.2 274.301 114.195 274.061C114.189 273.822 114.274 273.589 114.433 273.408C114.592 273.226 114.813 273.11 115.054 273.081C117.491 272.794 119.95 272.391 122.365 271.885L122.575 271.841C122.703 271.809 122.836 271.803 122.967 271.822C123.097 271.842 123.222 271.888 123.334 271.956C123.446 272.025 123.543 272.115 123.619 272.222C123.695 272.329 123.748 272.449 123.776 272.577C123.803 272.704 123.804 272.836 123.779 272.963C123.753 273.091 123.702 273.213 123.628 273.32C123.554 273.428 123.458 273.52 123.347 273.59C123.236 273.661 123.112 273.708 122.982 273.73L122.772 273.774C120.299 274.293 117.781 274.705 115.286 275C115.223 275.007 115.16 275.008 115.097 275.003ZM134.718 270.248C134.497 270.231 134.288 270.14 134.126 269.99C133.964 269.841 133.858 269.641 133.826 269.424C133.794 269.207 133.838 268.986 133.95 268.797C134.062 268.608 134.236 268.462 134.443 268.383C136.817 267.493 139.168 266.483 141.433 265.383C141.663 265.292 141.919 265.29 142.15 265.378C142.381 265.466 142.57 265.637 142.678 265.857C142.786 266.077 142.806 266.329 142.734 266.563C142.661 266.797 142.501 266.995 142.287 267.117C139.968 268.243 137.56 269.277 135.129 270.187C134.998 270.237 134.858 270.258 134.718 270.248ZM152.571 260.923C152.371 260.908 152.179 260.832 152.024 260.706C151.868 260.579 151.756 260.408 151.702 260.216C151.649 260.024 151.657 259.821 151.725 259.634C151.793 259.446 151.918 259.284 152.083 259.17C154.155 257.737 156.182 256.19 158.112 254.57C158.209 254.482 158.323 254.414 158.447 254.37C158.571 254.327 158.703 254.309 158.834 254.317C158.966 254.325 159.095 254.359 159.212 254.417C159.33 254.475 159.435 254.556 159.52 254.656C159.606 254.755 159.67 254.87 159.709 254.994C159.748 255.119 159.761 255.249 159.748 255.379C159.734 255.508 159.695 255.634 159.631 255.748C159.567 255.862 159.481 255.962 159.377 256.042C157.403 257.701 155.326 259.284 153.203 260.751C153.019 260.879 152.796 260.939 152.571 260.923ZM167.575 247.564C167.365 247.55 167.166 247.468 167.008 247.331C166.911 247.248 166.831 247.147 166.774 247.034C166.716 246.921 166.682 246.797 166.673 246.671C166.663 246.545 166.68 246.418 166.72 246.297C166.761 246.177 166.825 246.066 166.909 245.97C168.564 244.083 170.154 242.092 171.626 240.059C171.776 239.85 172.005 239.71 172.261 239.668C172.516 239.626 172.779 239.686 172.989 239.835C173.2 239.984 173.342 240.21 173.385 240.462C173.427 240.715 173.366 240.973 173.216 241.182C171.708 243.266 170.082 245.301 168.386 247.233C168.287 247.347 168.161 247.437 168.02 247.494C167.879 247.552 167.727 247.576 167.575 247.564ZM178.846 231.005C178.686 230.993 178.531 230.942 178.396 230.856C178.26 230.771 178.148 230.654 178.069 230.516C177.99 230.378 177.947 230.222 177.943 230.064C177.939 229.905 177.975 229.748 178.047 229.606C179.193 227.375 180.245 225.065 181.172 222.741C181.274 222.513 181.462 222.332 181.696 222.237C181.93 222.141 182.193 222.14 182.428 222.232C182.663 222.323 182.854 222.502 182.959 222.729C183.064 222.957 183.075 223.216 182.991 223.451C182.042 225.829 180.964 228.195 179.792 230.479C179.704 230.652 179.565 230.794 179.394 230.888C179.223 230.982 179.028 231.023 178.833 231.005H178.846ZM185.705 212.243C185.657 212.239 185.609 212.232 185.561 212.221C185.436 212.193 185.318 212.141 185.213 212.068C185.108 211.995 185.018 211.902 184.95 211.795C184.881 211.688 184.835 211.568 184.813 211.443C184.792 211.318 184.795 211.19 184.824 211.066C185.384 208.625 185.831 206.131 186.156 203.647C186.196 203.399 186.333 203.176 186.536 203.026C186.74 202.876 186.995 202.81 187.248 202.842C187.5 202.874 187.73 203.002 187.888 203.199C188.046 203.395 188.121 203.645 188.096 203.895C187.763 206.424 187.305 208.984 186.73 211.483C186.679 211.712 186.546 211.916 186.355 212.055C186.164 212.195 185.928 212.262 185.691 212.243H185.705ZM187.701 192.385C187.46 192.367 187.234 192.261 187.067 192.088C186.9 191.915 186.804 191.686 186.798 191.447C186.735 188.95 186.55 186.424 186.25 183.941C186.229 183.812 186.235 183.681 186.266 183.555C186.298 183.428 186.356 183.31 186.435 183.206C186.514 183.102 186.614 183.015 186.728 182.95C186.843 182.885 186.969 182.844 187.1 182.829C187.231 182.813 187.363 182.824 187.49 182.86C187.616 182.897 187.734 182.958 187.836 183.04C187.938 183.123 188.022 183.225 188.083 183.34C188.144 183.455 188.181 183.582 188.192 183.711C188.499 186.254 188.689 188.841 188.753 191.399C188.759 191.655 188.662 191.903 188.483 192.088C188.304 192.274 188.058 192.382 187.799 192.388C187.762 192.389 187.725 192.388 187.688 192.385H187.701ZM184.733 172.648C184.532 172.634 184.341 172.558 184.185 172.432C184.03 172.306 183.917 172.135 183.864 171.943C183.181 169.525 182.392 167.119 181.497 164.789C181.441 164.668 181.412 164.538 181.409 164.405C181.407 164.273 181.432 164.141 181.484 164.019C181.535 163.896 181.612 163.786 181.708 163.694C181.805 163.602 181.92 163.53 182.045 163.484C182.171 163.438 182.305 163.417 182.439 163.424C182.573 163.431 182.704 163.465 182.824 163.524C182.945 163.584 183.051 163.666 183.137 163.768C183.224 163.869 183.288 163.987 183.326 164.114C184.241 166.497 185.056 168.962 185.749 171.437C185.816 171.683 185.782 171.946 185.654 172.167C185.526 172.388 185.315 172.55 185.066 172.618C184.953 172.649 184.836 172.659 184.72 172.648H184.733Z" fill="#91B3FA"/>
<path d="M82.583 272.391C82.5154 272.385 82.4485 272.373 82.3832 272.355C81.1263 271.994 79.8574 271.6 78.6124 271.175C78.4869 271.137 78.3705 271.075 78.27 270.991C78.1694 270.908 78.0869 270.806 78.0272 270.691C77.9675 270.575 77.9319 270.449 77.9224 270.32C77.913 270.191 77.93 270.061 77.9724 269.939C78.0148 269.816 78.0816 269.703 78.1691 269.607C78.2565 269.51 78.3627 269.432 78.4814 269.377C78.6 269.322 78.7287 269.291 78.8597 269.285C78.9908 269.28 79.1215 269.301 79.2442 269.347C80.4602 269.758 81.7001 270.145 82.928 270.495C83.1585 270.563 83.3556 270.712 83.4817 270.914C83.6079 271.116 83.6543 271.357 83.6121 271.591C83.5698 271.825 83.4419 272.035 83.2528 272.181C83.0636 272.328 82.8264 272.401 82.5865 272.386L82.583 272.391Z" fill="#91B3FA"/>
<path d="M32.3693 231.775C32.2027 231.763 32.0422 231.709 31.9029 231.618C31.7636 231.527 31.6502 231.402 31.5734 231.256C30.974 230.114 30.3882 228.934 29.8366 227.747C29.7764 227.631 29.7407 227.504 29.7314 227.374C29.7222 227.244 29.7396 227.114 29.7827 226.991C29.8259 226.868 29.8938 226.754 29.9824 226.658C30.0709 226.561 30.1784 226.483 30.2982 226.429C30.418 226.374 30.5478 226.344 30.6797 226.341C30.8116 226.337 30.9429 226.36 31.0656 226.407C31.1884 226.455 31.3002 226.527 31.3942 226.618C31.4882 226.709 31.5625 226.819 31.6127 226.939C32.1524 228.099 32.7228 229.253 33.3086 230.367C33.3885 230.52 33.4259 230.691 33.4168 230.862C33.4077 231.034 33.3525 231.2 33.2568 231.343C33.1611 231.486 33.0284 231.602 32.8724 231.678C32.7164 231.754 32.5428 231.788 32.3693 231.775Z" fill="#91B3FA"/>
<path d="M26.3633 216.891C26.164 216.877 25.9739 216.803 25.8188 216.679C25.6636 216.554 25.5508 216.386 25.4957 216.197C24.9424 214.3 24.4505 212.355 24.0338 210.42C23.9194 209.887 23.8118 209.356 23.7076 208.825C23.6833 208.7 23.684 208.572 23.7098 208.448C23.7355 208.324 23.7858 208.206 23.8577 208.101C23.9296 207.996 24.0218 207.906 24.1289 207.836C24.2361 207.766 24.3561 207.718 24.4821 207.694C24.6082 207.67 24.7378 207.671 24.8635 207.696C24.9893 207.721 25.1088 207.771 25.2151 207.842C25.3214 207.913 25.4125 208.004 25.4833 208.11C25.554 208.216 25.6029 208.334 25.6272 208.459C25.7297 208.978 25.8362 209.498 25.9466 210.02C26.3531 211.909 26.8347 213.807 27.376 215.662C27.4115 215.784 27.4224 215.911 27.4079 216.037C27.3935 216.163 27.3541 216.285 27.2919 216.396C27.2297 216.507 27.146 216.604 27.0456 216.683C26.9451 216.762 26.8299 216.821 26.7066 216.856C26.5953 216.888 26.479 216.9 26.3633 216.891ZM23.1731 197.517C22.9343 197.499 22.7106 197.394 22.5444 197.224C22.3782 197.054 22.2811 196.829 22.2714 196.593C22.1672 194.077 22.1825 191.524 22.3158 189.005C22.329 188.75 22.4444 188.51 22.6365 188.339C22.8287 188.167 23.0819 188.078 23.3405 188.091C23.5974 188.108 23.8376 188.224 24.0103 188.412C24.1829 188.601 24.2747 188.849 24.2661 189.103C24.1363 191.56 24.1226 194.052 24.2234 196.507C24.2296 196.634 24.2102 196.762 24.1663 196.881C24.1225 197.001 24.0551 197.111 23.9679 197.205C23.8807 197.3 23.7756 197.376 23.6585 197.429C23.5415 197.483 23.4148 197.513 23.2858 197.519C23.2499 197.525 23.2107 197.524 23.1731 197.522V197.517ZM24.8006 177.954C24.7582 177.951 24.716 177.945 24.6743 177.937C24.4202 177.885 24.1974 177.736 24.0549 177.522C23.9124 177.307 23.8618 177.046 23.9143 176.795C24.4266 174.328 25.0671 171.857 25.8117 169.449C25.8873 169.203 26.0588 168.996 26.2885 168.875C26.5181 168.754 26.7871 168.728 27.0362 168.803C27.2853 168.878 27.4942 169.047 27.6168 169.274C27.7395 169.5 27.7659 169.766 27.6903 170.012C26.9644 172.373 26.3411 174.777 25.8373 177.187C25.7893 177.417 25.6573 177.623 25.4663 177.764C25.2753 177.906 25.0385 177.973 24.8006 177.954ZM31.1418 159.35C31.0232 159.341 30.9073 159.31 30.8002 159.259C30.6842 159.205 30.5802 159.128 30.4941 159.034C30.4081 158.94 30.3418 158.83 30.2989 158.71C30.2561 158.591 30.2376 158.464 30.2445 158.337C30.2514 158.211 30.2835 158.087 30.3391 157.972C31.4389 155.699 32.6566 153.452 33.9631 151.288C34.0958 151.069 34.3115 150.91 34.5628 150.847C34.814 150.784 35.0803 150.823 35.3029 150.954C35.5255 151.085 35.6863 151.298 35.7499 151.546C35.8135 151.794 35.7746 152.057 35.6419 152.277C34.3679 154.388 33.1775 156.585 32.1033 158.804C32.0173 158.982 31.8783 159.129 31.7049 159.227C31.5316 159.325 31.3321 159.368 31.1333 159.35H31.1418ZM41.802 142.785C41.6237 142.772 41.4525 142.71 41.307 142.607C41.1615 142.505 41.0474 142.364 40.977 142.202C40.9065 142.04 40.8825 141.861 40.9076 141.686C40.9326 141.512 41.0057 141.347 41.1189 141.21C42.7328 139.264 44.4594 137.369 46.2526 135.573C46.4385 135.415 46.6779 135.332 46.9232 135.339C47.1685 135.347 47.4019 135.446 47.577 135.616C47.7522 135.785 47.8563 136.014 47.8688 136.256C47.8813 136.498 47.8012 136.736 47.6445 136.922C45.894 138.674 44.2083 140.526 42.632 142.426C42.5323 142.548 42.4038 142.645 42.2577 142.708C42.1116 142.77 41.9523 142.797 41.7935 142.785H41.802ZM56.1529 129.21C55.9548 129.194 55.7661 129.12 55.6119 128.996C55.4577 128.872 55.3453 128.705 55.2897 128.517C55.2341 128.328 55.2378 128.128 55.3005 127.942C55.3632 127.755 55.4818 127.592 55.6405 127.474C57.6797 125.969 59.8161 124.537 61.9936 123.222C62.2147 123.088 62.4806 123.046 62.733 123.105C62.858 123.135 62.9758 123.188 63.0799 123.262C63.1839 123.337 63.2721 123.431 63.3394 123.539C63.4067 123.647 63.4517 123.767 63.472 123.892C63.4923 124.018 63.4874 124.145 63.4576 124.269C63.4277 124.392 63.3736 124.509 63.2982 124.611C63.2229 124.714 63.1278 124.801 63.0183 124.868C60.8921 126.152 58.8068 127.55 56.8155 129.021C56.6254 129.161 56.3897 129.229 56.1529 129.21ZM73.4019 119.455C73.1825 119.439 72.9748 119.351 72.8124 119.204C72.65 119.058 72.5424 118.862 72.5068 118.647C72.4713 118.433 72.51 118.213 72.6166 118.023C72.7232 117.833 72.8916 117.684 73.0945 117.6C75.4427 116.624 77.8764 115.745 80.2998 114.985C80.5439 114.918 80.8046 114.948 81.027 115.068C81.2495 115.187 81.4164 115.387 81.4927 115.625C81.569 115.864 81.5487 116.122 81.4361 116.346C81.3235 116.57 81.1274 116.742 80.889 116.826C78.5134 117.568 76.1463 118.426 73.8527 119.381C73.7088 119.443 73.5519 119.471 73.395 119.462L73.4019 119.455ZM92.5158 114.071C92.276 114.054 92.0508 113.951 91.8833 113.781C91.7157 113.611 91.6176 113.386 91.6077 113.149C91.5977 112.911 91.6767 112.679 91.8294 112.496C91.9822 112.313 92.198 112.191 92.4356 112.155C94.9546 111.757 97.5214 111.471 100.066 111.304C100.194 111.295 100.323 111.312 100.444 111.353C100.566 111.393 100.678 111.457 100.775 111.541C100.871 111.624 100.95 111.725 101.007 111.839C101.064 111.953 101.098 112.076 101.106 112.203C101.115 112.329 101.098 112.456 101.057 112.576C101.016 112.696 100.951 112.807 100.866 112.902C100.782 112.998 100.679 113.076 100.564 113.132C100.449 113.188 100.324 113.221 100.196 113.23C97.7127 113.398 95.2039 113.673 92.743 114.061C92.6659 114.075 92.5874 114.081 92.509 114.078L92.5158 114.071ZM119.909 114.317C119.876 114.315 119.842 114.311 119.809 114.305C117.353 113.87 114.856 113.545 112.373 113.337C112.245 113.327 112.12 113.292 112.006 113.235C111.891 113.177 111.79 113.098 111.707 113.001C111.623 112.905 111.56 112.793 111.521 112.673C111.481 112.552 111.466 112.425 111.476 112.299C111.486 112.172 111.522 112.049 111.58 111.936C111.638 111.824 111.719 111.723 111.816 111.641C111.914 111.559 112.027 111.496 112.149 111.457C112.271 111.418 112.4 111.403 112.528 111.413H112.538C115.076 111.626 117.638 111.96 120.154 112.403C120.399 112.449 120.617 112.585 120.764 112.784C120.911 112.982 120.976 113.229 120.945 113.474C120.913 113.718 120.789 113.942 120.596 114.098C120.404 114.255 120.158 114.333 119.909 114.317Z" fill="#91B3FA"/>
<path d="M135.546 118.71C135.448 118.703 135.351 118.681 135.259 118.646C134.064 118.182 132.853 117.74 131.635 117.331C131.399 117.241 131.208 117.064 131.101 116.838C130.994 116.612 130.98 116.354 131.061 116.118C131.142 115.881 131.313 115.686 131.538 115.571C131.762 115.456 132.023 115.432 132.265 115.503C133.512 115.923 134.762 116.374 135.978 116.852C136.192 116.938 136.368 117.098 136.475 117.301C136.581 117.504 136.611 117.737 136.559 117.96C136.507 118.183 136.377 118.38 136.191 118.517C136.006 118.654 135.777 118.721 135.546 118.706V118.71Z" fill="#91B3FA"/>
<path d="M135.862 138.622C135.693 138.506 135.492 138.445 135.287 138.448C135.081 138.45 134.882 138.516 134.716 138.636L125.007 145.633C119.719 143.556 114.124 142.344 108.441 142.047L102.585 131.692C102.485 131.515 102.331 131.373 102.145 131.286C101.959 131.199 101.751 131.172 101.548 131.208L87.3563 133.717C87.154 133.753 86.968 133.85 86.8242 133.995C86.6804 134.14 86.5858 134.326 86.5536 134.526L84.6972 146.24C79.4705 148.468 74.6469 151.522 70.4164 155.283L58.851 152.048C58.6533 151.993 58.4431 152 58.2497 152.068C58.0563 152.136 57.8892 152.262 57.7717 152.429L49.5348 164.114C49.4173 164.28 49.3553 164.479 49.3575 164.682C49.3596 164.884 49.4258 165.081 49.5468 165.245L56.6343 174.831C54.5318 180.052 53.3049 185.577 53.0017 191.187L42.514 196.971C42.3346 197.07 42.191 197.221 42.1031 197.404C42.0153 197.588 41.9875 197.793 42.0238 197.993L44.5651 212.007C44.6017 212.207 44.7005 212.39 44.8478 212.532C44.995 212.674 45.1833 212.766 45.3865 212.798L57.2491 214.635C59.5067 219.795 62.6002 224.556 66.4081 228.734L63.1359 240.161C63.0802 240.356 63.0874 240.564 63.1566 240.755C63.2257 240.946 63.3534 241.111 63.5219 241.227L75.352 249.351C75.5207 249.467 75.722 249.529 75.9277 249.526C76.1335 249.524 76.3335 249.459 76.4996 249.339L86.2069 242.341C91.495 244.417 97.0902 245.628 102.773 245.928L108.631 256.283C108.731 256.46 108.885 256.602 109.07 256.688C109.256 256.775 109.465 256.803 109.667 256.767L123.859 254.258C124.061 254.221 124.247 254.124 124.391 253.979C124.534 253.834 124.628 253.648 124.66 253.448L126.513 241.729C131.739 239.501 136.562 236.447 140.792 232.686L152.358 235.922C152.555 235.977 152.766 235.97 152.959 235.902C153.152 235.833 153.32 235.707 153.437 235.541L161.676 223.857C161.793 223.691 161.855 223.492 161.852 223.289C161.85 223.086 161.783 222.889 161.662 222.726L154.574 213.14C156.679 207.919 157.906 202.395 158.207 196.784L168.695 191C168.874 190.901 169.018 190.75 169.106 190.566C169.195 190.383 169.223 190.177 169.187 189.977L166.644 175.964C166.608 175.765 166.509 175.581 166.362 175.439C166.215 175.297 166.027 175.205 165.824 175.174L153.955 173.344C151.698 168.185 148.605 163.423 144.797 159.246L148.073 147.827C148.129 147.632 148.122 147.424 148.053 147.233C147.983 147.042 147.856 146.877 147.687 146.761L135.862 138.622Z" fill="#8598AA"/>
<path d="M104.566 208.044C103.199 207.942 101.853 207.648 100.57 207.169C97.216 205.912 94.4686 203.447 92.8803 200.271C91.2919 197.095 90.9804 193.443 92.0083 190.049C93.0363 186.655 95.3275 183.772 98.4212 181.978C101.515 180.184 105.182 179.613 108.684 180.38C112.187 181.147 115.266 183.195 117.301 186.112C119.337 189.029 120.178 192.599 119.656 196.103C119.135 199.608 117.289 202.788 114.489 205.003C111.69 207.218 108.144 208.305 104.566 208.044ZM106.445 182.819C103.578 182.606 100.735 183.472 98.4895 185.244C96.2435 187.016 94.7607 189.563 94.3395 192.371C93.9183 195.179 94.59 198.04 96.2194 200.379C97.8488 202.718 100.315 204.36 103.122 204.976C105.928 205.592 108.867 205.136 111.346 203.699C113.826 202.262 115.662 199.951 116.485 197.231C117.309 194.511 117.058 191.584 115.784 189.04C114.51 186.495 112.307 184.521 109.618 183.516C108.596 183.134 107.524 182.9 106.435 182.819H106.445Z" fill="white"/>
<path d="M102.692 229.958C94.6834 229.345 87.1064 226.127 81.1481 220.807C75.1898 215.488 71.1867 208.367 69.7657 200.561C69.2218 197.578 69.0617 194.54 69.2892 191.518C69.9097 183.611 73.1691 176.13 78.5566 170.248C83.9442 164.366 91.1557 160.414 99.0617 159.012C99.311 158.968 99.5604 158.926 99.8097 158.888C101.854 158.569 103.922 158.422 105.992 158.448C106.248 158.448 106.504 158.458 106.761 158.467L106.658 161.362C104.287 161.282 101.914 161.452 99.5791 161.868C91.3539 163.297 83.9805 167.745 78.9384 174.319C78.6538 174.69 78.3759 175.067 78.105 175.45C74.6957 180.259 72.6605 185.885 72.213 191.739C72.0045 194.516 72.1519 197.309 72.6519 200.05C73.4232 204.303 75.0356 208.365 77.397 212.003C79.7583 215.641 82.8224 218.784 86.4141 221.252C90.0058 223.721 94.055 225.467 98.3302 226.39C102.605 227.314 107.023 227.397 111.331 226.634C126.6 223.937 137.587 211.304 138.69 196.689C139.014 192.351 138.465 187.993 137.075 183.866C135.685 179.738 133.481 175.923 130.59 172.641L132.81 170.737C135.953 174.31 138.349 178.461 139.861 182.952C141.372 187.443 141.968 192.184 141.616 196.904C140.42 212.804 128.465 226.547 111.846 229.486C108.827 230.022 105.752 230.181 102.692 229.958Z" fill="white"/>
<path d="M283.289 116.761C283.066 116.744 282.851 116.672 282.664 116.549C282.478 116.426 282.327 116.258 282.226 116.061C281.457 114.572 280.612 113.103 279.71 111.695C279.526 111.407 279.465 111.058 279.541 110.726C279.617 110.393 279.824 110.104 280.116 109.922C280.407 109.74 280.761 109.68 281.097 109.755C281.434 109.83 281.727 110.034 281.911 110.323C282.856 111.796 283.742 113.336 284.546 114.896C284.624 115.046 284.671 115.21 284.684 115.378C284.697 115.547 284.677 115.716 284.624 115.876C284.571 116.037 284.487 116.186 284.375 116.314C284.264 116.442 284.128 116.547 283.976 116.624C283.764 116.731 283.527 116.778 283.289 116.761Z" fill="#91B3FA"/>
<path d="M237.062 197.442C236.736 197.416 236.431 197.269 236.209 197.032C235.987 196.794 235.864 196.483 235.864 196.159C235.864 195.836 235.987 195.525 236.209 195.287C236.431 195.05 236.736 194.903 237.062 194.877C239.605 194.697 242.132 194.344 244.626 193.82C245.507 193.635 246.378 193.431 247.239 193.208C247.406 193.158 247.582 193.143 247.756 193.162C247.929 193.181 248.097 193.234 248.25 193.319C248.402 193.403 248.536 193.517 248.642 193.654C248.749 193.79 248.827 193.946 248.872 194.113C248.916 194.28 248.926 194.454 248.901 194.625C248.876 194.796 248.817 194.96 248.726 195.107C248.636 195.255 248.516 195.383 248.374 195.484C248.233 195.585 248.072 195.656 247.901 195.695C247 195.93 246.089 196.143 245.169 196.336C242.559 196.883 239.913 197.253 237.251 197.442C237.188 197.447 237.125 197.447 237.062 197.442ZM263.173 189.011C262.902 188.988 262.646 188.882 262.439 188.709C262.232 188.535 262.086 188.302 262.02 188.042C261.954 187.782 261.971 187.508 262.071 187.258C262.17 187.009 262.346 186.796 262.573 186.65C265.485 184.834 268.216 182.752 270.732 180.43C270.857 180.315 271.003 180.225 271.163 180.165C271.323 180.106 271.494 180.079 271.665 180.084C271.836 180.09 272.004 180.129 272.159 180.199C272.315 180.269 272.455 180.368 272.572 180.491C272.689 180.615 272.78 180.76 272.84 180.918C272.9 181.076 272.928 181.244 272.922 181.413C272.916 181.581 272.877 181.747 272.806 181.901C272.735 182.055 272.634 182.193 272.509 182.308C269.876 184.74 267.017 186.922 263.97 188.825C263.731 188.969 263.451 189.032 263.173 189.004V189.011ZM282.111 169.368C281.919 169.353 281.733 169.296 281.566 169.2C281.417 169.117 281.287 169.005 281.182 168.872C281.076 168.739 280.999 168.587 280.953 168.424C280.908 168.261 280.895 168.091 280.916 167.924C280.937 167.756 280.992 167.595 281.076 167.448C282.773 164.487 284.185 161.377 285.296 158.157C285.415 157.844 285.653 157.59 285.959 157.447C286.265 157.305 286.615 157.285 286.935 157.392C287.255 157.5 287.52 157.726 287.675 158.023C287.829 158.321 287.861 158.665 287.762 158.985C286.599 162.358 285.119 165.615 283.341 168.716C283.219 168.928 283.039 169.101 282.821 169.215C282.603 169.33 282.357 169.381 282.111 169.362V169.368ZM289.407 143.206C289.075 143.181 288.765 143.032 288.541 142.788C288.317 142.545 288.196 142.226 288.203 141.897C288.273 138.496 288.021 135.096 287.45 131.741C287.42 131.419 287.515 131.097 287.715 130.84C287.916 130.584 288.206 130.411 288.53 130.357C288.853 130.303 289.185 130.372 289.46 130.549C289.735 130.726 289.931 130.999 290.011 131.313C290.61 134.826 290.874 138.387 290.8 141.949C290.793 142.29 290.649 142.614 290.4 142.851C290.151 143.087 289.817 143.216 289.472 143.209L289.407 143.206Z" fill="#91B3FA"/>
<path d="M219.95 196.042C219.879 196.037 219.809 196.026 219.74 196.01C218.016 195.6 216.295 195.106 214.616 194.54C214.3 194.421 214.042 194.186 213.898 193.884C213.754 193.582 213.735 193.236 213.845 192.92C213.954 192.604 214.184 192.342 214.486 192.19C214.787 192.038 215.136 192.008 215.46 192.106C217.055 192.646 218.705 193.118 220.341 193.509C220.653 193.59 220.924 193.782 221.101 194.049C221.277 194.315 221.348 194.637 221.298 194.952C221.248 195.267 221.082 195.552 220.831 195.753C220.581 195.954 220.263 196.056 219.941 196.039L219.95 196.042Z" fill="#91B3FA"/>
<path d="M183.15 167.616C182.928 167.6 182.714 167.528 182.528 167.407C182.343 167.287 182.192 167.121 182.089 166.926C181.278 165.38 180.527 163.771 179.859 162.146C179.729 161.83 179.732 161.476 179.867 161.162C180.001 160.848 180.257 160.6 180.577 160.472C180.897 160.344 181.255 160.347 181.573 160.48C181.891 160.613 182.142 160.865 182.272 161.181C182.909 162.731 183.626 164.265 184.402 165.743C184.508 165.946 184.557 166.173 184.545 166.401C184.533 166.629 184.459 166.85 184.331 167.041C184.204 167.232 184.027 167.386 183.82 167.487C183.612 167.588 183.381 167.632 183.15 167.616Z" fill="#91B3FA"/>
<path d="M177.027 146.784C176.72 146.759 176.432 146.629 176.213 146.414C175.994 146.2 175.859 145.916 175.832 145.613C175.563 142.569 175.543 139.508 175.772 136.461C175.806 136.011 175.846 135.567 175.89 135.129C175.935 134.794 176.107 134.489 176.372 134.275C176.636 134.061 176.973 133.954 177.314 133.977C177.485 133.994 177.65 134.043 177.8 134.123C177.951 134.203 178.084 134.311 178.193 134.442C178.301 134.572 178.382 134.723 178.432 134.884C178.481 135.046 178.498 135.215 178.481 135.383C178.438 135.805 178.402 136.226 178.37 136.651C178.151 139.564 178.17 142.488 178.428 145.398C178.443 145.566 178.424 145.735 178.373 145.896C178.321 146.057 178.238 146.207 178.129 146.336C178.019 146.466 177.884 146.572 177.732 146.65C177.581 146.728 177.415 146.776 177.244 146.79C177.172 146.794 177.099 146.792 177.027 146.784ZM181.23 120.429C181.089 120.418 180.951 120.384 180.821 120.329C180.663 120.263 180.52 120.168 180.399 120.048C180.279 119.927 180.184 119.785 180.119 119.628C180.055 119.471 180.023 119.304 180.024 119.135C180.025 118.966 180.06 118.798 180.127 118.643C181.507 115.417 183.184 112.323 185.136 109.399C185.332 109.127 185.627 108.94 185.959 108.878C186.291 108.817 186.635 108.885 186.917 109.069C187.199 109.253 187.398 109.538 187.472 109.864C187.545 110.19 187.487 110.531 187.31 110.816C185.447 113.608 183.847 116.563 182.528 119.643C182.423 119.89 182.242 120.099 182.011 120.24C181.779 120.381 181.509 120.447 181.237 120.429H181.23ZM197.378 99.0392C197.119 99.0197 196.872 98.9242 196.668 98.765C196.464 98.6057 196.313 98.39 196.235 98.1455C196.156 97.901 196.154 97.6388 196.227 97.3928C196.3 97.1467 196.447 96.9279 196.647 96.7646C199.387 94.5387 202.33 92.5682 205.439 90.8781C205.741 90.7216 206.093 90.6883 206.42 90.7855C206.747 90.8826 207.022 91.1024 207.186 91.3976C207.35 91.6928 207.391 92.0399 207.299 92.3643C207.207 92.6887 206.99 92.9645 206.694 93.1325C203.727 94.7452 200.918 96.6255 198.302 98.7492C198.044 98.9604 197.712 99.0644 197.378 99.0392ZM221.762 87.5614C221.448 87.5403 221.152 87.4073 220.929 87.1873C220.707 86.9672 220.573 86.6748 220.552 86.3645C220.531 86.0542 220.625 85.7469 220.816 85.4997C221.007 85.2525 221.283 85.0822 221.591 85.0203C225.065 84.3128 228.598 83.9216 232.144 83.8517C232.316 83.8444 232.488 83.8717 232.649 83.9317C232.81 83.9918 232.956 84.0835 233.081 84.2012C233.205 84.319 233.303 84.4603 233.37 84.6168C233.437 84.7732 233.472 84.9414 233.471 85.1113C233.474 85.2801 233.444 85.4478 233.382 85.605C233.32 85.7622 233.227 85.9057 233.108 86.0274C232.99 86.149 232.848 86.2465 232.691 86.3141C232.535 86.3817 232.366 86.4182 232.195 86.4215C228.809 86.49 225.436 86.8642 222.119 87.5394C222.002 87.5631 221.882 87.5705 221.762 87.5614Z" fill="#91B3FA"/>
<path d="M253.732 90.2688C253.601 90.2598 253.472 90.2308 253.349 90.1829C251.778 89.5691 250.161 89.0228 248.54 88.5574C248.209 88.4621 247.929 88.2407 247.763 87.9419C247.597 87.6431 247.557 87.2913 247.654 86.9639C247.75 86.6366 247.975 86.3605 248.277 86.1963C248.58 86.0322 248.936 85.9935 249.268 86.0888C250.965 86.5761 252.661 87.1477 254.308 87.7902C254.597 87.9037 254.835 88.1156 254.98 88.3876C255.124 88.6596 255.166 88.9737 255.096 89.2731C255.027 89.5726 254.851 89.8375 254.601 90.0202C254.351 90.2028 254.042 90.291 253.732 90.2688Z" fill="#91B3FA"/>
<path d="M253.99 103.268C253.876 103.187 253.739 103.143 253.599 103.143C253.458 103.143 253.321 103.187 253.207 103.268L246.565 108.055C242.946 106.634 239.117 105.805 235.228 105.601L231.222 98.5193C231.154 98.3968 231.05 98.2983 230.923 98.2378C230.795 98.1772 230.652 98.1577 230.513 98.1821L220.804 99.8986C220.666 99.9242 220.539 99.9912 220.441 100.09C220.343 100.19 220.278 100.316 220.256 100.453L218.989 108.469C215.413 109.993 212.114 112.083 209.22 114.656L201.308 112.442C201.172 112.404 201.028 112.409 200.896 112.456C200.764 112.503 200.65 112.589 200.57 112.704L194.934 120.696C194.852 120.809 194.808 120.944 194.808 121.083C194.808 121.222 194.852 121.357 194.934 121.47L199.782 128.028C198.343 131.6 197.504 135.381 197.298 139.22L190.125 143.176C190.002 143.244 189.903 143.347 189.842 143.473C189.781 143.598 189.76 143.739 189.783 143.876L191.523 153.462C191.548 153.599 191.615 153.724 191.715 153.822C191.816 153.919 191.945 153.982 192.084 154.003L200.203 155.254C201.746 158.784 203.863 162.042 206.469 164.899L204.228 172.712C204.191 172.845 204.196 172.986 204.243 173.117C204.29 173.247 204.377 173.36 204.491 173.44L212.586 179.004C212.702 179.083 212.839 179.124 212.979 179.122C213.12 179.121 213.256 179.077 213.37 178.996L220.012 174.209C223.63 175.63 227.459 176.458 231.348 176.662L235.355 183.744C235.423 183.866 235.528 183.963 235.655 184.024C235.782 184.084 235.925 184.104 236.063 184.082L245.774 182.363C245.912 182.339 246.04 182.273 246.138 182.174C246.236 182.075 246.3 181.947 246.321 181.81L247.588 173.792C251.163 172.27 254.463 170.181 257.357 167.607L265.269 169.82C265.404 169.857 265.548 169.852 265.68 169.805C265.813 169.759 265.927 169.673 266.008 169.56L271.644 161.568C271.725 161.454 271.768 161.319 271.768 161.18C271.768 161.041 271.725 160.905 271.644 160.792L266.799 154.244C268.238 150.672 269.078 146.891 269.284 143.052L276.457 139.096C276.58 139.028 276.679 138.925 276.74 138.799C276.801 138.674 276.822 138.533 276.798 138.396L275.058 128.81C275.034 128.673 274.967 128.547 274.867 128.449C274.766 128.352 274.637 128.288 274.498 128.267L266.379 127.018C264.836 123.487 262.719 120.23 260.113 117.373L262.355 109.56C262.393 109.427 262.387 109.285 262.34 109.154C262.293 109.023 262.206 108.91 262.091 108.83L253.99 103.268Z" fill="#8598AA"/>
<path d="M232.519 151.687C230.144 151.516 227.893 150.569 226.124 148.994C224.355 147.419 223.168 145.307 222.751 142.991C222.334 140.676 222.711 138.289 223.822 136.209C224.933 134.128 226.714 132.473 228.885 131.505C230.371 130.84 231.992 130.52 233.623 130.568C235.254 130.616 236.852 131.032 238.295 131.783C239.739 132.534 240.99 133.6 241.952 134.901C242.914 136.202 243.563 137.703 243.849 139.289C244.134 140.875 244.049 142.504 243.599 144.053C243.15 145.602 242.348 147.028 241.255 148.224C240.162 149.42 238.806 150.354 237.292 150.954C235.778 151.554 234.145 151.805 232.518 151.687H232.519ZM230.497 135.02C229.271 135.568 228.237 136.462 227.526 137.59C226.814 138.717 226.457 140.028 226.5 141.356C226.543 142.684 226.984 143.969 227.767 145.05C228.55 146.131 229.64 146.958 230.899 147.427C232.158 147.896 233.53 147.985 234.841 147.685C236.151 147.384 237.342 146.706 238.263 145.738C239.184 144.769 239.793 143.552 240.013 142.241C240.233 140.931 240.055 139.585 239.501 138.374C238.756 136.752 237.39 135.487 235.702 134.859C234.014 134.23 232.142 134.288 230.497 135.02Z" fill="white"/>
<path d="M231.232 166.683C225.542 166.25 220.158 163.965 215.924 160.187C211.69 156.409 208.845 151.351 207.834 145.805C207.448 143.686 207.333 141.528 207.493 139.38C208.008 132.834 211.064 126.737 216.024 122.363C220.983 117.988 227.463 115.675 234.109 115.905L233.971 119.76C232.417 119.707 230.861 119.816 229.331 120.087C223.881 121.037 219.004 124.006 215.697 128.387L215.549 128.586C215.448 128.722 215.349 128.857 215.252 128.997C213.017 132.15 211.683 135.838 211.39 139.676C211.254 141.496 211.35 143.327 211.677 145.124C212.629 150.279 215.448 154.916 219.608 158.169C223.768 161.423 228.984 163.072 234.285 162.808C239.585 162.544 244.607 160.385 248.414 156.734C252.221 153.082 254.553 148.189 254.974 142.965C255.188 140.114 254.83 137.25 253.918 134.536C253.007 131.823 251.56 129.315 249.662 127.156L252.607 124.626C255.955 128.434 258.082 133.138 258.719 138.142C259.355 143.145 258.471 148.222 256.18 152.729C253.888 157.236 250.292 160.969 245.848 163.455C241.404 165.94 236.313 167.066 231.22 166.69L231.232 166.683Z" fill="white"/>
<path d="M197.963 374.82C164.111 367.449 189.612 317.867 190.815 315.948L130.149 336.982C130.149 336.982 124.732 365.805 162.483 392.333C172.034 399.044 181.698 401.944 190.808 402.527C190.186 390.957 193.656 381.706 197.963 374.82Z" fill="url(#paint0_linear_402_1005)"/>
<path d="M266.868 377.102C256.92 365.101 240.416 369.669 240.416 369.669C220.747 375.717 207.168 376.825 197.963 374.82C193.656 381.707 190.186 390.957 190.807 402.528C210.521 403.804 227.636 394.265 235.381 389.077C238.169 387.209 241.972 387.817 243.943 390.513C245.946 393.252 247.659 396.714 246.368 399.487C243.821 404.957 250.023 408.665 251.127 406.738C252.232 404.811 252.972 391.714 252.972 391.714C252.972 391.714 262.572 408.847 266.344 415.454C270.117 422.06 278.196 418.784 278.196 418.784C278.196 418.784 276.815 389.104 266.868 377.102Z" fill="#FFC499"/>
<path d="M62.9329 248.87C62.9329 248.87 105.528 215.739 217.247 262.865C217.247 262.865 229.33 276.017 225.214 292.06C221.098 308.102 162.916 397.313 163.196 437.33C163.196 437.33 121.159 465.759 62.5367 444.373C62.5436 444.373 36.1509 340.452 62.9329 248.87Z" fill="url(#paint1_linear_402_1005)"/>
<path d="M153.314 204.076L138.029 239.442C137.278 241.159 137.043 243.054 137.353 244.899C137.663 246.744 138.505 248.462 139.778 249.848C145.059 255.534 155.774 262.933 172.739 256.545C175.221 255.611 177.412 254.052 179.093 252.023C180.775 249.993 181.889 247.565 182.325 244.978L188.827 206.219L153.314 204.076Z" fill="#FFC499"/>
<path d="M61.8943 381.601C49.5638 360.693 91.3577 293.92 91.3577 293.92L62.9327 248.865C62.9327 248.865 -35.6412 365.107 14.9343 420.834C22.1857 428.821 30.0758 433.6 38.2717 435.946C40.3177 406.837 52.4671 390.231 61.8943 381.601Z" fill="url(#paint2_linear_402_1005)"/>
<path d="M60.8748 381.575C60.5751 381.662 60.2542 381.648 59.9637 381.534C59.6732 381.42 59.43 381.213 59.2729 380.946C46.6657 359.565 87.0319 294.613 88.755 291.849C88.95 291.538 89.2625 291.315 89.6236 291.231C89.9847 291.147 90.3649 291.207 90.6806 291.4C90.9963 291.592 91.2216 291.901 91.307 292.257C91.3923 292.614 91.3307 292.989 91.1357 293.301C90.7225 293.962 49.9209 359.597 61.6895 379.556C61.798 379.737 61.863 379.94 61.8796 380.15C61.8962 380.36 61.8639 380.57 61.7853 380.766C61.7066 380.961 61.5837 381.136 61.4258 381.277C61.268 381.418 61.0795 381.522 60.8748 381.58V381.575Z" fill="#626D76"/>
<path d="M160.999 379.298C153.436 381.369 146.399 385.082 138.798 386.992C130.361 389.112 122.018 391.604 113.522 393.492C100.303 396.432 82.911 399.801 71.3012 390.83C70.3209 390.073 62.4495 381.284 61.8945 381.601C40.8131 393.626 36.7144 421.724 36.7144 435.357C75.1404 456.107 135.597 415.703 151.873 403.895C154.542 401.951 157.874 401.113 161.16 401.558C167.82 402.458 179.295 403.67 185.346 402.326C194.2 400.362 209.208 430.654 223.045 420.067C223.045 420.067 206.878 366.739 160.999 379.298Z" fill="#FFC499"/>
<path d="M202.85 154.091C202.85 154.091 212.502 184.949 211.628 200.5C210.753 216.052 212.994 226.442 194.55 227.56C176.105 228.678 161.869 218.102 155.352 201.804C155.352 201.804 145.093 176.666 149.093 167.274C153.092 157.882 202.85 154.091 202.85 154.091Z" fill="#FFC499"/>
<path d="M162.792 191.42L165.079 191.671C165.079 191.671 157.811 171.548 166.469 169.106C175.128 166.665 208.676 163.674 217.052 152.961C225.124 142.635 220.657 127.655 212.007 122.649C211.737 122.502 211.421 122.461 211.121 122.534C210.822 122.607 210.562 122.789 210.393 123.043L209.479 124.369C209.34 124.57 209.144 124.725 208.915 124.815C208.687 124.906 208.436 124.926 208.195 124.875C207.954 124.823 207.735 124.702 207.564 124.527C207.394 124.351 207.28 124.129 207.238 123.89C207.068 122.863 205.727 122.497 205.073 123.313C202.511 126.517 196.021 131.454 179.968 132.587C157.185 134.196 141.419 141.49 139.335 156.683C139.307 156.899 139.22 157.104 139.084 157.276C138.948 157.449 138.768 157.582 138.562 157.662C138.357 157.742 138.133 157.767 137.914 157.732C137.696 157.698 137.491 157.607 137.32 157.468C135.783 156.288 133.199 155.539 129.345 158.077C122.64 162.492 123.658 175.969 135.867 188.307C136.005 188.44 136.11 188.604 136.172 188.784C136.235 188.965 136.253 189.157 136.226 189.346C136.199 189.535 136.128 189.715 136.017 189.871C135.907 190.027 135.76 190.156 135.59 190.246C132.977 191.543 128.93 194.868 137.773 200.869C146.824 207.009 152.585 207.083 154.795 206.771C155.082 206.733 155.346 206.597 155.542 206.387C155.738 206.176 155.853 205.905 155.867 205.619L156.55 192.027C156.559 191.861 156.602 191.699 156.676 191.549C156.75 191.4 156.854 191.268 156.982 191.16C157.11 191.052 157.259 190.971 157.419 190.922C157.58 190.872 157.749 190.856 157.916 190.873L162.792 191.42Z" fill="url(#paint3_linear_402_1005)"/>
<path d="M163.027 194.305C163.027 194.305 160.2 174.958 151.072 179.298C141.944 183.638 153.121 200.853 159.907 202.313L163.027 194.305Z" fill="url(#paint4_linear_402_1005)"/>
<path d="M133.048 437.922C133.165 437.922 133.285 437.922 133.405 437.922L288.504 435.561C292.338 435.502 295.385 432.543 295.31 428.948C295.234 425.353 292.053 422.428 288.231 422.541L133.131 424.91C129.297 424.967 126.25 427.928 126.326 431.521C126.399 435.005 129.376 437.804 133.048 437.922Z" fill="url(#paint5_linear_402_1005)"/>
<path d="M193.419 213.728C165.785 216.041 143.177 194.674 143.018 194.357V189.541C143.17 189.848 166.992 213.591 193.261 211.392L193.419 213.728Z" fill="url(#paint6_linear_402_1005)"/>
<path d="M204.684 212.544C204.684 214.36 203.357 215.832 201.719 215.832H193.812C192.174 215.832 190.845 214.36 190.845 212.544C190.845 210.728 192.174 209.256 193.812 209.256H201.719C203.357 209.256 204.684 210.728 204.684 212.544Z" fill="#FF740F"/>
<path d="M157.136 165.314C157.136 165.314 150.817 132.067 189.755 131.882C189.867 131.882 189.974 131.841 190.057 131.768C190.14 131.694 190.193 131.594 190.206 131.484C190.218 131.375 190.19 131.265 190.126 131.175C190.062 131.085 189.966 131.022 189.858 130.997C179.194 128.57 148.242 124.977 147.775 164.874C153.703 166.98 157.136 165.314 157.136 165.314Z" fill="#FF9F4B"/>
<path d="M150.003 161.259C134.812 164.294 136.682 183.27 136.682 183.27C135.587 197.035 139.657 203.859 144.879 207.11C146.631 208.2 148.64 208.824 150.709 208.921C152.778 209.018 154.837 208.585 156.686 207.664C158.535 206.742 160.111 205.364 161.261 203.663C162.411 201.962 163.096 199.997 163.248 197.957C163.529 194.21 163.85 190.649 164.131 189.384C164.803 186.321 165.194 158.212 150.003 161.259Z" fill="url(#paint7_linear_402_1005)"/>
<path d="M151.398 166.055C149.868 165.79 148.292 166.042 146.925 166.77C145.558 167.499 144.48 168.661 143.865 170.069C134.786 190.835 145.933 204.345 151.406 204.626C157.174 204.923 157.056 177.524 155.833 170.501C155.319 167.557 153.425 166.402 151.398 166.055Z" fill="url(#paint8_linear_402_1005)"/>
<path d="M8.61543 443.158C8.35755 441.268 8.70936 439.312 9.57693 437.824C10.4445 436.337 11.7356 435.479 13.0985 435.479H474.67C476.462 435.479 478.13 436.769 479.095 438.904C480.06 441.038 480.19 443.721 479.437 446.021L474.434 461.327C473.29 464.832 470.807 467.076 468.076 467.076H16.2614C13.7218 467.076 11.5375 464.529 11.0559 461.006L8.61543 443.158Z" fill="url(#paint9_linear_402_1005)"/>
<path d="M468.078 467.641H16.2615C13.4368 467.641 11.0082 464.881 10.4891 461.079L8.04517 443.234C7.77021 441.21 8.14593 439.14 9.06986 437.545C10.0433 435.872 11.5086 434.914 13.0867 434.914H474.669C476.703 434.914 478.552 436.319 479.621 438.674C480.646 440.942 480.784 443.755 479.987 446.195L474.983 461.5C473.762 465.23 471.055 467.641 468.078 467.641ZM9.18599 443.082L11.6282 460.927C12.0705 464.163 14.0191 466.512 16.2683 466.512H468.078C470.548 466.512 472.829 464.409 473.885 461.155L478.887 445.847C479.602 443.644 479.489 441.259 478.569 439.131C477.693 437.195 476.235 436.039 474.665 436.039H13.0986C11.9407 436.039 10.8375 436.792 10.0724 438.104C9.26284 439.489 8.94006 441.308 9.18257 443.079L9.18599 443.082Z" fill="white"/>
<path d="M252.691 261.565C250.084 282.598 238.355 368.058 234.998 392.475C234.887 393.283 234.956 394.104 235.2 394.883C235.443 395.661 235.856 396.377 236.408 396.982C236.961 397.587 237.641 398.066 238.4 398.385C239.159 398.704 239.979 398.856 240.804 398.831L439.766 393.209C441.031 393.173 442.248 392.722 443.224 391.926C444.2 391.13 444.879 390.035 445.154 388.815L476.105 251.195C476.295 250.347 476.283 249.467 476.071 248.625C475.858 247.782 475.451 247 474.88 246.339C474.31 245.678 473.592 245.157 472.783 244.816C471.974 244.476 471.096 244.325 470.218 244.376L258.002 256.65C256.674 256.725 255.415 257.259 254.444 258.157C253.473 259.055 252.853 260.261 252.691 261.565Z" fill="url(#paint10_linear_402_1005)"/>
<path d="M332.668 347.868L303.261 430.273L371.637 431.703L377.331 348.362C377.394 347.44 377.256 346.516 376.928 345.652C376.599 344.787 376.088 344.002 375.427 343.348C374.766 342.695 373.971 342.189 373.095 341.864C372.22 341.539 371.284 341.402 370.351 341.463L338.415 343.558C337.135 343.642 335.908 344.096 334.887 344.862C333.865 345.628 333.094 346.673 332.668 347.868Z" fill="url(#paint11_linear_402_1005)"/>
<path d="M372.172 432.28L371.625 432.268L302.458 430.821L332.127 347.68C332.59 346.38 333.429 345.243 334.541 344.41C335.653 343.577 336.988 343.085 338.381 342.995L370.317 340.9C371.332 340.834 372.349 340.982 373.301 341.335C374.253 341.689 375.117 342.239 375.836 342.949C376.554 343.66 377.111 344.514 377.468 345.454C377.825 346.394 377.974 347.399 377.905 348.4L372.172 432.28ZM304.064 429.725L371.104 431.128L376.761 348.325C376.818 347.484 376.693 346.64 376.393 345.851C376.093 345.062 375.626 344.345 375.022 343.749C374.419 343.152 373.693 342.69 372.894 342.394C372.095 342.097 371.241 341.972 370.389 342.028L338.453 344.121C337.283 344.196 336.162 344.61 335.229 345.309C334.296 346.008 333.591 346.963 333.203 348.055L304.064 429.725Z" fill="white"/>
<path d="M275.541 431.447C275.366 431.974 275.32 432.534 275.406 433.081C275.493 433.629 275.71 434.149 276.039 434.598C276.368 435.047 276.801 435.412 277.301 435.664C277.801 435.916 278.354 436.047 278.916 436.047H385.996C386.463 436.047 386.925 435.956 387.355 435.78C387.786 435.604 388.178 435.345 388.508 435.02C388.837 434.694 389.099 434.307 389.277 433.882C389.455 433.456 389.547 433 389.547 432.54V428.002C389.547 427.529 389.45 427.061 389.262 426.626C389.074 426.19 388.798 425.797 388.452 425.47C388.106 425.143 387.696 424.888 387.248 424.722C386.799 424.555 386.321 424.479 385.843 424.5L278.762 429.034C278.04 429.065 277.345 429.312 276.77 429.743C276.194 430.175 275.765 430.769 275.541 431.447Z" fill="url(#paint12_linear_402_1005)"/>
<path d="M386.005 436.612H278.925C278.273 436.612 277.631 436.459 277.05 436.167C276.469 435.874 275.967 435.45 275.585 434.929C275.203 434.408 274.951 433.805 274.851 433.169C274.75 432.533 274.804 431.883 275.007 431.272C275.27 430.486 275.769 429.798 276.437 429.298C277.104 428.799 277.91 428.511 278.747 428.472L385.828 423.938C386.383 423.915 386.938 424.003 387.459 424.197C387.979 424.39 388.455 424.686 388.857 425.066C389.258 425.446 389.578 425.902 389.797 426.407C390.015 426.913 390.128 427.456 390.128 428.005V432.54C390.127 433.619 389.692 434.654 388.919 435.417C388.147 436.181 387.099 436.61 386.005 436.612ZM386.005 425.063H385.874L278.793 429.597C278.188 429.625 277.606 429.833 277.123 430.194C276.64 430.556 276.28 431.053 276.09 431.621C275.943 432.062 275.904 432.532 275.977 432.992C276.05 433.451 276.232 433.887 276.508 434.264C276.784 434.641 277.147 434.947 277.566 435.159C277.986 435.37 278.45 435.48 278.921 435.48H386.002C386.792 435.479 387.549 435.169 388.107 434.617C388.666 434.066 388.98 433.318 388.98 432.538V428.002C388.98 427.223 388.667 426.475 388.109 425.923C387.551 425.372 386.795 425.061 386.005 425.06V425.063Z" fill="white"/>
<path d="M249.685 348.505L248.274 348.328L258.05 272.21C258.345 269.92 259.441 267.804 261.147 266.226C262.854 264.649 265.065 263.709 267.399 263.569L450.785 252.639L450.872 254.04L267.482 264.97C265.479 265.09 263.58 265.897 262.115 267.251C260.649 268.606 259.709 270.423 259.456 272.389L249.685 348.505Z" fill="white"/>
<path d="M246.123 372.959L243.936 389.403L245.344 389.586L247.531 373.141L246.123 372.959Z" fill="white"/>
<path d="M313.185 59.4018V101.781C313.185 104.205 314.13 106.536 315.825 108.29C317.52 110.044 319.834 111.086 322.286 111.2L375.963 113.689C377.253 113.748 378.542 113.549 379.752 113.103C380.962 112.656 382.068 111.972 383.003 111.092C383.937 110.212 384.681 109.153 385.19 107.981C385.698 106.809 385.96 105.547 385.961 104.271V59.4018C385.961 56.901 384.954 54.5027 383.163 52.7344C381.372 50.9661 378.943 49.9727 376.41 49.9727H322.733C320.201 49.9731 317.772 50.9667 315.982 52.735C314.191 54.5032 313.185 56.9013 313.185 59.4018Z" fill="#FF9F4B"/>
<path d="M333.671 70.8038L331.575 63.1569L325.461 59.8672L324.646 61.3392L330.112 64.2563L336.632 87.863L336.834 88.5644H363.445C364.713 88.5725 365.963 88.2648 367.079 87.6698C368.194 87.0747 369.14 86.2115 369.829 85.16L371.024 83.6053C372.308 81.6409 373.155 79.3899 373.155 77.0461V70.8072L333.671 70.8038ZM371.224 77.0427C371.205 79.0553 370.597 81.0197 369.475 82.6998L368.415 84.4518C367.325 86.1178 365.446 87.2947 363.438 87.2947H338.147L336.762 82.2496L334.137 72.7075H371.224V77.0427Z" fill="white"/>
<path d="M369.566 97.1266C369.566 97.592 369.181 98.0776 368.712 98.0776H337.493C337.02 98.0776 336.535 97.3475 336.535 96.8821V82.3489C336.535 82.1802 336.63 82.2224 336.705 82.0942L338.142 87.2944H338.458V96.1739H368.703C369.181 96.1739 369.566 96.6663 369.566 97.1266Z" fill="white"/>
<path d="M353.373 71.6484H352.234V87.4682H353.373V71.6484Z" fill="white"/>
<path d="M343.31 71.6484H342.17V87.4682H343.31V71.6484Z" fill="white"/>
<path d="M363.203 71.6484H362.063V87.4682H363.203V71.6484Z" fill="white"/>
<path d="M371.632 76.3022H334.57V77.3089H371.632V76.3022Z" fill="white"/>
<path d="M370.703 81.8096H336.188V82.8162H370.703V81.8096Z" fill="white"/>
<path d="M341.491 99.1616C340.762 99.1616 340.051 99.3748 339.445 99.7743C338.839 100.174 338.368 100.742 338.089 101.406C337.81 102.07 337.737 102.801 337.879 103.506C338.021 104.211 338.372 104.859 338.887 105.368C339.402 105.876 340.058 106.222 340.772 106.363C341.487 106.503 342.227 106.431 342.9 106.156C343.573 105.881 344.148 105.415 344.552 104.817C344.957 104.219 345.173 103.516 345.173 102.797C345.173 102.32 345.078 101.847 344.893 101.406C344.708 100.964 344.437 100.564 344.095 100.226C343.753 99.8883 343.347 99.6205 342.9 99.4379C342.453 99.2553 341.974 99.1614 341.491 99.1616ZM341.491 104.989C341.052 104.989 340.622 104.861 340.257 104.62C339.892 104.379 339.608 104.036 339.439 103.636C339.271 103.235 339.227 102.795 339.313 102.369C339.399 101.944 339.61 101.554 339.921 101.247C340.231 100.94 340.627 100.732 341.058 100.647C341.488 100.563 341.935 100.606 342.34 100.772C342.746 100.938 343.093 101.219 343.337 101.579C343.581 101.94 343.711 102.363 343.711 102.797C343.711 103.378 343.477 103.936 343.061 104.347C342.644 104.758 342.079 104.989 341.491 104.989Z" fill="white"/>
<path d="M364.363 99.1616C363.635 99.1613 362.923 99.3742 362.317 99.7735C361.712 100.173 361.239 100.74 360.96 101.405C360.682 102.069 360.608 102.8 360.75 103.505C360.892 104.211 361.243 104.858 361.758 105.367C362.272 105.876 362.928 106.222 363.643 106.362C364.357 106.503 365.098 106.431 365.77 106.156C366.443 105.881 367.019 105.415 367.423 104.817C367.828 104.219 368.044 103.516 368.044 102.797C368.044 102.32 367.949 101.847 367.764 101.406C367.579 100.965 367.308 100.564 366.966 100.227C366.625 99.8889 366.219 99.6211 365.772 99.4384C365.326 99.2557 364.847 99.1616 364.363 99.1616ZM364.363 104.989C363.924 104.989 363.495 104.861 363.13 104.62C362.765 104.379 362.48 104.036 362.312 103.636C362.144 103.235 362.1 102.795 362.186 102.369C362.272 101.944 362.483 101.554 362.794 101.247C363.104 100.94 363.5 100.732 363.93 100.647C364.361 100.563 364.807 100.606 365.213 100.772C365.619 100.938 365.966 101.219 366.209 101.579C366.453 101.94 366.584 102.363 366.584 102.797C366.584 103.378 366.35 103.936 365.933 104.347C365.517 104.758 364.952 104.989 364.363 104.989Z" fill="white"/>
<path d="M329.254 61.3339C329.254 61.7867 329.071 62.2209 328.747 62.5412C328.423 62.8614 327.983 63.0415 327.524 63.042H321.771C321.312 63.0415 320.872 62.8614 320.548 62.5412C320.223 62.2209 320.041 61.7867 320.041 61.3339C320.041 60.8811 320.223 60.4471 320.548 60.1271C320.872 59.8072 321.312 59.6274 321.771 59.6274H327.524C327.983 59.6274 328.423 59.8072 328.747 60.1271C329.071 60.4471 329.254 60.8811 329.254 61.3339Z" fill="white"/>
<path d="M196.826 10.4042V55.8605C196.827 58.4604 197.841 60.9602 199.659 62.8411C201.477 64.722 203.959 65.8398 206.589 65.9624L264.167 68.6333C265.551 68.6972 266.934 68.4832 268.232 68.0044C269.53 67.5256 270.716 66.7919 271.718 65.8476C272.721 64.9033 273.519 63.7681 274.064 62.5106C274.61 61.2531 274.891 59.8994 274.892 58.5314V10.4042C274.892 7.721 273.812 5.14767 271.891 3.25034C269.969 1.35302 267.363 0.287109 264.645 0.287109H207.069C204.352 0.288004 201.747 1.35431 199.826 3.25154C197.905 5.14877 196.826 7.72158 196.826 10.4042Z" fill="#FF9F4B"/>
<path d="M255.79 55.0375H216.111C214.681 55.0362 213.311 54.4749 212.3 53.4769C211.289 52.4789 210.721 51.1257 210.719 49.7142V21.0642C210.721 19.6527 211.289 18.2993 212.3 17.301C213.311 16.3027 214.681 15.741 216.111 15.7393H255.79C257.22 15.741 258.591 16.3026 259.602 17.3009C260.613 18.2991 261.182 19.6525 261.184 21.0642V49.7142C261.182 51.1258 260.613 52.479 259.602 53.477C258.591 54.475 257.22 55.0362 255.79 55.0375ZM216.111 19.2482C215.623 19.2491 215.156 19.4408 214.812 19.7812C214.467 20.1216 214.274 20.583 214.273 21.0642V49.7142C214.274 50.1955 214.467 50.6569 214.812 50.9973C215.156 51.3377 215.623 51.5294 216.111 51.5303H255.79C256.278 51.5294 256.745 51.3378 257.09 50.9974C257.435 50.657 257.629 50.1956 257.63 49.7142V21.0642C257.629 20.5827 257.435 20.1211 257.09 19.7806C256.746 19.4401 256.278 19.2487 255.79 19.2482H216.111Z" fill="white"/>
<path d="M235.986 36.0206C235.619 36.0201 235.261 35.907 234.961 35.6969L212.724 20.13C212.533 19.9971 212.371 19.8285 212.246 19.6337C212.122 19.439 212.037 19.2219 211.998 18.9948C211.958 18.7678 211.964 18.5353 212.015 18.3105C212.067 18.0858 212.162 17.8733 212.297 17.685C212.431 17.4968 212.602 17.3366 212.8 17.2136C212.997 17.0905 213.217 17.007 213.447 16.9679C213.677 16.9287 213.912 16.9347 214.14 16.9854C214.367 17.0361 214.583 17.1306 214.773 17.2635L235.979 32.1019L256.909 17.4321C257.099 17.2987 257.315 17.2037 257.542 17.1524C257.77 17.1012 258.006 17.0948 258.237 17.1335C258.467 17.1723 258.687 17.2555 258.885 17.3783C259.083 17.5011 259.254 17.6612 259.389 17.8494C259.524 18.0377 259.621 18.2503 259.673 18.4753C259.724 18.7002 259.731 18.933 259.692 19.1605C259.652 19.3879 259.568 19.6055 259.444 19.8007C259.319 19.996 259.157 20.1652 258.967 20.2986L237.014 35.6969C236.714 35.9077 236.355 36.0208 235.986 36.0206Z" fill="white"/>
<path d="M214.027 53.8133L213.515 50.3415L213.754 52.0799L212.267 51.1239C212.678 50.4696 220.696 36.6227 225.987 27.4734C226.222 27.0698 226.609 26.7747 227.064 26.6529C227.518 26.5312 228.004 26.5928 228.412 26.8242C228.821 27.0557 229.12 27.4379 229.243 27.887C229.367 28.336 229.304 28.815 229.07 29.2186C229.07 29.2186 225.639 35.1506 222.203 41.0843C220.483 44.052 218.763 47.0197 217.469 49.2455C214.881 53.6801 214.881 53.6801 214.027 53.8133Z" fill="white"/>
<path d="M257.811 53.8115C256.957 53.6766 256.957 53.6766 254.371 49.2402C253.077 47.0144 251.357 44.0468 249.637 41.0791C246.201 35.1454 242.772 29.2134 242.772 29.2134C242.656 29.0133 242.581 28.7927 242.552 28.5641C242.522 28.3356 242.539 28.1035 242.6 27.8813C242.662 27.659 242.767 27.4509 242.91 27.2687C243.053 27.0866 243.231 26.9341 243.433 26.8198C243.636 26.7056 243.859 26.6318 244.091 26.6028C244.322 26.5738 244.557 26.5901 244.782 26.6508C245.008 26.7115 245.218 26.8153 245.403 26.9564C245.587 27.0976 245.742 27.2732 245.858 27.4732C251.152 36.6208 259.165 50.4694 259.578 51.1237L258.089 52.0798L257.811 53.8115Z" fill="white"/>
<path d="M379.833 151.484V191.469C379.833 193.756 380.725 195.955 382.324 197.61C383.923 199.265 386.106 200.248 388.42 200.355L439.064 202.704C440.281 202.76 441.498 202.572 442.64 202.151C443.782 201.73 444.825 201.085 445.707 200.254C446.589 199.424 447.291 198.425 447.771 197.318C448.25 196.212 448.498 195.021 448.498 193.818V151.484C448.498 150.316 448.265 149.159 447.812 148.08C447.359 147 446.695 146.02 445.859 145.194C445.022 144.367 444.029 143.712 442.935 143.265C441.842 142.818 440.671 142.588 439.487 142.588H388.843C386.454 142.588 384.162 143.525 382.472 145.194C380.782 146.862 379.833 149.125 379.833 151.484Z" fill="#FF9F4B"/>
<path d="M392.792 199.532C392.088 199.555 391.402 199.314 390.872 198.858L389.407 197.531C388.698 196.888 388.403 195.9 388.578 194.75C388.79 193.572 389.348 192.481 390.184 191.614L391.161 190.562C391.231 190.487 391.301 190.415 391.372 190.344L409.646 172.302C409.688 172.261 409.738 172.228 409.792 172.206C409.847 172.184 409.905 172.172 409.964 172.172C410.023 172.172 410.082 172.184 410.136 172.206C410.191 172.229 410.241 172.261 410.282 172.303C410.324 172.344 410.357 172.393 410.38 172.447C410.402 172.501 410.414 172.559 410.414 172.617C410.414 172.675 410.402 172.733 410.379 172.787C410.356 172.841 410.323 172.89 410.281 172.931L392.008 190.973C391.945 191.035 391.883 191.098 391.823 191.164L390.845 192.216C390.131 192.954 389.651 193.881 389.465 194.885C389.337 195.728 389.531 196.44 390.015 196.878L391.48 198.205C392.505 199.138 394.631 198.579 396.112 196.984L397.088 195.932C397.15 195.868 397.208 195.802 397.259 195.735L411.846 178.605C411.882 178.555 411.928 178.513 411.982 178.482C412.035 178.451 412.094 178.431 412.156 178.424C412.217 178.416 412.28 178.421 412.339 178.439C412.399 178.456 412.454 178.486 412.501 178.525C412.548 178.565 412.587 178.614 412.614 178.669C412.641 178.724 412.657 178.784 412.659 178.845C412.662 178.906 412.652 178.967 412.629 179.024C412.607 179.081 412.573 179.133 412.529 179.177L397.959 196.296C397.893 196.372 397.826 196.448 397.756 196.524L396.779 197.574C395.599 198.849 394.095 199.532 392.792 199.532ZM393.234 196.703C392.761 196.717 392.3 196.553 391.945 196.244C390.92 195.323 391.261 193.378 392.722 191.814C393.328 191.137 394.105 190.629 394.974 190.342C395.844 190.083 396.607 190.199 397.124 190.668C397.642 191.137 397.825 191.877 397.637 192.755C397.422 193.634 396.977 194.442 396.346 195.097C395.384 196.131 394.213 196.703 393.234 196.703ZM395.84 191.096C395.634 191.099 395.43 191.132 395.234 191.192C394.52 191.433 393.882 191.854 393.384 192.415C392.329 193.551 391.939 195.035 392.553 195.588C393.097 196.082 394.517 195.757 395.683 194.497C396.206 193.961 396.577 193.298 396.757 192.575C396.825 192.251 396.885 191.658 396.516 191.324C396.329 191.165 396.087 191.082 395.84 191.093V191.096ZM418.585 171.825C418.5 171.824 418.416 171.799 418.345 171.753C418.273 171.708 418.216 171.643 418.18 171.566C418.145 171.49 418.132 171.405 418.143 171.321C418.154 171.238 418.189 171.159 418.243 171.095L423.505 164.915L423.836 165.114C427.935 167.577 432.85 166.904 436.068 163.439C437.092 162.347 437.87 161.052 438.349 159.641C438.828 158.23 438.997 156.734 438.846 155.253C438.83 155.061 438.756 154.879 438.634 154.729C438.513 154.579 438.349 154.468 438.163 154.41C437.974 154.345 437.769 154.337 437.575 154.387C437.38 154.436 437.205 154.541 437.07 154.688L431.4 160.792C431.154 161.055 430.85 161.26 430.511 161.39C430.173 161.52 429.809 161.572 429.447 161.542L426.395 161.284C425.873 161.239 425.38 161.025 424.994 160.675C424.608 160.325 424.35 159.859 424.26 159.349L423.736 156.371C423.675 156.017 423.696 155.655 423.798 155.311C423.9 154.966 424.08 154.65 424.325 154.385L429.995 148.281C430.131 148.136 430.221 147.954 430.255 147.759C430.288 147.564 430.262 147.364 430.181 147.183C430.108 147.004 429.983 146.851 429.822 146.743C429.661 146.635 429.471 146.576 429.276 146.574C427.768 146.554 426.272 146.851 424.889 147.444C423.505 148.036 422.264 148.913 421.249 150.014C418.032 153.479 417.775 158.372 420.615 162.19L420.843 162.498L414.013 169.233C413.929 169.316 413.814 169.363 413.695 169.363C413.575 169.363 413.461 169.316 413.377 169.232C413.293 169.149 413.245 169.036 413.246 168.918C413.246 168.8 413.293 168.687 413.378 168.604L419.654 162.407C416.793 158.285 417.143 153.11 420.574 149.424C421.674 148.227 423.02 147.275 424.522 146.633C426.024 145.99 427.648 145.671 429.284 145.697C429.652 145.702 430.011 145.813 430.316 146.017C430.621 146.22 430.859 146.507 431.001 146.842C431.151 147.18 431.197 147.554 431.135 147.918C431.072 148.282 430.903 148.62 430.649 148.891L424.979 154.995C424.827 155.16 424.715 155.356 424.652 155.57C424.588 155.784 424.575 156.01 424.613 156.229L425.138 159.207C425.194 159.524 425.354 159.813 425.594 160.031C425.834 160.248 426.14 160.381 426.465 160.409L429.515 160.669C429.74 160.687 429.966 160.655 430.177 160.574C430.387 160.493 430.576 160.366 430.729 160.202L436.399 154.098C436.651 153.825 436.977 153.63 437.339 153.537C437.701 153.445 438.083 153.458 438.437 153.577C438.787 153.688 439.097 153.897 439.328 154.179C439.56 154.461 439.703 154.804 439.74 155.165C439.904 156.772 439.721 158.394 439.202 159.925C438.683 161.456 437.841 162.861 436.73 164.046C433.299 167.739 428.106 168.532 423.7 166.07L418.93 171.67C418.887 171.719 418.835 171.758 418.775 171.785C418.715 171.812 418.65 171.826 418.585 171.825Z" fill="white"/>
<path d="M432.277 199.761C432.157 199.761 432.036 199.761 431.917 199.748C431.358 199.703 430.814 199.547 430.318 199.288C429.822 199.03 429.384 198.675 429.03 198.245L412.08 177.755C411.727 177.333 411.556 176.791 411.603 176.245C411.649 175.7 411.91 175.194 412.33 174.836L415.673 171.956C416.09 171.594 416.633 171.408 417.186 171.436C417.74 171.464 418.261 171.705 418.637 172.108L436.898 191.467C437.281 191.872 437.577 192.348 437.769 192.868C437.961 193.388 438.045 193.941 438.016 194.494C437.987 195.047 437.845 195.588 437.6 196.085C437.354 196.583 437.01 197.027 436.587 197.39L435.016 198.739C434.259 199.398 433.286 199.761 432.277 199.761ZM416.461 172.848L413.119 175.728C412.935 175.885 412.82 176.106 412.8 176.345C412.78 176.584 412.855 176.821 413.009 177.006L429.959 197.5C430.212 197.806 430.525 198.058 430.878 198.243C431.232 198.427 431.619 198.539 432.018 198.572C432.416 198.605 432.817 198.559 433.197 198.436C433.577 198.313 433.928 198.116 434.229 197.856L435.802 196.507C436.102 196.248 436.346 195.932 436.52 195.577C436.694 195.223 436.794 194.838 436.815 194.445C436.835 194.052 436.776 193.659 436.64 193.289C436.504 192.919 436.295 192.58 436.024 192.291L417.759 172.915C417.594 172.739 417.366 172.634 417.124 172.621C416.881 172.608 416.643 172.69 416.461 172.848Z" fill="white"/>
<path d="M413.147 175.202L398.436 158.212C398.209 158.208 397.99 158.133 397.809 157.998L393.398 154.656C393.278 154.566 393.179 154.451 393.111 154.319L391.155 150.498C391.043 150.251 391.017 149.975 391.081 149.712C391.146 149.449 391.297 149.215 391.511 149.046L392.612 148.097C392.81 147.91 393.066 147.794 393.339 147.766C393.612 147.739 393.886 147.802 394.118 147.945L397.691 150.38C397.809 150.46 397.909 150.564 397.983 150.685L400.839 155.361C400.913 155.485 400.961 155.623 400.98 155.766C400.999 155.909 400.989 156.055 400.95 156.194L416.107 173.003L413.147 175.202ZM398.801 157.268L413.284 173.99L414.786 172.872L399.886 156.347L400.039 156.072C400.065 156.036 400.082 155.994 400.087 155.95C400.093 155.906 400.087 155.861 400.07 155.819L397.215 151.145C397.207 151.132 397.196 151.121 397.184 151.112L393.609 148.677C393.541 148.649 393.466 148.643 393.394 148.659C393.322 148.675 393.257 148.713 393.206 148.766L392.103 149.715C392.043 149.757 391.998 149.816 391.972 149.884C391.946 149.952 391.942 150.026 391.96 150.096L393.915 153.917C393.922 153.932 393.933 153.945 393.946 153.954L398.359 157.296C398.386 157.313 398.417 157.323 398.449 157.327C398.48 157.331 398.513 157.329 398.543 157.32L398.801 157.268Z" fill="white"/>
<path d="M73.1475 39.2094V87.0213C73.1483 89.7554 74.2154 92.3843 76.1272 94.3623C78.039 96.3403 80.6488 97.5156 83.4149 97.6443L143.973 100.453C145.428 100.52 146.881 100.294 148.245 99.7903C149.609 99.2864 150.856 98.5147 151.909 97.5218C152.963 96.5289 153.801 95.3354 154.375 94.0134C154.948 92.6915 155.244 91.2685 155.244 89.8305V39.2094C155.244 36.388 154.109 33.6822 152.088 31.6871C150.068 29.6921 147.327 28.5713 144.47 28.5713H83.9204C81.0631 28.5717 78.323 29.6927 76.3027 31.6877C74.2824 33.6827 73.1475 36.3883 73.1475 39.2094Z" fill="#FF9F4B"/>
<path d="M116.443 68.7248C116.443 72.974 116.142 77.2299 115.387 81.4184C115.196 82.4655 114.974 83.5076 114.704 84.5379C114.444 85.5712 114.129 86.59 113.758 87.5899C113.397 88.5976 112.924 89.5629 112.349 90.4682C112.055 90.9224 111.699 91.3338 111.29 91.6907C111.081 91.8694 110.847 92.0186 110.597 92.1341C110.343 92.2506 110.067 92.3148 109.787 92.323C109.507 92.3293 109.228 92.2782 108.969 92.1729C108.713 92.0684 108.475 91.9275 108.26 91.7547C107.841 91.4089 107.477 91.0031 107.179 90.5508C106.592 89.6527 106.112 88.6908 105.748 87.6843C105.374 86.6852 105.055 85.667 104.792 84.634C104.525 83.6037 104.302 82.5633 104.109 81.5179C103.724 79.4253 103.461 77.3125 103.284 75.1947C103.106 73.0768 103.021 70.9506 103.009 68.8243C103.009 67.762 103.033 66.6997 103.072 65.6374C103.111 64.5751 103.171 63.5145 103.243 62.4539C103.402 60.3343 103.639 58.2199 103.991 56.1239C104.162 55.0751 104.373 54.0314 104.621 52.996C104.864 51.9598 105.162 50.937 105.516 49.9322C105.697 49.4264 105.893 48.934 106.117 48.4501C106.339 47.9635 106.596 47.4935 106.887 47.0438C107.175 46.5889 107.532 46.1801 107.944 45.8314C108.155 45.6589 108.391 45.519 108.645 45.4166C108.9 45.3143 109.174 45.266 109.449 45.275C109.723 45.2849 109.993 45.3473 110.243 45.4588C110.492 45.571 110.724 45.715 110.935 45.8871C111.348 46.2334 111.712 46.6339 112.016 47.0775C112.614 47.9651 113.111 48.9158 113.497 49.912C113.891 50.9017 114.231 51.9121 114.513 52.9387C114.8 53.9639 115.042 55.0009 115.25 56.043C116.092 60.2163 116.429 64.4756 116.443 68.7248ZM116.125 68.7248C116.125 66.6069 116.048 64.4891 115.87 62.3797C115.702 60.2693 115.423 58.1689 115.035 56.0868C114.837 55.0465 114.608 54.0128 114.335 52.9893C114.066 51.9663 113.739 50.9588 113.358 49.971C112.987 48.9808 112.506 48.0346 111.922 47.15C111.63 46.7109 111.279 46.3137 110.877 45.9697C110.676 45.8009 110.453 45.6591 110.214 45.5482C109.977 45.4386 109.719 45.3767 109.458 45.366C109.196 45.3597 108.936 45.408 108.694 45.5077C108.452 45.6092 108.227 45.7468 108.026 45.9157C107.625 46.2601 107.279 46.6633 107.002 47.1112C106.719 47.5581 106.47 48.0247 106.257 48.5074C106.04 48.9897 105.851 49.4837 105.678 49.9845C105.339 50.9873 105.054 52.0072 104.824 53.0399C104.59 54.0718 104.396 55.1122 104.232 56.1593C103.904 58.2502 103.69 60.3596 103.548 62.4724C103.407 64.5852 103.366 66.7047 103.369 68.8226C103.373 70.9405 103.436 73.0566 103.595 75.1677C103.753 77.2788 103.999 79.3832 104.367 81.469C104.551 82.5111 104.764 83.5481 105.022 84.575C105.275 85.6023 105.583 86.6155 105.946 87.6101C106.298 88.6044 106.763 89.5559 107.333 90.4463C107.618 90.8852 107.966 91.2801 108.368 91.6182C108.568 91.7826 108.791 91.9167 109.031 92.0161C109.267 92.1148 109.522 92.163 109.779 92.1577C110.035 92.1484 110.288 92.0876 110.52 91.979C110.755 91.8683 110.973 91.7258 111.169 91.5558C111.562 91.2075 111.904 90.8061 112.183 90.3636C112.743 89.4675 113.202 88.5129 113.549 87.5174C113.909 86.5225 114.214 85.5093 114.463 84.4822C114.718 83.4553 114.929 82.4183 115.112 81.3763C115.476 79.2905 115.718 77.1844 115.879 75.0733C116.039 72.9622 116.125 70.8426 116.125 68.7248Z" fill="white"/>
<path d="M109.731 92.9432C109.392 92.9409 109.056 92.8745 108.742 92.7476C108.43 92.6227 108.139 92.4521 107.878 92.2417C107.407 91.8558 106.999 91.4009 106.669 90.8928C106.054 89.9545 105.55 88.949 105.169 87.8964C104.787 86.8764 104.461 85.8368 104.192 84.7821C103.935 83.7872 103.709 82.7586 103.499 81.6204C103.13 79.6156 102.859 77.5281 102.667 75.2382C102.497 73.1575 102.401 70.9975 102.391 68.8206C102.391 67.6824 102.418 66.5577 102.452 65.6168C102.493 64.536 102.553 63.4585 102.623 62.4131C102.794 60.1114 103.043 58.029 103.378 56.0258C103.569 54.8893 103.779 53.8523 104.016 52.8575C104.265 51.8003 104.57 50.7568 104.93 49.7313C105.135 49.163 105.338 48.6605 105.554 48.1968C105.787 47.6827 106.059 47.1862 106.366 46.7113C106.692 46.2034 107.095 45.7483 107.562 45.3624C107.822 45.1516 108.114 44.981 108.426 44.8565C108.762 44.7239 109.122 44.6613 109.483 44.6727C109.837 44.6857 110.185 44.7658 110.508 44.9088C110.806 45.0403 111.085 45.2104 111.338 45.4146C111.797 45.7963 112.199 46.2396 112.533 46.7315C113.161 47.6568 113.681 48.6489 114.084 49.6891C114.487 50.7011 114.833 51.7341 115.122 52.7833C115.401 53.7798 115.645 54.8067 115.87 55.9314C116.658 59.8973 117.049 64.0824 117.066 68.7329C117.066 73.4104 116.711 77.5989 116.002 81.5361C115.794 82.6676 115.57 83.7012 115.319 84.6994C115.054 85.7545 114.732 86.7947 114.354 87.8155C113.977 88.8665 113.483 89.8727 112.88 90.8152C112.555 91.3181 112.159 91.7724 111.703 92.1642C111.45 92.3792 111.168 92.559 110.865 92.6987C110.533 92.8492 110.173 92.9318 109.808 92.9415L109.731 92.9432ZM109.406 45.9862C109.244 45.9869 109.083 46.0195 108.933 46.0824C108.747 46.1599 108.575 46.2651 108.421 46.3943C108.07 46.6972 107.769 47.0521 107.529 47.4465C107.264 47.8677 107.03 48.3072 106.829 48.7617C106.636 49.19 106.454 49.6554 106.269 50.1865C105.937 51.1683 105.657 52.1668 105.432 53.1778C105.212 54.144 105.021 55.1507 104.846 56.2551C104.541 58.2128 104.322 60.2598 104.179 62.5126C104.054 64.4382 103.996 66.5021 104.008 68.8223C104.008 70.9637 104.078 73.0816 104.232 75.1236C104.402 77.3628 104.652 79.4048 104.995 81.3625C105.19 82.4585 105.4 83.4601 105.642 84.4246C105.889 85.4292 106.19 86.4199 106.546 87.3923C106.881 88.3423 107.325 89.2514 107.869 90.102C108.117 90.489 108.423 90.8369 108.776 91.1339C108.927 91.2602 109.096 91.3631 109.278 91.4391C109.435 91.5023 109.603 91.5349 109.772 91.5352C109.946 91.5284 110.117 91.4866 110.274 91.4121C110.456 91.3226 110.625 91.2092 110.776 91.0749C111.125 90.7654 111.427 90.4082 111.673 90.0143C112.209 89.1583 112.646 88.2461 112.977 87.2945C113.328 86.3197 113.626 85.3274 113.871 84.3217C114.108 83.3623 114.318 82.3607 114.509 81.2579C114.851 79.3171 115.097 77.2751 115.269 75.019C115.426 72.9821 115.507 70.8626 115.505 68.7194C115.505 66.583 115.425 64.4669 115.252 62.4266C115.087 60.3375 114.811 58.2584 114.426 56.1978C114.221 55.1119 113.995 54.1137 113.743 53.1441C113.479 52.1429 113.16 51.1567 112.788 50.1899C112.436 49.2431 111.978 48.3381 111.422 47.492C111.162 47.1014 110.85 46.7479 110.493 46.4415C110.335 46.3072 110.159 46.1938 109.972 46.1043C109.811 46.0279 109.637 45.9843 109.459 45.9761L109.406 45.9862Z" fill="white"/>
<path d="M127.256 68.7242C127.249 71.4646 126.877 74.1922 126.147 76.8364C125.41 79.4768 124.257 81.9865 122.732 84.2742C121.965 85.4129 121.089 86.4762 120.115 87.4493C119.144 88.4229 118.064 89.2845 116.896 90.0174C115.727 90.7482 114.463 91.321 113.139 91.7204C110.476 92.5207 107.633 92.5207 104.97 91.7204C103.647 91.322 102.383 90.7503 101.213 90.0207C100.044 89.2875 98.9627 88.4266 97.9889 87.4543C97.0147 86.4813 96.1374 85.418 95.3691 84.2793C93.837 81.9918 92.6786 79.4808 91.9364 76.8381C91.5646 75.5183 91.2867 74.1746 91.1047 72.8166C90.7301 70.0986 90.7301 67.343 91.1047 64.6251C91.2879 63.267 91.5669 61.9232 91.9398 60.6035C92.6838 57.9622 93.844 55.4529 95.3776 53.1674C96.146 52.0303 97.0233 50.9687 97.9974 49.9974C98.9703 49.0257 100.051 48.1659 101.22 47.4344C102.391 46.7101 103.655 46.1431 104.977 45.7482C107.634 44.9433 110.475 44.9433 113.132 45.7482C114.455 46.1461 115.719 46.7166 116.889 47.4445C118.053 48.1773 119.129 49.0377 120.097 50.0092C121.069 50.981 121.945 52.0426 122.713 53.1792C124.243 55.4648 125.401 57.9735 126.142 60.6136C126.873 63.257 127.248 65.9841 127.256 68.7242ZM126.892 68.7242C126.897 66.0147 126.539 63.3165 125.828 60.6996C125.118 58.0822 124 55.5899 122.513 53.3124C121.764 52.1789 120.906 51.1191 119.952 50.1475C119.001 49.1738 117.939 48.3116 116.789 47.5777C115.64 46.8502 114.398 46.2785 113.095 45.878C110.465 45.0687 107.649 45.0687 105.02 45.878C103.713 46.2787 102.467 46.851 101.314 47.5794C100.166 48.315 99.1073 49.1778 98.158 50.1508C97.2067 51.1233 96.3523 52.1837 95.6065 53.3175C94.1216 55.5944 93.0061 58.0862 92.3001 60.703C91.9437 62.0084 91.6778 63.3362 91.5043 64.6773C91.1462 67.3636 91.1462 70.0847 91.5043 72.771C91.6777 74.1117 91.9442 75.4391 92.3018 76.7437C93.0096 79.3591 94.1269 81.8493 95.6133 84.1241C96.3593 85.2563 97.2137 86.315 98.1648 87.2857C99.1104 88.2564 100.166 89.1164 101.311 89.8487C102.462 90.5756 103.708 91.1461 105.013 91.545C107.637 92.3589 110.45 92.3589 113.074 91.545C114.38 91.1491 115.627 90.582 116.78 89.8589C117.93 89.1267 118.991 88.2662 119.941 87.2942C120.895 86.3229 121.753 85.2643 122.503 84.1326C123.991 81.8571 125.111 79.3665 125.823 76.7504C126.535 74.1331 126.895 71.4344 126.892 68.7242Z" fill="white"/>
<path d="M109.049 92.9434C107.602 92.9424 106.164 92.7317 104.779 92.3178C103.402 91.903 102.086 91.3081 100.868 90.549C99.6609 89.7919 98.5438 88.9027 97.5382 87.8983C96.5367 86.8963 95.6337 85.8027 94.8416 84.6321C93.2721 82.2913 92.086 79.721 91.3269 77.0156C90.9467 75.6669 90.6614 74.2939 90.473 72.9064C90.0904 70.1336 90.0904 67.3224 90.473 64.5497C90.6607 63.1631 90.946 61.7912 91.3269 60.4438C92.0899 57.7376 93.2794 55.1667 94.8518 52.8256C95.6454 51.6558 96.5501 50.5632 97.5536 49.5628C98.5602 48.5587 99.6786 47.67 100.887 46.9138C102.106 46.1584 103.42 45.5659 104.796 45.1517C107.571 44.312 110.537 44.312 113.312 45.1517C114.686 45.5681 115.997 46.1642 117.211 46.9239C118.418 47.68 119.535 48.5693 120.539 49.5746C121.54 50.5749 122.441 51.6674 123.231 52.8374C124.799 55.1761 125.984 57.7442 126.742 60.4472C127.489 63.1447 127.872 65.928 127.881 68.7246C127.875 71.52 127.495 74.3022 126.749 76.9988C125.992 79.7044 124.809 82.2754 123.241 84.617C122.452 85.7885 121.551 86.8823 120.549 87.8831C119.545 88.8898 118.429 89.7808 117.221 90.5389C116.004 91.2992 114.689 91.8946 113.312 92.3093C111.93 92.7259 110.494 92.9395 109.049 92.9434ZM109.049 45.8987C107.743 45.9052 106.445 46.1012 105.196 46.4805C103.943 46.8647 102.747 47.4137 101.642 48.1127C100.535 48.8227 99.5129 49.6554 98.5971 50.5948C97.6744 51.5392 96.8452 52.5685 96.1207 53.6687C94.6706 55.891 93.5821 58.3239 92.8946 60.8788C92.5456 62.1565 92.2854 63.4562 92.1159 64.7689C91.9442 66.0835 91.8569 67.4076 91.8546 68.7331C91.8572 70.0582 91.9456 71.3817 92.1193 72.6956C92.2898 74.0083 92.5506 75.3079 92.8998 76.5857C93.5895 79.1383 94.6792 81.5687 96.1293 83.7891C96.8543 84.8877 97.6835 85.9159 98.6056 86.8596C99.5229 87.7941 100.545 88.6223 101.652 89.3282C102.757 90.0231 103.95 90.5697 105.201 90.9537C107.706 91.7315 110.393 91.7315 112.898 90.9537C114.152 90.5718 115.348 90.0257 116.454 89.3299C117.562 88.6221 118.584 87.7916 119.501 86.8545C120.425 85.9123 121.256 84.8846 121.982 83.7857C123.438 81.5653 124.533 79.1336 125.227 76.5789C126.62 71.4296 126.62 66.0096 125.227 60.8603C124.536 58.3047 123.445 55.8714 121.993 53.6484C121.266 52.5487 120.435 51.52 119.511 50.5762C118.593 49.6394 117.569 48.8099 116.459 48.1043C115.354 47.4055 114.159 46.8571 112.905 46.4737C111.655 46.0944 110.355 45.8984 109.047 45.892L109.049 45.8987Z" fill="white"/>
<path d="M87.8022 59.3862L93.2673 59.3424L98.7323 59.3171L109.662 59.2969L120.592 59.3188L126.057 59.3458L131.522 59.393C131.527 59.393 131.531 59.3948 131.535 59.3979C131.538 59.4011 131.54 59.4054 131.54 59.4098C131.54 59.4098 131.531 59.425 131.522 59.425L126.057 59.4722L120.592 59.4992L109.662 59.5211L98.7323 59.5009L93.2673 59.4773L87.8022 59.4335C87.793 59.4327 87.7845 59.4285 87.7783 59.4217C87.7783 59.4014 87.7886 59.3862 87.8022 59.3862Z" fill="white"/>
<path d="M109.674 60.1401L93.2671 60.0963L87.5373 60.0491L87.1548 59.6714V59.3949L87.1685 58.7895L87.7969 58.7659L98.7338 58.6985L109.672 58.6782L126.081 58.7271L132.17 58.7794L132.187 60.0289L131.545 60.044L120.613 60.1182L109.674 60.1401Z" fill="white"/>
<path d="M94.138 50.308C95.4325 50.2878 96.727 50.2793 98.0198 50.2641L101.902 50.2405C103.196 50.2287 104.491 50.2304 105.785 50.2271H109.667L117.431 50.249L121.313 50.2759C122.607 50.2911 123.9 50.3012 125.195 50.3232C125.2 50.3215 125.205 50.3215 125.21 50.3232C125.21 50.3417 125.21 50.3485 125.195 50.3485C123.9 50.3704 122.607 50.3788 121.313 50.3957L117.431 50.4226L109.667 50.4446H105.785C104.491 50.4446 103.196 50.4446 101.902 50.4311L98.0198 50.4058C96.727 50.3923 95.4325 50.3822 94.138 50.3619C94.1349 50.362 94.1318 50.3613 94.129 50.3601C94.1262 50.3589 94.1237 50.3572 94.1216 50.3549C94.1195 50.3527 94.1179 50.3501 94.1169 50.3472C94.1159 50.3444 94.1155 50.3414 94.1157 50.3383C94.1147 50.3349 94.1145 50.3312 94.1151 50.3276C94.1157 50.3241 94.1171 50.3207 94.1193 50.3178C94.1214 50.3148 94.1242 50.3124 94.1275 50.3107C94.1307 50.309 94.1343 50.3081 94.138 50.308Z" fill="white"/>
<path d="M109.679 51.0632H104.788C103.828 51.0632 102.868 51.0632 101.909 51.0514L96.7305 51.0143C95.8663 51.0059 95.0022 50.9975 94.1397 50.984L93.5249 50.9739L93.501 49.721L94.1397 49.6974C94.9748 49.6839 95.8117 49.6772 96.6485 49.6688L101.909 49.6283C102.821 49.6283 103.733 49.6283 104.641 49.6182H109.674L122.739 49.6822C123.564 49.6822 124.389 49.6991 125.214 49.7143L125.851 49.7244L125.822 50.9688L125.203 50.984C124.349 50.9992 123.485 51.0076 122.621 51.016L117.443 51.0582L109.679 51.0632Z" fill="white"/>
<path d="M85.9014 68.4624L91.8446 68.4186L97.7878 68.3933L109.674 68.373L121.559 68.395L127.502 68.4236L133.445 68.4708C133.45 68.4708 133.453 68.4724 133.456 68.4753C133.459 68.4781 133.461 68.482 133.461 68.486C133.461 68.486 133.461 68.5012 133.445 68.5012L127.502 68.5484L121.559 68.5754L109.674 68.599L97.7878 68.5788L91.8446 68.5535L85.9014 68.5096C85.895 68.5096 85.8889 68.5071 85.8844 68.5027C85.88 68.4983 85.8774 68.4923 85.8774 68.486C85.8774 68.4798 85.88 68.4738 85.8844 68.4693C85.8889 68.4649 85.895 68.4624 85.9014 68.4624Z" fill="white"/>
<path d="M109.674 69.2185L91.8427 69.173L85.2778 69.1241L85.2539 67.8679L85.8978 67.8443L97.7859 67.7751L109.672 67.7549L127.505 67.8038L133.712 67.8527L134.089 68.2338L134.065 69.1055L133.445 69.1224L121.562 69.1966L109.674 69.2185Z" fill="white"/>
<path d="M87.8022 77.5398L93.2673 77.496L98.7323 77.4707L109.662 77.4521L120.592 77.4741L126.057 77.5011L131.522 77.5483C131.528 77.5463 131.534 77.5463 131.54 77.5483C131.54 77.5668 131.531 77.5736 131.522 77.5736L126.057 77.6208L120.592 77.6478L109.662 77.6697L98.7323 77.6494L93.2673 77.6241L87.8022 77.5803C87.7959 77.5803 87.7898 77.5778 87.7853 77.5734C87.7808 77.569 87.7783 77.563 87.7783 77.5567C87.7783 77.5504 87.7808 77.5444 87.7853 77.54C87.7898 77.5356 87.7959 77.5331 87.8022 77.5331V77.5398Z" fill="white"/>
<path d="M109.674 78.2956L93.2671 78.2501L87.5373 78.2046L87.1548 77.8269V77.5503L87.1685 76.945L87.7969 76.9214L98.7355 76.8523L109.672 76.832L126.081 76.8809L132.17 76.9349L132.187 78.1827L131.545 78.1995L120.613 78.2737L109.674 78.2956Z" fill="white"/>
<path d="M125.983 86.7179H94.9267C94.9041 86.7179 94.8823 86.7091 94.8663 86.6932C94.8503 86.6774 94.8413 86.656 94.8413 86.6336C94.8413 86.6113 94.8503 86.5898 94.8663 86.574C94.8823 86.5582 94.9041 86.5493 94.9267 86.5493H125.983C126.006 86.5493 126.028 86.5582 126.044 86.574C126.06 86.5898 126.069 86.6113 126.069 86.6336C126.069 86.656 126.06 86.6774 126.044 86.6932C126.028 86.7091 126.006 86.7179 125.983 86.7179Z" fill="white"/>
<path d="M125.984 87.3436H94.9288C94.7461 87.3347 94.574 87.2569 94.4479 87.1261C94.3218 86.9954 94.2515 86.8218 94.2515 86.6413C94.2515 86.4607 94.3218 86.2871 94.4479 86.1564C94.574 86.0256 94.7461 85.9478 94.9288 85.939H125.984C126.166 85.9478 126.339 86.0256 126.465 86.1564C126.591 86.2871 126.661 86.4607 126.661 86.6413C126.661 86.8218 126.591 86.9954 126.465 87.1261C126.339 87.2569 126.166 87.3347 125.984 87.3436Z" fill="white"/>
<path d="M109.679 93.4287C95.5984 93.4287 84.1406 82.2408 84.1406 68.4883C84.1406 54.7358 95.5899 43.5513 109.679 43.5513C123.769 43.5513 135.22 54.7391 135.22 68.49C135.22 82.2408 123.754 93.4287 109.679 93.4287ZM109.679 45.7619C96.8332 45.7619 86.383 55.9582 86.383 68.4883C86.383 81.0184 96.8332 91.2164 109.679 91.2164C122.526 91.2164 132.978 81.02 132.978 68.4883C132.978 55.9566 122.517 45.7619 109.679 45.7619Z" fill="white"/>
<path d="M134.224 48.3098H126.891V46.4348L129.319 43.0455C129.81 42.3744 130.266 41.6794 130.685 40.9631C130.918 40.5504 131.103 40.1132 131.237 39.6597C131.353 39.24 131.411 38.8065 131.408 38.3714C131.408 37.8555 131.294 37.4676 131.066 37.208C130.956 37.0811 130.819 36.9795 130.664 36.9102C130.51 36.8409 130.342 36.8056 130.173 36.8067C129.846 36.8056 129.524 36.8949 129.246 37.0646C128.856 37.3285 128.504 37.6427 128.199 37.9988L126.778 36.52C127.432 35.7882 128.04 35.2868 128.602 35.0159C129.17 34.7429 129.794 34.6038 130.426 34.6095C131.529 34.6095 132.391 34.9294 133.011 35.569C133.632 36.2086 133.942 37.0984 133.942 38.2382C133.944 38.7327 133.887 39.2257 133.771 39.7069C133.652 40.187 133.48 40.6529 133.259 41.0963C133.01 41.5991 132.724 42.0837 132.405 42.5464C132.064 43.0489 131.178 44.1989 129.748 45.9964V46.0807H134.229L134.224 48.3098Z" fill="white"/>
<path d="M143.653 45.4754H142.268V48.3099H139.877V45.4754H135.415V43.4334L139.549 34.8086H142.271V43.3963H143.657L143.653 45.4754ZM139.874 43.3963V40.5517L139.92 39.2955L139.986 38.095H139.908C139.709 38.7152 139.472 39.3228 139.197 39.9144L137.551 43.3963H139.874Z" fill="white"/>
<defs>
<linearGradient id="paint0_linear_402_1005" x1="225.513" y1="541.609" x2="191.743" y2="428.787" gradientUnits="userSpaceOnUse">
<stop stop-color="#FF851C"/>
<stop offset="1" stop-color="#FF9F4B"/>
</linearGradient>
<linearGradient id="paint1_linear_402_1005" x1="185.642" y1="249.904" x2="33.5121" y2="450.256" gradientUnits="userSpaceOnUse">
<stop stop-color="#FF7600"/>
<stop offset="1" stop-color="#FF9F4B"/>
</linearGradient>
<linearGradient id="paint2_linear_402_1005" x1="146.004" y1="219.807" x2="-6.12722" y2="420.158" gradientUnits="userSpaceOnUse">
<stop stop-color="#FF7600"/>
<stop offset="1" stop-color="#FF9F4B"/>
</linearGradient>
<linearGradient id="paint3_linear_402_1005" x1="155.518" y1="130.331" x2="211.984" y2="223.78" gradientUnits="userSpaceOnUse">
<stop stop-color="#AD5102"/>
<stop offset="1" stop-color="#AA4700"/>
</linearGradient>
<linearGradient id="paint4_linear_402_1005" x1="194.779" y1="167.434" x2="114.8" y2="216.205" gradientUnits="userSpaceOnUse">
<stop stop-color="#FEBBBA"/>
<stop offset="1" stop-color="#FF928E"/>
</linearGradient>
<linearGradient id="paint5_linear_402_1005" x1="114.073" y1="409.054" x2="236.355" y2="448.737" gradientUnits="userSpaceOnUse">
<stop/>
<stop offset="1" stop-color="#646E75"/>
</linearGradient>
<linearGradient id="paint6_linear_402_1005" x1="190.702" y1="171.747" x2="133.328" y2="249.985" gradientUnits="userSpaceOnUse">
<stop stop-color="#FF740F"/>
<stop offset="1" stop-color="#FF9F4B"/>
</linearGradient>
<linearGradient id="paint7_linear_402_1005" x1="178.081" y1="143.178" x2="150.005" y2="187.918" gradientUnits="userSpaceOnUse">
<stop stop-color="#FF9F4B"/>
<stop offset="1" stop-color="#FF740F"/>
</linearGradient>
<linearGradient id="paint8_linear_402_1005" x1="151.244" y1="186.994" x2="101.194" y2="85.2322" gradientUnits="userSpaceOnUse">
<stop stop-color="#FF7600"/>
<stop offset="1" stop-color="#4042E2"/>
</linearGradient>
<linearGradient id="paint9_linear_402_1005" x1="240.939" y1="513.85" x2="247.389" y2="370.147" gradientUnits="userSpaceOnUse">
<stop stop-color="#8598AA"/>
<stop offset="1" stop-color="#5C6A77"/>
</linearGradient>
<linearGradient id="paint10_linear_402_1005" x1="334.823" y1="269.168" x2="383.522" y2="395.296" gradientUnits="userSpaceOnUse">
<stop stop-color="#646E75"/>
<stop offset="1" stop-color="#5C6A77"/>
</linearGradient>
<linearGradient id="paint11_linear_402_1005" x1="328.827" y1="319.143" x2="356.581" y2="492.017" gradientUnits="userSpaceOnUse">
<stop stop-color="#646E75"/>
<stop offset="1" stop-color="#213141"/>
</linearGradient>
<linearGradient id="paint12_linear_402_1005" x1="316.018" y1="419.639" x2="399.305" y2="474.921" gradientUnits="userSpaceOnUse">
<stop/>
<stop offset="1" stop-color="#646E75"/>
</linearGradient>
</defs>
</svg>
