<svg width="162" height="97" viewBox="0 0 162 97" fill="none" xmlns="http://www.w3.org/2000/svg">
<path fill-rule="evenodd" clip-rule="evenodd" d="M52.1228 50.5208C50.3753 47.4927 51.4124 43.6208 54.44 41.873C56.2869 40.8067 58.4492 40.7776 60.2512 41.6036L60.2577 41.5942L60.3779 41.6646C60.5064 41.7275 60.6331 41.7942 60.757 41.8646V28.0092L63.9188 26.1826V43.709L79.2576 52.568L76.1794 54.4415L63.9357 47.3707C63.9348 47.5143 63.9291 47.6598 63.9188 47.8024V47.9395H63.9076C63.7227 49.9144 62.6162 51.772 60.7683 52.8402C57.7426 54.587 53.8713 53.5488 52.1228 50.5208ZM80.9169 0.641114C84.4128 0.640175 87.2471 3.47488 87.2471 6.97228C87.2471 9.10582 86.1913 10.9925 84.5733 12.1405L84.5789 12.1499L84.4579 12.2203C84.3396 12.2991 84.2185 12.377 84.0937 12.4483L96.0915 19.3765V23.0269L80.9169 14.2646L65.5762 23.1226L65.7414 19.3755L77.7391 12.4474C77.6143 12.3751 77.4923 12.2982 77.3741 12.2174L77.2558 12.1489L77.2615 12.1395C75.6435 10.9925 74.5877 9.10489 74.5877 6.97134C74.5867 3.47489 77.421 0.641114 80.9169 0.641114ZM82.2186 9.86049L82.7629 9.54699C83.5644 8.9716 84.0843 8.03295 84.0843 6.97228C84.0843 5.22264 82.6663 3.80435 80.9169 3.80435C79.1675 3.80435 77.7495 5.22264 77.7495 6.97228C77.7495 8.03295 78.2703 8.97254 79.0709 9.54699L79.6152 9.86049C80.0131 10.0398 80.4523 10.1393 80.9169 10.1393C81.3815 10.1393 81.8216 10.0398 82.2186 9.86049ZM109.71 50.5208C107.963 53.5498 104.092 54.586 101.065 52.8392C99.2167 51.771 98.1111 49.9135 97.9262 47.9385H97.914V47.7996C97.9037 47.656 97.8981 47.5143 97.8981 47.3707L85.8994 54.2988L82.7376 52.4732L97.914 43.71V25.9921L101.076 28.0073V41.8646C101.202 41.7932 101.328 41.7257 101.458 41.6628L101.577 41.5942L101.582 41.6036C103.385 40.7767 105.546 40.8067 107.394 41.874C110.421 43.6208 111.458 47.4927 109.71 50.5208ZM101.076 47.0375V47.6654C101.173 48.6463 101.725 49.568 102.646 50.0984C104.16 50.9741 106.098 50.4551 106.971 48.9391C107.845 47.4232 107.328 45.4859 105.813 44.611C104.895 44.0807 103.82 44.0629 102.922 44.4674L102.378 44.7819C102.023 45.0363 101.718 45.3685 101.485 45.7693C101.254 46.173 101.119 46.6038 101.076 47.0375ZM59.4563 44.7838L58.9119 44.4693C58.0128 44.0648 56.9392 44.0817 56.0204 44.6129C54.5057 45.4877 53.9867 47.4251 54.8614 48.941C55.737 50.4569 57.674 50.9751 59.1888 50.1003C60.1076 49.5709 60.6594 48.6482 60.757 47.6673V47.0393C60.7138 46.6057 60.5806 46.1748 60.3478 45.7722C60.117 45.3695 59.8101 45.0391 59.4563 44.7838Z" fill="#EAF3FA"/>
<path fill-rule="evenodd" clip-rule="evenodd" d="M80.5162 74.5163C77.0515 74.5163 74.2435 71.6781 74.2435 68.1773C74.2426 66.0411 75.2899 64.1521 76.8925 63.0037L76.8869 62.9934L77.0069 62.9229C77.1231 62.843 77.244 62.7669 77.3659 62.6955L63.5295 54.6226C64.3396 53.9252 65.0307 53.0907 65.5683 52.1565L80.5162 60.876L95.478 52.1471C96.0147 53.0822 96.7058 53.9168 97.515 54.616L83.6646 62.6955C83.7883 62.7669 83.9093 62.8439 84.0274 62.9248L84.1446 62.9934L84.1399 63.0037C85.7425 64.1521 86.7889 66.0402 86.7889 68.1773C86.7898 71.6781 83.9809 74.5163 80.5162 74.5163ZM115.326 13.5946C117.059 16.6264 116.031 20.5041 113.029 22.253C111.198 23.3225 109.056 23.3516 107.271 22.5227L107.264 22.5331L107.144 22.4626C107.017 22.4006 106.892 22.3329 106.769 22.2624V38.4176C105.789 38.0652 104.734 37.8734 103.636 37.8716V20.4148L88.6752 11.6878C89.1998 10.7677 89.5755 9.75179 89.7718 8.67102L103.62 16.7495C103.621 16.6048 103.627 16.461 103.637 16.3172V16.18H103.648C103.83 14.2027 104.927 12.3428 106.759 11.2743C109.757 9.52436 113.594 10.5628 115.326 13.5946ZM108.058 19.3387L108.598 19.6545C109.488 20.0605 110.554 20.0417 111.464 19.5107C112.965 18.6357 113.479 16.695 112.612 15.1782C111.745 13.6604 109.825 13.1407 108.323 14.0175C107.412 14.5485 106.865 15.4714 106.768 16.4535V17.0822C106.811 17.5164 106.944 17.9478 107.174 18.35C107.405 18.7523 107.707 19.0849 108.058 19.3387ZM45.7066 13.5956C47.4385 10.5638 51.2743 9.5253 54.2758 11.2761C56.1063 12.3438 57.2029 14.2046 57.3852 16.1819H57.3963V16.3219C57.4066 16.4648 57.4121 16.6076 57.4121 16.7514L71.2606 8.6729C71.4559 9.75461 71.8326 10.7696 72.3572 11.6897L57.3963 20.4176V37.88C56.2969 37.8828 55.2422 38.0764 54.2628 38.4307V22.2634C54.1381 22.3357 54.0116 22.4034 53.8842 22.4654L53.767 22.534L53.7614 22.5246C51.9766 23.3535 49.8336 23.3235 48.0022 22.2549C45.0016 20.505 43.9738 16.6264 45.7066 13.5956ZM54.2637 17.0832V16.4535C54.167 15.4714 53.6191 14.5485 52.7086 14.0175C51.2073 13.1407 49.2876 13.6614 48.4207 15.1782C47.5539 16.695 48.0682 18.6357 49.5703 19.5107C50.4809 20.0426 51.545 20.0605 52.4351 19.6545L52.9746 19.3406C53.3252 19.0859 53.6284 18.7532 53.8591 18.351C54.0879 17.9478 54.2209 17.5164 54.2637 17.0832ZM79.228 65.2846L78.6876 65.6004C77.8933 66.1755 77.378 67.1153 77.378 68.1773C77.378 69.93 78.7825 71.3491 80.5171 71.3491C82.2518 71.3491 83.6563 69.93 83.6563 68.1773C83.6563 67.1153 83.1401 66.1746 82.3467 65.6004L81.8072 65.2846C81.4138 65.106 80.9775 65.0055 80.5181 65.0055C80.0558 65.0055 79.6205 65.1051 79.228 65.2846Z" fill="#FF7600"/>
<path fill-rule="evenodd" clip-rule="evenodd" d="M11.2494 81.2061H0V96.7332H2.63934V90.4118H10.2757V87.9502H2.63934V83.6677H11.2494V81.2061ZM29.2267 88.9476C29.2267 87.8536 29.0318 86.8178 28.6429 85.8424C28.254 84.8669 27.7121 84.0167 27.0201 83.2918C26.3272 82.5669 25.499 81.9941 24.5328 81.5723C23.5666 81.1506 22.4997 80.9402 21.3311 80.9402C20.1634 80.9402 19.0965 81.1554 18.1294 81.5838C17.1622 82.0122 16.3266 82.5937 15.6206 83.3243C14.9137 84.0569 14.3653 84.91 13.9764 85.8873C13.5875 86.8638 13.3926 87.8985 13.3926 88.9926C13.3926 90.0866 13.5875 91.1223 13.9764 92.0978C14.3653 93.0733 14.9071 93.9244 15.5992 94.6484C16.2912 95.3742 17.1203 95.9461 18.0865 96.3679C19.0527 96.7896 20.1196 97 21.2882 97C22.4558 97 23.5228 96.7858 24.4899 96.3573C25.457 95.9289 26.2927 95.3475 26.9987 94.6158C27.7056 93.8833 28.254 93.0302 28.6429 92.0538C29.0318 91.0764 29.2267 90.0417 29.2267 88.9476ZM26.4354 88.9926C26.4354 89.7462 26.3095 90.4596 26.0567 91.1329C25.804 91.8052 25.4542 92.3895 25.0075 92.8849C24.5599 93.3812 24.0227 93.7723 23.395 94.0602C22.7673 94.3481 22.0791 94.4925 21.3292 94.4925C20.5794 94.4925 19.8874 94.3452 19.2523 94.0487C18.6181 93.7532 18.0734 93.3535 17.6192 92.8514C17.165 92.3484 16.8116 91.7602 16.5598 91.087C16.307 90.4146 16.1811 89.7012 16.1811 88.9467C16.1811 88.1931 16.307 87.4796 16.5598 86.8064C16.8125 86.1341 17.1622 85.5497 17.609 85.0544C18.0557 84.559 18.5929 84.1669 19.2206 83.879C19.8473 83.5902 20.5365 83.4468 21.2863 83.4468C22.0362 83.4468 22.7282 83.594 23.3633 83.8905C23.9975 84.187 24.5421 84.5858 24.9963 85.0888C25.4505 85.5909 25.804 86.179 26.0567 86.8523C26.3095 87.5246 26.4354 88.238 26.4354 88.9926ZM45.1691 81.2061H42.5307V90.1459C42.5307 91.5804 42.1875 92.6601 41.5057 93.385C40.8249 94.109 39.8913 94.4724 38.7013 94.4724C37.4973 94.4724 36.5563 94.0946 35.8745 93.3401C35.1928 92.5855 34.8505 91.4848 34.8505 90.035V81.207H32.2111V90.1469C32.2111 91.2715 32.3622 92.2575 32.6653 93.1087C32.9684 93.9598 33.4012 94.6723 33.9636 95.2489C34.5259 95.8266 35.204 96.2588 35.9967 96.5457C36.7904 96.8345 37.6773 96.978 38.6575 96.978C39.6526 96.978 40.5498 96.8345 41.3509 96.5457C42.1511 96.2579 42.8329 95.8218 43.3952 95.2375C43.9576 94.6541 44.3941 93.9254 44.7037 93.0522C45.0143 92.18 45.1691 91.1673 45.1691 90.0139V81.2061ZM59.3824 91.9429L51.2881 81.2061H48.8259V96.7332H51.4653V85.6874L59.7974 96.7341H62.0217V81.207H59.3824V91.9429ZM79.6083 88.9476C79.6083 87.8536 79.4134 86.8332 79.0245 85.8873C78.6356 84.9406 78.0834 84.1191 77.37 83.4248C76.6565 82.7304 75.805 82.1863 74.8174 81.7952C73.8288 81.4031 72.7441 81.207 71.5616 81.207H65.9154V96.7341H71.5616C72.7451 96.7341 73.8297 96.5352 74.8174 96.1355C75.805 95.7357 76.6556 95.1896 77.37 94.4934C78.0844 93.7982 78.6356 92.9738 79.0245 92.0203C79.4134 91.0669 79.6083 90.0417 79.6083 88.9476ZM76.8179 88.9926C76.8179 89.7653 76.692 90.4749 76.4392 91.1185C76.1865 91.7659 75.8302 92.3235 75.3751 92.7892C74.9209 93.2588 74.365 93.6213 73.7169 93.8843C73.064 94.1434 72.3431 94.2725 71.5466 94.2725H68.5538V83.6686H71.5466C72.3431 83.6686 73.064 83.8025 73.7169 84.0684C74.366 84.3381 74.9209 84.7082 75.3751 85.1854C75.8293 85.6578 76.1865 86.2201 76.4392 86.8666C76.692 87.5093 76.8179 88.2189 76.8179 88.9926ZM82.8324 87.6613V96.7332H94.1461V94.2716H85.4708V90.123H93.0643V87.6613H82.8324ZM110.175 96.7332L106.087 90.8555C106.62 90.7082 107.107 90.4969 107.546 90.2234C107.985 89.9499 108.365 89.6171 108.682 89.225C108.999 88.8338 109.248 88.3824 109.429 87.8727C109.609 87.362 109.699 86.7815 109.699 86.1312C109.699 85.3766 109.569 84.6929 109.31 84.0789C109.05 83.4649 108.678 82.9466 108.195 82.5258C107.712 82.105 107.122 81.7798 106.422 81.5494C105.723 81.3208 104.94 81.2061 104.075 81.2061H97.3254V96.7332H99.9648V91.3213H103.307L107.039 96.7332H110.175ZM106.995 86.2747C106.995 87.077 106.714 87.7168 106.148 88.1902C105.586 88.6665 104.825 88.9036 103.87 88.9036H99.9648V83.6677H103.847C104.846 83.6677 105.621 83.8867 106.17 84.3256C106.722 84.7627 106.995 85.4139 106.995 86.2747ZM115.194 85.2648C115.194 84.7483 115.41 84.3075 115.843 83.945C116.276 83.5835 116.881 83.4018 117.66 83.4018C118.352 83.4018 119.037 83.5395 119.714 83.813C120.393 84.0865 121.078 84.4815 121.77 84.9989L123.198 82.937C122.418 82.3011 121.585 81.8162 120.698 81.4834C119.811 81.1496 118.813 80.9842 117.702 80.9842C116.952 80.9842 116.26 81.0913 115.628 81.3065C114.994 81.5216 114.453 81.8277 114.003 82.2265C113.552 82.6262 113.199 83.1034 112.939 83.6572C112.683 84.2118 112.552 84.8296 112.552 85.5105C112.552 86.2354 112.664 86.8484 112.888 87.3515C113.111 87.8545 113.44 88.2839 113.866 88.6387C114.291 88.9935 114.821 89.289 115.447 89.5262C116.079 89.7624 116.796 89.9776 117.607 90.1698C118.314 90.3477 118.887 90.517 119.331 90.6795C119.771 90.8421 120.117 91.0162 120.373 91.2008C120.625 91.3853 120.798 91.589 120.892 91.8109C120.986 92.0328 121.032 92.2843 121.032 92.5654C121.032 93.1718 120.79 93.6528 120.307 94.0076C119.824 94.3624 119.171 94.5403 118.35 94.5403C117.397 94.5403 116.547 94.3662 115.797 94.0191C115.047 93.6719 114.304 93.1718 113.569 92.5215L111.968 94.4743C112.877 95.3168 113.865 95.9413 114.932 96.3478C115.999 96.7552 117.117 96.9589 118.285 96.9589C119.079 96.9589 119.806 96.8556 120.471 96.6481C121.13 96.4415 121.7 96.1383 122.168 95.7386C122.641 95.3398 123.008 94.8511 123.276 94.2754C123.538 93.6978 123.672 93.0407 123.672 92.3015C123.672 91.6502 123.568 91.085 123.359 90.605C123.149 90.1239 122.839 89.7031 122.436 89.3407C122.032 88.9782 121.521 88.6712 120.907 88.4197C120.293 88.1682 119.587 87.9396 118.794 87.7321C118.069 87.5542 117.474 87.385 117.002 87.2224C116.533 87.0589 116.165 86.8829 115.894 86.6897C115.627 86.4975 115.445 86.29 115.342 86.0681C115.245 85.8424 115.194 85.5756 115.194 85.2648ZM136.719 90.1899V96.7341H139.357V81.207H136.719V87.6623H129.45V81.207H126.811V96.7341H129.45V90.1899H136.719ZM143.403 81.2061V96.7332H146.042V81.2061H143.403ZM161.834 86.4191C161.834 85.6205 161.7 84.9033 161.433 84.2673C161.167 83.6313 160.784 83.0843 160.287 82.6253C159.79 82.1662 159.184 81.8152 158.47 81.5714C157.757 81.3275 156.96 81.2051 156.08 81.2051H150.11V96.7322H152.75V91.7411H155.763C156.602 91.7411 157.389 91.6263 158.128 91.3978C158.863 91.1692 159.506 90.8316 160.057 90.3879C160.604 89.9441 161.038 89.3894 161.359 88.7248C161.675 88.0601 161.834 87.2912 161.834 86.4191ZM159.129 86.4745C159.129 87.3218 158.837 88.0018 158.249 88.5115C157.666 89.0251 156.865 89.2804 155.853 89.2804H152.749V83.6686H155.853C156.85 83.6686 157.648 83.902 158.24 84.3706C158.834 84.8363 159.129 85.5383 159.129 86.4745Z" fill="#EAF3FA"/>
<path d="M93.7353 80.9402H82.5191V83.3492H93.7353V80.9402Z" fill="#FF7600"/>
</svg>
