<svg width="280" height="224" viewBox="0 0 280 224" fill="none" xmlns="http://www.w3.org/2000/svg">
<g style="mix-blend-mode:darken" clip-path="url(#clip0_402_96)">
<path d="M280 0H0V224H280V0Z" fill="white"/>
<path fill-rule="evenodd" clip-rule="evenodd" d="M104.06 114.117C101.878 110.346 103.173 105.524 106.952 103.348C109.257 102.02 111.956 101.984 114.205 103.012L114.213 103.001L114.363 103.088C114.524 103.167 114.682 103.25 114.837 103.337V86.0827L118.783 83.808V105.634L137.929 116.667L134.087 119L118.804 110.194C118.803 110.373 118.796 110.554 118.783 110.732V110.903H118.769C118.538 113.362 117.157 115.676 114.851 117.006C111.074 119.181 106.242 117.888 104.06 114.117ZM140 52C144.364 51.9988 147.901 55.529 147.901 59.8845C147.901 62.5415 146.584 64.891 144.564 66.3207L144.571 66.3323L144.42 66.42C144.272 66.5182 144.121 66.6152 143.965 66.7041L158.941 75.332V79.878L140 68.966L120.852 79.9972L121.058 75.3308L136.034 66.7029C135.878 66.6129 135.726 66.517 135.578 66.4165L135.43 66.3312L135.437 66.3195C133.418 64.891 132.1 62.5403 132.1 59.8833C132.099 55.529 135.637 52 140 52ZM141.625 63.4813L142.304 63.0909C143.305 62.3743 143.954 61.2054 143.954 59.8845C143.954 57.7056 142.184 55.9393 140 55.9393C137.817 55.9393 136.047 57.7056 136.047 59.8845C136.047 61.2054 136.697 62.3755 137.696 63.0909L138.375 63.4813C138.872 63.7046 139.42 63.8285 140 63.8285C140.58 63.8285 141.129 63.7046 141.625 63.4813ZM175.94 114.117C173.76 117.89 168.927 119.18 165.148 117.005C162.842 115.674 161.462 113.361 161.231 110.902H161.216V110.729C161.203 110.55 161.196 110.373 161.196 110.194L146.219 118.822L142.273 116.549L161.216 105.636V83.5707L165.163 86.0804V103.337C165.319 103.249 165.478 103.164 165.639 103.086L165.788 103.001L165.794 103.012C168.044 101.983 170.742 102.02 173.049 103.349C176.828 105.524 178.122 110.346 175.94 114.117ZM165.163 109.779V110.561C165.284 111.783 165.973 112.931 167.122 113.591C169.012 114.682 171.431 114.036 172.521 112.148C173.612 110.26 172.967 107.847 171.076 106.758C169.929 106.097 168.588 106.075 167.467 106.579L166.787 106.97C166.344 107.287 165.964 107.701 165.673 108.2C165.385 108.703 165.216 109.239 165.163 109.779ZM113.213 106.973L112.534 106.581C111.411 106.077 110.071 106.098 108.924 106.76C107.034 107.85 106.386 110.262 107.478 112.15C108.571 114.038 110.989 114.683 112.879 113.594C114.026 112.934 114.715 111.785 114.837 110.564V109.782C114.783 109.242 114.616 108.705 114.326 108.204C114.038 107.702 113.655 107.291 113.213 106.973Z" fill="#818181"/>
<path fill-rule="evenodd" clip-rule="evenodd" d="M139.5 144C135.175 144 131.67 140.465 131.67 136.106C131.669 133.446 132.977 131.093 134.977 129.663L134.97 129.65L135.12 129.562C135.265 129.463 135.416 129.368 135.568 129.279L118.297 119.226C119.309 118.357 120.171 117.318 120.842 116.154L139.5 127.013L158.175 116.143C158.845 117.307 159.708 118.347 160.718 119.217L143.43 129.279C143.584 129.368 143.735 129.464 143.883 129.565L144.029 129.65L144.023 129.663C146.023 131.093 147.33 133.444 147.33 136.106C147.331 140.465 143.825 144 139.5 144ZM182.949 68.1316C185.112 71.9072 183.829 76.7362 180.083 78.9143C177.797 80.2462 175.123 80.2824 172.895 79.2502L172.887 79.263L172.737 79.1753C172.578 79.098 172.423 79.0137 172.268 78.926V99.0447C171.046 98.6058 169.728 98.3671 168.358 98.3647V76.625L149.684 65.7569C150.339 64.6111 150.808 63.3459 151.053 62L168.338 72.0605C168.34 71.8803 168.347 71.7012 168.359 71.5222V71.3513H168.373C168.6 68.8888 169.97 66.5727 172.257 65.2419C175.998 63.0627 180.787 64.356 182.949 68.1316ZM173.877 75.2849L174.552 75.6782C175.663 76.1838 176.993 76.1604 178.129 75.4991C180.003 74.4095 180.643 71.9927 179.561 70.1037C178.479 68.2135 176.083 67.5663 174.208 68.6583C173.072 69.3195 172.389 70.4688 172.267 71.6919V72.4749C172.322 73.0156 172.487 73.5528 172.774 74.0537C173.062 74.5546 173.44 74.9689 173.877 75.2849ZM96.0509 68.1328C98.2126 64.3571 103 63.0639 106.747 65.2443C109.032 66.5738 110.4 68.8912 110.628 71.3536H110.642V71.528C110.655 71.7059 110.662 71.8838 110.662 72.0629L127.947 62.0023C128.191 63.3494 128.661 64.6135 129.316 65.7592L110.642 76.6285V98.3753C109.27 98.3788 107.953 98.6199 106.731 99.0611V78.9271C106.575 79.0173 106.417 79.1015 106.258 79.1788L106.112 79.2642L106.105 79.2525C103.877 80.2848 101.202 80.2473 98.9161 78.9166C95.1709 76.7374 93.888 71.9072 96.0509 68.1328ZM106.732 72.476V71.6919C106.611 70.4688 105.927 69.3195 104.791 68.6583C102.917 67.5663 100.521 68.2147 99.4386 70.1037C98.3565 71.9927 98.9986 74.4095 100.874 75.4991C102.01 76.1615 103.338 76.1838 104.449 75.6782L105.123 75.2873C105.56 74.9701 105.939 74.5558 106.227 74.0549C106.512 73.5528 106.678 73.0156 106.732 72.476ZM137.892 132.503L137.218 132.897C136.226 133.613 135.583 134.783 135.583 136.106C135.583 138.289 137.336 140.056 139.501 140.056C141.666 140.056 143.419 138.289 143.419 136.106C143.419 134.783 142.775 133.612 141.785 132.897L141.111 132.503C140.62 132.281 140.076 132.156 139.502 132.156C138.925 132.156 138.382 132.28 137.892 132.503Z" fill="#FF7600"/>
<path fill-rule="evenodd" clip-rule="evenodd" d="M53.0414 152.331H39V171.668H42.2944V163.795H51.8261V160.73H42.2944V155.397H53.0414V152.331ZM75.4807 161.972C75.4807 160.61 75.2374 159.32 74.752 158.105C74.2665 156.89 73.5902 155.831 72.7264 154.929C71.8615 154.026 70.8278 153.312 69.6218 152.787C68.4157 152.262 67.084 152 65.6254 152C64.1679 152 62.8362 152.268 61.629 152.802C60.4218 153.335 59.3788 154.059 58.4976 154.969C57.6152 155.881 56.9307 156.944 56.4453 158.161C55.9598 159.377 55.7165 160.666 55.7165 162.028C55.7165 163.39 55.9598 164.68 56.4453 165.895C56.9307 167.11 57.607 168.17 58.4708 169.071C59.3346 169.975 60.3695 170.688 61.5755 171.213C62.7815 171.738 64.1132 172 65.5718 172C67.0293 172 68.361 171.733 69.5682 171.2C70.7754 170.666 71.8184 169.942 72.6997 169.031C73.582 168.119 74.2665 167.056 74.752 165.84C75.2374 164.623 75.4807 163.334 75.4807 161.972ZM71.9965 162.028C71.9965 162.966 71.8394 163.855 71.5239 164.693C71.2084 165.531 70.7719 166.258 70.2143 166.875C69.6555 167.493 68.985 167.98 68.2016 168.339C67.4181 168.697 66.559 168.877 65.6231 168.877C64.6871 168.877 63.8234 168.694 63.0306 168.325C62.239 167.957 61.5592 167.459 60.9923 166.834C60.4253 166.207 59.9841 165.475 59.6698 164.636C59.3544 163.799 59.1972 162.91 59.1972 161.971C59.1972 161.032 59.3544 160.144 59.6698 159.305C59.9853 158.468 60.4218 157.74 60.9795 157.124C61.5371 156.507 62.2076 156.018 62.991 155.66C63.7733 155.3 64.6336 155.122 65.5695 155.122C66.5055 155.122 67.3692 155.305 68.162 155.674C68.9536 156.043 69.6334 156.54 70.2003 157.166C70.7672 157.792 71.2084 158.524 71.5239 159.363C71.8394 160.2 71.9965 161.088 71.9965 162.028ZM95.3799 152.331H92.0867V163.464C92.0867 165.251 91.6583 166.595 90.8073 167.498C89.9575 168.4 88.7922 168.852 87.3068 168.852C85.804 168.852 84.6294 168.382 83.7784 167.442C82.9275 166.502 82.5003 165.132 82.5003 163.326V152.332H79.2058V163.465C79.2058 164.866 79.3944 166.094 79.7728 167.154C80.1511 168.214 80.6912 169.101 81.3932 169.819C82.0951 170.539 82.9414 171.077 83.9309 171.434C84.9216 171.794 86.0287 171.973 87.2521 171.973C88.4942 171.973 89.6141 171.794 90.6141 171.434C91.6129 171.076 92.4638 170.533 93.1658 169.805C93.8677 169.079 94.4125 168.171 94.799 167.084C95.1867 165.997 95.3799 164.736 95.3799 163.3V152.331ZM113.121 165.702L103.018 152.331H99.9444V171.668H103.239V157.912L113.639 171.669H116.415V152.332H113.121V165.702ZM138.367 161.972C138.367 160.61 138.123 159.339 137.638 158.161C137.153 156.982 136.463 155.959 135.573 155.094C134.682 154.229 133.62 153.552 132.387 153.065C131.153 152.576 129.799 152.332 128.323 152.332H121.275V171.669H128.323C129.8 171.669 131.154 171.421 132.387 170.923C133.62 170.426 134.681 169.745 135.573 168.878C136.465 168.013 137.153 166.986 137.638 165.799C138.123 164.611 138.367 163.334 138.367 161.972ZM134.884 162.028C134.884 162.99 134.727 163.874 134.411 164.676C134.096 165.482 133.651 166.176 133.083 166.756C132.516 167.341 131.822 167.792 131.013 168.12C130.198 168.443 129.298 168.603 128.304 168.603H124.569V155.398H128.304C129.298 155.398 130.198 155.565 131.013 155.896C131.823 156.232 132.516 156.692 133.083 157.287C133.65 157.875 134.096 158.575 134.411 159.38C134.727 160.181 134.884 161.064 134.884 162.028ZM142.391 160.37V171.668H156.513V168.602H145.684V163.436H155.162V160.37H145.684H142.391V160.37ZM176.52 171.668L171.417 164.348C172.083 164.165 172.69 163.901 173.239 163.561C173.787 163.22 174.261 162.806 174.657 162.317C175.052 161.83 175.363 161.268 175.589 160.633C175.814 159.997 175.925 159.274 175.925 158.465C175.925 157.525 175.764 156.673 175.44 155.909C175.116 155.144 174.652 154.499 174.049 153.975C173.446 153.451 172.709 153.046 171.836 152.759C170.963 152.474 169.986 152.331 168.906 152.331H160.481V171.668H163.776V164.928H167.948L172.605 171.668H176.52V171.668ZM172.551 158.643C172.551 159.642 172.2 160.439 171.494 161.029C170.792 161.622 169.842 161.917 168.65 161.917H163.776V155.397H168.622C169.869 155.397 170.836 155.669 171.52 156.216C172.21 156.76 172.551 157.571 172.551 158.643ZM182.784 157.386C182.784 156.742 183.054 156.193 183.595 155.742C184.135 155.292 184.89 155.066 185.862 155.066C186.726 155.066 187.582 155.237 188.427 155.578C189.274 155.918 190.129 156.41 190.992 157.054L192.775 154.487C191.802 153.695 190.762 153.091 189.655 152.676C188.548 152.261 187.302 152.055 185.915 152.055C184.979 152.055 184.115 152.188 183.327 152.456C182.535 152.724 181.86 153.105 181.298 153.602C180.736 154.1 180.294 154.694 179.97 155.384C179.651 156.074 179.488 156.844 179.488 157.692C179.488 158.594 179.627 159.358 179.907 159.984C180.185 160.611 180.596 161.145 181.127 161.587C181.657 162.029 182.319 162.397 183.101 162.693C183.889 162.987 184.784 163.255 185.797 163.494C186.679 163.716 187.394 163.926 187.948 164.129C188.498 164.331 188.93 164.548 189.249 164.778C189.564 165.008 189.779 165.261 189.897 165.538C190.015 165.814 190.072 166.127 190.072 166.477C190.072 167.233 189.77 167.832 189.167 168.273C188.564 168.715 187.749 168.937 186.724 168.937C185.535 168.937 184.473 168.72 183.538 168.288C182.602 167.855 181.674 167.233 180.756 166.423L178.758 168.855C179.893 169.904 181.125 170.682 182.457 171.188C183.79 171.695 185.185 171.949 186.643 171.949C187.634 171.949 188.542 171.82 189.371 171.562C190.194 171.304 190.905 170.927 191.49 170.429C192.08 169.932 192.538 169.324 192.872 168.607C193.2 167.888 193.367 167.069 193.367 166.149C193.367 165.338 193.237 164.634 192.976 164.036C192.714 163.437 192.328 162.913 191.824 162.461C191.32 162.01 190.682 161.628 189.916 161.315C189.15 161.001 188.268 160.717 187.278 160.458C186.373 160.237 185.631 160.026 185.042 159.823C184.456 159.62 183.997 159.401 183.659 159.16C183.326 158.921 183.097 158.662 182.969 158.386C182.848 158.105 182.784 157.773 182.784 157.386ZM209.652 163.519V171.669H212.945V152.332H209.652V160.371H200.579V152.332H197.284V171.669H200.579V163.519H209.652ZM217.995 152.331V171.668H221.289V152.331H217.995ZM241 158.823C241 157.829 240.834 156.935 240.501 156.143C240.168 155.351 239.69 154.67 239.07 154.098C238.449 153.527 237.693 153.09 236.802 152.786C235.912 152.482 234.916 152.33 233.819 152.33H226.367V171.667H229.662V165.451H233.423C234.471 165.451 235.452 165.308 236.375 165.023C237.292 164.739 238.094 164.318 238.782 163.766C239.466 163.213 240.007 162.522 240.408 161.695C240.802 160.867 241 159.909 241 158.823ZM237.624 158.892C237.624 159.947 237.26 160.794 236.526 161.429C235.798 162.068 234.799 162.386 233.535 162.386H229.66V155.398H233.535C234.78 155.398 235.776 155.688 236.515 156.272C237.256 156.852 237.624 157.726 237.624 158.892Z" fill="#818181"/>
<path d="M156 152H142V155H156V152Z" fill="#FF7600"/>
</g>
<defs>
<clipPath id="clip0_402_96">
<rect width="280" height="224" fill="white"/>
</clipPath>
</defs>
</svg>
