<?xml version="1.0" encoding="UTF-8"?>
<svg xmlns="http://www.w3.org/2000/svg" width="734" height="327" viewBox="0 0 734 327" fill="none">
  <path d="M208.01 102.58C208.11 102.65 208.21 102.71 208.3 102.79C208.21 102.71 208.1 102.65 208.01 102.58Z" fill="black"></path>
  <path d="M209.09 103.61C209.17 103.72 209.26 103.82 209.33 103.93C209.25 103.81 209.17 103.71 209.09 103.61Z" fill="black"></path>
  <path d="M210.62 106.92C210.67 107.1 210.72 107.28 210.77 107.48C210.72 107.29 210.67 107.11 210.62 106.92Z" fill="black"></path>
  <path d="M210.88 107.98C210.92 108.18 210.97 108.38 211.01 108.6C210.97 108.39 210.93 108.19 210.88 107.98Z" fill="black"></path>
  <path d="M211.09 109.13C211.13 109.35 211.16 109.57 211.19 109.8C211.16 109.57 211.12 109.35 211.09 109.13Z" fill="black"></path>
  <path d="M209.55 104.29C209.62 104.42 209.7 104.54 209.77 104.67C209.7 104.54 209.62 104.41 209.55 104.29Z" fill="black"></path>
  <path d="M210.31 105.94C210.37 106.1 210.43 106.26 210.48 106.44C210.43 106.27 210.37 106.11 210.31 105.94Z" fill="black"></path>
  <path d="M209.91 133.02C209.85 133.41 209.8 133.79 209.73 134.18C209.79 133.79 209.85 133.41 209.91 133.02Z" fill="black"></path>
  <path d="M211.28 121.2C211.25 121.56 211.23 121.92 211.2 122.28C211.23 121.91 211.25 121.56 211.28 121.2Z" fill="black"></path>
  <path d="M211.39 119.44C211.37 119.79 211.35 120.13 211.33 120.48C211.35 120.13 211.37 119.78 211.39 119.44Z" fill="black"></path>
  <path d="M211.14 123.03C211.11 123.4 211.08 123.76 211.04 124.14C211.08 123.77 211.11 123.4 211.14 123.03Z" fill="black"></path>
  <path d="M211.51 116.13C211.51 116.44 211.51 116.75 211.5 117.07C211.5 116.75 211.51 116.44 211.51 116.13Z" fill="black"></path>
  <path d="M210.95 124.92C210.91 125.29 210.87 125.67 210.83 126.05C210.87 125.67 210.91 125.3 210.95 124.92Z" fill="black"></path>
  <path d="M209.57 135.21C209.51 135.57 209.45 135.94 209.39 136.3C209.45 135.93 209.51 135.57 209.57 135.21Z" fill="black"></path>
  <path d="M208.8 139.75C208.74 140.06 208.69 140.37 208.64 140.68C208.7 140.37 208.75 140.06 208.8 139.75Z" fill="black"></path>
  <path d="M210.22 130.92C210.17 131.3 210.11 131.68 210.06 132.07C210.12 131.68 210.17 131.3 210.22 130.92Z" fill="black"></path>
  <path d="M210.5 128.85C210.45 129.24 210.4 129.62 210.35 130.02C210.4 129.63 210.45 129.24 210.5 128.85Z" fill="black"></path>
  <path d="M210.74 126.85C210.7 127.23 210.65 127.62 210.6 128.01C210.65 127.62 210.69 127.24 210.74 126.85Z" fill="black"></path>
  <path d="M205.96 101.9C206.09 101.9 206.21 101.91 206.33 101.93C206.21 101.91 206.08 101.91 205.96 101.9Z" fill="black"></path>
  <path d="M219.42 99.39C236 104.45 246.12 117.95 247.53 134.13C246.11 117.95 236 104.45 219.42 99.39Z" fill="black"></path>
  <path d="M185.94 197.66C207.62 197.66 230.5 183.82 241.55 162.36C230.5 183.81 207.62 197.66 185.94 197.66Z" fill="black"></path>
  <path d="M389.92 161.39C389.92 161.39 389.61 161.39 389.3 161.7C381.86 167.9 371.32 171 361.4 171C349 171 340.01 165.11 335.67 155.5C350.86 154.26 384.03 147.13 391.16 126.67C396.74 111.48 383.1 97.84 361.09 97.84C330.09 97.84 303.74 118.3 298.78 149.3C294.44 175.65 309.63 196.11 339.7 196.11C360.16 196.11 384.03 182.16 390.85 162.32C390.85 161.7 390.54 161.39 389.92 161.39ZM334.43 127.91C336.91 117.99 344.66 102.8 354.27 103.11C363.26 103.42 363.57 118.92 360.47 126.98C355.51 140.93 342.8 149.61 334.43 152.09C332.26 145.27 332.26 136.9 334.43 127.91Z" fill="black"></path>
  <path d="M280.8 153.95C291.96 117.37 325.13 79.55 366.36 79.55C383.41 79.55 393.95 86.68 398.29 96.6C404.18 94.12 410.69 85.13 411.31 77.38C412.86 62.81 397.98 50.72 376.59 50.72C335.98 50.72 301.57 91.64 287 125.74L293.51 94.12L247.63 104.97C248.07 106.28 248.44 107.54 248.76 108.76C250.57 111.36 252.15 114.16 253.45 117.15C259.84 131.83 258.96 149.56 251.02 165.82C246.4 175.19 239.79 183.51 231.65 190.3C230.74 191.67 229.77 193.08 228.72 194.57H278.32C275.84 187.13 274.91 181.55 276.77 173.18L280.8 153.96V153.95Z" fill="black"></path>
  <path d="M242.05 161.39C246.58 152.12 248.29 142.75 247.53 134.13C248.28 142.75 246.57 152.13 242.05 161.39Z" fill="black"></path>
  <path d="M669.29 99.39C664.95 98.15 660.61 97.53 655.96 97.53C633.64 97.53 610.39 111.79 599.54 133.8C586.52 160.46 596.75 188.36 622.17 195.8C626.51 197.04 631.16 197.66 635.81 197.66C657.82 197.66 681.07 183.4 691.92 161.39C704.94 134.73 694.71 107.14 669.29 99.39ZM657.2 147.44C652.24 171.93 644.49 193.63 636.43 193.63C628.37 193.63 629.3 172.24 634.26 147.75C639.22 123.26 646.66 101.87 655.34 101.87C664.02 101.56 662.16 122.95 657.2 147.44Z" fill="black"></path>
  <path d="M545.55 207.84C543.69 207.53 541.83 207.53 539.97 207.53C526.33 207.53 516.72 213.42 513.93 216.83C513.62 217.14 513.31 217.76 513.93 218.07C516.1 220.24 526.33 223.03 523.23 236.67C520.13 247.52 509.9 253.1 499.36 253.1C480.45 251.24 483.24 228.61 490.99 192.65C491.92 187.38 502.15 142.12 502.15 142.12C508.97 108.64 493.16 95.93 474.25 95.93C461.85 95.93 451 101.82 444.18 112.36L448.21 92.83L402.33 103.68C404.5 111.12 405.43 116.7 403.57 125.07L393.65 171.88C392.1 180.25 388.69 185.83 383.42 193.27H432.71C430.54 185.83 429.61 180.25 431.47 171.88L439.53 133.75C441.7 121.35 448.83 106.16 458.75 104.61H460.61C473.94 104.61 468.67 127.55 467.74 130.96C467.74 130.96 454.72 191.41 453.79 195.44C449.45 217.45 446.66 258.68 499.05 260.54C518.89 260.54 552.99 252.17 560.12 230.47C564.15 218.38 556.71 208.77 545.55 207.84Z" fill="black"></path>
  <path d="M574.05 140.93C573.43 140.62 556.07 130.08 549.87 126.05C542.43 120.78 536.85 118.61 536.85 113.03C536.85 104.66 548.63 101.87 555.14 101.87C576.84 101.87 577.77 123.26 575.6 135.35C575.6 135.97 576.22 135.97 576.84 135.66C580.87 131.63 591.72 117.99 595.13 114.58C596.06 113.96 596.37 113.03 595.75 112.41C590.79 104.66 574.67 97.84 559.48 97.84C538.4 97.84 514.84 106.21 509.88 126.36C505.85 142.79 516.39 150.54 521.97 154.26C522.28 154.57 540.57 165.11 545.22 168.21C552.97 173.48 560.41 176.58 559.79 181.85C558.86 190.22 544.91 191.77 538.4 191.77C518.25 189.91 510.5 168.52 512.36 156.43C512.67 155.81 511.74 155.5 511.43 156.12C505.85 165.42 501.2 174.72 497.48 181.23C497.17 181.85 496.55 182.78 496.86 183.4C502.13 191.46 517.94 197.66 538.71 197.66C557.93 197.35 581.8 188.67 586.76 168.52C590.79 152.09 579.32 144.65 574.05 140.93Z" fill="black"></path>
  <path d="M140.7 129.38C145.94 118.75 153.71 109.6 162.95 102.59C166.41 91.04 170.76 78.32 173.84 73.97H124.24C126.72 81.41 121.76 113.34 120.21 122.02L117.11 135.35H87.97L90.76 122.02C92.62 113.34 101.61 81.41 106.88 73.97H57.28C59.45 81.41 54.8 113.34 52.94 122.02L47.67 146.82C45.81 155.5 37.13 186.81 31.86 194.56H81.15C78.98 186.81 83.63 155.5 85.49 146.82L86.73 140.31H116.18L114.63 146.82C112.46 155.5 104.09 186.81 98.82 194.56H148.42C148.25 194.04 148.12 193.4 148.02 192.68C144.04 188.62 140.78 183.85 138.4 178.46C131.86 163.65 132.7 145.78 140.7 129.38ZM95.22 88.02C95.18 88.25 95.13 88.48 95.09 88.7H95.08L95.22 88.02Z" fill="black"></path>
  <path d="M95.22 88.02L95.08 88.7H95.09C95.13 88.48 95.18 88.25 95.22 88.02Z" fill="black"></path>
  <path d="M247.53 134.13C246.11 117.95 236 104.45 219.42 99.39C215.08 98.15 210.74 97.53 206.09 97.53C203.3 97.53 200.5 97.75 197.7 98.19C196.3 98.41 194.91 98.68 193.52 99C192.83 99.16 192.13 99.33 191.44 99.52C190.06 99.89 188.69 100.31 187.32 100.78C186.64 101.01 185.96 101.26 185.29 101.52C182.59 102.55 179.94 103.78 177.37 105.18C174.8 106.58 172.3 108.17 169.91 109.91C169.31 110.35 168.72 110.79 168.13 111.25C166.96 112.16 165.82 113.12 164.7 114.11C163.03 115.6 161.43 117.18 159.91 118.84C159.4 119.39 158.91 119.96 158.42 120.53C158.24 120.74 158.07 120.95 157.9 121.16C154.7 125 151.91 129.23 149.66 133.79C142.35 148.76 142.37 164.13 148.3 176.04C152.93 185.34 161.15 192.53 172.29 195.79C176.63 197.03 181.28 197.65 185.93 197.65C207.61 197.65 230.49 183.81 241.54 162.35C241.71 162.03 241.88 161.71 242.04 161.38C246.57 152.11 248.28 142.74 247.52 134.12L247.53 134.13ZM211.5 116.13C211.5 116.44 211.5 116.75 211.49 117.07C211.49 117.29 211.47 117.53 211.47 117.75C211.46 118.08 211.45 118.4 211.43 118.74C211.42 118.97 211.4 119.2 211.39 119.44C211.37 119.79 211.35 120.13 211.33 120.48C211.31 120.71 211.3 120.96 211.28 121.19C211.25 121.55 211.23 121.91 211.2 122.27C211.18 122.52 211.16 122.77 211.13 123.02C211.1 123.39 211.07 123.75 211.03 124.13C211 124.39 210.98 124.65 210.95 124.91C210.91 125.28 210.87 125.66 210.83 126.04C210.8 126.31 210.77 126.58 210.74 126.85C210.7 127.23 210.65 127.62 210.6 128.01C210.57 128.29 210.53 128.57 210.49 128.85C210.44 129.24 210.39 129.62 210.34 130.02C210.3 130.32 210.26 130.62 210.21 130.92C210.16 131.3 210.1 131.68 210.05 132.07C210 132.38 209.96 132.7 209.91 133.01C209.85 133.4 209.8 133.78 209.73 134.17C209.68 134.51 209.62 134.86 209.56 135.21C209.5 135.57 209.44 135.94 209.38 136.3C209.31 136.7 209.25 137.1 209.18 137.49C209.12 137.82 209.07 138.14 209.01 138.47C208.94 138.89 208.86 139.32 208.78 139.75C208.72 140.06 208.67 140.37 208.62 140.68C208.53 141.17 208.44 141.66 208.35 142.16C208.3 142.41 208.26 142.66 208.21 142.91C208.08 143.6 207.94 144.3 207.81 145C207.8 145.05 207.79 145.11 207.78 145.16C207.63 145.92 207.48 146.68 207.32 147.44C202.36 171.93 194.61 193.63 186.55 193.63C178.49 193.63 179.42 172.24 184.38 147.75C189.34 123.26 196.78 101.87 205.46 101.87C205.52 101.87 205.58 101.87 205.64 101.87C205.75 101.87 205.84 101.89 205.94 101.89C206.07 101.89 206.19 101.9 206.31 101.92C206.44 101.94 206.56 101.97 206.68 102C206.8 102.03 206.92 102.05 207.03 102.09C207.15 102.13 207.25 102.18 207.37 102.23C207.48 102.28 207.59 102.32 207.69 102.38C207.8 102.44 207.89 102.51 207.99 102.58C208.09 102.65 208.19 102.71 208.28 102.79C208.37 102.87 208.46 102.96 208.55 103.04C208.64 103.13 208.73 103.21 208.82 103.31C208.9 103.4 208.98 103.51 209.06 103.61C209.14 103.72 209.23 103.82 209.3 103.93C209.37 104.04 209.44 104.16 209.51 104.28C209.58 104.41 209.66 104.53 209.73 104.66C209.8 104.79 209.85 104.92 209.92 105.06C209.99 105.2 210.06 105.35 210.12 105.5C210.18 105.64 210.23 105.79 210.28 105.94C210.34 106.1 210.4 106.26 210.45 106.44C210.5 106.59 210.54 106.76 210.58 106.91C210.63 107.09 210.68 107.27 210.73 107.47C210.77 107.63 210.8 107.81 210.84 107.98C210.88 108.18 210.93 108.38 210.97 108.6C211 108.77 211.03 108.96 211.06 109.14C211.1 109.36 211.13 109.58 211.16 109.81C211.18 110 211.2 110.19 211.23 110.38C211.26 110.62 211.29 110.86 211.31 111.11C211.33 111.3 211.34 111.5 211.35 111.7C211.37 111.96 211.39 112.22 211.41 112.49C211.42 112.69 211.43 112.9 211.44 113.1C211.45 113.38 211.47 113.66 211.47 113.95C211.47 114.16 211.47 114.38 211.47 114.59C211.47 114.89 211.47 115.18 211.47 115.48C211.47 115.7 211.47 115.92 211.47 116.14L211.5 116.13Z" fill="black"></path>
  <path d="M148.31 176.05C152.94 185.35 161.16 192.54 172.3 195.8C161.16 192.54 152.93 185.34 148.31 176.05Z" fill="black"></path>
  <path d="M211.2 122.28C211.18 122.53 211.16 122.78 211.13 123.03C211.15 122.78 211.18 122.53 211.2 122.28Z" fill="black"></path>
  <path d="M164.72 114.12C165.83 113.13 166.98 112.17 168.15 111.26C166.98 112.17 165.84 113.13 164.72 114.12Z" fill="black"></path>
  <path d="M211.34 111.1C211.36 111.29 211.37 111.49 211.38 111.69C211.37 111.49 211.35 111.29 211.34 111.1Z" fill="black"></path>
  <path d="M169.92 109.91C172.31 108.16 174.81 106.58 177.38 105.18C174.81 106.58 172.31 108.17 169.92 109.91Z" fill="black"></path>
  <path d="M211.04 124.14C211.01 124.4 210.99 124.66 210.96 124.92C210.99 124.66 211.02 124.39 211.04 124.14Z" fill="black"></path>
  <path d="M211.34 120.48C211.32 120.71 211.31 120.96 211.29 121.19C211.31 120.95 211.33 120.71 211.34 120.48Z" fill="black"></path>
  <path d="M211.49 117.07C211.49 117.29 211.47 117.53 211.47 117.75C211.47 117.52 211.49 117.29 211.49 117.07Z" fill="black"></path>
  <path d="M206.09 97.53C203.3 97.53 200.5 97.75 197.7 98.19C200.49 97.76 203.3 97.53 206.09 97.53Z" fill="black"></path>
  <path d="M158.43 120.54C158.25 120.75 158.08 120.96 157.91 121.17C158.09 120.96 158.25 120.74 158.43 120.54Z" fill="black"></path>
  <path d="M187.34 100.77C188.7 100.3 190.07 99.88 191.46 99.51C190.08 99.88 188.71 100.3 187.34 100.77Z" fill="black"></path>
  <path d="M211.43 118.75C211.42 118.98 211.4 119.21 211.39 119.45C211.4 119.22 211.42 118.98 211.43 118.75Z" fill="black"></path>
  <path d="M209.77 104.67C209.84 104.8 209.89 104.93 209.96 105.07C209.9 104.94 209.84 104.8 209.77 104.67Z" fill="black"></path>
  <path d="M210.61 128.01C210.58 128.29 210.54 128.57 210.5 128.85C210.54 128.57 210.57 128.29 210.61 128.01Z" fill="black"></path>
  <path d="M208.3 102.79C208.39 102.87 208.48 102.96 208.57 103.04C208.48 102.95 208.39 102.86 208.3 102.79Z" fill="black"></path>
  <path d="M211.19 109.8C211.21 109.99 211.23 110.18 211.26 110.37C211.24 110.18 211.22 109.98 211.19 109.8Z" fill="black"></path>
  <path d="M211.01 108.59C211.04 108.76 211.07 108.95 211.1 109.13C211.07 108.95 211.05 108.77 211.01 108.59Z" fill="black"></path>
  <path d="M211.44 112.48C211.45 112.68 211.46 112.89 211.47 113.09C211.47 112.89 211.46 112.68 211.44 112.48Z" fill="black"></path>
  <path d="M210.77 107.47C210.81 107.63 210.84 107.81 210.88 107.98C210.84 107.81 210.81 107.64 210.77 107.47Z" fill="black"></path>
  <path d="M210.49 106.44C210.54 106.59 210.58 106.76 210.62 106.91C210.58 106.75 210.53 106.59 210.49 106.44Z" fill="black"></path>
  <path d="M207.33 147.44C207.48 146.68 207.64 145.91 207.79 145.16C207.64 145.92 207.49 146.68 207.33 147.44Z" fill="black"></path>
  <path d="M209.74 134.17C209.69 134.51 209.63 134.86 209.57 135.21C209.63 134.86 209.68 134.52 209.74 134.17Z" fill="black"></path>
  <path d="M209.39 136.3C209.32 136.7 209.26 137.1 209.19 137.49C209.26 137.09 209.33 136.69 209.39 136.3Z" fill="black"></path>
  <path d="M209.03 138.47C208.96 138.89 208.88 139.32 208.8 139.75C208.88 139.32 208.95 138.9 209.03 138.47Z" fill="black"></path>
  <path d="M210.34 130.02C210.3 130.32 210.26 130.62 210.21 130.92C210.25 130.62 210.3 130.32 210.34 130.02Z" fill="black"></path>
  <path d="M210.05 132.07C210 132.38 209.96 132.7 209.91 133.01C209.96 132.7 210.01 132.38 210.05 132.07Z" fill="black"></path>
  <path d="M208.63 140.68C208.54 141.17 208.45 141.66 208.36 142.16C208.45 141.67 208.55 141.17 208.63 140.68Z" fill="black"></path>
  <path d="M205.66 101.87C205.6 101.87 205.54 101.87 205.48 101.87C205.65 101.87 205.81 101.88 205.97 101.89C205.87 101.89 205.77 101.87 205.67 101.87H205.66Z" fill="black"></path>
  <path d="M207.71 102.39C207.82 102.45 207.91 102.52 208.01 102.59C207.91 102.52 207.81 102.45 207.71 102.39Z" fill="black"></path>
  <path d="M207.05 102.1C207.17 102.14 207.27 102.19 207.39 102.24C207.28 102.19 207.17 102.14 207.05 102.1Z" fill="black"></path>
  <path d="M208.22 142.91C208.09 143.6 207.95 144.3 207.82 145C207.96 144.3 208.09 143.6 208.22 142.91Z" fill="black"></path>
  <path d="M149.67 133.8C142.36 148.77 142.38 164.14 148.31 176.05C142.38 164.14 142.36 148.78 149.67 133.8Z" fill="black"></path>
</svg>
