<?xml version="1.0" encoding="utf-8"?>
<svg viewBox="3.255 0 496.745 162.039" xmlns="http://www.w3.org/2000/svg">
  <path d="M 134.381 42.456 C 134.455 42.508 134.529 42.552 134.595 42.611 C 134.529 42.552 134.448 42.508 134.381 42.456 Z" fill="black" style=""/>
  <path d="M 135.176 43.214 C 135.235 43.295 135.301 43.369 135.353 43.45 C 135.294 43.361 135.235 43.288 135.176 43.214 Z" fill="black" style=""/>
  <path d="M 136.302 45.65 C 136.339 45.783 136.376 45.915 136.413 46.062 C 136.376 45.923 136.339 45.79 136.302 45.65 Z" fill="black" style=""/>
  <path d="M 136.494 46.43 C 136.523 46.578 136.56 46.725 136.589 46.887 C 136.56 46.732 136.53 46.585 136.494 46.43 Z" fill="black" style=""/>
  <path d="M 136.648 47.277 C 136.678 47.439 136.7 47.601 136.722 47.77 C 136.7 47.601 136.67 47.439 136.648 47.277 Z" fill="black" style=""/>
  <path d="M 135.515 43.715 C 135.566 43.81 135.625 43.899 135.677 43.994 C 135.625 43.899 135.566 43.803 135.515 43.715 Z" fill="black" style=""/>
  <path d="M 136.074 44.929 C 136.118 45.047 136.162 45.164 136.199 45.297 C 136.162 45.172 136.118 45.054 136.074 44.929 Z" fill="black" style=""/>
  <path d="M 135.78 64.859 C 135.736 65.146 135.699 65.426 135.647 65.713 C 135.691 65.426 135.736 65.146 135.78 64.859 Z" fill="black" style=""/>
  <path d="M 136.788 56.16 C 136.766 56.425 136.751 56.69 136.729 56.955 C 136.751 56.683 136.766 56.425 136.788 56.16 Z" fill="black" style=""/>
  <path d="M 136.869 54.865 C 136.854 55.122 136.84 55.373 136.825 55.63 C 136.84 55.373 136.854 55.115 136.869 54.865 Z" fill="black" style=""/>
  <path d="M 136.685 57.507 C 136.663 57.779 136.641 58.044 136.611 58.324 C 136.641 58.052 136.663 57.779 136.685 57.507 Z" fill="black" style=""/>
  <path d="M 136.957 52.429 C 136.957 52.657 136.957 52.885 136.95 53.12 C 136.95 52.885 136.957 52.657 136.957 52.429 Z" fill="black" style=""/>
  <path d="M 136.545 58.898 C 136.516 59.17 136.486 59.45 136.457 59.73 C 136.486 59.45 136.516 59.178 136.545 58.898 Z" fill="black" style=""/>
  <path d="M 135.529 66.471 C 135.485 66.736 135.441 67.008 135.397 67.273 C 135.441 67.001 135.485 66.736 135.529 66.471 Z" fill="black" style=""/>
  <path d="M 134.963 69.813 C 134.919 70.041 134.882 70.269 134.845 70.497 C 134.889 70.269 134.926 70.041 134.963 69.813 Z" fill="black" style=""/>
  <path d="M 136.008 63.314 C 135.971 63.593 135.927 63.873 135.89 64.16 C 135.934 63.873 135.971 63.593 136.008 63.314 Z" fill="black" style=""/>
  <path d="M 136.214 61.79 C 136.177 62.077 136.14 62.357 136.104 62.651 C 136.14 62.364 136.177 62.077 136.214 61.79 Z" fill="black" style=""/>
  <path d="M 136.391 60.318 C 136.361 60.598 136.324 60.885 136.288 61.172 C 136.324 60.885 136.354 60.605 136.391 60.318 Z" fill="black" style=""/>
  <path d="M 132.873 41.956 C 132.968 41.956 133.057 41.963 133.145 41.978 C 133.057 41.963 132.961 41.963 132.873 41.956 Z" fill="black" style=""/>
  <path d="M 142.779 40.108 C 154.981 43.832 162.43 53.768 163.467 65.676 C 162.422 53.768 154.981 43.832 142.779 40.108 Z" fill="black" style=""/>
  <path d="M 118.138 112.433 C 134.094 112.433 150.934 102.247 159.066 86.453 C 150.934 102.24 134.094 112.433 118.138 112.433 Z" fill="black" style=""/>
  <path d="M 268.264 85.739 C 268.264 85.739 268.036 85.739 267.808 85.967 C 262.332 90.53 254.575 92.812 247.274 92.812 C 238.148 92.812 231.531 88.477 228.337 81.404 C 239.516 80.492 263.929 75.244 269.177 60.186 C 273.283 49.006 263.245 38.968 247.046 38.968 C 224.23 38.968 204.837 54.026 201.186 76.841 C 197.992 96.234 209.172 111.293 231.303 111.293 C 246.361 111.293 263.929 101.026 268.948 86.424 C 268.948 85.967 268.72 85.739 268.264 85.739 Z M 227.424 61.098 C 229.249 53.798 234.953 42.618 242.026 42.846 C 248.643 43.074 248.871 54.482 246.589 60.414 C 242.939 70.681 233.584 77.069 227.424 78.895 C 225.827 73.875 225.827 67.715 227.424 61.098 Z" fill="black" style=""/>
  <path d="M 187.954 80.263 C 196.167 53.341 220.58 25.506 250.924 25.506 C 263.473 25.506 271.23 30.754 274.424 38.055 C 278.759 36.23 283.55 29.613 284.007 23.909 C 285.147 13.186 274.196 4.288 258.453 4.288 C 228.565 4.288 203.24 34.404 192.517 59.501 L 197.308 36.23 L 163.541 44.215 C 163.865 45.179 164.137 46.107 164.373 47.004 C 165.705 48.918 166.868 50.979 167.824 53.179 C 172.527 63.984 171.88 77.033 166.036 89 C 162.636 95.896 157.771 102.019 151.78 107.016 C 151.11 108.025 150.396 109.062 149.624 110.159 L 186.128 110.159 C 184.303 104.683 183.619 100.577 184.987 94.416 L 187.954 80.271 L 187.954 80.263 Z" fill="black" style=""/>
  <path d="M 159.434 85.739 C 162.768 78.917 164.027 72.02 163.467 65.676 C 164.019 72.02 162.761 78.924 159.434 85.739 Z" fill="black" style=""/>
  <path d="M 473.875 40.108 C 470.681 39.196 467.487 38.739 464.065 38.739 C 447.638 38.739 430.526 49.234 422.541 65.433 C 412.958 85.055 420.487 105.589 439.196 111.064 C 442.39 111.977 445.812 112.433 449.235 112.433 C 465.434 112.433 482.545 101.938 490.531 85.739 C 500.113 66.118 492.584 45.812 473.875 40.108 Z M 464.977 75.472 C 461.327 93.496 455.623 109.467 449.691 109.467 C 443.759 109.467 444.443 93.725 448.094 75.7 C 451.744 57.676 457.22 41.934 463.608 41.934 C 469.997 41.705 468.628 57.448 464.977 75.472 Z" fill="black" style=""/>
  <path d="M 382.805 119.926 C 381.436 119.697 380.067 119.697 378.698 119.697 C 368.659 119.697 361.587 124.032 359.533 126.542 C 359.305 126.77 359.077 127.227 359.533 127.455 C 361.13 129.052 368.659 131.105 366.378 141.144 C 364.096 149.129 356.567 153.236 348.81 153.236 C 334.892 151.867 336.946 135.212 342.65 108.746 C 343.334 104.867 350.863 71.557 350.863 71.557 C 355.883 46.916 344.247 37.562 330.329 37.562 C 321.203 37.562 313.218 41.897 308.198 49.654 L 311.164 35.28 L 277.397 43.266 C 278.995 48.741 279.679 52.848 278.31 59.008 L 271.009 93.46 C 269.868 99.62 267.359 103.727 263.48 109.202 L 299.757 109.202 C 298.16 103.727 297.475 99.62 298.844 93.46 L 304.776 65.397 C 306.373 56.27 311.621 45.091 318.922 43.95 L 320.291 43.95 C 330.101 43.95 326.223 60.834 325.538 63.343 C 325.538 63.343 315.956 107.833 315.271 110.799 C 312.077 126.998 310.024 157.343 348.582 158.712 C 363.184 158.712 388.281 152.552 393.528 136.581 C 396.494 127.683 391.018 120.61 382.805 119.926 Z" fill="black" style=""/>
  <path d="M 403.78 70.681 C 403.324 70.453 390.547 62.696 385.984 59.73 C 380.509 55.851 376.402 54.254 376.402 50.147 C 376.402 43.987 385.072 41.934 389.863 41.934 C 405.834 41.934 406.518 57.676 404.921 66.574 C 404.921 67.031 405.377 67.031 405.834 66.802 C 408.8 63.836 416.785 53.798 419.295 51.288 C 419.979 50.832 420.208 50.147 419.751 49.691 C 416.101 43.987 404.237 38.968 393.057 38.968 C 377.543 38.968 360.203 45.128 356.552 59.958 C 353.586 72.05 361.344 77.754 365.45 80.492 C 365.679 80.72 379.14 88.477 382.562 90.759 C 388.266 94.637 393.742 96.919 393.285 100.797 C 392.601 106.958 382.334 108.098 377.543 108.098 C 362.713 106.729 357.009 90.987 358.378 82.089 C 358.606 81.632 357.921 81.404 357.693 81.861 C 353.586 88.705 350.164 95.55 347.426 100.341 C 347.198 100.797 346.742 101.482 346.97 101.938 C 350.849 107.87 362.484 112.433 377.771 112.433 C 391.916 112.205 409.484 105.817 413.135 90.987 C 416.101 78.895 407.659 73.419 403.78 70.681 Z" fill="black" style=""/>
  <path d="M 84.842 62.18 C 88.699 54.357 94.417 47.623 101.218 42.463 C 103.764 33.963 106.966 24.601 109.233 21.4 L 72.728 21.4 C 74.553 26.875 70.903 50.375 69.762 56.764 L 67.481 66.574 L 46.034 66.574 L 48.087 56.764 C 49.456 50.375 56.073 26.875 59.951 21.4 L 23.447 21.4 C 25.044 26.875 21.621 50.375 20.253 56.764 L 16.374 75.016 C 15.005 81.404 8.617 104.448 4.738 110.152 L 41.015 110.152 C 39.417 104.448 42.84 81.404 44.209 75.016 L 45.121 70.225 L 66.796 70.225 L 65.655 75.016 C 64.058 81.404 57.898 104.448 54.019 110.152 L 90.524 110.152 C 90.399 109.769 90.303 109.298 90.23 108.768 C 87.301 105.78 84.901 102.269 83.15 98.302 C 78.336 87.403 78.954 74.251 84.842 62.18 Z M 51.37 31.74 C 51.34 31.909 51.304 32.079 51.274 32.241 L 51.267 32.241 L 51.37 31.74 Z" fill="black" style=""/>
  <path d="M 51.37 31.74 L 51.267 32.241 L 51.274 32.241 C 51.304 32.079 51.34 31.909 51.37 31.74 Z" fill="black" style=""/>
  <path d="M 163.467 65.676 C 162.422 53.768 154.981 43.832 142.779 40.108 C 139.585 39.196 136.391 38.739 132.968 38.739 C 130.915 38.739 128.854 38.901 126.793 39.225 C 125.763 39.387 124.74 39.586 123.717 39.821 C 123.209 39.939 122.694 40.064 122.186 40.204 C 121.17 40.476 120.162 40.785 119.154 41.131 C 118.653 41.301 118.153 41.485 117.66 41.676 C 115.673 42.434 113.722 43.339 111.831 44.37 C 109.939 45.4 108.099 46.57 106.34 47.851 C 105.899 48.175 105.465 48.498 105.03 48.837 C 104.169 49.507 103.33 50.213 102.506 50.942 C 101.277 52.039 100.099 53.201 98.981 54.423 C 98.605 54.828 98.245 55.247 97.884 55.667 C 97.751 55.822 97.626 55.976 97.501 56.131 C 95.146 58.957 93.093 62.07 91.437 65.426 C 86.057 76.444 86.071 87.756 90.436 96.521 C 93.843 103.366 99.893 108.658 108.092 111.057 C 111.286 111.97 114.709 112.426 118.131 112.426 C 134.087 112.426 150.926 102.24 159.059 86.446 C 159.184 86.21 159.309 85.975 159.427 85.732 C 162.761 78.909 164.019 72.013 163.46 65.669 L 163.467 65.676 Z M 136.95 52.429 C 136.95 52.657 136.95 52.885 136.943 53.12 C 136.943 53.282 136.928 53.459 136.928 53.621 C 136.92 53.864 136.913 54.099 136.898 54.35 C 136.891 54.519 136.876 54.688 136.869 54.865 C 136.854 55.122 136.84 55.373 136.825 55.63 C 136.81 55.799 136.803 55.983 136.788 56.153 C 136.766 56.418 136.751 56.683 136.729 56.948 C 136.714 57.132 136.7 57.316 136.678 57.5 C 136.656 57.772 136.633 58.037 136.604 58.316 C 136.582 58.508 136.567 58.699 136.545 58.891 C 136.516 59.163 136.486 59.443 136.457 59.722 C 136.435 59.921 136.413 60.12 136.391 60.318 C 136.361 60.598 136.324 60.885 136.288 61.172 C 136.265 61.378 136.236 61.584 136.207 61.79 C 136.17 62.077 136.133 62.357 136.096 62.651 C 136.067 62.872 136.037 63.093 136 63.314 C 135.964 63.593 135.92 63.873 135.883 64.16 C 135.846 64.388 135.817 64.624 135.78 64.852 C 135.736 65.139 135.699 65.419 135.647 65.706 C 135.61 65.956 135.566 66.214 135.522 66.471 C 135.478 66.736 135.434 67.008 135.39 67.273 C 135.338 67.568 135.294 67.862 135.242 68.149 C 135.198 68.392 135.161 68.628 135.117 68.87 C 135.066 69.18 135.007 69.496 134.948 69.813 C 134.904 70.041 134.867 70.269 134.83 70.497 C 134.764 70.858 134.698 71.218 134.632 71.586 C 134.595 71.77 134.565 71.954 134.529 72.138 C 134.433 72.646 134.33 73.161 134.234 73.676 C 134.227 73.713 134.219 73.757 134.212 73.794 C 134.102 74.354 133.991 74.913 133.874 75.472 C 130.223 93.496 124.519 109.467 118.587 109.467 C 112.655 109.467 113.34 93.725 116.99 75.7 C 120.641 57.676 126.116 41.934 132.505 41.934 C 132.549 41.934 132.593 41.934 132.637 41.934 C 132.718 41.934 132.784 41.948 132.858 41.948 C 132.954 41.948 133.042 41.956 133.13 41.97 C 133.226 41.985 133.314 42.007 133.402 42.029 C 133.491 42.051 133.579 42.066 133.66 42.095 C 133.748 42.125 133.822 42.162 133.91 42.198 C 133.991 42.235 134.072 42.265 134.146 42.309 C 134.227 42.353 134.293 42.405 134.367 42.456 C 134.44 42.508 134.514 42.552 134.58 42.611 C 134.646 42.669 134.713 42.736 134.779 42.795 C 134.845 42.861 134.911 42.92 134.977 42.993 C 135.036 43.06 135.095 43.141 135.154 43.214 C 135.213 43.295 135.279 43.369 135.331 43.45 C 135.382 43.531 135.434 43.619 135.485 43.707 C 135.537 43.803 135.596 43.891 135.647 43.987 C 135.699 44.083 135.736 44.178 135.787 44.281 C 135.839 44.384 135.89 44.495 135.934 44.605 C 135.978 44.708 136.015 44.819 136.052 44.929 C 136.096 45.047 136.14 45.164 136.177 45.297 C 136.214 45.407 136.243 45.532 136.273 45.643 C 136.31 45.775 136.346 45.908 136.383 46.055 C 136.413 46.173 136.435 46.305 136.464 46.43 C 136.494 46.578 136.53 46.725 136.56 46.887 C 136.582 47.012 136.604 47.152 136.626 47.284 C 136.656 47.446 136.678 47.608 136.7 47.777 C 136.714 47.917 136.729 48.057 136.751 48.197 C 136.773 48.373 136.795 48.55 136.81 48.734 C 136.825 48.874 136.832 49.021 136.84 49.168 C 136.854 49.36 136.869 49.551 136.884 49.75 C 136.891 49.897 136.898 50.051 136.906 50.199 C 136.913 50.405 136.928 50.611 136.928 50.824 C 136.928 50.979 136.928 51.141 136.928 51.295 C 136.928 51.516 136.928 51.729 136.928 51.95 C 136.928 52.112 136.928 52.274 136.928 52.436 L 136.95 52.429 Z" fill="black" style=""/>
  <path d="M 90.443 96.529 C 93.851 103.373 99.901 108.665 108.099 111.064 C 99.901 108.665 93.843 103.366 90.443 96.529 Z" fill="black" style=""/>
  <path d="M 136.729 56.955 C 136.714 57.139 136.7 57.323 136.678 57.507 C 136.692 57.323 136.714 57.139 136.729 56.955 Z" fill="black" style=""/>
  <path d="M 102.521 50.949 C 103.338 50.221 104.184 49.514 105.045 48.844 C 104.184 49.514 103.345 50.221 102.521 50.949 Z" fill="black" style=""/>
  <path d="M 136.832 48.727 C 136.847 48.866 136.854 49.014 136.862 49.161 C 136.854 49.014 136.84 48.866 136.832 48.727 Z" fill="black" style=""/>
  <path d="M 106.348 47.851 C 108.107 46.563 109.947 45.4 111.838 44.37 C 109.947 45.4 108.107 46.57 106.348 47.851 Z" fill="black" style=""/>
  <path d="M 136.611 58.324 C 136.589 58.515 136.575 58.707 136.552 58.898 C 136.575 58.707 136.597 58.508 136.611 58.324 Z" fill="black" style=""/>
  <path d="M 136.832 55.63 C 136.817 55.799 136.81 55.983 136.795 56.153 C 136.81 55.976 136.825 55.799 136.832 55.63 Z" fill="black" style=""/>
  <path d="M 136.943 53.12 C 136.943 53.282 136.928 53.459 136.928 53.621 C 136.928 53.452 136.943 53.282 136.943 53.12 Z" fill="black" style=""/>
  <path d="M 132.968 38.739 C 130.915 38.739 128.854 38.901 126.793 39.225 C 128.847 38.909 130.915 38.739 132.968 38.739 Z" fill="black" style=""/>
  <path d="M 97.891 55.674 C 97.759 55.829 97.634 55.983 97.509 56.138 C 97.641 55.983 97.759 55.822 97.891 55.674 Z" fill="black" style=""/>
  <path d="M 119.169 41.124 C 120.17 40.778 121.178 40.469 122.201 40.197 C 121.185 40.469 120.177 40.778 119.169 41.124 Z" fill="black" style=""/>
  <path d="M 136.898 54.357 C 136.891 54.526 136.876 54.695 136.869 54.872 C 136.876 54.703 136.891 54.526 136.898 54.357 Z" fill="black" style=""/>
  <path d="M 135.677 43.994 C 135.728 44.09 135.765 44.186 135.817 44.289 C 135.772 44.193 135.728 44.09 135.677 43.994 Z" fill="black" style=""/>
  <path d="M 136.295 61.172 C 136.273 61.378 136.243 61.584 136.214 61.79 C 136.243 61.584 136.265 61.378 136.295 61.172 Z" fill="black" style=""/>
  <path d="M 134.595 42.611 C 134.661 42.669 134.727 42.736 134.793 42.795 C 134.727 42.728 134.661 42.662 134.595 42.611 Z" fill="black" style=""/>
  <path d="M 136.722 47.77 C 136.736 47.91 136.751 48.05 136.773 48.189 C 136.759 48.05 136.744 47.902 136.722 47.77 Z" fill="black" style=""/>
  <path d="M 136.589 46.879 C 136.611 47.004 136.633 47.144 136.656 47.277 C 136.633 47.144 136.619 47.012 136.589 46.879 Z" fill="black" style=""/>
  <path d="M 136.906 49.742 C 136.913 49.889 136.92 50.044 136.928 50.191 C 136.928 50.044 136.92 49.889 136.906 49.742 Z" fill="black" style=""/>
  <path d="M 136.413 46.055 C 136.442 46.173 136.464 46.305 136.494 46.43 C 136.464 46.305 136.442 46.18 136.413 46.055 Z" fill="black" style=""/>
  <path d="M 136.207 45.297 C 136.243 45.407 136.273 45.532 136.302 45.643 C 136.273 45.525 136.236 45.407 136.207 45.297 Z" fill="black" style=""/>
  <path d="M 133.881 75.472 C 133.991 74.913 134.109 74.346 134.219 73.794 C 134.109 74.354 133.999 74.913 133.881 75.472 Z" fill="black" style=""/>
  <path d="M 135.655 65.706 C 135.618 65.956 135.574 66.214 135.529 66.471 C 135.574 66.214 135.61 65.963 135.655 65.706 Z" fill="black" style=""/>
  <path d="M 135.397 67.273 C 135.345 67.568 135.301 67.862 135.25 68.149 C 135.301 67.855 135.353 67.56 135.397 67.273 Z" fill="black" style=""/>
  <path d="M 135.132 68.87 C 135.081 69.18 135.022 69.496 134.963 69.813 C 135.022 69.496 135.073 69.187 135.132 68.87 Z" fill="black" style=""/>
  <path d="M 136.096 62.651 C 136.067 62.872 136.037 63.093 136 63.314 C 136.03 63.093 136.067 62.872 136.096 62.651 Z" fill="black" style=""/>
  <path d="M 135.883 64.16 C 135.846 64.388 135.817 64.624 135.78 64.852 C 135.817 64.624 135.853 64.388 135.883 64.16 Z" fill="black" style=""/>
  <path d="M 134.838 70.497 C 134.771 70.858 134.705 71.218 134.639 71.586 C 134.705 71.226 134.779 70.858 134.838 70.497 Z" fill="black" style=""/>
  <path d="M 132.652 41.934 C 132.608 41.934 132.563 41.934 132.519 41.934 C 132.644 41.934 132.762 41.941 132.88 41.948 C 132.806 41.948 132.733 41.934 132.659 41.934 L 132.652 41.934 Z" fill="black" style=""/>
  <path d="M 134.161 42.316 C 134.241 42.36 134.308 42.412 134.381 42.463 C 134.308 42.412 134.234 42.36 134.161 42.316 Z" fill="black" style=""/>
  <path d="M 133.675 42.103 C 133.763 42.132 133.837 42.169 133.925 42.206 C 133.844 42.169 133.763 42.132 133.675 42.103 Z" fill="black" style=""/>
  <path d="M 134.536 72.138 C 134.44 72.646 134.337 73.161 134.241 73.676 C 134.345 73.161 134.44 72.646 134.536 72.138 Z" fill="black" style=""/>
  <path d="M 91.444 65.433 C 86.064 76.451 86.079 87.763 90.443 96.529 C 86.079 87.763 86.064 76.458 91.444 65.433 Z" fill="black" style=""/>
</svg>