<svg width="88" height="89" viewBox="0 0 88 89" fill="none" xmlns="http://www.w3.org/2000/svg">
<path d="M10.9754 88.3746C10.4769 88.2598 9.97844 88.1449 9.48226 88.03C3.91865 86.7368 -0.31264 81.5338 0.0181452 75.9863C0.319067 70.9188 3.19046 67.4042 7.69051 65.3208C13.2197 62.7595 20.0949 65.1531 23.1777 70.5053C23.3792 70.855 23.7086 71.1128 24.0965 71.2243C27.7719 71.8859 30.1862 73.9533 31.3118 77.5207C31.3453 77.5936 31.3886 77.6616 31.4404 77.7229C33.4205 77.422 35.3041 75.3247 35.3777 73.2045C35.4512 71.0842 35.3914 68.9663 35.3914 66.7151C34.87 66.7151 34.3669 66.7151 33.8662 66.7151C32.7337 66.6898 32.1158 66.1477 31.9595 65.0359C31.8378 64.1837 31.7298 63.3314 31.615 62.4815C31.5001 61.6316 31.3853 60.7817 31.2474 59.8375H30.3148C28.1371 59.8375 25.9503 59.8582 23.7818 59.8375C21.4847 59.81 19.7458 58.774 18.758 56.6974C17.7496 54.584 18.0689 52.5488 19.5643 50.7639C22.3928 47.4117 25.2451 44.0831 28.1211 40.7784C28.2935 40.5972 28.4213 40.3782 28.4943 40.139C28.5673 39.8997 28.5834 39.6467 28.5414 39.4001C28.167 36.2737 27.5744 33.1473 27.5284 30.0141C27.3768 19.0913 31.4335 9.99471 39.8272 2.90811C40.6541 2.21897 41.6143 1.66996 42.4666 0.994607C43.537 0.146971 44.4903 0.287096 45.5883 1.01069C51.1657 4.68607 55.1673 9.64784 57.7631 15.7605C60.3588 21.8731 61.1008 28.2729 60.0602 34.861C59.8136 36.4169 59.6153 37.9782 59.4652 39.5448C59.4426 39.9516 59.5674 40.3528 59.8167 40.675C62.6069 43.9828 65.4178 47.2754 68.2494 50.5526C69.5013 52.009 70.0572 53.6468 69.6277 55.5626C69.3691 56.7635 68.7112 57.8414 67.7613 58.6203C66.8113 59.3992 65.6254 59.8331 64.3971 59.8513C62.162 59.8858 59.9269 59.8513 57.6918 59.8513H56.7385C56.5088 61.5673 56.2791 63.2097 56.0494 64.8498C55.8564 66.2465 55.3097 66.722 53.8878 66.7312C53.4904 66.7312 53.0953 66.7312 52.5854 66.7312C52.5854 68.748 52.5854 70.7144 52.5854 72.6807C52.5772 73.1665 52.636 73.6512 52.7599 74.121C53.3204 76.023 54.6275 77.1877 56.5249 77.8561C56.649 77.5207 56.7408 77.2589 56.8396 76.9993C58.018 73.8821 60.2256 71.9456 63.515 71.3576C63.8145 71.3146 64.0997 71.2015 64.3472 71.0275C64.5947 70.8534 64.7975 70.6234 64.9392 70.356C67.558 66.196 71.3918 64.1194 76.2686 64.3835C81.1982 64.6431 84.6186 67.3973 86.8239 71.6907C87.3775 72.7657 87.6164 74.0039 88 75.1662V77.7459C87.9413 77.8401 87.8943 77.9412 87.8599 78.0468C86.8537 83.1923 83.7365 86.4106 78.8046 87.9657C78.2143 88.1518 77.5987 88.2621 76.9945 88.4091H51.2255C51.1652 88.351 51.1015 88.2965 51.0348 88.246C50.1872 87.6855 49.8472 86.9963 50.0769 86.2245C50.3066 85.4044 50.9659 84.9473 51.9835 84.9473C59.7202 84.9473 67.4569 84.9749 75.1844 84.9152C76.4695 84.9072 77.7438 84.6788 78.9517 84.2398C82.5811 82.8822 84.9747 79.0529 84.5359 75.6417C84.0191 71.6149 79.5535 66.6623 73.7694 67.9441C72.6245 68.1708 71.536 68.6223 70.5668 69.2725C69.5976 69.9227 68.767 70.7586 68.123 71.732C68.61 71.9962 69.0419 72.2029 69.4485 72.4625C69.8602 72.7215 70.2525 73.0102 70.6223 73.3262C71.6239 74.1991 71.8076 75.2144 71.1415 76.0115C70.434 76.8615 69.4508 76.8224 68.3665 75.9059C68.2999 75.8507 68.2356 75.791 68.1667 75.7405C66.5587 74.5598 64.8198 74.2634 62.9798 75.0376C61.1398 75.8117 60.0969 77.2589 59.8396 79.2298C59.5824 81.2007 58.9415 81.6923 56.9499 81.4304C52.7599 80.8791 48.9215 77.2359 49.1397 72.2649C49.2178 70.441 49.1512 68.6148 49.1512 66.7679H38.8325C38.8325 68.8353 38.8486 70.8269 38.8325 72.8277C38.782 77.4817 34.8838 81.3937 30.216 81.4925C28.9159 81.52 28.2589 80.9113 28.1693 79.6111C28.0246 77.4794 26.9955 75.899 25.0383 75.0513C23.0375 74.1945 21.1723 74.5781 19.5253 75.9886C18.5559 76.8155 17.5704 76.8339 16.8721 76.0345C16.1738 75.2351 16.3185 74.1968 17.2856 73.4112C18.0666 72.7726 18.9418 72.2489 19.8124 71.6424C19.647 71.4127 19.4885 71.183 19.307 70.9694C15.6845 66.6738 9.40416 66.66 5.69432 70.9694C3.85663 73.0965 2.91021 75.4901 3.69583 78.3431C4.24117 80.2422 5.38999 81.912 6.96859 83.1002C8.5472 84.2884 10.4697 84.9304 12.4455 84.9289C18.7511 84.9519 25.0544 84.9289 31.3577 84.9289C32.9932 84.9289 34.6265 84.9152 36.2598 84.9289C36.638 84.9167 37.0086 85.0369 37.3077 85.2688C37.6067 85.5008 37.8154 85.8298 37.8976 86.1992C38.1273 86.9757 37.8241 87.6005 37.1809 88.0691C37.0454 88.1679 36.9052 88.262 36.7697 88.3585L10.9754 88.3746ZM53.7018 56.3643C53.7408 56.1346 53.7707 55.9646 53.7913 55.7992C54.786 48.3359 55.7646 40.868 56.7776 33.4092C57.6735 26.782 56.5226 20.527 53.4077 14.628C53.3048 14.4787 53.17 14.3541 53.0131 14.2631C52.8562 14.1721 52.6811 14.1171 52.5004 14.102C46.8341 14.0713 41.1618 14.0713 35.4833 14.102C35.3008 14.1153 35.1236 14.1693 34.9647 14.2599C34.8057 14.3505 34.669 14.4755 34.5645 14.6257C31.4772 20.4374 30.3102 26.6166 31.1533 33.1496C31.9687 39.4805 32.8325 45.8068 33.6801 52.1353C33.8685 53.5434 34.0706 54.9493 34.2659 56.3643H53.7018ZM57.1865 56.3873C59.5226 56.3873 61.7807 56.3873 64.0342 56.3873C64.9806 56.3873 65.7226 56.0542 66.136 55.1859C66.5495 54.3176 66.3014 53.5274 65.6881 52.8153C64.0587 50.9301 62.4369 49.038 60.8228 47.1391L58.7462 44.7294C58.2133 48.7172 57.7079 52.5051 57.198 56.3965L57.1865 56.3873ZM29.2352 44.7294L22.2542 52.8727C21.6639 53.5618 21.4319 54.3222 21.8293 55.1698C22.2267 56.0174 22.9778 56.3988 23.915 56.3942C26.0054 56.3827 28.0958 56.3942 30.1862 56.3942C30.3863 56.3801 30.5851 56.3517 30.7811 56.3092C30.2689 52.4845 29.7658 48.7195 29.2352 44.7294ZM35.1824 63.2396H52.7967C52.9483 62.1209 53.0976 61.0229 53.2561 59.8766H34.7276C34.8838 61.0229 35.0308 62.1186 35.1824 63.2396ZM50.8832 10.6149C49.0787 8.21041 46.9083 6.10365 44.4513 4.37137C44.0516 4.09112 43.8081 4.21057 43.4773 4.44028C41.218 6.0173 39.2052 7.92091 37.5048 10.0889C37.3886 10.2586 37.2813 10.4342 37.1832 10.6149H50.8832Z" fill="url(#paint0_linear_626_43)"/>
<path d="M43.475 88.3746C43.3395 88.2804 43.2016 88.1862 43.0661 88.0875C42.3976 87.6028 42.1059 86.955 42.3632 86.1556C42.4692 85.8069 42.6845 85.5014 42.9774 85.2844C43.2702 85.0674 43.625 84.9502 43.9895 84.9502C44.354 84.9502 44.7089 85.0674 45.0017 85.2844C45.2946 85.5014 45.5099 85.8069 45.6159 86.1556C45.8732 86.9596 45.5814 87.6005 44.9153 88.0898C44.7798 88.1885 44.6419 88.2804 44.5064 88.3769L43.475 88.3746Z" fill="url(#paint1_linear_626_43)"/>
<path d="M43.9941 39.1957C42.2932 39.1966 40.6302 38.6928 39.2156 37.7481C37.8011 36.8034 36.6987 35.4603 36.0478 33.8888C35.397 32.3172 35.2271 30.5879 35.5595 28.9198C35.892 27.2516 36.7119 25.7196 37.9155 24.5176C39.119 23.3157 40.6522 22.4978 42.3208 22.1676C43.9894 21.8374 45.7185 22.0096 47.2891 22.6625C48.8598 23.3155 50.2014 24.4197 51.1442 25.8355C52.087 27.2513 52.5885 28.915 52.5854 30.6159C52.5733 32.8897 51.6639 35.0667 50.055 36.6734C48.4461 38.2801 46.2679 39.1866 43.9941 39.1957ZM49.1581 30.6297C49.1644 29.6089 48.8677 28.6091 48.3054 27.7571C47.7431 26.9051 46.9406 26.2391 45.9996 25.8435C45.0585 25.4479 44.0212 25.3405 43.019 25.5349C42.0169 25.7293 41.095 26.2168 40.3701 26.9356C39.6452 27.6543 39.1499 28.5721 38.947 29.5726C38.7441 30.573 38.8427 31.6112 39.2303 32.5556C39.6179 33.5 40.277 34.3081 41.1243 34.8776C41.9715 35.4471 42.9687 35.7523 43.9895 35.7546C45.3526 35.754 46.6603 35.2153 47.6282 34.2555C48.5961 33.2958 49.1459 31.9927 49.1581 30.6297Z" fill="url(#paint2_linear_626_43)"/>
<defs>
<linearGradient id="paint0_linear_626_43" x1="44" y1="0.411987" x2="44" y2="88.4091" gradientUnits="userSpaceOnUse">
<stop stop-color="#FF6B00"/>
<stop offset="1" stop-color="#FFA75A"/>
</linearGradient>
<linearGradient id="paint1_linear_626_43" x1="44" y1="0.411987" x2="44" y2="88.4091" gradientUnits="userSpaceOnUse">
<stop stop-color="#FF6B00"/>
<stop offset="1" stop-color="#FFA75A"/>
</linearGradient>
<linearGradient id="paint2_linear_626_43" x1="44" y1="0.411987" x2="44" y2="88.4091" gradientUnits="userSpaceOnUse">
<stop stop-color="#FF6B00"/>
<stop offset="1" stop-color="#FFA75A"/>
</linearGradient>
</defs>
</svg>

