<svg width="120" height="96" viewBox="0 0 120 96" fill="none" xmlns="http://www.w3.org/2000/svg">
<path fill-rule="evenodd" clip-rule="evenodd" d="M38.6492 48.9859C37.3535 46.7406 38.1224 43.8695 40.3674 42.5736C41.7369 41.7829 43.3403 41.7613 44.6764 42.3738L44.6813 42.3669L44.7703 42.4191C44.8657 42.4657 44.9596 42.5151 45.0515 42.5673V32.2935L47.396 30.9391V43.935L58.7698 50.5039L56.4872 51.8931L47.4085 46.6501C47.4078 46.7566 47.4036 46.8645 47.396 46.9703V47.0719H47.3876C47.2505 48.5363 46.4301 49.9137 45.0598 50.7057C42.8163 52.001 39.9457 51.2312 38.6492 48.9859ZM60.0001 12C62.5923 11.9993 64.6939 14.1012 64.6939 16.6946C64.6939 18.2766 63.9111 19.6756 62.7113 20.5268L62.7155 20.5338L62.6257 20.586C62.5381 20.6444 62.4483 20.7022 62.3557 20.7551L71.2521 25.8923V28.5991L60.0001 22.1019L48.6249 28.6701L48.7474 25.8916L57.6438 20.7544C57.5512 20.7008 57.4608 20.6437 57.3731 20.5839L57.2854 20.5331L57.2896 20.5261C56.0899 19.6756 55.307 18.2759 55.307 16.6939C55.3063 14.1013 57.4079 12 60.0001 12ZM60.9653 18.8362L61.3689 18.6037C61.9632 18.1771 62.3488 17.4811 62.3488 16.6946C62.3488 15.3972 61.2973 14.3455 60.0001 14.3455C58.703 14.3455 57.6514 15.3972 57.6514 16.6946C57.6514 17.4811 58.0377 18.1778 58.6313 18.6037L59.0349 18.8362C59.33 18.9691 59.6556 19.0429 60.0001 19.0429C60.3446 19.0429 60.671 18.9691 60.9653 18.8362ZM81.3503 48.9859C80.0552 51.2319 77.1846 52.0003 74.9397 50.705C73.5695 49.913 72.7497 48.5356 72.6126 47.0712H72.6035V46.9682C72.5959 46.8617 72.5917 46.7566 72.5917 46.6501L63.6946 51.7873L61.3502 50.4336L72.6035 43.9357V30.7978L74.948 32.2921V42.5673C75.0413 42.5144 75.1352 42.4643 75.2313 42.4177L75.3196 42.3669L75.3231 42.3738C76.6599 41.7606 78.2626 41.7829 79.6328 42.5743C81.8778 43.8695 82.6468 46.7406 81.3503 48.9859ZM74.948 46.403V46.8686C75.0204 47.596 75.4296 48.2794 76.1123 48.6727C77.2347 49.3221 78.6718 48.9372 79.3197 47.8131C79.9675 46.6891 79.5841 45.2525 78.4609 44.6038C77.7796 44.2106 76.9828 44.1974 76.3169 44.4973L75.9132 44.7305C75.6502 44.9191 75.424 45.1655 75.2514 45.4627C75.0802 45.762 74.98 46.0815 74.948 46.403ZM44.087 44.7319L43.6834 44.4987C43.0167 44.1987 42.2206 44.2113 41.5393 44.6052C40.4161 45.2539 40.0313 46.6905 40.6799 47.8145C41.3291 48.9386 42.7655 49.3228 43.8886 48.6741C44.5699 48.2815 44.9791 47.5974 45.0515 46.87V46.4044C45.0195 46.0828 44.9207 45.7634 44.7481 45.4648C44.5769 45.1662 44.3493 44.9212 44.087 44.7319Z" fill="#818181"/>
<path fill-rule="evenodd" clip-rule="evenodd" d="M59.703 66.7786C57.1339 66.7786 55.0518 64.6741 55.0518 62.0783C55.0511 60.4943 55.8277 59.0936 57.016 58.242L57.0118 58.2344L57.1008 58.1821C57.187 58.1229 57.2767 58.0664 57.367 58.0135L47.1073 52.0274C47.708 51.5103 48.2205 50.8915 48.6191 50.1988L59.703 56.6643L70.7972 50.1919C71.1952 50.8852 71.7076 51.5041 72.3076 52.0225L62.0376 58.0135C62.1293 58.0664 62.2189 58.1236 62.3065 58.1835L62.3934 58.2344L62.39 58.242C63.5783 59.0936 64.3542 60.4936 64.3542 62.0783C64.3549 64.6741 62.2721 66.7786 59.703 66.7786ZM85.5144 21.6051C86.7992 23.8532 86.0371 26.7284 83.8115 28.0253C82.4535 28.8183 80.8652 28.8399 79.5417 28.2253L79.5369 28.233L79.4479 28.1807C79.3534 28.1347 79.261 28.0845 79.1693 28.0323V40.0114C78.443 39.75 77.6602 39.6079 76.8464 39.6065V26.6622L65.7529 20.1911C66.1419 19.5089 66.4205 18.7556 66.566 17.9542L76.8347 23.9444C76.8354 23.8371 76.8395 23.7305 76.8471 23.6239V23.5221H76.8554C76.9899 22.0559 77.8037 20.6768 79.1624 19.8845C81.3852 18.587 84.2302 19.357 85.5144 21.6051ZM80.1252 25.8643L80.5259 26.0985C81.1859 26.3995 81.9763 26.3856 82.6508 25.9918C83.7639 25.3431 84.1447 23.904 83.5019 22.7793C82.8591 21.6539 81.4356 21.2685 80.3217 21.9187C79.6465 22.3124 79.241 22.9967 79.1686 23.7249V24.1911C79.201 24.5131 79.2989 24.8329 79.47 25.1312C79.641 25.4295 79.8652 25.6762 80.1252 25.8643ZM33.8916 21.6058C35.1758 19.3577 38.02 18.5876 40.2457 19.8859C41.6029 20.6775 42.4161 22.0573 42.5513 23.5235H42.5595V23.6274C42.5671 23.7333 42.5713 23.8392 42.5713 23.9458L52.84 17.9556C52.9848 18.7577 53.2641 19.5103 53.6531 20.1925L42.5595 26.6643V39.6128C41.7443 39.6148 40.9622 39.7584 40.236 40.0211V28.0329C40.1436 28.0866 40.0498 28.1368 39.9553 28.1828L39.8684 28.2336L39.8643 28.2267C38.5408 28.8413 36.9517 28.819 35.5937 28.0267C33.3688 26.7291 32.6067 23.8532 33.8916 21.6058ZM40.2367 24.1918V23.7249C40.165 22.9967 39.7587 22.3124 39.0835 21.9187C37.9704 21.2685 36.5469 21.6545 35.9041 22.7793C35.2613 23.904 35.6427 25.3431 36.7565 25.9918C37.4317 26.3863 38.2207 26.3995 38.8808 26.0985L39.2808 25.8657C39.5408 25.6769 39.7656 25.4302 39.9367 25.1319C40.1063 24.8329 40.205 24.5131 40.2367 24.1918ZM58.7478 59.9333L58.3471 60.1675C57.7581 60.594 57.376 61.2908 57.376 62.0783C57.376 63.3779 58.4174 64.4302 59.7037 64.4302C60.9899 64.4302 62.0314 63.3779 62.0314 62.0783C62.0314 61.2908 61.6486 60.5933 61.0603 60.1675L60.6603 59.9333C60.3685 59.8009 60.0451 59.7264 59.7044 59.7264C59.3616 59.7264 59.0388 59.8002 58.7478 59.9333Z" fill="#FF7600"/>
<path fill-rule="evenodd" clip-rule="evenodd" d="M8.34144 71.7391H0V83.2525H1.95708V78.5652H7.61947V76.7399H1.95708V73.5644H8.34144V71.7391ZM21.6717 77.4795C21.6717 76.6683 21.5272 75.9003 21.2388 75.177C20.9504 74.4537 20.5486 73.8232 20.0355 73.2857C19.5217 72.7482 18.9076 72.3234 18.1911 72.0107C17.4747 71.698 16.6836 71.542 15.8171 71.542C14.9512 71.542 14.1601 71.7015 13.443 72.0192C12.7258 72.3369 12.1062 72.7681 11.5827 73.3098C11.0585 73.853 10.6519 74.4856 10.3635 75.2103C10.0751 75.9343 9.93062 76.7016 9.93062 77.5128C9.93062 78.3241 10.0751 79.0921 10.3635 79.8154C10.6519 80.5387 11.0537 81.1698 11.5668 81.7066C12.0799 82.2449 12.6947 82.6689 13.4112 82.9816C14.1276 83.2944 14.9187 83.4504 15.7853 83.4504C16.6511 83.4504 17.4422 83.2915 18.1593 82.9738C18.8765 82.6562 19.4961 82.225 20.0196 81.6825C20.5438 81.1393 20.9504 80.5068 21.2388 79.7828C21.5272 79.058 21.6717 78.2908 21.6717 77.4795ZM19.6019 77.5128C19.6019 78.0716 19.5085 78.6006 19.3211 79.0999C19.1337 79.5984 18.8744 80.0317 18.5431 80.399C18.2112 80.767 17.8129 81.0571 17.3475 81.2705C16.882 81.484 16.3717 81.591 15.8157 81.591C15.2597 81.591 14.7466 81.4818 14.2756 81.262C13.8054 81.0429 13.4015 80.7465 13.0647 80.3742C12.7279 80.0012 12.4658 79.5651 12.2791 79.0658C12.0917 78.5673 11.9983 78.0383 11.9983 77.4788C11.9983 76.92 12.0917 76.391 12.2791 75.8918C12.4665 75.3933 12.7258 74.96 13.0571 74.5927C13.3884 74.2253 13.7867 73.9346 14.2521 73.7211C14.7168 73.507 15.2279 73.4006 15.7839 73.4006C16.3399 73.4006 16.853 73.5098 17.3239 73.7296C17.7942 73.9495 18.1981 74.2452 18.5348 74.6182C18.8716 74.9905 19.1337 75.4266 19.3211 75.9258C19.5085 76.4243 19.6019 76.9533 19.6019 77.5128ZM33.493 71.7391H31.5366V78.368C31.5366 79.4317 31.2821 80.2324 30.7766 80.7699C30.2718 81.3067 29.5795 81.5761 28.6971 81.5761C27.8043 81.5761 27.1066 81.2961 26.6011 80.7365C26.0955 80.177 25.8417 79.3608 25.8417 78.2858V71.7398H23.8847V78.3688C23.8847 79.2027 23.9967 79.9338 24.2214 80.5649C24.4462 81.1961 24.7671 81.7244 25.1841 82.152C25.6011 82.5803 26.1038 82.9008 26.6916 83.1135C27.2801 83.3277 27.9378 83.4341 28.6646 83.4341C29.4025 83.4341 30.0678 83.3277 30.6618 83.1135C31.2552 82.9001 31.7607 82.5767 32.1777 82.1434C32.5947 81.7109 32.9183 81.1705 33.1479 80.5231C33.3782 79.8764 33.493 79.1254 33.493 78.2702V71.7391ZM44.0322 79.7005L38.0303 71.7391H36.2046V83.2525H38.1616V75.0621L44.3399 83.2532H45.9893V71.7398H44.0322V79.7005ZM59.0298 77.4795C59.0298 76.6683 58.8852 75.9116 58.5969 75.2103C58.3085 74.5083 57.8991 73.8991 57.3701 73.3843C56.841 72.8695 56.2096 72.466 55.4773 72.1759C54.7443 71.8852 53.94 71.7398 53.0631 71.7398H48.8765V83.2532H53.0631C53.9407 83.2532 54.7449 83.1057 55.4773 82.8093C56.2096 82.5129 56.8403 82.108 57.3701 81.5918C57.8998 81.0762 58.3085 80.465 58.5969 79.7579C58.8852 79.0509 59.0298 78.2908 59.0298 77.4795ZM56.9607 77.5128C56.9607 78.0858 56.8673 78.612 56.6799 79.0892C56.4925 79.5693 56.2283 79.9827 55.8908 80.3281C55.5541 80.6763 55.1419 80.945 54.6613 81.14C54.1772 81.3322 53.6426 81.4279 53.052 81.4279H50.8329V73.5651H53.052C53.6426 73.5651 54.1772 73.6644 54.6613 73.8615C55.1426 74.0615 55.5541 74.3359 55.8908 74.6898C56.2276 75.0401 56.4925 75.4571 56.6799 75.9364C56.8673 76.413 56.9607 76.9392 56.9607 77.5128ZM61.4204 76.5257V83.2525H69.8096V81.4272H63.3768V78.351H69.0074V76.5257H61.4204ZM81.6952 83.2525L78.6635 78.8942C79.0591 78.785 79.42 78.6283 79.7458 78.4255C80.0715 78.2227 80.3529 77.9759 80.5881 77.6852C80.8232 77.3951 81.0078 77.0604 81.142 76.6824C81.2755 76.3038 81.3418 75.8733 81.3418 75.3911C81.3418 74.8316 81.2457 74.3246 81.0535 73.8693C80.8612 73.4141 80.5853 73.0297 80.2271 72.7177C79.8688 72.4057 79.4311 72.1646 78.9124 71.9937C78.3938 71.8242 77.8136 71.7391 77.1718 71.7391H72.1671V83.2525H74.1242V79.2396H76.6027L79.3696 83.2525H81.6952ZM79.3371 75.4975C79.3371 76.0925 79.1289 76.5669 78.7091 76.9179C78.2921 77.271 77.7278 77.4469 77.0197 77.4469H74.1242V73.5644H77.0031C77.7437 73.5644 78.3184 73.7268 78.725 74.0523C79.1344 74.3764 79.3371 74.8593 79.3371 75.4975ZM85.4164 74.7487C85.4164 74.3657 85.5769 74.0388 85.8978 73.7701C86.2186 73.502 86.6674 73.3673 87.2449 73.3673C87.758 73.3673 88.2663 73.4694 88.7684 73.6722C89.2718 73.875 89.7794 74.1679 90.2925 74.5515L91.3513 73.0226C90.7732 72.5511 90.1556 72.1915 89.4979 71.9448C88.8403 71.6973 88.1003 71.5746 87.276 71.5746C86.72 71.5746 86.2069 71.654 85.7387 71.8136C85.2684 71.9731 84.8673 72.2001 84.5333 72.4958C84.1993 72.7922 83.9372 73.146 83.7443 73.5566C83.5548 73.9679 83.458 74.426 83.458 74.9309C83.458 75.4684 83.541 75.923 83.7069 76.296C83.8722 76.669 84.1163 76.9874 84.4317 77.2505C84.747 77.5136 85.1398 77.7327 85.6045 77.9085C86.0727 78.0837 86.6045 78.2432 87.2062 78.3858C87.7304 78.5177 88.155 78.6432 88.4841 78.7637C88.8105 78.8843 89.0671 79.0134 89.2566 79.1502C89.444 79.2871 89.5719 79.4381 89.6418 79.6026C89.7116 79.7672 89.7455 79.9537 89.7455 80.1621C89.7455 80.6117 89.5664 80.9684 89.2082 81.2315C88.85 81.4946 88.3659 81.6265 87.7566 81.6265C87.0506 81.6265 86.4199 81.4974 85.8639 81.24C85.3079 80.9826 84.7567 80.6117 84.2118 80.1295L83.0244 81.5776C83.6986 82.2023 84.431 82.6654 85.2221 82.9668C86.0139 83.2688 86.8424 83.4199 87.7089 83.4199C88.2974 83.4199 88.8368 83.3433 89.3292 83.1894C89.8181 83.0363 90.2407 82.8115 90.5878 82.515C90.9384 82.2193 91.2109 81.857 91.4094 81.4301C91.6037 81.0018 91.7033 80.5146 91.7033 79.9664C91.7033 79.4835 91.6258 79.0644 91.4709 78.7084C91.3153 78.3517 91.0857 78.0397 90.7863 77.771C90.4869 77.5022 90.1079 77.2746 89.6528 77.0881C89.1978 76.9016 88.6743 76.7321 88.0858 76.5782C87.5485 76.4463 87.1073 76.3208 86.7573 76.2002C86.4095 76.079 86.137 75.9485 85.9358 75.8053C85.738 75.6627 85.6025 75.5088 85.5264 75.3443C85.4545 75.177 85.4164 74.9791 85.4164 74.7487ZM101.377 78.4007V83.2532H103.334V71.7398H101.377V76.5264H95.9874V71.7398H94.0303V83.2532H95.9874V78.4007H101.377ZM106.334 71.7391V83.2525H108.291V71.7391H106.334ZM120 75.6046C120 75.0125 119.901 74.4806 119.703 74.009C119.506 73.5375 119.222 73.1318 118.853 72.7915C118.485 72.4511 118.035 72.1908 117.506 72.01C116.977 71.8292 116.386 71.7384 115.734 71.7384H111.307V83.2518H113.264V79.5509H115.499C116.121 79.5509 116.704 79.4658 117.252 79.2963C117.797 79.1268 118.274 78.8765 118.683 78.5475C119.089 78.2184 119.41 77.8071 119.648 77.3143C119.882 76.8214 120 76.2513 120 75.6046ZM117.995 75.6457C117.995 76.274 117.778 76.7782 117.342 77.1561C116.909 77.5369 116.316 77.7263 115.565 77.7263H113.264V73.5651H115.565C116.305 73.5651 116.896 73.7381 117.335 74.0856C117.776 74.431 117.995 74.9515 117.995 75.6457Z" fill="#818181"/>
<path d="M69.505 71.542H61.1881V73.3282H69.505V71.542Z" fill="#FF7600"/>
</svg>
