<svg width="28" height="29" viewBox="0 0 28 29" fill="none" xmlns="http://www.w3.org/2000/svg">
<path d="M24.6538 11.1626C24.4294 11.1626 24.2142 11.2592 24.0555 11.4311C23.8968 11.603 23.8077 11.8361 23.8077 12.0793V19.4126C23.8077 19.6557 23.7185 19.8889 23.5599 20.0608C23.4012 20.2327 23.186 20.3293 22.9615 20.3293H6.03846C5.81405 20.3293 5.59883 20.2327 5.44014 20.0608C5.28146 19.8889 5.19231 19.6557 5.19231 19.4126V12.0793C5.19231 11.8361 5.10316 11.603 4.94447 11.4311C4.78579 11.2592 4.57057 11.1626 4.34615 11.1626C4.12174 11.1626 3.90652 11.2592 3.74783 11.4311C3.58915 11.603 3.5 11.8361 3.5 12.0793V19.4126C3.50059 20.1417 3.76843 20.8407 4.24462 21.3559C4.72021 21.8718 5.36545 22.162 6.03846 22.1626H22.9615C23.6346 22.162 24.2798 21.8718 24.7554 21.3559C25.2316 20.8407 25.4994 20.1417 25.5 19.4126V12.0793C25.5 11.8361 25.4109 11.603 25.2522 11.4311C25.0935 11.2592 24.8783 11.1626 24.6538 11.1626Z" fill="#646E75"/>
<path d="M13.9847 16.9793C14.1334 17.0983 14.3142 17.1626 14.5 17.1626C14.6858 17.1626 14.8666 17.0983 15.0153 16.9793L25.1583 8.8576C25.3165 8.73024 25.4286 8.54841 25.4755 8.34291C25.5225 8.13741 25.5014 7.92091 25.4159 7.7301C25.288 7.44806 25.1167 7.19089 24.9092 6.96926C24.4265 6.45339 23.7715 6.16324 23.0884 6.1626H5.91156C5.22846 6.16324 4.57355 6.45339 4.09082 6.96926C3.88328 7.19089 3.712 7.44806 3.5841 7.7301C3.49857 7.92091 3.4775 8.13741 3.52446 8.34291C3.57142 8.54841 3.68352 8.73024 3.84175 8.8576L13.9847 16.9793ZM5.91156 7.99593H23.0884C23.1681 7.98254 23.2492 7.98254 23.3289 7.99593L14.5 15.1001L5.67109 7.99593C5.75076 7.98254 5.8319 7.98254 5.91156 7.99593Z" fill="#646E75"/>
</svg>
