<svg width="66" height="67" viewBox="0 0 66 67" fill="none" xmlns="http://www.w3.org/2000/svg">
<path d="M0 0.450439H31.3788C31.3788 10.9101 31.3788 21.3697 31.3788 31.8293C20.9192 31.8293 10.4596 31.8293 0 31.8293V0.450439Z" fill="#F25022"/>
<path d="M34.583 0.450439H65.9619C65.9619 10.9101 65.9619 21.3697 65.9619 31.8293C55.5022 31.8293 45.0426 31.8293 34.583 31.8293C34.583 21.3697 34.583 10.9101 34.583 0.450439Z" fill="#80BA01"/>
<path d="M0 35.0331C10.4596 35.0331 20.9192 35.0331 31.3788 35.0331C31.3788 45.4928 31.3788 55.9524 31.3788 66.412H0V35.0331Z" fill="#02A4EF"/>
<path d="M34.583 35.0331C45.0426 35.0331 55.5022 35.0331 65.9619 35.0331C65.9619 45.4928 65.9619 55.9524 65.9619 66.412H34.583C34.583 55.9524 34.583 45.4928 34.583 35.0331Z" fill="#FFB902"/>
</svg>
