<?xml version="1.0" encoding="utf-8"?>
<!-- Generator: Adobe Illustrator 26.1.0, SVG Export Plug-In . SVG Version: 6.00 Build 0)  -->
<svg version="1.1" id="Layer_1" xmlns="http://www.w3.org/2000/svg" xmlns:xlink="http://www.w3.org/1999/xlink" x="0px" y="0px"
	 viewBox="0 0 286.7 80.7" style="enable-background:new 0 0 286.7 80.7;" xml:space="preserve">
<style type="text/css">
	.st0{enable-background:new    ;}
	.st1{fill:#231F20;}
	.st2{fill:#15EB83;}
</style>
<g>
	<g id="rubix" class="st0">
		<path class="st1" d="M87.5,45.2C87.9,31.7,95,25,109,25h1.5v10.9h-3.6c-5.8,0-8.8,3.1-8.8,9.2v21.7H87.5V45.2z"/>
		<path class="st1" d="M155.2,50.1c0,7.2-1.8,11.9-5.5,14.2c-3.7,2.1-7.8,3.2-12.3,3.2c-4.3,0-8.2-1.2-11.8-3.6
			c-3.6-2.3-5.4-6.9-5.4-13.9V25h10.5v27.2c0,4.7,2.4,6.9,7.1,6.9c4.7,0,7.1-2.3,7.1-6.9v-22c-0.1-3.5,1.6-5.2,5.1-5.2h5.4V50.1z"/>
		<path class="st1" d="M175.1,30.9c2.7-4.3,6.6-6.5,11.8-6.5c11.1,0.4,16.7,7.7,16.7,21.9c0,13.9-6.5,20.9-19.4,21.1
			c-13,0.1-19.6-6.2-19.6-18.7V13.1h5.3c3.5,0,5.2,1.8,5.2,5.3V30.9z M175.1,45.8c-0.1,8.4,2.8,12.7,8.8,12.7c6,0,9-4.3,9-12.7
			c-0.2-8-3.2-12-8.8-12C178.3,33.8,175.4,37.7,175.1,45.8z"/>
		<path class="st1" d="M218.5,13.1c3.5,0,5.1,1.7,5.1,5.1v3.1H213v-8.2H218.5z M218.5,25c3.4,0,5.1,1.7,5.1,5.1v36.7H213V25H218.5z"
			/>
		<path class="st1" d="M275.7,21.3l-15.8,24.1l13.9,21.3h-12.6l-7.4-13.3l-7.5,13.3h-12.9l13.6-21.4L234.2,25h12.1l7.2,12.6l8-13.6
			c0.9-1.8,2.4-2.8,4.6-2.8H275.7z"/>
	</g>
	<g>
		<path class="st2" d="M70.7,20.1l-24.3-14c-2.3-1.3-5.1-1.3-7.4,0l-24.3,14c-2.3,1.3-3.7,3.8-3.7,6.4v28c0,2.7,1.4,5.1,3.7,6.4
			L39,75c0.2,0.1,0.4,0.2,0.7,0.3c1.4,0.6,3-0.4,3-2v-2.8v-4.9V40.6l3.8-2.2l0,0l4.6-2.6c0.7-0.4,0.7-1.4,0-1.8l-7.4-4.3
			c-0.6-0.3-1.3-0.3-2,0l-9,5.2l0,0h0v25.1l-11.8-6.8V28l21.7-12.6L64.4,28v25.1l-10.8,6.2c-0.6,0.4-1,1-1,1.7v8.6
			c0,0.8,0.8,1.3,1.5,0.9L70.7,61c2.3-1.3,3.7-3.8,3.7-6.4v-28C74.4,23.9,73,21.4,70.7,20.1z"/>
	</g>
</g>
</svg>
