<svg width="351" height="346" viewBox="0 0 351 346" fill="none" xmlns="http://www.w3.org/2000/svg">
<path d="M308.34 295.85C299.219 305.13 291.058 310.583 284.81 314.701C223.877 354.861 154.21 343.286 132.672 339.327C97.924 332.944 68.593 328.442 43.3923 305.97C-13.8735 254.908 -11.0873 148.39 32.67 82.4053C37.858 74.5815 81.5466 10.6629 151.36 1.65569C153.068 1.43585 154.342 1.31023 155.457 1.1934C166.257 0.0627817 233.18 -5.89178 287.75 39.231C295.561 45.6893 308.132 57.3397 319.788 75.1091C362.411 140.079 362.547 240.704 308.34 295.85Z" fill="url(#paint0_linear_402_253)"/>
<path d="M333.078 24.8208H13.3021C10.7363 24.8208 8.65625 26.8737 8.65625 29.4061V245.189C8.65625 247.721 10.7363 249.774 13.3021 249.774H333.078C335.644 249.774 337.724 247.721 337.724 245.189V29.4061C337.724 26.8737 335.644 24.8208 333.078 24.8208Z" fill="#CEDFEB"/>
<path opacity="0.26" d="M322.05 63.6638H21.2723C18.7065 63.6638 16.6265 65.7167 16.6265 68.2491V235.772C16.6265 238.304 18.7065 240.357 21.2723 240.357H322.05C324.616 240.357 326.696 238.304 326.696 235.772V68.2491C326.696 65.7167 324.616 63.6638 322.05 63.6638Z" fill="white"/>
<path d="M337.724 53.5913V40.0403C337.724 31.6348 330.677 24.8247 322.16 24.8247H25.0745C16.558 24.8247 9.50146 31.6348 9.50146 40.0403V53.5913H337.724Z" fill="#CEDFEB"/>
<path opacity="0.56" d="M29.6018 47.7041C31.1721 46.1543 31.1721 43.6416 29.6018 42.0918C28.0316 40.5421 25.4857 40.542 23.9154 42.0918C22.3452 43.6416 22.3452 46.1543 23.9154 47.7041C25.4857 49.2538 28.0316 49.2538 29.6018 47.7041Z" fill="white"/>
<path opacity="0.56" d="M39.4291 49.0397C41.6497 49.0397 43.4499 47.263 43.4499 45.0712C43.4499 42.8795 41.6497 41.1028 39.4291 41.1028C37.2084 41.1028 35.4082 42.8795 35.4082 45.0712C35.4082 47.263 37.2084 49.0397 39.4291 49.0397Z" fill="white"/>
<path opacity="0.56" d="M51.5824 49.5939C53.803 49.5939 55.6032 47.8172 55.6032 45.6254C55.6032 43.4337 53.803 41.657 51.5824 41.657C49.3617 41.657 47.5615 43.4337 47.5615 45.6254C47.5615 47.8172 49.3617 49.5939 51.5824 49.5939Z" fill="white"/>
<path opacity="0.56" d="M130.029 74.1973H29.3497C28.5061 74.1973 27.8223 74.8722 27.8223 75.7048V228.418C27.8223 229.251 28.5061 229.925 29.3497 229.925H130.029C130.873 229.925 131.556 229.251 131.556 228.418V75.7048C131.556 74.8722 130.873 74.1973 130.029 74.1973Z" fill="white"/>
<path opacity="0.56" d="M313.946 74.1458H140.077C139.233 74.1458 138.549 74.8207 138.549 75.6532V146.952C138.549 147.785 139.233 148.46 140.077 148.46H313.946C314.79 148.46 315.474 147.785 315.474 146.952V75.6532C315.474 74.8207 314.79 74.1458 313.946 74.1458Z" fill="white"/>
<path opacity="0.56" d="M313.179 157.322H139.31C138.466 157.322 137.782 157.997 137.782 158.83V225.871C137.782 226.704 138.466 227.379 139.31 227.379H313.179C314.023 227.379 314.707 226.704 314.707 225.871V158.83C314.707 157.997 314.023 157.322 313.179 157.322Z" fill="white"/>
<g opacity="0.3">
<path d="M104.256 72.2649C103.924 72.3313 103.578 72.2739 103.286 72.1039C102.995 71.9338 102.777 71.6632 102.675 71.3441C102.21 69.8844 101.803 68.3832 101.463 66.882C101.384 66.5312 101.45 66.1638 101.645 65.8604C101.84 65.5571 102.149 65.3426 102.504 65.2639H102.531C102.883 65.1936 103.249 65.2624 103.551 65.4554C103.852 65.6485 104.064 65.9505 104.143 66.2966C104.465 67.7236 104.852 69.1495 105.288 70.5364C105.398 70.8782 105.365 71.249 105.198 71.5674C105.031 71.8857 104.743 72.1258 104.397 72.2348C104.351 72.248 104.304 72.258 104.256 72.2649ZM101.965 60.6824C101.775 60.7205 101.578 60.7184 101.389 60.6764C101.2 60.6343 101.022 60.5532 100.867 60.4383C100.711 60.3234 100.583 60.1774 100.489 60.0099C100.395 59.8424 100.338 59.6572 100.322 59.4664C100.194 57.935 100.131 56.3836 100.134 54.8535C100.129 54.6721 100.16 54.4914 100.227 54.3222C100.293 54.153 100.393 53.9987 100.521 53.8685C100.649 53.7382 100.803 53.6346 100.972 53.5639C101.141 53.4932 101.323 53.4567 101.507 53.4567C101.691 53.4567 101.873 53.4932 102.042 53.5639C102.212 53.6346 102.365 53.7382 102.493 53.8685C102.621 53.9987 102.721 54.153 102.788 54.3222C102.854 54.4914 102.886 54.6721 102.88 54.8535C102.88 56.3082 102.936 57.7818 103.058 59.2378C103.087 59.569 102.992 59.8992 102.79 60.1656C102.589 60.4319 102.295 60.6159 101.965 60.6824ZM102.314 48.8901C102.098 48.9328 101.875 48.9239 101.664 48.8642C101.453 48.8044 101.259 48.6955 101.099 48.5466C100.939 48.3977 100.818 48.2132 100.745 48.0085C100.673 47.8038 100.651 47.5849 100.682 47.3701C100.902 45.8526 101.191 44.325 101.542 42.83C101.58 42.6544 101.654 42.4881 101.758 42.3407C101.862 42.1933 101.995 42.0678 102.148 41.9716C102.302 41.8753 102.474 41.8102 102.653 41.7801C102.832 41.7499 103.016 41.7552 103.194 41.7958C103.371 41.8364 103.538 41.9114 103.686 42.0164C103.834 42.1215 103.959 42.2545 104.054 42.4077C104.149 42.5609 104.212 42.7312 104.24 42.9087C104.267 43.0863 104.259 43.2675 104.215 43.4418C103.882 44.8614 103.607 46.3111 103.398 47.7532C103.357 48.0291 103.231 48.2859 103.037 48.4885C102.843 48.6911 102.59 48.8296 102.314 48.8851V48.8901ZM105.328 37.4684C105.086 37.5163 104.837 37.4994 104.604 37.4195C104.372 37.3396 104.166 37.1995 104.007 37.014C103.849 36.8285 103.743 36.6044 103.702 36.365C103.661 36.1256 103.686 35.8798 103.775 35.6532C104.333 34.2211 104.962 32.7952 105.642 31.4171C105.801 31.0941 106.084 30.8468 106.428 30.7296C106.772 30.6124 107.149 30.6349 107.477 30.7922C107.804 30.9494 108.055 31.2285 108.173 31.5682C108.292 31.9078 108.269 32.28 108.11 32.603C107.465 33.912 106.868 35.2662 106.337 36.623C106.254 36.8364 106.119 37.0259 105.942 37.1737C105.766 37.3215 105.554 37.4229 105.328 37.4684ZM110.85 26.9964C110.584 27.0495 110.307 27.0233 110.055 26.921C109.804 26.8187 109.589 26.6449 109.437 26.4218C109.286 26.1987 109.205 25.9362 109.205 25.6677C109.205 25.3992 109.286 25.1367 109.438 24.9136C110.303 23.6435 111.235 22.3911 112.208 21.1926C112.321 21.0539 112.461 20.9384 112.618 20.8528C112.776 20.7672 112.95 20.7132 113.129 20.6937C113.308 20.6743 113.489 20.6899 113.662 20.7396C113.835 20.7893 113.997 20.8722 114.137 20.9835C114.278 21.0947 114.395 21.2322 114.482 21.3881C114.568 21.544 114.623 21.7153 114.643 21.8921C114.663 22.0688 114.647 22.2477 114.596 22.4185C114.546 22.5892 114.462 22.7485 114.349 22.8873C113.424 24.0254 112.538 25.2163 111.717 26.4236C111.516 26.7202 111.205 26.9262 110.85 26.9964ZM118.578 17.9917C118.285 18.0501 117.982 18.013 117.713 17.886C117.444 17.7591 117.224 17.5491 117.086 17.2879C116.949 17.0266 116.901 16.7284 116.951 16.4381C117 16.1478 117.144 15.8814 117.361 15.679C118.491 14.6263 119.681 13.6087 120.897 12.654C121.037 12.5376 121.2 12.4503 121.375 12.397C121.551 12.3437 121.735 12.3257 121.917 12.3439C122.1 12.3621 122.277 12.4162 122.438 12.503C122.599 12.5898 122.741 12.7075 122.855 12.8493C122.969 12.991 123.053 13.1539 123.102 13.3282C123.152 13.5026 123.165 13.685 123.142 13.8645C123.118 14.0441 123.059 14.2172 122.967 14.3737C122.875 14.5302 122.752 14.6669 122.605 14.7758C121.449 15.6828 120.314 16.6488 119.246 17.6488C119.059 17.8236 118.825 17.9425 118.573 17.9917H118.578ZM167.218 4.95827C167.026 4.99611 166.828 4.99311 166.637 4.94948C165.2 4.62285 163.73 4.35402 162.266 4.15051C161.907 4.09896 161.584 3.90922 161.366 3.62277C161.148 3.33633 161.055 2.97649 161.105 2.62196C161.156 2.26742 161.346 1.94704 161.635 1.73088C161.925 1.51471 162.289 1.42036 162.648 1.46844C164.189 1.682 165.739 1.97094 167.252 2.30886C167.558 2.37837 167.83 2.54914 168.024 2.79274C168.218 3.03634 168.321 3.33808 168.317 3.64776C168.313 3.95743 168.201 4.25636 168.001 4.49479C167.801 4.73323 167.524 4.89679 167.216 4.95827H167.218ZM128.129 10.904C127.811 10.9686 127.479 10.9195 127.194 10.7654C126.909 10.6113 126.688 10.3622 126.572 10.0626C126.455 9.76304 126.45 9.43235 126.558 9.12952C126.666 8.8267 126.879 8.5714 127.159 8.40915C128.498 7.63028 129.887 6.90167 131.288 6.23838C131.451 6.15594 131.63 6.10661 131.813 6.09332C131.996 6.08004 132.179 6.10306 132.353 6.16101C132.527 6.21897 132.687 6.3107 132.825 6.43078C132.962 6.55086 133.073 6.69686 133.152 6.86017C133.232 7.02348 133.277 7.20078 133.285 7.38162C133.294 7.56245 133.266 7.74315 133.203 7.91306C133.139 8.08296 133.042 8.23863 132.917 8.37087C132.792 8.50311 132.641 8.60925 132.473 8.68301C131.143 9.31113 129.823 10.0046 128.552 10.7432C128.419 10.8206 128.275 10.8749 128.124 10.904H128.129ZM155.338 3.61786C155.248 3.63663 155.156 3.64589 155.063 3.6455C153.588 3.6455 152.093 3.70706 150.62 3.83017C150.257 3.86049 149.897 3.74735 149.619 3.51565C149.341 3.28395 149.167 2.95266 149.136 2.59466C149.106 2.23666 149.22 1.88128 149.455 1.6067C149.69 1.33212 150.025 1.16083 150.388 1.13051C151.939 1.00489 153.512 0.935797 155.065 0.935797C155.405 0.934773 155.734 1.05898 155.988 1.28423C156.241 1.50947 156.4 1.81964 156.434 2.15433C156.468 2.48901 156.375 2.82427 156.172 3.09481C155.97 3.36535 155.672 3.5518 155.338 3.61786ZM139.046 6.09642C138.702 6.16291 138.346 6.09727 138.05 5.91293C137.753 5.7286 137.54 5.4395 137.452 5.10476C137.365 4.77003 137.41 4.41495 137.579 4.11217C137.748 3.80939 138.028 3.58179 138.361 3.47591C139.84 3.01361 141.361 2.60911 142.879 2.27244L142.907 2.26615C143.263 2.19202 143.634 2.26056 143.939 2.45669C144.244 2.65282 144.457 2.96047 144.533 3.31197C144.608 3.66347 144.538 4.03002 144.34 4.33099C144.141 4.63195 143.829 4.84268 143.473 4.91681C142.031 5.2359 140.587 5.62156 139.182 6.06124C139.134 6.07883 139.087 6.09139 139.038 6.10144L139.046 6.09642Z" fill="#7D97F4"/>
<path d="M176.371 7.92167C176.097 7.97685 175.812 7.94747 175.556 7.8375C174.906 7.56113 174.24 7.29355 173.574 7.04104C173.235 6.91211 172.961 6.65524 172.813 6.32694C172.665 5.99865 172.655 5.62582 172.786 5.29048C172.916 4.95514 173.177 4.68475 173.509 4.53881C173.842 4.39286 174.22 4.3833 174.559 4.51224C175.258 4.77731 175.96 5.05871 176.643 5.35015C176.912 5.46433 177.136 5.66025 177.284 5.90934C177.432 6.15843 177.496 6.44765 177.465 6.73478C177.435 7.02192 177.312 7.29195 177.115 7.50546C176.918 7.71898 176.657 7.86481 176.371 7.92167Z" fill="#7D97F4"/>
</g>
<g opacity="0.3">
<path d="M205.266 37.7954C204.946 37.8592 204.614 37.8085 204.329 37.6524C204.044 37.4963 203.824 37.245 203.709 36.9436C203.455 36.2904 203.194 35.6296 202.917 34.9826C202.775 34.6518 202.772 34.2789 202.909 33.946C203.045 33.6131 203.311 33.3475 203.646 33.2076C203.981 33.0676 204.359 33.0649 204.696 33.1999C205.033 33.3349 205.303 33.5966 205.444 33.9274C205.736 34.6083 206.017 35.3093 206.279 35.9914C206.407 36.3279 206.394 36.7008 206.244 37.028C206.093 37.3552 205.817 37.61 205.476 37.7363C205.408 37.7614 205.338 37.7811 205.266 37.7954Z" fill="#7D97F4"/>
<path d="M165.918 108.069C165.298 108.194 164.675 108.308 164.049 108.412C163.87 108.444 163.687 108.44 163.51 108.401C163.333 108.362 163.165 108.289 163.017 108.186C162.868 108.082 162.742 107.951 162.646 107.8C162.549 107.648 162.484 107.479 162.454 107.303C162.424 107.126 162.429 106.945 162.47 106.771C162.511 106.596 162.587 106.432 162.693 106.286C162.799 106.141 162.933 106.018 163.087 105.924C163.242 105.83 163.414 105.767 163.593 105.739C165.041 105.499 166.477 105.201 167.876 104.849C168.229 104.761 168.603 104.814 168.916 104.998C169.229 105.181 169.455 105.48 169.545 105.828C169.634 106.176 169.58 106.545 169.395 106.854C169.209 107.163 168.906 107.386 168.553 107.475C167.688 107.692 166.8 107.892 165.918 108.069ZM156.837 109.113C156.76 109.128 156.682 109.137 156.604 109.14C155.076 109.186 153.524 109.17 151.999 109.089C151.819 109.08 151.643 109.036 151.48 108.959C151.317 108.882 151.172 108.775 151.051 108.643C150.808 108.376 150.682 108.024 150.701 107.665C150.72 107.307 150.883 106.97 151.154 106.73C151.424 106.49 151.78 106.366 152.144 106.385C153.592 106.46 155.065 106.475 156.52 106.431C156.863 106.422 157.197 106.54 157.456 106.761C157.716 106.983 157.882 107.293 157.921 107.629C157.961 107.965 157.872 108.304 157.671 108.579C157.47 108.854 157.173 109.044 156.837 109.113ZM175.412 105.241C175.077 105.31 174.727 105.252 174.433 105.079C174.138 104.906 173.92 104.63 173.821 104.306C173.722 103.982 173.75 103.634 173.898 103.329C174.046 103.024 174.305 102.785 174.623 102.659C175.966 102.12 177.305 101.517 178.601 100.865C178.924 100.712 179.296 100.69 179.635 100.803C179.975 100.917 180.256 101.157 180.419 101.472C180.581 101.788 180.612 102.154 180.505 102.492C180.398 102.83 180.162 103.113 179.846 103.28C178.481 103.965 177.072 104.601 175.658 105.165C175.579 105.198 175.497 105.223 175.412 105.241ZM145.104 108.191C144.928 108.225 144.748 108.225 144.572 108.191C143.07 107.905 141.562 107.552 140.09 107.142C139.74 107.045 139.443 106.814 139.265 106.5C139.087 106.187 139.043 105.817 139.141 105.471C139.24 105.125 139.474 104.832 139.792 104.656C140.109 104.481 140.484 104.437 140.835 104.534C142.235 104.924 143.664 105.259 145.091 105.53C145.404 105.589 145.686 105.753 145.889 105.995C146.093 106.236 146.205 106.54 146.207 106.854C146.208 107.168 146.099 107.473 145.898 107.717C145.697 107.96 145.416 108.127 145.104 108.189V108.191ZM185.747 99.7052C185.437 99.7665 185.116 99.7209 184.837 99.576C184.558 99.4311 184.338 99.1957 184.213 98.9095C184.089 98.6233 184.069 98.3036 184.155 98.0042C184.242 97.7049 184.43 97.444 184.689 97.2656C185.879 96.449 187.05 95.5697 188.17 94.6526C188.45 94.4234 188.811 94.3134 189.174 94.3469C189.536 94.3803 189.87 94.5545 190.102 94.831C190.334 95.1075 190.446 95.4638 190.412 95.8214C190.378 96.1791 190.202 96.5087 189.921 96.738C188.743 97.7028 187.511 98.6223 186.258 99.4891C186.105 99.5951 185.93 99.6687 185.747 99.7052ZM194.602 92.0648C194.318 92.1215 194.023 92.0881 193.759 91.9693C193.495 91.8505 193.276 91.6524 193.134 91.4034C192.991 91.1544 192.932 90.8673 192.965 90.5831C192.997 90.2989 193.12 90.0321 193.316 89.8211C194.299 88.7634 195.248 87.6529 196.137 86.521C196.242 86.3689 196.379 86.2397 196.537 86.1414C196.695 86.0431 196.872 85.9778 197.057 85.9494C197.241 85.921 197.43 85.9301 197.611 85.9763C197.792 86.0225 197.962 86.1047 198.109 86.2178C198.257 86.331 198.38 86.4728 198.47 86.6344C198.56 86.796 198.616 86.9742 198.634 87.1578C198.652 87.3415 198.631 87.5268 198.574 87.7025C198.517 87.8781 198.424 88.0404 198.3 88.1792C197.365 89.3714 196.367 90.5397 195.332 91.6527C195.139 91.8619 194.884 92.006 194.603 92.0648H194.602ZM201.558 82.6995C201.298 82.7526 201.028 82.7302 200.781 82.635C200.534 82.5399 200.32 82.376 200.165 82.1633C200.01 81.9506 199.921 81.6982 199.909 81.4366C199.896 81.1751 199.961 80.9156 200.095 80.6895C200.822 79.4446 201.504 78.1582 202.12 76.8618C202.197 76.7008 202.305 76.5562 202.438 76.4364C202.571 76.3166 202.727 76.2239 202.897 76.1635C203.066 76.1031 203.246 76.0763 203.426 76.0846C203.606 76.0928 203.783 76.136 203.946 76.2117C204.109 76.2873 204.256 76.3939 204.377 76.5254C204.498 76.6569 204.592 76.8107 204.654 76.9781C204.715 77.1454 204.742 77.323 204.733 77.5007C204.725 77.6784 204.681 77.8527 204.605 78.0137C203.956 79.378 203.239 80.7335 202.474 82.0425C202.378 82.2103 202.246 82.3559 202.088 82.4692C201.93 82.5825 201.749 82.6611 201.558 82.6995ZM206.279 72.0617C206.045 72.1088 205.803 72.0949 205.576 72.0213C205.349 71.9478 205.146 71.8171 204.986 71.6423C204.826 71.4675 204.716 71.2545 204.665 71.0245C204.614 70.7944 204.625 70.5552 204.696 70.3306C205.129 68.96 205.508 67.5568 205.822 66.1586C205.9 65.8078 206.117 65.5022 206.424 65.309C206.731 65.1158 207.103 65.0509 207.458 65.1285C207.814 65.2062 208.124 65.42 208.319 65.7229C208.515 66.0259 208.581 66.3932 208.502 66.744C208.171 68.2164 207.773 69.695 207.317 71.1409C207.243 71.3721 207.108 71.5794 206.925 71.7414C206.743 71.9034 206.519 72.014 206.279 72.0617ZM208.519 60.6563C208.31 60.698 208.095 60.6914 207.889 60.6369C207.684 60.5824 207.494 60.4816 207.335 60.3424C207.176 60.2032 207.052 60.0294 206.972 59.8347C206.893 59.64 206.86 59.4297 206.877 59.2204C206.993 57.7934 207.049 56.3424 207.042 54.9078C207.036 54.7264 207.067 54.5457 207.132 54.3763C207.198 54.2068 207.298 54.0522 207.425 53.9214C207.553 53.7907 207.705 53.6865 207.874 53.6151C208.043 53.5437 208.225 53.5065 208.409 53.5058C208.593 53.505 208.775 53.5407 208.945 53.6107C209.114 53.6807 209.268 53.7836 209.396 53.9133C209.525 54.043 209.626 54.1968 209.693 54.3657C209.76 54.5346 209.792 54.7151 209.788 54.8965C209.788 56.404 209.736 57.9341 209.613 59.4365C209.589 59.7294 209.47 60.0067 209.272 60.2267C209.075 60.4466 208.81 60.5974 208.519 60.6563ZM208.165 49.0512L208.082 49.065C207.904 49.0898 207.722 49.0797 207.547 49.0352C207.373 48.9906 207.209 48.9126 207.065 48.8055C206.921 48.6984 206.8 48.5643 206.708 48.411C206.617 48.2577 206.557 48.088 206.532 47.9118C206.383 46.8666 206.201 45.8126 205.988 44.78C205.911 44.4056 205.83 44.0334 205.745 43.6632C205.706 43.4896 205.701 43.3101 205.732 43.1348C205.762 42.9594 205.828 42.7918 205.924 42.6414C206.02 42.491 206.146 42.3609 206.293 42.2583C206.44 42.1558 206.607 42.083 206.783 42.0439C206.958 42.0025 207.141 41.9962 207.319 42.0254C207.498 42.0546 207.668 42.1187 207.821 42.214C207.974 42.3093 208.106 42.4338 208.21 42.5802C208.313 42.7266 208.386 42.8919 208.423 43.0665C208.512 43.4559 208.598 43.8466 208.678 44.2411C208.902 45.3277 209.094 46.4357 209.251 47.5362C209.299 47.8777 209.214 48.2246 209.012 48.5061C208.81 48.7876 208.507 48.9826 208.165 49.0512Z" fill="#7D97F4"/>
<path d="M133.835 104.729C133.558 104.784 133.271 104.754 133.013 104.642C132.332 104.348 131.644 104.034 130.976 103.71C130.809 103.636 130.658 103.529 130.533 103.396C130.408 103.262 130.311 103.106 130.249 102.935C130.186 102.765 130.159 102.583 130.169 102.402C130.179 102.221 130.225 102.044 130.306 101.881C130.386 101.717 130.499 101.572 130.638 101.453C130.776 101.333 130.938 101.243 131.112 101.186C131.287 101.13 131.472 101.108 131.655 101.124C131.838 101.139 132.016 101.19 132.179 101.274C132.815 101.583 133.473 101.881 134.12 102.154C134.387 102.27 134.61 102.466 134.756 102.715C134.902 102.964 134.964 103.253 134.933 103.539C134.902 103.825 134.779 104.094 134.583 104.307C134.387 104.52 134.127 104.665 133.841 104.723L133.835 104.729Z" fill="#7D97F4"/>
</g>
<path d="M132.488 88.9668C132.591 89.051 132.718 89.101 132.852 89.1098C132.985 89.1186 133.118 89.0857 133.231 89.0157L139.877 84.9706C143.196 86.5787 146.759 87.6424 150.425 88.12L153.681 95.1148C153.736 95.235 153.828 95.3351 153.944 95.4007C154.06 95.4663 154.194 95.4942 154.327 95.4803L163.647 94.5645C163.78 94.5521 163.905 94.4987 164.006 94.4119C164.106 94.3251 164.177 94.2093 164.207 94.0809L166.007 86.5874C169.505 85.4062 172.785 83.6699 175.717 81.4469L183.041 84.1189C183.166 84.1654 183.303 84.1717 183.432 84.137C183.561 84.1022 183.676 84.0282 183.76 83.9255L189.693 76.775C189.778 76.6733 189.829 76.5478 189.838 76.4161C189.847 76.2844 189.813 76.1533 189.742 76.0413L185.644 69.4825C187.274 66.2072 188.352 62.6913 188.835 59.0733L195.923 55.8536C196.044 55.7984 196.145 55.7072 196.212 55.5929C196.278 55.4785 196.307 55.3466 196.294 55.2154L195.364 46.0172C195.352 45.886 195.298 45.762 195.21 45.6628C195.122 45.5636 195.004 45.4942 194.874 45.4645L187.282 43.6882C186.086 40.235 184.327 36.9977 182.074 34.1044L184.781 26.876C184.828 26.7525 184.835 26.6174 184.8 26.49C184.765 26.3626 184.69 26.2493 184.586 26.1662L177.34 20.3109C177.237 20.2267 177.11 20.1766 176.976 20.1678C176.843 20.159 176.71 20.1919 176.597 20.2619L169.951 24.307C166.633 22.6978 163.07 21.634 159.404 21.1576L156.142 14.1616C156.086 14.0419 155.994 13.9424 155.878 13.8769C155.762 13.8114 155.629 13.7831 155.496 13.796L146.177 14.7131C146.044 14.7252 145.918 14.7785 145.817 14.8653C145.717 14.9522 145.646 15.0681 145.616 15.1967L143.816 22.6902C140.318 23.8709 137.038 25.6073 134.106 27.8307L126.783 25.1587C126.658 25.1121 126.521 25.1056 126.392 25.1401C126.263 25.1746 126.148 25.2483 126.064 25.3509L120.13 32.5027C120.046 32.6048 119.996 32.7302 119.987 32.8617C119.978 32.9931 120.011 33.124 120.08 33.2363L124.179 39.7951C122.549 43.0706 121.471 46.5864 120.988 50.2043L113.905 53.424C113.783 53.4785 113.681 53.5695 113.615 53.684C113.548 53.7986 113.52 53.9309 113.534 54.0622L114.462 63.2591C114.475 63.3906 114.528 63.5148 114.616 63.6143C114.704 63.7137 114.822 63.7833 114.952 63.8131L122.541 65.5932C123.738 69.0457 125.497 72.2827 127.749 75.177L125.042 82.4054C124.995 82.5289 124.989 82.6637 125.024 82.7909C125.059 82.9181 125.134 83.0311 125.238 83.1139L132.488 88.9668Z" fill="#BFE3FF"/>
<path d="M156.779 63.7452C154.389 64.2232 151.905 63.768 149.848 62.4753C147.792 61.1827 146.323 59.1533 145.751 56.8139C145.18 54.4745 145.549 52.0075 146.783 49.9317C148.016 47.8559 150.017 46.333 152.365 45.6833C154.713 45.0337 157.224 45.3078 159.371 46.4482C161.518 47.5885 163.134 49.5062 163.878 51.7979C164.621 54.0896 164.436 56.5767 163.36 58.7362C162.284 60.8957 160.402 62.5593 158.109 63.3771C157.675 63.5318 157.231 63.6548 156.779 63.7452ZM153.49 47.6528C153.14 47.7235 152.795 47.8188 152.459 47.938C150.708 48.5642 149.272 49.8357 148.451 51.4853C147.631 53.135 147.49 55.0343 148.059 56.7841C148.628 58.5339 149.862 59.9979 151.502 60.8685C153.141 61.7391 155.059 61.9485 156.852 61.4526C158.645 60.9567 160.173 59.7942 161.116 58.2093C162.058 56.6245 162.342 54.7408 161.906 52.9541C161.471 51.1673 160.351 49.6167 158.781 48.6281C157.212 47.6396 155.315 47.29 153.49 47.6528Z" fill="#91B3FA"/>
<path d="M159.671 76.8591C158.893 77.015 158.108 77.132 157.318 77.2095C157.069 77.2347 156.819 77.2552 156.567 77.2711C155.333 77.3535 154.093 77.3383 152.861 77.2259H152.81L152.667 77.2108L152.391 77.1819C152.32 77.1737 152.25 77.1516 152.187 77.1169C152.124 77.0822 152.069 77.0356 152.024 76.9798C151.98 76.924 151.946 76.86 151.927 76.7916C151.907 76.7231 151.901 76.6515 151.91 76.5808C151.918 76.5101 151.94 76.4417 151.975 76.3796C152.011 76.3174 152.058 76.2627 152.114 76.2186C152.171 76.1744 152.236 76.1417 152.305 76.1222C152.374 76.1028 152.447 76.0971 152.519 76.1053C157 76.6062 161.53 75.7403 165.498 73.6239C169.467 71.5076 172.683 68.2424 174.714 64.2678C176.607 60.5809 177.389 56.4357 176.968 52.3235C176.894 51.5801 176.781 50.8409 176.631 50.1087C175.534 44.8343 172.495 40.1484 168.102 36.9564C163.708 33.7645 158.272 32.2931 152.843 32.8267C140.741 34.0176 131.883 44.6969 133.089 56.6374C133.481 60.5536 134.943 64.2911 137.32 67.4511C137.368 67.5149 137.401 67.5882 137.418 67.6659C137.443 67.7868 137.426 67.9126 137.369 68.0225C137.312 68.1324 137.218 68.2197 137.104 68.27C136.99 68.3203 136.862 68.3306 136.741 68.299C136.62 68.2675 136.513 68.1962 136.439 68.0968C134.417 65.4109 133.02 62.3185 132.347 59.0393C132.192 58.2856 132.074 57.5205 131.996 56.7442C130.73 44.2095 140.038 33.0013 152.735 31.7451C158.433 31.1869 164.139 32.7327 168.751 36.0838C173.362 39.435 176.551 44.3538 177.703 49.8902C177.861 50.6585 177.979 51.4341 178.058 52.2142C178.625 57.8396 177.059 63.4728 173.663 68.0252C170.267 72.5775 165.282 75.7258 159.671 76.8616V76.8591Z" fill="#91B3FA"/>
<g opacity="0.3">
<path d="M65.5466 116.446C65.3672 116.481 65.1808 116.459 65.0154 116.382C64.8499 116.304 64.7144 116.176 64.6289 116.016C64.2929 115.388 63.9721 114.741 63.6743 114.093C63.5852 113.891 63.58 113.663 63.6599 113.458C63.7398 113.253 63.8983 113.087 64.1012 112.996C64.304 112.905 64.5349 112.897 64.744 112.973C64.953 113.049 65.1234 113.203 65.2182 113.402C65.5021 114.019 65.8076 114.635 66.1283 115.235C66.1803 115.332 66.2124 115.438 66.2228 115.548C66.2331 115.657 66.2215 115.767 66.1887 115.872C66.1558 115.977 66.1023 116.075 66.0312 116.159C65.9602 116.244 65.8729 116.314 65.7745 116.365C65.7027 116.403 65.626 116.43 65.5466 116.446Z" fill="#7D97F4"/>
<path d="M63.044 110.502C62.8385 110.543 62.625 110.507 62.4447 110.402C62.2644 110.296 62.1301 110.128 62.0678 109.931C61.6977 108.759 61.3884 107.569 61.1412 106.365C61.089 106.114 61.0406 105.863 60.9935 105.604C60.961 105.387 61.0134 105.165 61.14 104.985C61.2667 104.804 61.4582 104.677 61.6757 104.631C61.8971 104.591 62.1253 104.64 62.3101 104.767C62.495 104.893 62.6216 105.087 62.6622 105.305C62.7067 105.549 62.7526 105.791 62.8022 106.033C63.0377 107.175 63.3355 108.319 63.6855 109.433C63.7525 109.645 63.7315 109.874 63.6272 110.071C63.5229 110.267 63.3438 110.415 63.1293 110.481L63.044 110.502ZM61.4772 101.96C61.4352 101.968 61.3926 101.973 61.3499 101.975C61.1261 101.986 60.9069 101.91 60.74 101.762C60.5731 101.615 60.4721 101.408 60.4589 101.187C60.373 99.7038 60.3794 98.2166 60.478 96.7339C60.4841 96.6234 60.5124 96.5152 60.5612 96.4155C60.61 96.3158 60.6783 96.2267 60.7623 96.1533C60.8462 96.0799 60.9441 96.0237 61.0502 95.9879C61.1563 95.952 61.2686 95.9374 61.3805 95.9447C61.4924 95.952 61.6017 95.9811 61.7021 96.0305C61.8025 96.0798 61.892 96.1483 61.9654 96.2319C62.0388 96.3156 62.0946 96.4129 62.1297 96.518C62.1648 96.6231 62.1783 96.7341 62.1696 96.8445C62.0758 98.2586 62.0699 99.677 62.1518 101.092C62.1621 101.291 62.0997 101.488 61.976 101.646C61.8523 101.804 61.6753 101.913 61.4772 101.954V101.96ZM62.0563 93.2918C61.9479 93.3126 61.8364 93.3126 61.7279 93.2918C61.6186 93.271 61.5145 93.2292 61.4216 93.1687C61.3286 93.1082 61.2487 93.0303 61.1863 92.9393C61.1239 92.8483 61.0802 92.7461 61.0579 92.6384C61.0355 92.5308 61.0348 92.4198 61.0559 92.312C61.3413 90.852 61.7179 89.4109 62.1836 87.9968C62.2147 87.8885 62.2676 87.7875 62.3391 87.6999C62.4106 87.6123 62.4994 87.5398 62.5999 87.4868C62.7005 87.4338 62.8109 87.4013 62.9245 87.3914C63.0381 87.3815 63.1525 87.3943 63.261 87.429C63.3694 87.4638 63.4697 87.5198 63.5557 87.5936C63.6417 87.6675 63.7117 87.7578 63.7616 87.859C63.8115 87.9602 63.8401 88.0703 63.8459 88.1827C63.8516 88.2951 63.8343 88.4074 63.795 88.5131C63.3515 89.8618 62.9927 91.2362 62.7207 92.6285C62.688 92.7904 62.6074 92.9391 62.4892 93.0558C62.3709 93.1725 62.2203 93.252 62.0563 93.2843V93.2918ZM64.7738 85.022C64.6199 85.0531 64.4602 85.0414 64.3127 84.988C64.1652 84.9347 64.0356 84.8418 63.9385 84.7199C63.8414 84.598 63.7806 84.4518 63.7629 84.2977C63.7452 84.1436 63.7713 83.9877 63.8383 83.8474C64.4775 82.5013 65.2002 81.1953 66.0021 79.9368C66.0597 79.8405 66.1363 79.7565 66.2274 79.6899C66.3184 79.6233 66.4221 79.5754 66.5322 79.549C66.6424 79.5227 66.7568 79.5184 66.8686 79.5364C66.9805 79.5544 67.0875 79.5944 67.1835 79.6539C67.2794 79.7135 67.3623 79.7915 67.4271 79.8832C67.492 79.9749 67.5376 80.0785 67.5612 80.1879C67.5848 80.2973 67.5859 80.4103 67.5645 80.5201C67.5431 80.63 67.4996 80.7345 67.4366 80.8274C66.6728 82.028 65.9842 83.2736 65.3746 84.5572C65.3182 84.6757 65.2346 84.7794 65.1302 84.8601C65.0259 84.9409 64.9038 84.9963 64.7738 85.022ZM69.4565 77.6655C69.2851 77.7005 69.1069 77.6823 68.9465 77.6132C68.786 77.5441 68.6512 77.4277 68.5606 77.2798C68.47 77.132 68.428 76.9601 68.4406 76.7877C68.4531 76.6154 68.5194 76.4511 68.6305 76.3176C69.5802 75.1683 70.6004 74.0775 71.6853 73.0513C71.8484 72.9026 72.0641 72.8229 72.2861 72.8295C72.5081 72.8361 72.7186 72.9284 72.8723 73.0865C73.0261 73.2447 73.1108 73.4561 73.1083 73.6753C73.1058 73.8945 73.0162 74.1039 72.8588 74.2586C71.8225 75.2396 70.8482 76.2826 69.9415 77.3816C69.8189 77.5279 69.649 77.6281 69.4604 77.6655H69.4565ZM75.8067 71.6557C75.6179 71.6937 75.4217 71.6672 75.2502 71.5804C75.0788 71.4937 74.9424 71.3519 74.8636 71.1784C74.7847 71.0049 74.7681 70.81 74.8164 70.626C74.8648 70.4419 74.9752 70.2796 75.1295 70.1658C76.3349 69.2773 77.5949 68.4633 78.9022 67.7287C79.0977 67.6189 79.3293 67.5902 79.5462 67.649C79.763 67.7078 79.9473 67.8492 80.0586 68.0421C80.1698 68.235 80.1988 68.4636 80.1393 68.6777C80.0797 68.8917 79.9365 69.0736 79.741 69.1834C78.4942 69.8841 77.2925 70.6603 76.1427 71.5074C76.0443 71.5803 75.9309 71.6309 75.8105 71.6557H75.8067ZM83.4437 67.3606C83.2372 67.4017 83.0226 67.3656 82.8417 67.2591C82.6608 67.1526 82.5266 66.9835 82.4651 66.7847C82.4036 66.5859 82.4193 66.3716 82.5091 66.1836C82.599 65.9956 82.7565 65.8473 82.9511 65.7677C84.3416 65.1981 85.7665 64.7139 87.2176 64.318C87.3249 64.2887 87.437 64.2806 87.5475 64.294C87.658 64.3075 87.7647 64.3423 87.8616 64.3965C87.9584 64.4507 88.0435 64.5232 88.112 64.6098C88.1805 64.6965 88.231 64.7956 88.2607 64.9015C88.2903 65.0074 88.2986 65.1181 88.2849 65.2271C88.2713 65.3362 88.236 65.4415 88.1811 65.5371C88.1262 65.6327 88.0527 65.7167 87.965 65.7843C87.8772 65.8518 87.7768 65.9017 87.6694 65.931C86.2843 66.3087 84.9241 66.7702 83.5964 67.3128C83.5505 67.3332 83.5028 67.3492 83.4538 67.3606H83.4437ZM96.3209 64.6735C96.2717 64.6828 96.2219 64.6883 96.1719 64.6898C94.9236 64.7201 93.6778 64.8165 92.44 64.9788C92.2516 65.0014 92.0671 65.0278 91.8838 65.0541C91.6615 65.0875 91.4349 65.0322 91.2538 64.9007C91.0728 64.7691 90.9521 64.5719 90.9183 64.3525C90.8846 64.1331 90.9405 63.9095 91.0738 63.7308C91.2071 63.5521 91.4069 63.433 91.6292 63.3997C91.8252 63.3708 92.0212 63.3431 92.2185 63.3193C93.5147 63.1498 94.819 63.0487 96.1261 63.0165C96.3388 63.01 96.5462 63.0827 96.7071 63.2201C96.868 63.3575 96.9706 63.5496 96.9947 63.7582C97.0187 63.9669 96.9624 64.1768 96.8368 64.3464C96.7113 64.5159 96.5258 64.6327 96.317 64.6735H96.3209Z" fill="#7D97F4"/>
</g>
<g opacity="0.3">
<path d="M104.787 134.459C104.574 134.488 104.359 134.436 104.184 134.314C104.009 134.192 103.887 134.01 103.842 133.803C103.798 133.596 103.835 133.38 103.946 133.199C104.056 133.017 104.232 132.884 104.438 132.826C105.818 132.531 107.178 132.153 108.511 131.695C108.723 131.622 108.957 131.636 109.159 131.733C109.361 131.83 109.517 132.002 109.59 132.212C109.664 132.421 109.65 132.651 109.552 132.851C109.454 133.051 109.28 133.204 109.067 133.277C107.668 133.755 106.241 134.15 104.794 134.46L104.787 134.459ZM100.5 135.111C100.469 135.111 100.44 135.121 100.408 135.125C98.9338 135.261 97.4526 135.309 95.9724 135.271C95.861 135.268 95.7514 135.243 95.6497 135.198C95.548 135.153 95.4562 135.089 95.3797 135.01C95.225 134.848 95.1415 134.633 95.1476 134.411C95.1537 134.189 95.2488 133.979 95.4121 133.826C95.5753 133.674 95.7934 133.591 96.0182 133.597C97.4309 133.634 98.8445 133.588 100.252 133.459C100.468 133.438 100.684 133.5 100.855 133.631C101.026 133.763 101.14 133.954 101.172 134.166C101.205 134.378 101.154 134.594 101.03 134.77C100.906 134.945 100.719 135.068 100.506 135.111H100.5ZM112.962 131.654C112.76 131.694 112.551 131.66 112.373 131.559C112.195 131.457 112.06 131.295 111.993 131.103C111.927 130.911 111.934 130.702 112.012 130.514C112.091 130.327 112.236 130.174 112.42 130.084C113.687 129.467 114.915 128.776 116.098 128.015C116.192 127.954 116.296 127.913 116.405 127.893C116.515 127.873 116.627 127.874 116.736 127.896C116.845 127.919 116.949 127.963 117.041 128.025C117.132 128.087 117.211 128.166 117.272 128.258C117.333 128.35 117.375 128.453 117.395 128.561C117.416 128.669 117.414 128.78 117.391 128.888C117.369 128.995 117.324 129.097 117.261 129.188C117.199 129.279 117.118 129.356 117.025 129.416C115.785 130.215 114.497 130.939 113.168 131.585C113.103 131.617 113.034 131.64 112.962 131.654ZM91.842 134.876C91.7452 134.896 91.6457 134.898 91.548 134.884C90.0824 134.666 88.6316 134.359 87.2039 133.967C87.0966 133.937 86.9964 133.887 86.9087 133.819C86.8211 133.751 86.7479 133.667 86.6932 133.572C86.6386 133.476 86.6035 133.37 86.5901 133.261C86.5767 133.152 86.5853 133.042 86.6152 132.936C86.6451 132.83 86.6958 132.731 86.7645 132.645C86.8332 132.558 86.9185 132.486 87.0154 132.432C87.1124 132.378 87.2192 132.343 87.3297 132.33C87.4402 132.317 87.5523 132.325 87.6595 132.355C89.0203 132.731 90.403 133.024 91.8 133.234C91.9969 133.264 92.1769 133.361 92.3085 133.508C92.4402 133.655 92.5151 133.844 92.5201 134.04C92.5251 134.237 92.4599 134.429 92.3359 134.582C92.2119 134.736 92.0371 134.842 91.842 134.881V134.876ZM120.208 126.982C120.024 127.019 119.831 126.995 119.662 126.913C119.493 126.83 119.357 126.695 119.274 126.527C119.192 126.36 119.169 126.17 119.208 125.988C119.248 125.806 119.347 125.642 119.492 125.522C120.572 124.624 121.596 123.662 122.558 122.642C122.713 122.489 122.923 122.401 123.143 122.397C123.362 122.393 123.575 122.474 123.736 122.622C123.896 122.769 123.993 122.973 124.005 123.189C124.017 123.405 123.944 123.618 123.8 123.782C122.79 124.85 121.717 125.856 120.585 126.797C120.477 126.889 120.348 126.953 120.208 126.982ZM126.107 120.731C125.939 120.765 125.765 120.747 125.608 120.682C125.45 120.616 125.316 120.505 125.224 120.363C125.132 120.221 125.085 120.055 125.09 119.886C125.095 119.718 125.152 119.554 125.253 119.418C126.083 118.291 126.844 117.117 127.533 115.901C127.586 115.801 127.657 115.713 127.745 115.641C127.832 115.57 127.933 115.516 128.042 115.484C128.151 115.451 128.265 115.441 128.378 115.453C128.491 115.465 128.6 115.499 128.699 115.554C128.798 115.608 128.885 115.682 128.955 115.77C129.025 115.859 129.076 115.96 129.105 116.069C129.135 116.177 129.142 116.29 129.126 116.401C129.11 116.512 129.072 116.619 129.014 116.715C128.293 117.992 127.494 119.224 126.623 120.407C126.498 120.575 126.314 120.69 126.107 120.731ZM130.32 113.264C130.17 113.293 130.015 113.282 129.871 113.232C129.727 113.182 129.6 113.094 129.502 112.979C129.404 112.863 129.34 112.723 129.316 112.574C129.292 112.425 129.31 112.273 129.366 112.133C129.901 110.842 130.354 109.52 130.724 108.175C130.752 108.067 130.801 107.966 130.869 107.877C130.937 107.789 131.022 107.714 131.119 107.658C131.216 107.602 131.324 107.566 131.435 107.552C131.547 107.537 131.66 107.545 131.769 107.574C131.877 107.603 131.979 107.653 132.068 107.722C132.156 107.79 132.23 107.875 132.285 107.972C132.34 108.069 132.375 108.175 132.388 108.286C132.401 108.396 132.391 108.508 132.36 108.614C131.971 110.023 131.496 111.408 130.937 112.76C130.884 112.887 130.801 113 130.694 113.088C130.587 113.175 130.46 113.236 130.323 113.264H130.32Z" fill="#7D97F4"/>
<path d="M83.4635 132.568C83.2978 132.602 83.1257 132.585 82.9697 132.521C82.3002 132.246 81.6358 131.949 80.9943 131.641C80.894 131.593 80.8043 131.526 80.7303 131.444C80.6563 131.361 80.5995 131.265 80.5631 131.161C80.5267 131.057 80.5114 130.947 80.5181 130.837C80.5249 130.727 80.5534 130.62 80.6022 130.521C80.651 130.422 80.7191 130.333 80.8026 130.26C80.8861 130.187 80.9833 130.131 81.0887 130.095C81.1942 130.059 81.3057 130.044 81.417 130.051C81.5284 130.057 81.6373 130.086 81.7376 130.134C82.3486 130.428 82.9824 130.71 83.6214 130.973C83.7891 131.042 83.9301 131.162 84.0235 131.316C84.1168 131.469 84.1577 131.649 84.14 131.827C84.1223 132.006 84.047 132.174 83.9253 132.307C83.8035 132.44 83.6416 132.531 83.4635 132.566V132.568Z" fill="#7D97F4"/>
</g>
<path d="M81.9757 121.837C82.0449 121.893 82.13 121.927 82.2193 121.933C82.3085 121.938 82.3973 121.917 82.4734 121.87L86.9207 119.163C89.1409 120.24 91.5244 120.952 93.9772 121.271L96.1601 125.952C96.1965 126.033 96.2579 126.101 96.3355 126.146C96.4132 126.191 96.5032 126.211 96.5929 126.203L102.83 125.59C102.92 125.583 103.005 125.547 103.074 125.489C103.143 125.431 103.191 125.353 103.212 125.266L104.416 120.252C106.755 119.461 108.947 118.3 110.907 116.813L115.807 118.6C115.891 118.631 115.982 118.635 116.068 118.613C116.155 118.59 116.231 118.542 116.289 118.475L120.26 113.69C120.316 113.621 120.35 113.537 120.356 113.449C120.361 113.361 120.34 113.273 120.293 113.198L117.55 108.809C118.64 106.617 119.361 104.265 119.685 101.844L124.428 99.69C124.51 99.6532 124.577 99.5922 124.621 99.5156C124.666 99.439 124.684 99.3506 124.675 99.2629L124.054 93.1073C124.047 93.0184 124.012 92.934 123.953 92.8662C123.894 92.7985 123.815 92.751 123.727 92.7305L118.646 91.5421C117.845 89.2337 116.668 87.0697 115.161 85.1353L116.972 80.2975C117.003 80.2153 117.008 80.1255 116.985 80.0406C116.962 79.9557 116.913 79.8799 116.845 79.8239L111.995 75.8944C111.926 75.8387 111.841 75.8056 111.752 75.7998C111.663 75.7939 111.575 75.8156 111.499 75.8617L107.052 78.5689C104.831 77.4927 102.447 76.7807 99.9939 76.4609L97.811 71.7802C97.7747 71.6988 97.7134 71.6306 97.6357 71.5855C97.558 71.5404 97.4679 71.5206 97.3782 71.5289L91.1414 72.142C91.0514 72.1499 90.9662 72.1854 90.8977 72.2436C90.8293 72.3017 90.7809 72.3795 90.7595 72.4661L89.5554 77.481C87.2168 78.2722 85.0243 79.4339 83.064 80.9206L78.1636 79.133C78.0801 79.1019 77.9889 79.0973 77.9027 79.1199C77.8164 79.1424 77.7395 79.1909 77.6825 79.2586L73.7125 84.0448C73.6559 84.1129 73.6223 84.1967 73.6164 84.2846C73.6104 84.3724 73.6325 84.4599 73.6794 84.5348L76.4211 88.9241C75.3306 91.116 74.6096 93.4689 74.2866 95.8899L69.544 98.0443C69.4616 98.0799 69.3926 98.1402 69.3469 98.2166C69.3012 98.2931 69.2811 98.3818 69.2894 98.4702L69.9106 104.626C69.9194 104.713 69.9558 104.796 70.0147 104.862C70.0736 104.929 70.152 104.975 70.239 104.995L75.3188 106.185C76.1205 108.493 77.2976 110.657 78.8038 112.592L76.9926 117.428C76.9613 117.51 76.9568 117.6 76.9796 117.686C77.0024 117.771 77.0514 117.847 77.1199 117.903L81.9757 121.837Z" fill="#BFE3FF"/>
<path d="M98.2489 105.073C96.6159 105.395 94.92 105.08 93.5175 104.194C92.1151 103.308 91.1154 101.919 90.7286 100.321C90.3419 98.7222 90.5983 97.0378 91.4438 95.6218C92.2894 94.2058 93.6582 93.1686 95.2626 92.7281C96.867 92.2877 98.5819 92.4783 100.047 93.26C101.512 94.0416 102.613 95.3534 103.118 96.9195C103.623 98.4857 103.493 100.184 102.756 101.658C102.019 103.132 100.731 104.266 99.1641 104.822C98.8655 104.927 98.5597 105.011 98.2489 105.073ZM96.0507 94.3033C95.8243 94.3495 95.6015 94.4112 95.3838 94.488C94.2153 94.9135 93.2648 95.7778 92.7395 96.8924C92.2143 98.007 92.157 99.2813 92.5801 100.437C93.0032 101.594 93.8724 102.538 94.9981 103.064C96.1237 103.59 97.4145 103.655 98.5887 103.245C99.7091 102.846 100.635 102.043 101.18 100.998C101.725 99.9527 101.85 98.7426 101.529 97.6106C101.207 96.4786 100.464 95.5084 99.4479 94.895C98.4318 94.2815 97.2182 94.0701 96.0507 94.3033Z" fill="#91B3FA"/>
<path d="M100.248 114.209C99.7222 114.313 99.1868 114.393 98.642 114.448C97.5604 114.557 96.4703 114.557 95.3887 114.448L95.2436 114.432C95.1307 114.422 95.0208 114.391 94.9205 114.338C94.8203 114.286 94.7316 114.215 94.6598 114.128C94.5879 114.042 94.5344 113.942 94.5023 113.835C94.4703 113.728 94.4603 113.615 94.4731 113.504C94.4859 113.393 94.5211 113.285 94.5767 113.188C94.6323 113.09 94.7071 113.005 94.7967 112.936C94.8863 112.868 94.989 112.818 95.0985 112.789C95.2081 112.761 95.3223 112.754 95.4345 112.77C96.4437 112.883 97.4622 112.889 98.4727 112.789L98.6382 112.771C100.991 112.521 103.243 111.691 105.187 110.358C106.244 109.632 107.197 108.77 108.02 107.794L108.041 107.77L108.102 107.696C109.294 106.267 110.187 104.619 110.73 102.848C111.272 101.076 111.453 99.2158 111.262 97.3746C111.212 96.8897 111.139 96.4119 111.043 95.9413C110.308 92.4044 108.224 89.2813 105.223 87.2165C102.223 85.1517 98.5329 84.3028 94.9162 84.845C91.2994 85.3872 88.0317 87.2792 85.7873 90.1304C83.543 92.9816 82.4934 96.5744 82.8551 100.167C82.9022 100.642 82.9744 101.114 83.0715 101.582C83.4855 103.604 84.347 105.511 85.5943 107.167C85.6606 107.255 85.7087 107.356 85.7358 107.462C85.7629 107.569 85.7684 107.68 85.7521 107.788C85.7358 107.897 85.698 108.002 85.6407 108.096C85.5835 108.19 85.508 108.272 85.4186 108.338C85.3292 108.403 85.2276 108.451 85.1196 108.477C85.0115 108.504 84.8992 108.51 84.7891 108.494C84.6789 108.478 84.5731 108.44 84.4776 108.384C84.382 108.327 84.2987 108.253 84.2323 108.164C82.809 106.27 81.8347 104.084 81.3813 101.768C80.9279 99.4515 81.007 97.0646 81.6127 94.7828C82.2184 92.501 83.3352 90.3824 84.881 88.5833C86.4267 86.7843 88.3618 85.3505 90.5437 84.3878C92.7256 83.4251 95.0986 82.958 97.4877 83.021C99.8768 83.084 102.221 83.6753 104.348 84.7516C106.475 85.8278 108.33 87.3614 109.776 89.2393C111.222 91.1172 112.223 93.2916 112.704 95.6021C112.813 96.1324 112.895 96.6678 112.949 97.2063C113.768 105.307 108.177 112.615 100.248 114.209Z" fill="#91B3FA"/>
<path d="M86.6753 240.838C86.6753 240.838 86.5225 240.167 86.2807 238.925C86.234 238.683 86.2581 238.432 86.3503 238.203C86.4425 237.973 86.5989 237.775 86.8012 237.63C87.0036 237.485 87.2435 237.4 87.493 237.384C87.7425 237.369 87.9913 237.424 88.2103 237.543C88.5145 237.049 88.8645 236.493 89.2578 235.89C89.3498 235.743 89.4706 235.615 89.6132 235.514C89.7558 235.413 89.9174 235.342 90.0884 235.304C90.2593 235.265 90.4363 235.261 90.609 235.291C90.7816 235.321 90.9465 235.385 91.0938 235.479C91.2411 235.573 91.368 235.695 91.467 235.838C91.566 235.98 91.635 236.141 91.6702 236.311C91.7054 236.48 91.7059 236.655 91.6717 236.825C91.6376 236.995 91.5694 237.156 91.4713 237.299C90.3601 238.999 89.6384 240.265 89.2909 240.873C89.1917 241.048 89.1229 241.169 89.0847 241.229L87.3931 243.966L86.6753 240.838ZM85.1886 232.446C84.8768 230.317 84.598 228.129 84.3613 225.943C84.3394 225.771 84.3524 225.597 84.3995 225.431C84.4466 225.264 84.5269 225.109 84.6356 224.973C84.7443 224.838 84.8793 224.725 85.0327 224.642C85.1861 224.558 85.3548 224.506 85.5289 224.488C85.7031 224.469 85.8792 224.486 86.0469 224.535C86.2147 224.585 86.3707 224.667 86.5059 224.777C86.641 224.887 86.7527 225.022 86.8342 225.175C86.9157 225.328 86.9656 225.496 86.9808 225.668C87.215 227.82 87.4899 229.977 87.7954 232.075C87.8227 232.245 87.8155 232.418 87.7744 232.585C87.7332 232.752 87.6588 232.91 87.5556 233.049C87.4523 233.187 87.3222 233.304 87.1728 233.393C87.0234 233.481 86.8577 233.54 86.6852 233.565C86.5127 233.59 86.3369 233.581 86.1681 233.538C85.9992 233.495 85.8406 233.42 85.7014 233.317C85.5622 233.213 85.4451 233.083 85.3571 232.935C85.2691 232.786 85.2118 232.622 85.1886 232.452V232.446ZM93.3754 232.312C93.1009 232.099 92.9233 231.787 92.8818 231.445C92.8403 231.102 92.9382 230.758 93.154 230.487C94.5365 228.744 96.0086 227.072 97.5643 225.478C97.6831 225.35 97.8267 225.247 97.9866 225.175C98.1464 225.103 98.3193 225.063 98.4951 225.057C98.6708 225.052 98.8459 225.081 99.0099 225.144C99.174 225.206 99.3237 225.301 99.4502 225.421C99.5767 225.542 99.6775 225.686 99.7467 225.846C99.8158 226.005 99.8518 226.177 99.8527 226.35C99.8536 226.524 99.8193 226.696 99.7517 226.856C99.6842 227.016 99.5849 227.162 99.4596 227.283C97.9657 228.814 96.5523 230.42 95.2249 232.093C95.118 232.228 94.9854 232.34 94.8347 232.424C94.6839 232.507 94.5178 232.561 94.3461 232.581C94.1743 232.602 94.0002 232.588 93.8336 232.542C93.6671 232.496 93.5114 232.418 93.3754 232.312ZM102.339 222.801C102.23 222.668 102.149 222.515 102.1 222.352C102.052 222.188 102.036 222.016 102.055 221.846C102.073 221.677 102.125 221.512 102.209 221.362C102.292 221.212 102.404 221.08 102.539 220.973C104.299 219.567 106.166 218.297 108.125 217.174C108.275 217.089 108.44 217.034 108.611 217.012C108.783 216.989 108.957 217.001 109.124 217.045C109.291 217.089 109.448 217.165 109.585 217.269C109.722 217.373 109.837 217.503 109.923 217.651C110.01 217.798 110.066 217.962 110.088 218.131C110.111 218.3 110.1 218.472 110.055 218.637C110.01 218.802 109.933 218.956 109.827 219.091C109.722 219.227 109.591 219.34 109.441 219.426C107.6 220.481 105.845 221.676 104.191 222.998C103.919 223.215 103.571 223.315 103.223 223.278C102.876 223.241 102.558 223.07 102.339 222.801ZM83.7745 219.419C83.6167 217.226 83.4996 215.022 83.427 212.876C83.4161 212.702 83.4406 212.528 83.499 212.364C83.5574 212.2 83.6486 212.049 83.7672 211.92C83.8858 211.792 84.0293 211.688 84.1892 211.615C84.3492 211.542 84.5224 211.501 84.6986 211.495C84.8747 211.49 85.0502 211.519 85.2147 211.581C85.3792 211.644 85.5293 211.738 85.6562 211.859C85.7831 211.98 85.8841 212.124 85.9534 212.284C86.0226 212.444 86.0586 212.616 86.0592 212.79C86.1318 214.906 86.2463 217.074 86.4016 219.235C86.4261 219.578 86.3113 219.918 86.0824 220.178C85.8535 220.438 85.5293 220.598 85.181 220.623C85.0897 220.63 84.9979 220.627 84.9073 220.614C84.609 220.573 84.3339 220.433 84.1278 220.216C83.9216 219.999 83.797 219.719 83.7745 219.423V219.419ZM113.512 216.016C113.455 215.855 113.431 215.684 113.442 215.513C113.452 215.343 113.497 215.176 113.573 215.023C113.648 214.869 113.754 214.732 113.884 214.619C114.013 214.506 114.164 214.419 114.327 214.363C115.869 213.836 117.449 213.427 119.055 213.141C119.68 213.03 120.282 212.912 120.866 212.786C121.207 212.713 121.564 212.777 121.858 212.963C122.152 213.15 122.359 213.444 122.433 213.781C122.508 214.118 122.443 214.47 122.254 214.76C122.065 215.05 121.767 215.254 121.426 215.328C120.812 215.46 120.175 215.586 119.517 215.705C118.047 215.967 116.6 216.342 115.189 216.824C115.026 216.88 114.853 216.904 114.68 216.894C114.507 216.884 114.338 216.84 114.182 216.766C114.027 216.691 113.887 216.587 113.772 216.459C113.658 216.332 113.569 216.183 113.513 216.021L113.512 216.016ZM139.359 217.173C139.365 216.923 139.444 216.68 139.587 216.473C139.729 216.266 139.93 216.104 140.163 216.006C140.756 214.972 141.631 214.043 142.849 213.127C143.127 212.918 143.477 212.826 143.823 212.873C144.169 212.919 144.482 213.098 144.694 213.372C144.906 213.646 144.998 213.992 144.952 214.334C144.905 214.675 144.723 214.984 144.445 215.193C142.969 216.305 142.219 217.343 141.935 218.667L139.33 218.364L139.359 217.173ZM126.219 212.682C126.155 212.524 126.124 212.354 126.126 212.183C126.128 212.013 126.164 211.844 126.233 211.687C126.301 211.531 126.4 211.389 126.524 211.27C126.648 211.151 126.795 211.057 126.955 210.994C129.046 210.171 130.882 209.182 132.408 208.054C132.688 207.856 133.036 207.773 133.377 207.825C133.718 207.877 134.025 208.059 134.231 208.331C134.438 208.604 134.528 208.945 134.482 209.283C134.436 209.62 134.258 209.926 133.986 210.136C132.274 211.401 130.237 212.502 127.93 213.409C127.769 213.473 127.598 213.504 127.425 213.502C127.252 213.499 127.081 213.463 126.922 213.396C126.763 213.328 126.619 213.23 126.499 213.108C126.378 212.986 126.283 212.841 126.219 212.682ZM83.3252 206.323C83.3367 204.128 83.3939 201.926 83.4945 199.769C83.5114 199.425 83.6662 199.101 83.925 198.869C84.1837 198.637 84.5252 198.516 84.8742 198.533C85.2233 198.55 85.5513 198.703 85.7862 198.958C86.0211 199.213 86.1436 199.55 86.1267 199.895C86.0261 202.013 85.9701 204.181 85.9587 206.341C85.9464 206.678 85.8013 206.998 85.5543 207.232C85.3072 207.466 84.9775 207.596 84.6351 207.594C84.2927 207.592 83.9645 207.459 83.72 207.222C83.4755 206.986 83.3339 206.665 83.3252 206.327V206.323ZM139.457 210.672C139.477 208.16 139.471 205.983 139.437 204.191C139.429 204.018 139.456 203.845 139.517 203.682C139.579 203.52 139.672 203.371 139.792 203.244C139.913 203.118 140.057 203.017 140.218 202.946C140.378 202.876 140.552 202.838 140.727 202.834C140.903 202.831 141.077 202.863 141.241 202.927C141.404 202.991 141.552 203.087 141.677 203.208C141.803 203.33 141.902 203.475 141.969 203.636C142.037 203.796 142.071 203.968 142.07 204.141C142.104 205.957 142.112 208.161 142.09 210.694C142.089 210.864 142.054 211.033 141.986 211.19C141.919 211.348 141.821 211.49 141.697 211.61C141.574 211.73 141.428 211.824 141.268 211.889C141.107 211.953 140.936 211.985 140.763 211.984C140.706 211.983 140.649 211.978 140.592 211.971C140.277 211.926 139.989 211.771 139.781 211.533C139.573 211.294 139.46 210.99 139.462 210.676L139.457 210.672ZM148.112 211.42C148.026 211.272 147.969 211.108 147.947 210.939C147.924 210.77 147.936 210.598 147.981 210.433C148.025 210.268 148.103 210.113 148.208 209.978C148.313 209.842 148.445 209.729 148.595 209.643C150.264 208.691 152.086 207.622 154.083 206.258C154.37 206.078 154.717 206.015 155.05 206.082C155.383 206.148 155.677 206.34 155.871 206.615C156.065 206.891 156.143 207.23 156.089 207.562C156.035 207.893 155.854 208.191 155.582 208.393C153.508 209.81 151.637 210.906 149.911 211.893C149.608 212.065 149.249 212.111 148.912 212.022C148.575 211.933 148.287 211.715 148.112 211.417V211.42ZM136.943 205.458C136.643 205.282 136.426 204.995 136.34 204.661C136.254 204.328 136.305 203.974 136.484 203.677C137.563 201.882 137.991 200.23 138.273 199.137C138.393 198.676 138.495 198.303 138.596 198.036C138.644 197.912 138.698 197.791 138.758 197.673C138.839 197.524 138.948 197.392 139.081 197.286C139.214 197.179 139.366 197.1 139.53 197.052C139.694 197.005 139.866 196.99 140.036 197.009C140.206 197.028 140.371 197.08 140.52 197.163C140.829 197.332 141.059 197.615 141.16 197.95C141.261 198.285 141.225 198.646 141.059 198.955C140.984 199.154 140.916 199.436 140.826 199.782C140.525 200.944 140.022 202.888 138.749 205.004C138.661 205.151 138.544 205.279 138.406 205.382C138.267 205.484 138.109 205.558 137.941 205.601C137.774 205.643 137.599 205.652 137.428 205.627C137.256 205.603 137.092 205.545 136.943 205.458ZM83.9616 193.227C84.1449 191.276 84.3702 189.332 84.6337 187.448L84.738 186.711C84.7873 186.37 84.9712 186.063 85.2496 185.856C85.528 185.649 85.8782 185.559 86.2234 185.606C86.3946 185.63 86.5593 185.688 86.7081 185.774C86.857 185.861 86.987 185.976 87.0908 186.113C87.1946 186.249 87.2701 186.405 87.313 186.57C87.3559 186.735 87.3654 186.907 87.341 187.076L87.2379 187.802C86.9833 189.649 86.7593 191.557 86.5786 193.472C86.5463 193.815 86.3772 194.132 86.1084 194.352C85.8396 194.572 85.4932 194.678 85.1453 194.646L85.0868 194.639C84.7511 194.592 84.4466 194.419 84.237 194.156C84.0274 193.893 83.9287 193.56 83.9616 193.227ZM159.036 204.204C158.806 203.944 158.69 203.604 158.714 203.26C158.738 202.916 158.899 202.595 159.163 202.368C160.782 200.975 162.328 199.5 163.795 197.95C164.033 197.699 164.363 197.551 164.712 197.539C165.061 197.528 165.4 197.653 165.656 197.889C165.911 198.124 166.06 198.45 166.072 198.794C166.084 199.139 165.956 199.474 165.718 199.725C164.19 201.341 162.579 202.878 160.891 204.331C160.628 204.557 160.285 204.671 159.936 204.647C159.588 204.623 159.264 204.464 159.034 204.205L159.036 204.204ZM168.219 194.924C168.083 194.819 167.969 194.689 167.883 194.54C167.798 194.392 167.743 194.228 167.722 194.059C167.701 193.889 167.714 193.717 167.76 193.553C167.806 193.388 167.885 193.234 167.991 193.1C168.275 192.742 168.56 192.378 168.844 192.006C169.853 190.689 170.785 189.317 171.637 187.897C171.816 187.604 172.106 187.393 172.442 187.31C172.779 187.226 173.135 187.277 173.433 187.451C173.732 187.626 173.949 187.909 174.037 188.24C174.125 188.571 174.078 188.923 173.905 189.219C173.003 190.725 172.015 192.179 170.945 193.574C170.651 193.95 170.359 194.327 170.067 194.704C169.961 194.839 169.829 194.951 169.678 195.036C169.528 195.12 169.362 195.174 169.19 195.194C169.018 195.215 168.844 195.202 168.678 195.157C168.511 195.111 168.355 195.033 168.219 194.928V194.924ZM86.8955 181.76C86.5531 181.691 86.2522 181.492 86.0587 181.205C85.8653 180.918 85.7949 180.567 85.8632 180.229C86.3062 178.048 86.8153 175.892 87.3741 173.822C87.4185 173.657 87.4955 173.502 87.6005 173.366C87.7056 173.231 87.8366 173.117 87.9863 173.031C88.1359 172.946 88.3012 172.89 88.4726 172.867C88.644 172.845 88.8183 172.856 88.9855 172.9C89.1526 172.943 89.3094 173.019 89.4468 173.123C89.5842 173.227 89.6996 173.356 89.7863 173.504C89.8731 173.652 89.9295 173.815 89.9524 173.984C89.9753 174.153 89.9642 174.325 89.9197 174.49C89.3762 176.51 88.8798 178.613 88.4471 180.742C88.3814 181.067 88.1929 181.354 87.9199 181.546C87.6469 181.737 87.3101 181.819 86.9782 181.774L86.8955 181.76ZM175.188 183.938C174.864 183.809 174.605 183.559 174.468 183.242C174.331 182.925 174.327 182.567 174.457 182.247C175.25 180.297 175.893 178.29 176.379 176.244C176.465 175.914 176.678 175.631 176.972 175.455C177.267 175.279 177.62 175.223 177.956 175.301C178.291 175.378 178.582 175.583 178.767 175.87C178.952 176.157 179.015 176.504 178.944 176.837C178.429 179.011 177.748 181.144 176.907 183.217C176.797 183.485 176.6 183.71 176.347 183.855C176.093 184.001 175.798 184.058 175.507 184.02C175.398 184.006 175.29 183.979 175.188 183.938ZM90.1297 169.165C89.7992 169.053 89.5272 168.816 89.3735 168.506C89.2198 168.197 89.197 167.839 89.31 167.513C90.0406 165.407 90.8489 163.336 91.7131 161.357C91.8549 161.046 92.1153 160.802 92.438 160.678C92.7607 160.554 93.1197 160.561 93.4375 160.696C93.7552 160.832 94.0062 161.085 94.1361 161.402C94.2659 161.719 94.2643 162.073 94.1315 162.389C93.294 164.306 92.5099 166.314 91.801 168.358C91.702 168.643 91.5059 168.885 91.2462 169.044C90.9864 169.202 90.6791 169.266 90.3767 169.225C90.2926 169.213 90.2099 169.193 90.1297 169.165ZM177.377 170.015C177.556 167.915 177.588 165.805 177.472 163.7C177.454 163.356 177.574 163.018 177.807 162.762C178.041 162.505 178.368 162.35 178.717 162.332C179.066 162.313 179.408 162.432 179.668 162.662C179.928 162.892 180.084 163.215 180.103 163.559C180.226 165.784 180.192 168.015 180.002 170.235C179.987 170.405 179.939 170.571 179.859 170.723C179.78 170.874 179.671 171.009 179.538 171.119C179.406 171.229 179.253 171.313 179.088 171.365C178.923 171.416 178.75 171.435 178.577 171.421L178.509 171.412C178.175 171.367 177.871 171.196 177.66 170.937C177.45 170.677 177.348 170.347 177.377 170.015ZM95.1612 157.173C94.8539 157.01 94.6249 156.733 94.5244 156.403C94.4239 156.073 94.4602 155.717 94.6254 155.414C95.6945 153.454 96.8554 151.546 98.076 149.742C98.2698 149.455 98.571 149.256 98.9134 149.189C99.2558 149.121 99.6114 149.191 99.9019 149.382C100.192 149.573 100.394 149.871 100.462 150.209C100.531 150.547 100.46 150.898 100.267 151.184C99.093 152.92 97.9754 154.76 96.9457 156.646C96.8184 156.88 96.6218 157.07 96.3822 157.19C96.1427 157.31 95.8716 157.355 95.6054 157.319C95.4498 157.296 95.2995 157.247 95.1612 157.173ZM176.691 157.437C176.076 154.322 175.309 152.268 175.062 151.784L173.379 149.436C173.274 149.297 173.197 149.138 173.155 148.969C173.113 148.801 173.105 148.625 173.133 148.454C173.16 148.282 173.222 148.118 173.315 147.97C173.408 147.823 173.53 147.695 173.674 147.595C173.818 147.495 173.98 147.424 174.152 147.387C174.324 147.35 174.502 147.347 174.675 147.379C174.848 147.41 175.013 147.476 175.16 147.572C175.307 147.667 175.433 147.791 175.53 147.936L177.173 150.23L177.154 150.242C178.249 151.784 179.266 156.883 179.276 156.939C179.343 157.277 179.271 157.628 179.076 157.914C178.881 158.2 178.579 158.398 178.236 158.464C178.094 158.492 177.948 158.495 177.805 158.476C177.531 158.438 177.277 158.318 177.077 158.13C176.877 157.942 176.742 157.698 176.691 157.43V157.437ZM102.259 146.256C101.99 146.036 101.82 145.72 101.787 145.377C101.755 145.033 101.861 144.691 102.084 144.426C103.513 142.721 105.035 141.094 106.642 139.552C106.893 139.315 107.229 139.186 107.577 139.192C107.924 139.199 108.255 139.34 108.497 139.586C108.739 139.832 108.873 140.163 108.869 140.506C108.865 140.848 108.725 141.176 108.478 141.417C106.939 142.894 105.482 144.452 104.113 146.084C103.89 146.349 103.57 146.517 103.222 146.549C102.874 146.581 102.528 146.476 102.259 146.256ZM111.481 137.02C111.375 136.885 111.297 136.731 111.251 136.567C111.205 136.402 111.193 136.23 111.214 136.061C111.236 135.891 111.291 135.728 111.376 135.579C111.462 135.431 111.576 135.301 111.713 135.196C113.484 133.839 115.327 132.578 117.236 131.419C117.383 131.329 117.547 131.269 117.718 131.242C117.889 131.215 118.063 131.222 118.231 131.261C118.4 131.301 118.559 131.373 118.699 131.473C118.839 131.573 118.958 131.699 119.048 131.845C119.139 131.99 119.2 132.152 119.227 132.32C119.255 132.489 119.248 132.661 119.208 132.827C119.168 132.993 119.095 133.15 118.994 133.288C118.892 133.427 118.764 133.544 118.617 133.633C116.789 134.743 115.024 135.95 113.33 137.249C113.054 137.46 112.704 137.555 112.358 137.512C112.011 137.469 111.696 137.292 111.481 137.02ZM169.577 144.134L165.774 138.828C165.571 138.546 165.49 138.197 165.549 137.856C165.608 137.516 165.801 137.212 166.086 137.012C166.372 136.812 166.726 136.732 167.071 136.79C167.416 136.848 167.724 137.039 167.926 137.32L171.728 142.627C171.931 142.908 172.012 143.258 171.953 143.598C171.895 143.939 171.702 144.242 171.416 144.442C171.131 144.642 170.777 144.722 170.432 144.664C170.087 144.606 169.78 144.416 169.577 144.134ZM122.513 129.983C122.438 129.829 122.394 129.662 122.385 129.492C122.375 129.321 122.399 129.15 122.457 128.989C122.514 128.828 122.603 128.68 122.718 128.553C122.833 128.425 122.973 128.322 123.129 128.248C125.099 127.315 127.178 126.449 129.306 125.679C129.469 125.617 129.643 125.587 129.818 125.592C129.993 125.597 130.165 125.636 130.324 125.707C130.484 125.778 130.627 125.88 130.746 126.007C130.865 126.133 130.958 126.282 131.018 126.444C131.078 126.606 131.105 126.778 131.097 126.951C131.089 127.123 131.047 127.292 130.972 127.448C130.897 127.604 130.791 127.744 130.661 127.859C130.531 127.975 130.379 128.063 130.214 128.12C128.164 128.861 126.165 129.694 124.271 130.591C124.115 130.665 123.946 130.708 123.773 130.718C123.6 130.727 123.427 130.703 123.264 130.646C123.101 130.59 122.951 130.502 122.822 130.388C122.693 130.275 122.588 130.137 122.513 129.983ZM161.971 133.52L158.169 128.214C158.068 128.075 157.997 127.917 157.958 127.75C157.92 127.584 157.915 127.411 157.944 127.243C157.973 127.074 158.035 126.913 158.127 126.768C158.219 126.623 158.339 126.498 158.481 126.399C158.622 126.3 158.781 126.229 158.95 126.191C159.119 126.153 159.294 126.148 159.465 126.177C159.636 126.205 159.799 126.267 159.946 126.358C160.092 126.449 160.22 126.567 160.32 126.707L164.122 132.014C164.324 132.296 164.405 132.645 164.347 132.986C164.288 133.326 164.095 133.629 163.81 133.829C163.525 134.029 163.171 134.109 162.826 134.051C162.481 133.994 162.173 133.803 161.971 133.522V133.52ZM134.759 125.264C134.714 125.1 134.702 124.928 134.724 124.758C134.746 124.589 134.802 124.426 134.889 124.278C134.975 124.13 135.09 124.001 135.227 123.897C135.364 123.793 135.521 123.717 135.688 123.673C137.784 123.116 139.976 122.625 142.204 122.214C142.547 122.152 142.901 122.227 143.188 122.422C143.475 122.617 143.672 122.917 143.736 123.255C143.8 123.593 143.725 123.943 143.529 124.227C143.332 124.511 143.029 124.707 142.686 124.771C140.522 125.169 138.403 125.65 136.373 126.181C136.203 126.227 136.026 126.239 135.852 126.215C135.595 126.181 135.355 126.072 135.16 125.903C134.966 125.733 134.826 125.511 134.759 125.264ZM147.642 122.683C147.623 122.513 147.637 122.341 147.685 122.177C147.732 122.013 147.812 121.86 147.92 121.726C148.028 121.593 148.161 121.481 148.312 121.399C148.464 121.316 148.63 121.264 148.802 121.244C150.902 121.007 153.083 120.827 155.281 120.712L156.006 120.674L156.515 121.39C156.68 121.621 156.764 121.899 156.755 122.182C156.745 122.465 156.643 122.736 156.462 122.956C156.282 123.176 156.034 123.332 155.756 123.4C155.478 123.469 155.185 123.446 154.922 123.335C152.945 123.448 150.987 123.612 149.096 123.827C148.987 123.84 148.877 123.84 148.768 123.827C148.479 123.787 148.212 123.653 148.008 123.447C147.804 123.241 147.676 122.974 147.642 122.688V122.683Z" fill="white"/>
<path d="M166.395 140.181C166.395 140.181 174.457 167.862 154.505 175.896C134.554 183.93 112.405 187.145 108.429 196.352C108.429 196.352 103.366 140.253 159.564 132.581L166.395 140.181Z" fill="url(#paint1_linear_402_253)"/>
<path d="M226.296 126.612C226.296 126.612 243.352 149.334 239.226 158.009C235.301 166.263 184.45 206.015 179.498 209.876C179.391 209.958 179.256 209.998 179.12 209.986C178.985 209.975 178.859 209.913 178.768 209.813C177.982 208.976 177.408 207.968 177.092 206.871C176.775 205.773 176.726 204.618 176.948 203.498C179.125 192.516 185.908 159.781 191.174 150.532C197.53 139.364 226.296 126.612 226.296 126.612Z" fill="url(#paint2_linear_402_253)"/>
<path d="M195.096 192.796C195.187 192.809 195.278 192.803 195.366 192.779C195.454 192.754 195.535 192.712 195.606 192.655C195.882 192.432 223.353 170.185 234.795 160.154C235.792 159.281 236.511 158.141 236.865 156.873C237.218 155.604 237.19 154.262 236.785 153.009C235.478 148.979 232.669 141.17 228.544 134.147C228.456 133.997 228.312 133.888 228.142 133.843C227.973 133.798 227.793 133.822 227.641 133.908C227.489 133.995 227.378 134.137 227.332 134.304C227.287 134.471 227.311 134.649 227.398 134.799C231.46 141.716 234.233 149.424 235.524 153.404C235.852 154.418 235.874 155.504 235.588 156.53C235.302 157.555 234.721 158.477 233.914 159.183C222.488 169.196 195.039 191.429 194.764 191.652C194.665 191.731 194.591 191.838 194.552 191.959C194.513 192.08 194.511 192.209 194.546 192.331C194.581 192.452 194.651 192.562 194.748 192.644C194.845 192.727 194.964 192.781 195.091 192.797L195.096 192.796Z" fill="white"/>
<path d="M181.085 78.3942C181.085 78.3942 159.447 59.8522 150.367 63.2415C141.726 66.465 97.6342 113.427 93.3524 118.002C93.2599 118.1 93.2085 118.229 93.2085 118.363C93.2085 118.497 93.2599 118.626 93.3524 118.724C94.1369 119.562 95.1106 120.205 96.1944 120.601C97.2781 120.997 98.4413 121.135 99.5893 121.003C110.851 119.712 144.444 115.57 154.194 111.103C165.977 105.707 181.085 78.3942 181.085 78.3942Z" fill="url(#paint3_linear_402_253)"/>
<path d="M112.378 104.578C112.481 104.592 112.586 104.582 112.684 104.548C112.783 104.515 112.872 104.459 112.944 104.385C113.191 104.133 137.772 78.8415 148.772 68.3721C149.547 67.6334 150.523 67.1328 151.581 66.9307C152.639 66.7287 153.734 66.834 154.732 67.2339C158.652 68.813 166.227 72.1332 172.898 76.6695C172.969 76.7218 173.05 76.7594 173.136 76.7801C173.222 76.8007 173.311 76.8041 173.399 76.7899C173.486 76.7757 173.569 76.7442 173.644 76.6974C173.719 76.6506 173.783 76.5893 173.834 76.5174C173.884 76.4454 173.919 76.3642 173.936 76.2786C173.954 76.1929 173.954 76.1047 173.936 76.0191C173.919 75.9335 173.884 75.8523 173.833 75.7803C173.783 75.7084 173.719 75.6472 173.644 75.6004C167.211 71.2287 160.079 67.9839 155.23 66.0304C153.995 65.535 152.641 65.4041 151.332 65.6536C150.024 65.9031 148.817 66.5224 147.858 67.4362C136.839 77.9232 112.24 103.23 111.993 103.484C111.909 103.57 111.85 103.678 111.824 103.794C111.798 103.911 111.805 104.033 111.844 104.146C111.884 104.26 111.954 104.36 112.048 104.436C112.142 104.512 112.255 104.561 112.375 104.578H112.378Z" fill="white"/>
<path d="M296.674 61.8345C289.141 75.2007 279.529 87.3168 268.188 97.7403C229.396 133.377 194.638 152.949 184.604 158.253C183.713 158.719 182.71 158.94 181.702 158.892C180.694 158.844 179.718 158.528 178.876 157.979C165.294 149.219 154.503 137.889 146.505 123.988C145.769 122.702 145.406 121.241 145.456 119.764C145.505 118.288 145.964 116.854 146.783 115.618C154 104.689 176.174 73.2927 213.494 39.4044C224.821 29.1214 237.704 20.6447 251.678 14.2797C274.905 28.3885 289.246 49.4455 296.674 61.8345Z" fill="url(#paint4_linear_402_253)"/>
<path d="M251.677 14.2822C279.438 1.60299 304.345 0.25882 312.69 0.201033C313.074 0.197693 313.456 0.273727 313.809 0.424256C314.162 0.574785 314.479 0.796485 314.74 1.07515C315.002 1.35381 315.201 1.68328 315.326 2.04243C315.45 2.40158 315.498 2.78249 315.465 3.16073C314.762 11.3376 311.497 35.6031 296.674 61.8345C289.246 49.4455 274.905 28.3885 251.677 14.2822Z" fill="url(#paint5_linear_402_253)"/>
<path d="M225.312 46.948C215.238 56.1499 215.182 72.2611 225.185 82.9329C235.188 93.6046 251.471 94.798 261.546 85.5961C271.62 76.3941 271.676 60.2817 261.673 49.6099C251.67 38.9382 235.388 37.746 225.312 46.948Z" fill="#FF7600"/>
<path d="M228.997 49.8676C220.969 57.199 220.924 70.0377 228.899 78.5412C236.873 87.0447 249.843 87.9944 257.872 80.668C265.901 73.3416 265.944 60.4979 257.97 51.9931C249.996 43.4884 237.026 42.5349 228.997 49.8676Z" fill="url(#paint6_linear_402_253)"/>
<path d="M256.249 73.5791C256.378 73.5968 256.51 73.5762 256.628 73.5198C256.745 73.4634 256.843 73.3739 256.908 73.2625C260.447 67.2615 259.439 59.3597 254.458 54.0421C253.216 52.7138 251.767 51.5892 250.166 50.7105C250.091 50.6595 250.005 50.6246 249.915 50.6081C249.825 50.5916 249.733 50.5938 249.643 50.6146C249.554 50.6353 249.471 50.6742 249.398 50.7288C249.325 50.7833 249.264 50.8522 249.22 50.9312C249.175 51.0102 249.148 51.0975 249.139 51.1875C249.131 51.2775 249.142 51.3682 249.171 51.4538C249.2 51.5394 249.247 51.6181 249.309 51.6848C249.371 51.7515 249.446 51.8048 249.53 51.8411C251.009 52.6537 252.347 53.6934 253.495 54.9214C258.087 59.8208 259.024 67.0868 255.773 72.5979C255.73 72.6717 255.701 72.7531 255.69 72.8377C255.678 72.9222 255.683 73.0082 255.706 73.0907C255.728 73.1732 255.766 73.2505 255.818 73.3184C255.871 73.3862 255.936 73.4432 256.011 73.4861C256.083 73.5327 256.164 73.5643 256.249 73.5791Z" fill="white"/>
<path d="M194.8 86.9906C188.143 93.0695 188.106 103.714 194.717 110.764C201.328 117.814 212.083 118.601 218.739 112.522C225.395 106.443 225.432 95.7993 218.82 88.7493C212.209 81.6993 201.455 80.9117 194.8 86.9906Z" fill="#FF7600"/>
<path d="M197.233 88.919C191.93 93.7631 191.9 102.244 197.168 107.863C202.437 113.482 211.005 114.108 216.309 109.264C221.613 104.42 221.641 95.9389 216.374 90.321C211.107 84.7031 202.537 84.075 197.233 88.919Z" fill="#BFE3FF"/>
<path d="M215.206 104.803C215.335 104.821 215.467 104.8 215.585 104.744C215.702 104.688 215.8 104.598 215.865 104.486C218.253 100.439 217.576 95.1111 214.218 91.5321C213.382 90.6363 212.405 89.8784 211.326 89.2872C211.251 89.2362 211.165 89.2013 211.075 89.1848C210.985 89.1683 210.893 89.1704 210.804 89.1912C210.715 89.212 210.631 89.2509 210.558 89.3054C210.485 89.3599 210.424 89.4289 210.38 89.5079C210.335 89.5869 210.308 89.6742 210.3 89.7641C210.291 89.8541 210.302 89.9448 210.331 90.0305C210.36 90.1161 210.407 90.1948 210.469 90.2615C210.531 90.3282 210.606 90.3814 210.69 90.4178C211.647 90.9429 212.512 91.6151 213.255 92.4089C216.222 95.5747 216.829 100.269 214.73 103.827C214.686 103.901 214.658 103.982 214.646 104.067C214.634 104.151 214.64 104.237 214.662 104.32C214.684 104.402 214.723 104.48 214.775 104.548C214.828 104.615 214.893 104.672 214.968 104.715C215.04 104.76 215.121 104.79 215.206 104.803Z" fill="white"/>
<path d="M283.652 335.84C287.79 336.193 294.971 336.766 300.634 337.012C304.036 337.159 305.996 336.831 307.125 336.384C307.125 336.51 307.125 336.628 307.115 336.738C307.099 337.024 306.977 337.294 306.772 337.495C306.566 337.697 306.292 337.816 306.003 337.83C298.597 338.246 291.174 338.254 283.768 337.851C283.625 337.844 283.486 337.801 283.365 337.726C283.243 337.651 283.144 337.546 283.076 337.422C283.007 337.298 282.973 337.158 282.975 337.017C282.977 336.876 283.016 336.737 283.088 336.615C283.257 336.344 283.446 336.085 283.652 335.84Z" fill="black"/>
<path d="M300.629 337.012C294.966 336.761 287.785 336.193 283.647 335.84C287.72 330.913 300.629 327.593 300.629 327.593H304.276C306.784 331.162 307.147 334.559 307.119 336.386C305.997 336.831 304.036 337.159 300.629 337.012Z" fill="url(#paint7_linear_402_253)"/>
<path d="M304.894 321.716L304.553 328.382C304.536 328.734 304.395 329.069 304.155 329.331C303.915 329.592 303.59 329.763 303.237 329.814C302.318 329.949 301.38 329.873 300.496 329.59C300.185 329.489 299.907 329.308 299.691 329.065C299.475 328.822 299.33 328.526 299.269 328.208L298.091 321.719L304.894 321.716Z" fill="#FFC499"/>
<path d="M347.223 343.528C349.018 343.209 349.829 342.021 350.17 340.75L350.176 340.783C350.312 341.44 350.232 342.122 349.95 342.732C349.667 343.341 349.196 343.847 348.604 344.175C347.127 344.974 345.509 345.11 344.254 345.045C343.592 345.014 342.948 344.823 342.379 344.488C341.81 344.154 341.333 343.685 340.992 343.125L340.981 343.107C342.333 343.96 344.231 344.061 347.223 343.528Z" fill="black"/>
<path d="M338.763 323.77H341.77C346.353 323.651 349.228 335.976 350.171 340.749C349.83 342.021 349.026 343.209 347.225 343.528C344.232 344.061 342.334 343.96 340.988 343.107C338.512 338.953 337.285 332.868 336.696 329.318C336.013 325.279 338.763 323.77 338.763 323.77Z" fill="url(#paint8_linear_402_253)"/>
<path d="M341.383 317.583L343.053 324.139C343.152 324.531 343.113 324.943 342.942 325.31C342.772 325.676 342.48 325.974 342.115 326.156C341.181 326.629 339.866 327.127 338.657 326.982C338.379 326.946 338.117 326.835 337.9 326.66C337.683 326.484 337.52 326.253 337.429 325.991L334.976 319.093L341.383 317.583Z" fill="#FFC499"/>
<path d="M282.634 231.238C282.634 231.238 297.559 323.32 297.312 323.823C297.312 323.823 301.435 325.672 305.928 324.059C305.928 324.059 304.579 274.837 301.417 255.965C301.417 255.965 326.887 299.959 334.976 321.881C334.976 321.881 339.196 321.384 342.687 319.117C342.687 319.117 315.261 239.929 307.945 229.381L282.634 231.238Z" fill="url(#paint9_linear_402_253)"/>
<path d="M300.82 255.482C300.903 255.482 300.984 255.46 301.054 255.417C301.153 255.355 301.223 255.258 301.249 255.145C301.276 255.033 301.256 254.914 301.194 254.816L295.617 246.023C295.585 245.973 295.543 245.93 295.494 245.896C295.444 245.863 295.389 245.84 295.33 245.828L291.225 245.013C291.169 245.001 291.11 245.001 291.053 245.012C290.996 245.023 290.942 245.045 290.894 245.077C290.846 245.108 290.805 245.149 290.772 245.197C290.74 245.244 290.717 245.297 290.706 245.353C290.695 245.409 290.694 245.467 290.706 245.523C290.717 245.579 290.739 245.632 290.771 245.68C290.803 245.728 290.844 245.768 290.892 245.8C290.94 245.832 290.994 245.854 291.051 245.866L294.97 246.643L300.443 255.277C300.483 255.341 300.538 255.392 300.604 255.428C300.67 255.464 300.745 255.483 300.82 255.482Z" fill="#3C464F"/>
<path d="M214.144 141.076C214.144 141.076 224.216 143.268 230.341 146.059C231.554 146.613 232.525 147.577 233.08 148.778C234.913 152.739 240.393 162.67 251.027 167.41C249.499 169.42 247.031 173.586 245.957 180.601C239.574 175.911 234.061 168.079 231.415 155.233C231.415 155.233 229.4 156.315 226.887 155.108C225.559 154.471 224.026 153.568 222.874 152.858C221.723 152.161 220.888 151.054 220.541 149.766C220.103 148.07 220.362 146.578 220.362 144.978L215.185 143.395C215.185 143.395 213.625 142.814 214.144 141.076Z" fill="#FFC499"/>
<path d="M245.953 180.597C247.027 173.586 249.493 169.416 251.023 167.406C257.626 170.351 266.215 171.292 277.154 167.551C278.163 167.207 279.215 167.003 280.28 166.943C286.103 166.605 305.291 165.99 321.17 171.167C322.816 171.704 324.33 172.576 325.612 173.728C326.895 174.881 327.917 176.286 328.612 177.854C332.908 187.583 339.861 209.738 320.556 220.922C319.315 217.869 317.753 214.953 315.898 212.221C319.007 207.045 319.927 199.977 314.411 190.772C310.387 201.492 308.501 217.134 308.107 224.062C307.977 226.342 308.382 228.62 309.288 230.72L309.387 230.949C309.433 231.056 309.454 231.17 309.449 231.286C309.445 231.401 309.415 231.514 309.361 231.617C309.308 231.72 309.232 231.809 309.14 231.88C309.047 231.951 308.94 232 308.826 232.026C297.958 234.435 286.656 233.784 283.279 233.506C282.986 233.481 282.709 233.367 282.486 233.178C282.263 232.99 282.106 232.737 282.037 232.455C276.752 210.479 276.739 195.487 278.033 186.01C273.09 187.1 257.974 189.427 245.953 180.597Z" fill="url(#paint10_linear_402_253)"/>
<path d="M278.012 186.6C278.118 186.6 278.221 186.562 278.302 186.493C278.382 186.423 278.434 186.328 278.448 186.223C279.689 176.97 282.217 172.932 282.243 172.892C282.305 172.795 282.326 172.677 282.301 172.564C282.275 172.452 282.205 172.354 282.107 172.292C282.008 172.23 281.888 172.209 281.774 172.235C281.66 172.26 281.561 172.329 281.498 172.426C281.39 172.595 278.844 176.638 277.574 186.109C277.567 186.166 277.57 186.224 277.586 186.279C277.601 186.334 277.627 186.386 277.662 186.432C277.698 186.477 277.742 186.515 277.792 186.544C277.843 186.572 277.898 186.591 277.956 186.598L278.012 186.6Z" fill="#D26405"/>
<path d="M304.829 154.144C304.829 154.144 305.928 165.616 306.896 169.01C306.967 169.26 306.952 169.527 306.851 169.767C306.751 170.007 306.571 170.207 306.342 170.334C304.699 171.262 300.759 172.773 295.369 170.166C294.944 169.958 294.59 169.633 294.349 169.229C294.108 168.826 293.991 168.362 294.012 167.895L294.487 156.807L304.829 154.144Z" fill="#FFC499"/>
<path d="M294.252 139.466C294.252 139.466 290.737 147.438 290.5 151.623C290.263 155.807 289.354 158.523 294.252 159.365C299.15 160.207 303.289 157.799 305.522 153.63C305.522 153.63 309.027 147.207 308.24 144.577C307.454 141.946 294.252 139.466 294.252 139.466Z" fill="#FFC499"/>
<path d="M303.847 150.633L303.568 150.507C303.484 150.471 303.408 150.418 303.345 150.352C303.282 150.285 303.234 150.207 303.203 150.122C303.172 150.036 303.159 149.945 303.165 149.855C303.171 149.764 303.196 149.676 303.238 149.595C303.931 148.277 305.275 145.256 303.537 144.551C301.293 143.643 292.405 141.854 290.488 138.743C288.645 135.752 290.278 131.89 292.732 130.792C292.81 130.755 292.9 130.749 292.982 130.776C293.064 130.802 293.133 130.859 293.174 130.934L293.379 131.311C293.41 131.369 293.458 131.416 293.516 131.447C293.575 131.478 293.642 131.49 293.708 131.484C293.774 131.477 293.836 131.451 293.887 131.409C293.938 131.367 293.975 131.311 293.994 131.248C294.011 131.187 294.046 131.132 294.094 131.091C294.142 131.049 294.202 131.022 294.265 131.013C294.329 131.004 294.394 131.014 294.452 131.04C294.51 131.067 294.559 131.11 294.593 131.164C295.182 132.095 296.773 133.605 301.03 134.38C307.077 135.481 311.075 137.897 311.175 142.021C311.177 142.079 311.194 142.136 311.225 142.185C311.255 142.235 311.299 142.275 311.35 142.303C311.402 142.33 311.46 142.344 311.519 142.342C311.577 142.34 311.635 142.323 311.685 142.293C312.13 142.024 312.845 141.898 313.8 142.69C315.455 144.072 314.781 147.644 311.141 150.585C311.1 150.617 311.067 150.657 311.045 150.704C311.023 150.75 311.012 150.801 311.014 150.852C311.015 150.903 311.029 150.954 311.054 150.999C311.078 151.044 311.114 151.082 311.156 151.112C311.817 151.536 312.801 152.545 310.25 153.89C307.614 155.282 305.644 155.168 304.886 155.044C304.842 155.036 304.799 155.02 304.761 154.996C304.723 154.972 304.69 154.941 304.665 154.904C304.64 154.867 304.622 154.825 304.614 154.781C304.606 154.738 304.607 154.693 304.617 154.649L305.426 151.024C305.437 150.976 305.436 150.926 305.425 150.878C305.414 150.83 305.391 150.785 305.36 150.747C305.329 150.709 305.289 150.678 305.244 150.656C305.199 150.635 305.15 150.624 305.1 150.624L303.847 150.633Z" fill="#948981"/>
<path d="M303.694 151.394C303.694 151.394 305.035 146.301 307.349 147.73C309.663 149.158 306.149 153.436 304.288 153.627L303.694 151.394Z" fill="#FFC499"/>
<path d="M228.726 154.045C228.809 154.045 228.89 154.022 228.961 153.978C229.031 153.934 229.088 153.872 229.123 153.797C229.159 153.723 229.173 153.641 229.163 153.559C229.153 153.477 229.12 153.4 229.068 153.336C228.686 152.873 225.307 148.795 224.005 148.069C223.531 147.805 223.249 147.533 223.189 147.28C223.162 147.141 223.183 146.997 223.247 146.871L227.219 147.657L229.469 149.563C229.558 149.638 229.673 149.675 229.79 149.666C229.906 149.657 230.015 149.603 230.091 149.516C230.167 149.428 230.204 149.314 230.196 149.199C230.187 149.084 230.132 148.977 230.043 148.902L227.706 146.922C227.648 146.873 227.579 146.84 227.505 146.825L223.109 145.956C223.023 145.939 222.935 145.948 222.854 145.98C222.774 146.013 222.705 146.068 222.657 146.139C222.335 146.612 222.228 147.05 222.331 147.48C222.458 147.989 222.858 148.428 223.572 148.826C224.551 149.373 227.378 152.663 228.383 153.884C228.424 153.934 228.477 153.975 228.536 154.003C228.595 154.031 228.66 154.045 228.726 154.045Z" fill="#FF9E57"/>
<path d="M303.865 226.439L288.321 226.63L293.761 221.577C294.42 220.963 295.268 220.584 296.169 220.501C297.071 220.417 297.975 220.633 298.738 221.115C299.783 221.777 300.716 222.597 301.501 223.546C301.501 223.546 311.197 220.049 315.897 212.225C317.753 214.957 319.314 217.873 320.556 220.926C316.343 223.368 310.881 225.287 303.865 226.439Z" fill="#FFC499"/>
<path d="M302.19 228.418H302.1L262.642 228.375C262.409 228.381 262.177 228.341 261.959 228.258C261.742 228.174 261.544 228.048 261.376 227.887C261.209 227.726 261.076 227.534 260.985 227.322C260.894 227.11 260.848 226.881 260.848 226.651C260.848 226.421 260.894 226.193 260.985 225.98C261.076 225.768 261.209 225.576 261.376 225.415C261.544 225.254 261.742 225.128 261.959 225.045C262.177 224.961 262.409 224.921 262.642 224.927L302.1 224.968C302.555 224.97 302.991 225.147 303.316 225.461C303.64 225.775 303.828 226.202 303.84 226.65C303.851 227.099 303.685 227.534 303.376 227.864C303.067 228.193 302.641 228.391 302.187 228.415L302.19 228.418Z" fill="url(#paint11_linear_402_253)"/>
<path d="M227.178 193.437H260.036C261.219 193.434 262.379 193.762 263.381 194.382C264.383 195.003 265.187 195.89 265.7 196.943L280.89 228.401H240.056C239.296 228.403 238.552 228.181 237.922 227.762C237.291 227.343 236.801 226.747 236.517 226.051L224.738 196.944C224.581 196.553 224.525 196.131 224.573 195.713C224.621 195.296 224.772 194.896 225.013 194.55C225.254 194.203 225.577 193.921 225.955 193.727C226.332 193.533 226.752 193.433 227.178 193.437Z" fill="url(#paint12_linear_402_253)"/>
<path d="M249.16 214.259C250.516 213.817 251.032 211.711 250.312 209.553C249.592 207.396 247.908 206.005 246.551 206.446C245.194 206.887 244.679 208.994 245.399 211.151C246.119 213.309 247.803 214.7 249.16 214.259Z" fill="white"/>
<path d="M66.3825 274.01C66.4067 274.012 66.4309 274.012 66.455 274.01L97.7501 273.98C98.1214 273.98 98.4775 273.835 98.7401 273.576C99.0027 273.316 99.1502 272.965 99.1502 272.598C99.1502 272.232 99.0027 271.88 98.7401 271.621C98.4775 271.362 98.1214 271.217 97.7501 271.217L66.455 271.248C66.0992 271.261 65.7619 271.408 65.5118 271.658C65.2617 271.909 65.1176 272.243 65.1088 272.595C65.1001 272.946 65.2273 273.288 65.4646 273.55C65.702 273.812 66.0315 273.975 66.3863 274.005L66.3825 274.01Z" fill="url(#paint13_linear_402_253)"/>
<path d="M109.87 243.763C109.858 243.784 109.848 243.805 109.839 243.827L96.6698 271.841C96.5825 272.007 96.53 272.188 96.5157 272.375C96.5014 272.561 96.5255 272.748 96.5866 272.925C96.6477 273.102 96.7444 273.265 96.871 273.403C96.9976 273.542 97.1514 273.654 97.3232 273.733C97.4949 273.811 97.681 273.855 97.8702 273.86C98.0594 273.866 98.2477 273.834 98.4239 273.765C98.6001 273.697 98.7604 273.594 98.8951 273.463C99.0298 273.332 99.1362 273.175 99.2079 273.002L112.378 244.984C112.518 244.66 112.526 244.295 112.402 243.964C112.278 243.633 112.031 243.362 111.711 243.205C111.391 243.049 111.022 243.019 110.68 243.122C110.339 243.225 110.05 243.453 109.873 243.759L109.87 243.763Z" fill="url(#paint14_linear_402_253)"/>
<path d="M133.929 335.692H137.071V302.153H133.929V335.692Z" fill="#8598AA"/>
<path d="M149.26 336.339H121.739V334.626C121.739 334.545 121.772 334.467 121.83 334.41C121.888 334.352 121.967 334.32 122.05 334.32H148.95C149.032 334.32 149.111 334.352 149.169 334.41C149.228 334.467 149.26 334.545 149.26 334.626V336.339Z" fill="#8598AA"/>
<path d="M148.879 294.638H121.035C119.168 294.638 117.655 296.131 117.655 297.973V300.988C117.655 302.83 119.168 304.324 121.035 304.324H148.879C150.745 304.324 152.258 302.83 152.258 300.988V297.973C152.258 296.131 150.745 294.638 148.879 294.638Z" fill="#8598AA"/>
<path d="M158.698 279.791C158.698 279.791 163.367 280.505 168.618 283.969C169.024 284.234 169.347 284.605 169.551 285.041C169.755 285.477 169.831 285.961 169.772 286.437C169.143 291.352 166.559 307.258 158.037 322.794C157.589 323.615 157.454 324.567 157.655 325.477L159.135 332.279L161.882 334.82H154.809L150.099 322.241L152.113 321.613C152.873 321.375 153.539 320.907 154.016 320.276C154.493 319.646 154.759 318.883 154.774 318.096L155.01 304.604C154.809 298.591 158.744 294.445 158.744 294.445L147.449 293.902L158.698 279.791Z" fill="#FFC499"/>
<path d="M164.645 336.046C165.289 336.879 157.712 337.977 153.884 336.157C153.884 336.157 148.577 327.044 148.577 322.353C148.577 322.353 148.998 321.396 152.114 321.613C152.114 321.613 153.896 332.402 155.778 333.61C157.659 334.819 161.042 333.736 161.042 333.736C161.042 333.736 163.695 334.819 164.645 336.046Z" fill="url(#paint15_linear_402_253)"/>
<path d="M148.879 294.638C148.939 294.535 161.041 293.202 161.041 293.202C161.041 293.202 160.644 296.834 161.883 301.832C163.121 306.831 180.887 328.491 180.887 328.491L179.025 334.319C184.785 336.3 190.451 336.616 196.026 335.324L184.48 328.486C184.48 328.486 173.675 292.143 167.057 285.659L154.927 281.514L148.879 294.638Z" fill="#FFBB8A"/>
<path d="M121.741 273.491C121.741 273.491 114.768 283.726 114.195 288.395C113.623 293.065 116.105 294.961 123.422 295.273C130.74 295.586 150.267 295.581 150.267 295.581L166.941 281.523C166.941 281.523 154.795 277.244 151.637 276.034C148.479 274.824 121.741 273.491 121.741 273.491Z" fill="url(#paint16_linear_402_253)"/>
<path d="M179.729 332.357C179.729 332.357 177.723 334.274 179.077 336.407C179.077 336.407 194.966 339.187 199.281 337.926C199.281 337.926 198.39 335.908 193.528 333.61L193.886 333.883C193.984 333.957 194.057 334.06 194.092 334.178C194.127 334.295 194.122 334.421 194.08 334.536C194.037 334.651 193.958 334.749 193.854 334.816C193.75 334.884 193.628 334.916 193.504 334.909C190.301 334.73 183.677 334.151 179.729 332.357Z" fill="url(#paint17_linear_402_253)"/>
<path d="M86.3713 277.729C86.2555 278.294 74.9362 327.225 72.066 339.621C71.7351 341.051 72.9341 342.379 74.4844 342.301C74.9997 342.282 75.4944 342.096 75.8915 341.772C76.2886 341.447 76.5658 341.002 76.68 340.506L90.8377 277.395L86.3713 277.729Z" fill="#8598AA"/>
<path d="M58.4222 341.958C52.9694 341.958 50.5561 341.497 49.478 341.079C49.5833 341.528 49.8399 341.929 50.2058 342.217C50.5717 342.504 51.0254 342.66 51.4929 342.66H70.7839C70.9279 342.66 71.0699 342.627 71.1989 342.564C71.3279 342.501 71.4405 342.409 71.5279 342.296C71.6153 342.183 71.6751 342.052 71.7028 341.912C71.7305 341.773 71.7253 341.629 71.6876 341.492C69.4894 341.662 64.8181 341.958 58.4222 341.958Z" fill="black"/>
<path d="M71.6878 341.488C71.6576 341.371 71.6039 341.26 71.53 341.164C70.0611 339.312 67.1082 336.404 63.0937 336.459C57.2106 336.541 55.1601 337.172 50.5894 336.496L49.5113 340.023C49.4059 340.365 49.3945 340.728 49.4782 341.075C50.5563 341.497 52.9696 341.954 58.4224 341.954C64.8183 341.958 69.4896 341.661 71.6878 341.488Z" fill="#646E75"/>
<path d="M51.9185 332.693L50.5947 337.136C50.5947 337.136 53.5222 338.454 56.1061 337.396L56.6152 333.547L51.9185 332.693Z" fill="#FFC499"/>
<path d="M91.8943 339.16C87.6443 342.531 85.4716 343.664 84.3643 344.004C84.7318 344.288 85.1859 344.441 85.6525 344.437C86.1191 344.434 86.5709 344.275 86.9341 343.985L101.973 332.06C102.085 331.971 102.175 331.858 102.236 331.73C102.296 331.601 102.326 331.46 102.323 331.319C102.32 331.177 102.283 331.038 102.216 330.912C102.15 330.786 102.054 330.677 101.938 330.594C100.334 332.089 96.8812 335.206 91.8943 339.16Z" fill="black"/>
<path d="M101.94 330.594C101.843 330.521 101.732 330.469 101.613 330.441C99.2979 329.912 95.16 329.481 92.067 332.006C87.5332 335.706 86.3316 337.463 82.3413 339.764L83.7287 343.168C83.8623 343.497 84.0819 343.786 84.3651 344.004C85.4725 343.664 87.6452 342.531 91.8951 339.16C96.8808 335.206 100.334 332.089 101.94 330.594Z" fill="#646E75"/>
<path d="M23.5967 282.07C23.5967 282.07 56.2422 284.701 62.9399 287.813C69.6375 290.924 57.4743 334.535 57.4743 334.535C57.4743 334.535 55.6516 335.4 51.5951 334.158C51.5951 334.158 55.7547 301.975 52.6592 294.997L17.3115 289.291L23.5967 282.07Z" fill="#8598AA"/>
<path d="M79.0942 333.638C79.3972 333.91 82.3374 339.764 82.3374 339.764C82.3374 339.764 85.6111 339.065 86.2832 337.02L83.3366 331.737L79.0942 333.638Z" fill="#FFC499"/>
<path d="M3.9327 281.801C3.22933 283.683 2.88413 285.678 2.91443 287.685C2.97426 292.333 6.75582 296.102 11.4551 296.328L50.0485 298.065C50.4448 298.083 50.8248 298.226 51.1323 298.473C51.4399 298.72 51.6588 299.059 51.7567 299.438C52.6642 302.9 57.0962 313.532 78.7648 334.746C79.0454 335.021 79.4124 335.194 79.8055 335.236C80.1986 335.278 80.5946 335.187 80.9286 334.978L84.0139 333.056C84.1694 332.959 84.2806 332.806 84.324 332.629C84.3675 332.452 84.3398 332.266 84.2469 332.109L61.7738 294.236C60.5935 292.314 58.6965 290.926 56.4903 290.369L23.5966 282.071L3.9327 281.801Z" fill="#646E75"/>
<path d="M48.7058 223.491C48.7058 223.491 37.8333 229.856 33.6177 233.351L42.3302 238.149C42.3302 238.149 47.0397 232.781 51.5238 230.545L48.7058 223.491Z" fill="#FFC499"/>
<path d="M3.2334 282.071C3.2334 282.071 13.6515 284.583 23.5986 282.071C23.5986 282.071 37.5145 263.604 42.8973 258.579C42.8973 258.579 51.485 271.953 70.5991 273.848L71.6644 271.497C71.6644 271.497 56.4452 264.581 51.7612 253.941C47.0772 243.301 45.1947 238.767 40.9333 235.99C38.2794 234.262 36.6897 233.082 35.8687 232.437C35.6503 232.264 35.3833 232.162 35.1041 232.145C34.8249 232.127 34.547 232.195 34.3082 232.339C29.7846 235.06 8.50291 249.445 3.2334 282.071Z" fill="url(#paint18_linear_402_253)"/>
<path d="M42.3314 258.666C42.1754 258.666 42.0216 258.63 41.8817 258.562C41.7417 258.494 41.6195 258.396 41.5244 258.274C38.1756 253.963 36.3058 249.214 36.2333 249.014C36.1745 248.889 36.1425 248.754 36.139 248.616C36.1355 248.478 36.1607 248.341 36.2131 248.214C36.2654 248.086 36.3438 247.971 36.4432 247.874C36.5427 247.778 36.6613 247.702 36.7914 247.653C36.9216 247.603 37.0607 247.581 37.2001 247.587C37.3394 247.593 37.4761 247.627 37.6016 247.687C37.7271 247.747 37.8387 247.832 37.9296 247.936C38.0204 248.041 38.0886 248.163 38.1298 248.294C38.1476 248.341 39.9741 252.982 43.1371 257.053C43.3004 257.264 43.3722 257.53 43.3369 257.794C43.3016 258.057 43.162 258.296 42.9487 258.458C42.7721 258.593 42.5548 258.666 42.3314 258.666Z" fill="url(#paint19_linear_402_253)"/>
<path d="M69.4478 270.273L71.5988 269.708L78.131 268.214C78.5192 268.125 78.9214 268.113 79.3145 268.178C79.7076 268.242 80.084 268.383 80.4221 268.591L86.0391 272.078L70.5284 272.053L69.4478 270.273Z" fill="#FFC499"/>
<path d="M54.9031 215.927C55.0303 216.112 58.8972 230.484 58.8972 230.484L50.5347 232.487L44.8223 219.402C44.8223 219.402 52.7367 212.824 54.9031 215.927Z" fill="#FFC499"/>
<path d="M47.9409 221.414L50.4025 228.535C50.4332 228.624 50.476 228.708 50.5298 228.786C50.8684 229.272 52.159 230.861 53.7259 229.459C55.1489 228.185 56.465 227.045 57.6716 226.849C57.933 226.805 58.2012 226.86 58.4239 227.002C58.6466 227.144 58.8077 227.362 58.8757 227.615C59.2258 228.921 59.9615 231.877 60.202 234.543C60.2247 234.804 60.1473 235.064 59.9852 235.272C59.823 235.479 59.5879 235.619 59.3263 235.664C57.6946 235.953 54.235 236.465 51.3546 236.234C51.1634 236.219 50.9797 236.154 50.8229 236.045C50.6661 235.936 50.542 235.787 50.4636 235.615C49.6885 233.892 47.3108 228.668 46.4198 227.313C45.5836 226.042 43.5 226.057 42.6255 226.123C42.4841 226.134 42.3419 226.116 42.2075 226.071C42.0731 226.027 41.9494 225.955 41.844 225.861C41.0803 225.192 39.6509 223.488 41.7167 221.49C41.8193 221.391 41.9007 221.273 41.9561 221.142C42.0114 221.012 42.0396 220.872 42.0389 220.73C42.0382 220.589 42.0086 220.449 41.9519 220.319C41.8953 220.189 41.8127 220.072 41.7091 219.975C40.8385 219.149 39.9144 217.693 41.3985 215.914C42.9056 214.108 44.867 214.418 46.066 214.864C46.3003 214.95 46.5576 214.951 46.7929 214.868C47.0282 214.785 47.2264 214.623 47.3528 214.411C47.5068 214.159 47.7716 213.976 48.226 214.019C48.3716 214.03 48.5181 214.011 48.656 213.964C48.7938 213.916 48.92 213.84 49.0265 213.741C49.1329 213.642 49.2173 213.523 49.274 213.39C49.3308 213.257 49.3588 213.114 49.3563 212.97C49.3486 211.801 49.7877 210.332 51.8472 209.721C55.5027 208.641 57.7366 212.138 57.9326 214.732C58.1286 217.326 54.1001 218.275 51.739 218.075C49.943 217.923 48.59 219.668 48.0478 220.512C47.9623 220.645 47.9083 220.795 47.8897 220.951C47.8712 221.107 47.8887 221.266 47.9409 221.414Z" fill="url(#paint20_linear_402_253)"/>
<path d="M47.3436 229.901C47.3436 229.901 46.804 225.395 44.91 225.155C43.016 224.915 41.1539 226.433 43.0122 228.979C45.3224 232.145 47.3436 229.901 47.3436 229.901Z" fill="#FFAD72"/>
<path d="M169.979 277.646C170.095 278.211 181.414 327.142 184.283 339.538C184.614 340.968 183.416 342.294 181.865 342.216C181.349 342.198 180.855 342.012 180.457 341.688C180.06 341.363 179.783 340.918 179.669 340.421L165.51 277.312L169.979 277.646Z" fill="#8598AA"/>
<path d="M16.2841 340.543H19.4268L19.4268 304.323H16.2841L16.2841 340.543Z" fill="#8598AA"/>
<path d="M31.6167 341.189H4.09435V339.477C4.09435 339.395 4.12707 339.317 4.18531 339.26C4.24355 339.203 4.32255 339.17 4.40491 339.17H31.3049C31.3872 339.17 31.4662 339.203 31.5245 339.26C31.5827 339.317 31.6154 339.395 31.6154 339.477V341.189H31.6167Z" fill="#8598AA"/>
<path d="M31.2335 295.958H3.38912C1.52276 295.958 0.00976562 297.452 0.00976562 299.294V302.309C0.00976562 304.151 1.52276 305.644 3.38912 305.644H31.2335C33.0999 305.644 34.6129 304.151 34.6129 302.309V299.294C34.6129 297.452 33.0999 295.958 31.2335 295.958Z" fill="#8598AA"/>
<path d="M140.596 272.136C140.596 272.136 148.714 264.506 152.711 259.448C153.774 258.101 154.496 256.522 154.816 254.843C155.137 253.165 155.046 251.435 154.551 249.798C152.726 243.732 149.484 237.447 149.187 236.469C148.734 234.969 139.631 235.032 139.631 235.032C139.631 235.032 121.716 246.507 114.684 265.944L122.588 268.374C122.588 268.374 127.266 260.629 131.887 255.705C131.887 255.705 123.89 266.132 123.614 270.403L140.596 272.136Z" fill="url(#paint21_linear_402_253)"/>
<path d="M150.288 228.094C150.194 228.405 147.818 236.18 147.632 236.342C147.446 236.504 142.421 236.769 140.055 235.174L144.068 226.883L150.288 228.094Z" fill="#FFC499"/>
<path d="M147.38 212.573C147.38 212.573 151.824 213.945 155.326 219.756C158.828 225.567 156.935 228.586 154.249 229.233C151.564 229.88 147.487 230.21 142.794 226.688C138.101 223.165 141.624 210.999 147.38 212.573Z" fill="#FFC499"/>
<path d="M145.371 223.164C145.371 223.164 141.275 214.564 149.267 213.692L151.278 214.811C151.278 214.811 153.73 209.592 148.678 207.695C143.626 205.798 136.642 208.586 135.22 215.19C133.798 221.794 135.406 225.817 139.119 228.557C142.832 231.297 143.897 227.685 143.897 227.685C143.897 227.685 141.757 224.996 142.363 223.389C142.969 221.782 144.895 223.467 144.895 223.467L145.371 223.164Z" fill="url(#paint22_linear_402_253)"/>
<path d="M144.569 224.242C144.569 224.242 142.491 219.809 140.496 221.845C138.502 223.882 142.678 225.914 144.297 226.549L144.569 224.242Z" fill="#FFB077"/>
<path d="M157.136 272.703L151.171 267.028L142.925 270.469C142.925 270.469 134.71 271.725 130.01 270.469L125.308 269.213L114.685 265.947L113.016 270.595C112.811 271.17 112.801 271.795 112.988 272.376C113.175 272.958 113.549 273.462 114.054 273.815C114.973 274.459 116.05 275.168 116.737 275.464C118.137 276.068 151.231 275.046 151.231 275.046L157.136 272.703Z" fill="#FFC499"/>
<path d="M135.946 216.134C136.873 215.004 136.031 213.309 134.556 213.225C129.794 212.951 122.719 214.373 120.682 224.573C118.391 236.061 116.736 241.855 114.573 243.051C113.151 243.836 113.255 245.88 114.799 246.393C115.945 246.77 117.523 246.795 119.716 246.094C136.638 240.686 130.507 222.796 135.946 216.134Z" fill="url(#paint23_linear_402_253)"/>
<path d="M134.562 275.385H134.642L169.245 275.348C169.656 275.348 170.05 275.187 170.34 274.901C170.631 274.614 170.794 274.225 170.794 273.82C170.794 273.414 170.631 273.025 170.34 272.739C170.05 272.452 169.656 272.291 169.245 272.291L134.642 272.328C134.24 272.331 133.854 272.489 133.568 272.767C133.281 273.045 133.115 273.423 133.105 273.82C133.095 274.216 133.242 274.601 133.514 274.893C133.787 275.185 134.164 275.361 134.566 275.384L134.562 275.385Z" fill="url(#paint24_linear_402_253)"/>
<path d="M200.351 244.37H171.533C170.492 244.371 169.473 244.663 168.594 245.214C167.715 245.764 167.013 246.55 166.569 247.479L153.243 275.36H189.056C189.726 275.36 190.38 275.162 190.933 274.79C191.487 274.419 191.915 273.891 192.161 273.277L202.493 247.476C202.632 247.132 202.682 246.759 202.641 246.391C202.599 246.022 202.467 245.669 202.256 245.363C202.045 245.057 201.761 244.806 201.429 244.633C201.097 244.46 200.727 244.369 200.351 244.37Z" fill="url(#paint25_linear_402_253)"/>
<path d="M180.05 258.665C179.425 260.58 179.886 262.44 181.08 262.82C182.273 263.199 183.753 261.953 184.371 260.038C184.99 258.124 184.535 256.263 183.341 255.885C182.147 255.507 180.674 256.751 180.05 258.665Z" fill="white"/>
<path d="M78.2096 276.729C78.0645 277.321 64.2378 328.499 60.7324 341.473C60.6429 341.772 60.6152 342.086 60.6508 342.395C60.6865 342.705 60.7848 343.005 60.9399 343.276C61.095 343.548 61.3038 343.786 61.5539 343.976C61.804 344.166 62.0903 344.305 62.3958 344.384C62.7013 344.463 63.0197 344.481 63.3323 344.436C63.6449 344.392 63.9452 344.286 64.2154 344.124C64.4856 343.963 64.7202 343.75 64.9053 343.497C65.0904 343.244 65.2222 342.958 65.2929 342.654L82.6861 276.612L78.2096 276.729Z" fill="#8598AA"/>
<path d="M178.845 278.061C178.99 278.652 192.815 329.831 196.321 342.806C196.406 343.103 196.431 343.415 196.393 343.722C196.355 344.029 196.255 344.326 196.1 344.594C195.944 344.863 195.736 345.098 195.487 345.286C195.239 345.475 194.954 345.612 194.651 345.691C194.348 345.769 194.032 345.787 193.722 345.744C193.411 345.7 193.113 345.596 192.844 345.438C192.575 345.279 192.34 345.069 192.155 344.82C191.969 344.571 191.835 344.287 191.761 343.987L174.926 278.061H178.845Z" fill="#8598AA"/>
<path d="M60.4666 273.415H199.507C201.449 273.415 203.147 273.87 203.632 274.519L205.573 277.117C206.272 278.053 204.219 278.963 201.423 278.958L58.7534 278.674C55.9875 278.674 53.9701 277.769 54.646 276.842L56.3338 274.528C56.8111 273.877 58.5141 273.415 60.4666 273.415Z" fill="#8598AA"/>
<defs>
<linearGradient id="paint0_linear_402_253" x1="382.523" y1="399.995" x2="138.892" y2="137.22" gradientUnits="userSpaceOnUse">
<stop stop-color="#F0F0F1"/>
<stop offset="1" stop-color="#E9EFFD"/>
</linearGradient>
<linearGradient id="paint1_linear_402_253" x1="1742.39" y1="-337.441" x2="1663.57" y2="-312.139" gradientUnits="userSpaceOnUse">
<stop stop-color="#FF7600"/>
<stop offset="1" stop-color="#FF9840"/>
</linearGradient>
<linearGradient id="paint2_linear_402_253" x1="273.889" y1="98.1598" x2="358.337" y2="15.1318" gradientUnits="userSpaceOnUse">
<stop stop-color="#646E75"/>
<stop offset="1" stop-color="#4042E2"/>
</linearGradient>
<linearGradient id="paint3_linear_402_253" x1="209.157" y1="32.3205" x2="293.603" y2="-50.7075" gradientUnits="userSpaceOnUse">
<stop stop-color="#8598AA"/>
<stop offset="1" stop-color="#8598AA"/>
</linearGradient>
<linearGradient id="paint4_linear_402_253" x1="311.514" y1="-12.6503" x2="198.535" y2="118.265" gradientUnits="userSpaceOnUse">
<stop stop-color="#CEDFEB"/>
<stop offset="1" stop-color="#5C6A77"/>
</linearGradient>
<linearGradient id="paint5_linear_402_253" x1="1053.43" y1="-1574.19" x2="1018.74" y2="-1500.33" gradientUnits="userSpaceOnUse">
<stop stop-color="#FF7600"/>
<stop offset="1" stop-color="#FF740F"/>
</linearGradient>
<linearGradient id="paint6_linear_402_253" x1="260.064" y1="80.1678" x2="231.56" y2="49.1643" gradientUnits="userSpaceOnUse">
<stop stop-color="#BFE3FF"/>
<stop offset="1" stop-color="#55AEF4"/>
</linearGradient>
<linearGradient id="paint7_linear_402_253" x1="307.127" y1="332.32" x2="283.652" y2="332.32" gradientUnits="userSpaceOnUse">
<stop/>
<stop offset="1" stop-color="#646E75"/>
</linearGradient>
<linearGradient id="paint8_linear_402_253" x1="350.17" y1="333.813" x2="336.584" y2="333.813" gradientUnits="userSpaceOnUse">
<stop/>
<stop offset="1" stop-color="#646E75"/>
</linearGradient>
<linearGradient id="paint9_linear_402_253" x1="308.703" y1="225.961" x2="314.877" y2="304.778" gradientUnits="userSpaceOnUse">
<stop stop-color="#646F76"/>
<stop offset="1" stop-color="#213141"/>
</linearGradient>
<linearGradient id="paint10_linear_402_253" x1="-285.407" y1="-1249.59" x2="-255.676" y2="-1173.44" gradientUnits="userSpaceOnUse">
<stop stop-color="#FF7600"/>
<stop offset="1" stop-color="#FF9840"/>
</linearGradient>
<linearGradient id="paint11_linear_402_253" x1="308.878" y1="218.08" x2="277.642" y2="228.459" gradientUnits="userSpaceOnUse">
<stop/>
<stop offset="1" stop-color="#646E75"/>
</linearGradient>
<linearGradient id="paint12_linear_402_253" x1="265.776" y1="198.072" x2="243.666" y2="221.75" gradientUnits="userSpaceOnUse">
<stop/>
<stop offset="1" stop-color="#646E75"/>
</linearGradient>
<linearGradient id="paint13_linear_402_253" x1="87.092" y1="190.279" x2="84.3555" y2="245.336" gradientUnits="userSpaceOnUse">
<stop offset="0.645833" stop-color="#8598AA"/>
<stop offset="0.796875"/>
</linearGradient>
<linearGradient id="paint14_linear_402_253" x1="28.1421" y1="219.519" x2="-20.9327" y2="193.243" gradientUnits="userSpaceOnUse">
<stop/>
<stop offset="1" stop-color="#8598AA"/>
</linearGradient>
<linearGradient id="paint15_linear_402_253" x1="156.122" y1="321.673" x2="159.324" y2="371.411" gradientUnits="userSpaceOnUse">
<stop stop-color="#5C6A77"/>
<stop offset="1" stop-color="#646E75"/>
</linearGradient>
<linearGradient id="paint16_linear_402_253" x1="150.518" y1="322.374" x2="142.253" y2="291.494" gradientUnits="userSpaceOnUse">
<stop stop-color="#646E75"/>
<stop offset="1" stop-color="#818181"/>
</linearGradient>
<linearGradient id="paint17_linear_402_253" x1="187.835" y1="319.632" x2="191.035" y2="369.37" gradientUnits="userSpaceOnUse">
<stop stop-color="#818181"/>
<stop offset="1" stop-color="#646E75"/>
</linearGradient>
<linearGradient id="paint18_linear_402_253" x1="65.9329" y1="157.325" x2="55.2194" y2="203.248" gradientUnits="userSpaceOnUse">
<stop stop-color="#FF740F"/>
<stop offset="1" stop-color="#FF9E4A"/>
</linearGradient>
<linearGradient id="paint19_linear_402_253" x1="56.2561" y1="202.754" x2="30.2695" y2="284.252" gradientUnits="userSpaceOnUse">
<stop stop-color="#FF7600"/>
<stop offset="1" stop-color="#FF9840"/>
</linearGradient>
<linearGradient id="paint20_linear_402_253" x1="44.4082" y1="229.802" x2="61.2576" y2="218.025" gradientUnits="userSpaceOnUse">
<stop stop-color="#FF7600"/>
<stop offset="1" stop-color="#7B3900"/>
</linearGradient>
<linearGradient id="paint21_linear_402_253" x1="195.026" y1="174.213" x2="175.935" y2="201.964" gradientUnits="userSpaceOnUse">
<stop stop-color="#FF9840"/>
<stop offset="1" stop-color="#FF7600"/>
</linearGradient>
<linearGradient id="paint22_linear_402_253" x1="116.792" y1="195.589" x2="154.94" y2="228.513" gradientUnits="userSpaceOnUse">
<stop stop-color="#C4C4C4"/>
<stop offset="1" stop-color="#818181"/>
</linearGradient>
<linearGradient id="paint23_linear_402_253" x1="102.754" y1="211.854" x2="140.902" y2="244.777" gradientUnits="userSpaceOnUse">
<stop stop-color="#646E75"/>
<stop offset="1" stop-color="#E5E5E5"/>
</linearGradient>
<linearGradient id="paint24_linear_402_253" x1="128.511" y1="266.713" x2="155.939" y2="275.845" gradientUnits="userSpaceOnUse">
<stop stop-color="#09005D"/>
<stop offset="1" stop-color="#1A0F91"/>
</linearGradient>
<linearGradient id="paint25_linear_402_253" x1="166.425" y1="248.528" x2="185.934" y2="269.42" gradientUnits="userSpaceOnUse">
<stop/>
<stop offset="1" stop-color="#8598AA"/>
</linearGradient>
</defs>
</svg>
