<svg width="61" height="61" viewBox="0 0 61 61" fill="none" xmlns="http://www.w3.org/2000/svg">
<g clip-path="url(#clip0_404_1782)">
<path d="M30.9451 60.4863L39.3488 12.9805C47.3488 12.9805 49.8809 13.865 50.2478 17.4768C50.2478 17.4768 55.6423 15.4497 58.3212 11.3589C47.7524 6.42033 37.1102 6.1992 37.1102 6.1992L30.9451 13.8281L24.7432 6.23606C24.7432 6.23606 14.101 6.45719 3.53223 11.3957C6.24782 15.4866 11.6056 17.5136 11.6056 17.5136C11.9726 13.9018 14.5047 13.0173 22.468 13.0173L30.9451 60.4863Z" fill="white"/>
<path d="M30.9447 4.02477C39.4952 3.95106 49.2933 5.35154 59.3117 9.73725C60.6695 7.30484 60.9998 6.23605 60.9998 6.23605C50.0273 1.88719 39.7887 0.412999 30.9447 0.376144C22.1007 0.412999 11.8621 1.88719 0.889648 6.27291C0.889648 6.27291 1.36671 7.59968 2.57772 9.77411C12.5961 5.35154 22.3942 3.95106 30.9447 4.02477Z" fill="white"/>
</g>
<defs>
<clipPath id="clip0_404_1782">
<rect width="60.1101" height="60.1101" fill="white" transform="translate(0.889648 0.376144)"/>
</clipPath>
</defs>
</svg>
